<?xml version="1.0" encoding="utf-8"?>
<svg version="1.1" xmlns:xlink="http://www.w3.org/1999/xlink" width="9px" height="20px" xmlns="http://www.w3.org/2000/svg">
  <g transform="matrix(1 0 0 1 -357 -244 )">
    <path d="M 9 10  C 9 10.2150537634409  8.94498069498069 10.4011579818031  8.83494208494209 10.5583126550868  L 2.38899613899614 19.7642679900744  C 2.27895752895753 19.9214226633581  2.14864864864865 20  1.9980694980695 20  C 1.84749034749035 20  1.71718146718147 19.9214226633581  1.60714285714286 19.7642679900744  L 0.165057915057915 17.7047146401985  C 0.0550193050193051 17.5475599669148  0 17.3614557485525  0 17.1464019851117  C 0 16.9313482216708  0.0550193050193051 16.7452440033085  0.165057915057915 16.5880893300248  L 4.77799227799228 10  L 0.165057915057915 3.41191066997519  C 0.0550193050193051 3.25475599669148  0 3.0686517783292  0 2.85359801488834  C 0 2.63854425144747  0.0550193050193051 2.45244003308519  0.165057915057915 2.29528535980149  L 1.60714285714286 0.235732009925558  C 1.71718146718147 0.0785773366418518  1.84749034749035 0  1.9980694980695 0  C 2.14864864864865 0  2.27895752895753 0.0785773366418518  2.38899613899614 0.235732009925558  L 8.83494208494209 9.44168734491315  C 8.94498069498069 9.59884201819686  9 9.78494623655914  9 10  Z " fill-rule="nonzero" fill="#999999" stroke="none" transform="matrix(1 0 0 1 357 244 )" />
  </g>
</svg>