<?xml version="1.0" encoding="utf-8"?>
<svg version="1.1" xmlns:xlink="http://www.w3.org/1999/xlink" width="12px" height="12px" viewBox="119 210  12 12" xmlns="http://www.w3.org/2000/svg">
  <path d="M 125 210  C 128.36 210  131 212.64  131 216  C 131 219.36  128.36 222  125 222  C 121.64 222  119 219.36  119 216  C 119 212.64  121.64 210  125 210  Z " fill-rule="nonzero" fill="#ffffff" stroke="none" />
  <path d="M 125 210.5  C 128.08 210.5  130.5 212.92  130.5 216  C 130.5 219.08  128.08 221.5  125 221.5  C 121.92 221.5  119.5 219.08  119.5 216  C 119.5 212.92  121.92 210.5  125 210.5  Z " stroke-width="1" stroke="#797979" fill="none" />
  <path d="M 125 219  C 123.32 219  122 217.68  122 216  C 122 214.32  123.32 213  125 213  C 126.68 213  128 214.32  128 216  C 128 217.68  126.68 219  125 219  " fill-rule="nonzero" fill="#797979" stroke="none" />
</svg>