<?xml version="1.0" encoding="utf-8"?>
<svg version="1.1" xmlns:xlink="http://www.w3.org/1999/xlink" width="12px" height="12px" viewBox="114 22  12 12" xmlns="http://www.w3.org/2000/svg">
  <path d="M 120 22  C 123.36 22  126 24.64  126 28  C 126 31.36  123.36 34  120 34  C 116.64 34  114 31.36  114 28  C 114 24.64  116.64 22  120 22  Z " fill-rule="nonzero" fill="#f0f0f0" stroke="none" />
  <path d="M 120 22.5  C 123.08 22.5  125.5 24.92  125.5 28  C 125.5 31.08  123.08 33.5  120 33.5  C 116.92 33.5  114.5 31.08  114.5 28  C 114.5 24.92  116.92 22.5  120 22.5  Z " stroke-width="1" stroke="#797979" fill="none" />
  <path d="M 120 31  C 118.32 31  117 29.68  117 28  C 117 26.32  118.32 25  120 25  C 121.68 25  123 26.32  123 28  C 123 29.68  121.68 31  120 31  " fill-rule="nonzero" fill="#797979" stroke="none" />
</svg>