<?xml version="1.0" encoding="utf-8"?>
<svg version="1.1" xmlns:xlink="http://www.w3.org/1999/xlink" width="12px" height="12px" viewBox="113 117  12 12" xmlns="http://www.w3.org/2000/svg">
  <path d="M 119 117  C 122.36 117  125 119.64  125 123  C 125 126.36  122.36 129  119 129  C 115.64 129  113 126.36  113 123  C 113 119.64  115.64 117  119 117  Z " fill-rule="nonzero" fill="#f0f0f0" stroke="none" />
  <path d="M 119 117.5  C 122.08 117.5  124.5 119.92  124.5 123  C 124.5 126.08  122.08 128.5  119 128.5  C 115.92 128.5  113.5 126.08  113.5 123  C 113.5 119.92  115.92 117.5  119 117.5  Z " stroke-width="1" stroke="#797979" fill="none" />
  <path d="M 119 126  C 117.32 126  116 124.68  116 123  C 116 121.32  117.32 120  119 120  C 120.68 120  122 121.32  122 123  C 122 124.68  120.68 126  119 126  " fill-rule="nonzero" fill="#797979" stroke="none" />
</svg>