<?xml version="1.0" encoding="utf-8"?>
<svg version="1.1" xmlns:xlink="http://www.w3.org/1999/xlink" width="88px" height="32px" xmlns="http://www.w3.org/2000/svg">
  <g transform="matrix(1 0 0 1 -352 -56 )">
    <path d="M 353 61  A 4 4 0 0 1 357 57 L 435 57  A 4 4 0 0 1 439 61 L 439 83  A 4 4 0 0 1 435 87 L 357 87  A 4 4 0 0 1 353 83 L 353 61  Z " fill-rule="nonzero" fill="#ffffff" stroke="none" />
    <path d="M 352.5 61  A 4.5 4.5 0 0 1 357 56.5 L 435 56.5  A 4.5 4.5 0 0 1 439.5 61 L 439.5 83  A 4.5 4.5 0 0 1 435 87.5 L 357 87.5  A 4.5 4.5 0 0 1 352.5 83 L 352.5 61  Z " stroke-width="1" stroke="#002fa7" fill="none" stroke-opacity="0.996078431372549" />
  </g>
</svg>