<?xml version="1.0" encoding="utf-8"?>
<svg version="1.1" xmlns:xlink="http://www.w3.org/1999/xlink" width="6px" height="12px" xmlns="http://www.w3.org/2000/svg">
  <g transform="matrix(1 0 0 1 -18 -60 )">
    <path d="M 5.86751217729419 11.4207685916523  C 5.86751217729419 11.2750985589495  5.81971186783186 11.1350518851994  5.73408 11.0298352941176  L 1.29696 5.96781176470588  L 5.72736 1.11924705882353  C 5.82490236256371 1.01240822872522  5.88030389574722 0.862673331768723  5.88030389574722 0.705882352941175  C 5.88030389574722 0.393962389922881  5.66537196856555 0.141101299120913  5.40024 0.141101299120913  C 5.27884950810836 0.141101299120913  5.16196601322634 0.195203989048933  5.07312 0.292517647058822  L 0.273120000000001 5.54597647058823  C 0.175372745909604 5.65282039870636  0.119837029807571 5.80270848315304  0.119837029807571 5.95967944217194  C 0.119837029807571 6.11232080388702  0.172360695874835 6.25846079586811  0.265440000000001 6.3648  L 5.06544 11.8407529411765  C 5.15368854055759 11.9342810277372  5.26825559790877 11.9860391798876  5.38703217729419 11.9860391798876  C 5.65239395389289 11.9860391798876  5.86751217729419 11.7329589170625  5.86751217729419 11.4207685916523  Z " fill-rule="nonzero" fill="#000000" stroke="none" transform="matrix(1 0 0 1 18 60 )" />
  </g>
</svg>