<?xml version="1.0" encoding="utf-8"?>
<svg version="1.1" xmlns:xlink="http://www.w3.org/1999/xlink" width="24px" height="15px" xmlns="http://www.w3.org/2000/svg">
  <g transform="matrix(1 0 0 1 -1824 -492 )">
    <path d="M 0.431394594594595 7.99129411764706  L 0.431394594594595 7.98988235294118  L 11.6884756756757 14.724  C 11.8568528091303 14.8245415823611  12.0653093530319 14.8245415823611  12.2336864864865 14.724  L 23.4907675675676 7.98988235294117  C 23.6811660497574 7.87040551967103  23.7957932586019 7.65743680288786  23.7924324324324 7.42941176470588  C 23.7961418153868 7.20167389279323  23.6813636057152 6.98896177965213  23.4907675675676 6.87035294117647  L 12.2336864864865 0.164470588235295  C 12.0665722397711 0.0629150656470787  11.8583574899586 0.0629150656470795  11.6912432432432 0.164470588235295  L 0.431394594594595 6.86611764705882  C 0.240367392690389 6.98498274348331  0.125525544824911 7.19835024339426  0.12972972972973 7.42658823529412  C 0.12972972972973 7.66235294117647  0.244583783783784 7.87835294117647  0.431394594594595 7.99129411764706  Z M 1.91481081081081 7.42941176470588  L 11.9610810810811 1.45058823529412  L 22.0073513513514 7.43364705882353  L 11.9610810810811 13.4421176470588  L 1.91481081081081 7.42941176470588  Z " fill-rule="nonzero" fill="#ffffff" stroke="none" transform="matrix(1 0 0 1 1824 492 )" />
  </g>
</svg>