<?xml version="1.0" encoding="utf-8"?>
<svg version="1.1" xmlns:xlink="http://www.w3.org/1999/xlink" width="24px" height="25px" xmlns="http://www.w3.org/2000/svg">
  <g transform="matrix(1 0 0 1 -1824 -408 )">
    <path d="M 23.538495412844 24.5362831858407  C 23.8825613884461 24.1909524683062  23.8829556635165 23.630775113119  23.539376146789 23.2849557522124  L 19.7161100917431 19.4433628318584  C 21.6827889908257 17.3761061946903  22.8990825688073 14.583185840708  22.8990825688073 11.5044247787611  C 22.8990825688073 5.16106194690266  17.7626422018349 0  11.4495412844037 0  C 5.13644036697248 0  0 5.16106194690266  0 11.5044247787611  C 0 17.8477876106195  5.13644036697248 23.0088495575221  11.4495412844037 23.0088495575221  C 14.0644403669725 23.0088495575221  16.4706055045872 22.1132743362832  18.4002935779817 20.624778761062  L 22.2931376146789 24.5362831858407  C 22.4579538746809 24.7028400348136  22.6820612393022 24.7964910190301  22.9158165137615 24.7964910190301  C 23.1495717882207 24.7964910190301  23.3736791528421 24.7028400348136  23.538495412844 24.5362831858407  Z M 11.4495412844037 21.2389380530973  C 6.10788990825688 21.2389380530973  1.76146788990826 16.8716814159292  1.76146788990826 11.5044247787611  C 1.76146788990826 6.13716814159292  6.10788990825688 1.76991150442478  11.4495412844037 1.76991150442478  C 16.7911926605505 1.76991150442478  21.1376146788991 6.13716814159292  21.1376146788991 11.5044247787611  C 21.1376146788991 16.8716814159292  16.7911926605505 21.2389380530973  11.4495412844037 21.2389380530973  Z M 15.4621651376147 10.6194690265487  L 7.48623853211009 10.6194690265487  C 6.99982260565361 10.6194690265487  6.60550458715596 11.0156772125391  6.60550458715596 11.5044247787611  C 6.60550458715596 11.993172344983  6.99982260565361 12.3893805309735  7.48623853211009 12.3893805309735  L 15.4621651376147 12.3893805309735  C 15.9485810640712 12.3893805309735  16.3428990825688 11.993172344983  16.3428990825688 11.5044247787611  C 16.3428990825688 11.0156772125391  15.9485810640712 10.6194690265487  15.4621651376147 10.6194690265487  Z " fill-rule="nonzero" fill="#ffffff" stroke="none" transform="matrix(1 0 0 1 1824 408 )" />
  </g>
</svg>