<?xml version="1.0" encoding="utf-8"?>
<svg version="1.1" xmlns:xlink="http://www.w3.org/1999/xlink" width="24px" height="8px" xmlns="http://www.w3.org/2000/svg">
  <g transform="matrix(1 0 0 1 -1824 -504 )">
    <path d="M 12.3139459459459 7.78745263157895  C 12.1022664998705 7.90783253682077  11.8412828257386 7.91141163094341  11.6262054054054 7.79688421052632  L 0.47705945945946 1.66635789473684  C 0.262069055271527 1.54625725369217  0.129483083344874 1.32335527438201  0.129483083344874 1.08201657210996  C 0.129483083344874 0.709951056434477  0.439253634813298 0.408332361583641  0.821374975236766 0.408332361583641  C 0.897242400761915 0.408332361583641  0.972593313700191 0.420481968843747  1.04441081081081 0.444294736842105  L 1.1564972972973 0.494147368421053  L 11.9513945945946 6.42930526315789  L 22.7725837837838 0.170778947368421  C 22.8809238439292 0.106627993365331  23.0052860162632 0.072699557241703  23.1320865316529 0.072699557241703  C 23.5142078720763 0.072699557241703  23.8239784235447 0.374318252092537  23.8239784235447 0.746383767768018  C 23.8239784235447 0.943168318784316  23.7356120666485 1.13011537411945  23.5820972972973 1.25810526315789  L 23.4796972972973 1.32951578947369  L 12.3139459459459 7.78745263157895  Z " fill-rule="nonzero" fill="#ffffff" stroke="none" transform="matrix(1 0 0 1 1824 504 )" />
  </g>
</svg>