<?xml version="1.0" encoding="utf-8"?>
<svg version="1.1" xmlns:xlink="http://www.w3.org/1999/xlink" width="24px" height="24px" xmlns="http://www.w3.org/2000/svg">
  <g transform="matrix(1 0 0 1 -1824 -588 )">
    <path d="M 21.4654867168142 6.58638597368421  L 21.4660531061947 6.58694736842105  C 20.8656991327434 6.80084210526316  20.2528849646018 6.84856139473684  19.6298761061947 6.70203507894737  C 18.1862865520364 6.37325183123408  17.1631684976582 5.09966324886373  17.1631684976582 3.63145037678665  C 17.1631684976582 3.25908696602868  17.2297620962323 2.88967176380381  17.3598584070796 2.54035086842105  C 17.4063008761062 2.41291226315789  17.3825132654867 2.35733331578947  17.2641416017699 2.30456139473684  C 16.7883893893805 2.09122805263158  16.3205663893805 1.85936842105263  15.8391504424779 1.65894736842105  C 15.5225486814159 1.52757894736842  15.1878230176991 1.43831578947368  14.8700885044248 1.33333334210526  C 14.2555752212389 2.58750878947368  13.2916106283186 3.30385965789474  11.8949380619469 3.30385965789474  C 10.4926017876106 3.30385965789474  9.5252389380531 2.58526315789474  8.92205309734513 1.34231578947368  C 8.03585782313226 1.5824265254001  7.183735504319 1.93231960448903  6.38584069911505 2.38371928947368  C 6.8429026460177 3.68617542105263  6.67582300884956 4.87410526315789  5.68127434513275 5.85543860526316  C 4.68899115929204 6.83452631578947  3.49111505309735 7.00575439473684  2.18279646902655 6.54708771052632  C 1.7280361808937 7.33802563663148  1.37525957867339 8.18243051316964  1.13274337168142 9.06049123684211  C 2.3787610619469 9.6567017631579  3.10258407079646 10.6043508947368  3.1110796460177 11.9814736842105  C 3.11957522123894 13.3804912368421  2.39461946017699 14.3438596578947  1.13217698230089 14.949052631579  C 1.37452613801242 15.827698131559  1.72810951208722 16.6724006746828  2.1844955840708 17.4630175526316  C 3.45373452212389 17.021193  4.61819469026549 17.1637894736842  5.59971682300885 18.0749473684211  C 6.66053097345133 19.0602105263158  6.85479647787611 20.2756491315789  6.38697345132743 21.6258245526316  C 7.18414971730486 22.0779881615885  8.03649536707599 22.4270295941043  8.92318584955752 22.6644210526316  C 9.53486726548673 21.4181052631579  10.4988318584071 20.7045613947368  11.8960707876106 20.7051228157895  C 13.3001061769912 20.7068070263158  14.264637159292 21.4298947368421  14.8666902743363 22.6666666578947  C 15.7525623404248 22.4261511997746  16.6043059644805 22.0758800973345  17.401769920354 21.6241403421053  C 16.9401769911504 20.3216842105263  17.1146194778761 19.1399298157895  18.0984070884956 18.1602807105263  C 19.0884247964602 17.1755789473684  20.2868672654867 17.0082807105263  21.6042477876106 17.4618947368421  C 22.0600601567504 16.6716030520872  22.4125328946549 15.8270144069964  22.6531681327434 14.9484912368421  C 21.3844955575221 14.3376842105263  20.6623716637168 13.3709473684211  20.6748318584071 11.973052631579  C 20.6867256637168 10.6032280789474  21.406584079646 9.65838597368422  22.6543008849557 9.06105263157895  C 22.4177259640444 8.2084703212058  22.078883292025 7.38707690455922  21.6450265486726 6.61445613157895  C 21.5906548672566 6.51677192105264  21.5306194778761 6.56392981578948  21.4654867168142 6.58638597368421  Z M 23.7468318584071 8.76519297368421  L 23.7479646106195 8.76575439473684  C 23.8914933280707 9.28771493195074  23.6391084421541 9.8369110200748  23.1476106106195 10.0721403421053  C 22.2289557345133 10.5122806842105  21.8155044159292 11.1023157894737  21.8081415929204 11.9831578947368  C 21.800212380531 12.8853333421053  22.2130973362832 13.4882807105263  23.1487433628319 13.9385263157895  C 23.6382872386151 14.1741021890795  23.8896514830336 14.7214511874942  23.7473982212389 15.2421052631579  C 23.4812968050941 16.2123032045773  23.0917128789639 17.1449887471357  22.5880353982301 18.0176842105263  C 22.3178305280355 18.4874951554093  21.7481507643519 18.6996345780723  21.2327079557522 18.5223859736842  C 20.2596813982301 18.1872280789474  19.5375575044248 18.3202807105263  18.9015221150442 18.9529824473684  C 18.2666194513274 19.5851227894737  18.1329557522124 20.2975438421053  18.4710796460177 21.2524912368421  C 18.6522668319864 21.7637199733054  18.4392668008325 22.3302800688083  17.9647433628319 22.5992982368421  C 17.0849283705398 23.0974930949405  16.1452762648529 23.4837885099561  15.168 23.7490526315789  C 14.6404966420727 23.8932405501956  14.0844198324359 23.6430392314616  13.8466548584071 23.1545263157895  C 13.4026194690266 22.2416842105263  12.7977345132743 21.829052631579  11.8955044247788 21.8284912368421  C 10.9949734513274 21.8279298421053  10.3929203628319 22.2366315789474  9.94208848672566 23.155649131579  C 9.70507300356723 23.6385640435844  9.15625592973322 23.8875065380982  8.63263717699115 23.7496140263158  C 7.6525396638959 23.4878136915395  6.71034634301255 23.1025446206669  5.8290973539823 22.6032280789474  C 5.35443686311836 22.3367871726562  5.13876889951719 21.7728523201083  5.31596461061947 21.2614736842105  C 5.66201771681416 20.2621754473684  5.51192920353982 19.5317894736842  4.82548672566372 18.8945965  C 4.19907963716814 18.3129824736842  3.49564600884956 18.1967719473684  2.56000000884956 18.5223859736842  C 2.0445500972782 18.7017700121413  1.47336945316466 18.4909317848385  1.20184069911504 18.021052631579  C 0.698266343139481 17.1483018909488  0.308146226704391 16.2158880934925  0.0407787610619458 15.2460350789474  C -0.103932125050576 14.7239702083995  0.14781746780726 14.173893440367  0.639433619469026 13.9379649210526  C 1.57054866371681 13.4922105263158  1.98456637168141 12.8903859736842  1.97890266371681 11.9887719210526  C 1.97323895575221 11.1034385789474  1.55978761061947 10.5111578947368  0.641132734513274 10.0715789473684  C 0.149712809887199 9.83681607281894  -0.10309558219064 9.28820632615879  0.0396460088495577 8.76631578947368  C 0.306422799302681 7.79794023162431  0.694780332892843 6.86658919850428  1.19561062831858 5.99410526315789  C 1.46605137675186 5.51934044587388  2.0414900331604 5.3057694019483  2.56000000884956 5.48771928947368  C 3.51830089380531 5.824  4.24099115044248 5.69094736842105  4.88212388495575 5.05880702631579  C 5.51929202654867 4.43003510526316  5.65295575221239 3.71480702631579  5.31539822123894 2.75143860526316  C 5.13658104513065 2.24051722480911  5.35059780781714 1.67583465203501  5.82456637168142 1.408  C 6.70478699723107 0.909956002370723  7.64481816697752 0.523849837945466  8.62244248672566 0.25880702631579  C 9.14984162864034 0.11579205568665  9.7050287335371 0.366623260429616  9.94208848672566 0.85501755263158  C 10.3861238761062 1.76898247368421  10.9910088318584 2.18105263157895  11.8943716725664 2.18049123684211  C 12.7943362831858 2.18049123684211  13.3963893716814 1.76954386842105  13.8500530884956 0.842666657894737  C 14.0984341564718 0.335398425798749  14.6878374858965 0.0894055364882832  15.2274690265487 0.267789473684211  C 15.2943008761062 0.289684210526316  15.36 0.310456131578948  15.4738407079646 0.34582455263158  L 15.673769920354 0.407578947368422  C 15.9116460265487 0.483368421052632  16.0928849734513 0.54680702631579  16.2763893716814 0.623157894736843  C 16.545982300885 0.734877184210527  16.7566725663717 0.830315789473685  17.2063716902655 1.03971928947369  C 17.4736991150442 1.16435086842105  17.5886725752212 1.21712278947369  17.7302654867257 1.28056139473684  C 18.3946194690265 1.5781052631579  18.6687433539823 2.24954384210526  18.4246371769911 2.92098244736842  C 17.9998584159292 4.08814034210526  18.6727079734513 5.32154384210526  19.8915398230088 5.60898244736842  C 20.2846017610619 5.70161402631579  20.672566380531 5.67578947368421  21.0826194690266 5.52926315789474  C 21.1211862194707 5.51224262526651  21.1609340650541 5.49798387724269  21.2015575221239 5.4865965  C 21.3414513185841 5.44392984210526  21.490407079646 5.42203510526316  21.6614513362832 5.4355087631579  C 22.1088849557522 5.47087718421053  22.4453097345133 5.72743857894737  22.6367433716814 6.07157894736842  C 23.114016452438 6.92226216438909  23.4867040151003 7.82658326871972  23.7468318584071 8.76519297368421  Z M 14.2691681415929 7.36561402631579  C 13.6070707083705 7.08872301072269  12.8956035992641 6.94649412942328  12.176991159292 6.94736842105263  C 9.2055445627968 6.94756271031862  6.79681509858368 9.33532046967315  6.79681509858368 12.2807017515545  C 6.79681509858368 15.2262204221634  9.20576087336769 17.6140350936598  12.1773460808846 17.6140350936598  C 15.1489312884014 17.6140350936598  17.5578770631855 15.2262204221634  17.5578770631855 12.2807017515545  C 17.5578770631855 11.1920307615897  17.2217647611351 10.1294334981999  16.5946902743363 9.23564913157895  C 16.4883406583183 9.08840307658464  16.3168653674353 9.00104925639349  16.1341714126482 9.00104925639349  C 15.8213729751536 9.00104925639349  15.5677997400818 9.25239816484186  15.5677997400818 9.56245275639349  C 15.5677997400818 9.67471237640158  15.6017528452188 9.78439400708579  15.6652743451327 9.87733334210526  C 16.1594444699464 10.5825545188087  16.4242848045411 11.4206778343775  16.4242848045411 12.2793253338623  C 16.4242848045411 14.6047348068341  14.522485511787 16.4898516496518  12.1764971939216 16.4898516496518  C 9.83050887605632 16.4898516496518  7.92870958330217 14.6047348068341  7.92870958330217 12.2793253338623  C 7.92870958330217 9.95391586089058  9.83050887605632 8.06879901807287  12.1764971939216 8.06879901807287  C 12.7439848950985 8.06879901807287  13.3057198297367 8.18151151109444  13.8285309823009 8.40028071052632  C 13.8982543491722 8.42945539638408  13.9731683776231 8.44448651630729  14.0488495619469 8.44448651630729  C 14.3617235786761 8.44448651630729  14.6153580828233 8.1930768762316  14.6153580828233 7.88294736842105  C 14.6153580828233 7.65720393621758  14.4789809333752 7.4534070082652  14.2691681415929 7.36561402631579  Z " fill-rule="nonzero" fill="#ffffff" stroke="none" transform="matrix(1 0 0 1 1824 588 )" />
  </g>
</svg>