<?xml version="1.0" encoding="utf-8"?>
<svg version="1.1" xmlns:xlink="http://www.w3.org/1999/xlink" width="56px" height="32px" xmlns="http://www.w3.org/2000/svg">
  <g transform="matrix(1 0 0 1 -16 -16 )">
    <path d="M 16 16  L 72 16  L 72 48  L 16 48  L 16 16  " fill-rule="nonzero" fill="#cccccc" stroke="none" />
    <path d="M 18 18  L 70 18  L 70 46  L 18 46  L 18 18  " fill-rule="nonzero" fill="#ffffff" stroke="none" />
    <path d="M 47.52 25.6  C 46.176 25.6  45.12 24.544  45.12 23.2  C 45.12 21.856  46.176 20.8  47.52 20.8  C 48.864 20.8  49.92 21.856  49.92 23.2  C 49.92 24.544  48.864 25.6  47.52 25.6  " fill-rule="nonzero" fill="#cccccc" stroke="none" />
    <path d="M 19 45  L 19 30.7  L 31.5 24.2  L 49 36.0857142857143  L 59 28.1  L 69 36.0857142857143  L 69 45  L 19 45  " fill-rule="nonzero" fill="#169bd5" stroke="none" />
  </g>
</svg>