<?xml version="1.0" encoding="utf-8"?>
<svg version="1.1" xmlns:xlink="http://www.w3.org/1999/xlink" width="24px" height="24px" xmlns="http://www.w3.org/2000/svg">
  <g transform="matrix(1 0 0 1 -1824 -540 )">
    <path d="M 17.3048543592233 7.23883494174757  L 14.5708737961165 4.25631066990291  L 12.9553398058252 5.87184466019418  L 15.813592223301 8.7300970776699  L 14.9436893300971 9.6  L 12.0854368834951 6.74174758252427  L 10.4699029223301 8.35728154368932  L 13.3281553398058 11.2155339902913  L 12.4582524174757 12.0854368834951  L 9.6 9.22718446601942  L 7.98446600970873 10.8427184563107  L 10.8427184563107 13.7009708737864  L 9.97281553398058 14.5708737961165  L 7.11456311650485 11.7126213495146  L 5.49902912621359 13.3281553398058  L 8.35728154368932 16.1864077572816  L 7.48737865048543 17.0563106796116  L 4.62912620388349 14.1980582621359  L 1.89514564077669 16.9320388252427  L 7.11456311650485 22.1514563009709  L 22.0271844757282 7.23883494174757  L 16.807767 2.01941746601942  L 15.3165048640777 3.51067960194175  L 18.1747572815534 6.36893204854369  L 17.3048543592233 7.23883494174757  Z M 0.155339796116505 16.807767  L 16.807767 0.155339796116505  L 23.8912621456311 7.23883494174757  L 7.23883494174757 23.8912621456311  L 0.155339796116505 16.807767  Z " fill-rule="nonzero" fill="#ffffff" stroke="none" transform="matrix(1 0 0 1 1824 540 )" />
  </g>
</svg>