<?xml version="1.0" encoding="utf-8"?>
<svg version="1.1" xmlns:xlink="http://www.w3.org/1999/xlink" width="24px" height="8px" xmlns="http://www.w3.org/2000/svg">
  <g transform="matrix(1 0 0 1 -1824 -509 )">
    <path d="M 12.3139459459459 7.81776842105263  C 12.1733812837615 7.89803804422453  12.008464448525 7.92805687468966  11.8476108108108 7.90265263157895  L 11.7341405405405 7.87570526315789  L 11.6206702702703 7.82450526315789  L 0.47705945945946 1.69667368421053  C 0.258550791630401 1.57753271908798  0.123220152704288 1.35272142349656  0.123220152704288 1.1088757279308  C 0.123220152704288 0.736810212255313  0.432990704172713 0.43519151740448  0.81511204459618 0.43519151740448  C 0.893203858626148 0.43519151740448  0.970732167555113 0.448063936886225  1.04441081081081 0.473263157894738  L 1.1564972972973 0.524463157894738  L 11.9513945945946 6.45827368421053  L 22.7725837837838 0.201094736842109  C 22.8809238439292 0.136943782839018  23.0052860162631 0.103015346715393  23.1320865316529 0.103015346715393  C 23.5142078720763 0.103015346715393  23.8239784235447 0.404634041566229  23.8239784235447 0.776699557241709  C 23.8239784235447 0.973484108258007  23.7356120666485 1.16043116359314  23.5820972972973 1.28842105263158  L 23.4796972972973 1.35983157894737  L 12.3139459459459 7.81776842105263  Z " fill-rule="nonzero" fill="#ffffff" stroke="none" transform="matrix(1 0 0 1 1824 509 )" />
  </g>
</svg>