<?xml version="1.0" encoding="utf-8"?>
<svg version="1.1" xmlns:xlink="http://www.w3.org/1999/xlink" width="24px" height="24px" xmlns="http://www.w3.org/2000/svg">
  <g transform="matrix(1 0 0 1 -1824 -671 )">
    <path d="M 4 4  L 4 20  L 20 20  L 20 4  L 4 4  Z M 6 18  L 6 6  L 18 6  L 18 18  L 6 18  Z M 0.0992879708181817 5.675418531  C 0.0951174981818183 6.28818013090909  0.59378688 6.78684951272727  1.21488942545455 6.78684951272727  C 1.83167255263636 6.78684951272727  2.33034193445455 6.28818013090909  2.33034193445455 5.67124805809091  L 2.33034193445455 2.31991575272727  L 5.68089972354545 2.31991575272727  C 6.29783179636364 2.31991575272727  6.79650117818182 1.82124637090909  6.79650117818182 1.20416535272727  C 6.79650117818182 0.587084334545455  6.29783179636364 0.0884149527272727  5.68089972354545 0.0884149527272727  L 1.21488942545455 0.0884149527272727  C 0.597808407272727 0.0884149527272727  0.0992879708181817 0.587084334545455  0.0992879708181817 1.20416535272727  L 0.0992879708181817 5.675418531  Z M 6.80088017454545 22.8000051199091  C 6.79653096736364 22.1830730470909  6.29786158554545 21.6844036652727  5.68092951272727 21.6844036655455  L 2.33037172363636 21.6844036655455  L 2.33037172363636 18.3330713599091  C 2.33037172363636 17.7158413963636  1.83170234181818 17.2171720145455  1.21491921463636 17.2171720145455  C 0.597838196454545 17.2171720145455  0.0993177599999999 17.7158413963636  0.0993177599999999 18.3330713599091  L 0.0993177599999999 22.8000051199091  C 0.0993177599999999 23.4170861380909  0.597838196454545 23.9157555199091  1.21491921463636 23.9157555199091  L 5.68527871990909 23.9157555199091  C 6.30235973809091 23.9157555199091  6.80088017454545 23.4170861380909  6.80088017454545 22.8000051199091  Z M 23.922011229 1.19984593445455  C 23.9262114908182 0.582913861636364  23.4276910543636 0.084214690909091  22.8106100364545 0.084214690909091  L 18.3402505309091 0.084214690909091  C 17.7234674037273 0.084214690909091  17.2247980219091 0.582884072727273  17.2247980219091 1.19981614554545  C 17.2247980219091 1.81689716372727  17.7234674037273 2.31556654554545  18.3402505309091 2.31556654554545  L 21.691106211 2.31556654554545  L 21.691106211 5.66701800736364  C 21.691106211 6.28395008018182  22.1896266474545 6.782619462  22.80655872 6.78261946172727  C 23.4233418471818 6.78261946172727  23.922011229 6.28395007990909  23.922011229 5.66701800736364  L 23.922011229 1.19984593445455  Z M 23.9305309090909 18.3330713599091  C 23.9262114908182 17.7158413963636  23.4276910546364 17.2171720145455  22.8106100364545 17.2171720145455  C 22.1938269092727 17.2171720145455  21.6951575274545 17.7158413963636  21.6951575271818 18.3330713599091  L 21.6951575271818 21.6843738763636  L 18.3445699491818 21.6843738763636  C 17.727488931 21.6843738763636  17.2291174401818 22.1830432581818  17.2291174399091 22.799975331  C 17.2291174399091 23.4170563491818  17.7274889307273 23.915725731  18.3445699491818 23.915725731  L 22.8150784000909 23.915725731  C 23.4318615272727 23.915725731  23.9305309090909 23.4170563491818  23.9305309090909 22.799975331  L 23.9305309090909 18.3330713599091  Z " fill-rule="nonzero" fill="#ffffff" stroke="none" transform="matrix(1 0 0 1 1824 671 )" />
  </g>
</svg>