<?xml version="1.0" encoding="utf-8"?>
<svg version="1.1" xmlns:xlink="http://www.w3.org/1999/xlink" width="7px" height="20px" xmlns="http://www.w3.org/2000/svg">
  <g transform="matrix(1 0 0 1 -376 -270 )">
    <path d="M 6.87972508591065 9.53907815631263  C 6.95990836197022 9.67267869071476  7 9.82631930527722  7 10  C 7 10.1736806947228  6.95990836197022 10.3273213092852  6.87972508591065 10.4609218436874  L 1.27491408934708 19.7995991983968  C 1.19473081328751 19.9331997327989  1.10252004581901 20  0.998281786941581 20  C 0.894043528064147 20  0.801832760595647 19.9331997327989  0.721649484536082 19.7995991983968  L 0.120274914089347 18.7975951903808  C 0.0400916380297824 18.6639946559786  0 18.5103540414162  0 18.3366733466934  C 0 18.1629926519706  0.0400916380297824 18.0093520374081  0.120274914089347 17.875751503006  L 4.84707903780069 10  L 0.120274914089347 2.12424849699399  C 0.0400916380297824 1.99064796259185  0 1.83700734802939  0 1.66332665330661  C 0 1.48964595858383  0.0400916380297824 1.33600534402137  0.120274914089347 1.20240480961924  L 0.721649484536082 0.200400801603207  C 0.801832760595647 0.0668002672010681  0.894043528064147 0  0.998281786941581 0  C 1.10252004581901 0  1.19473081328751 0.0668002672010681  1.27491408934708 0.200400801603207  L 6.87972508591065 9.53907815631263  Z " fill-rule="nonzero" fill="#333333" stroke="none" transform="matrix(1 0 0 1 376 270 )" />
  </g>
</svg>