<?xml version="1.0" encoding="utf-8"?>
<svg version="1.1" xmlns:xlink="http://www.w3.org/1999/xlink" width="14px" height="13px" xmlns="http://www.w3.org/2000/svg">
  <g transform="matrix(1 0 0 1 -952 -16 )">
    <path d="M 8.5859375 7.97265625  C 9.32351762820513 7.28776041666667  9.69230769230769 6.46354166666667  9.69230769230769 5.5  C 9.69230769230769 4.53645833333333  9.32351762820513 3.71223958333333  8.5859375 3.02734375  C 7.84835737179487 2.34244791666667  6.96073717948718 2  5.92307692307692 2  C 4.88541666666667 2  3.99779647435898 2.34244791666667  3.26021634615385 3.02734375  C 2.52263621794872 3.71223958333333  2.15384615384615 4.53645833333333  2.15384615384615 5.5  C 2.15384615384615 6.46354166666667  2.52263621794872 7.28776041666667  3.26021634615385 7.97265625  C 3.99779647435898 8.65755208333333  4.88541666666667 9  5.92307692307692 9  C 6.96073717948718 9  7.84835737179487 8.65755208333333  8.5859375 7.97265625  Z M 13.6887019230769 11.296875  C 13.896233974359 11.4895833333333  14 11.7239583333333  14 12  C 14 12.2708333333333  13.8934294871795 12.5052083333333  13.6802884615385 12.703125  C 13.4671474358974 12.9010416666667  13.2147435897436 13  12.9230769230769 13  C 12.6201923076923 13  12.3677884615385 12.9010416666667  12.1658653846154 12.703125  L 9.28004807692308 10.03125  C 8.27604166666667 10.6770833333333  7.15705128205128 11  5.92307692307692 11  C 5.12099358974359 11  4.35396634615385 10.85546875  3.62199519230769 10.56640625  C 2.89002403846154 10.27734375  2.25901442307692 9.88671875  1.72896634615385 9.39453125  C 1.19891826923077 8.90234375  0.778245192307693 8.31640625  0.466947115384615 7.63671875  C 0.155649038461538 6.95703125  0 6.24479166666667  0 5.5  C 0 4.75520833333333  0.155649038461538 4.04296875  0.466947115384615 3.36328125  C 0.778245192307693 2.68359375  1.19891826923077 2.09765625  1.72896634615385 1.60546875  C 2.25901442307692 1.11328125  2.89002403846154 0.72265625  3.62199519230769 0.43359375  C 4.35396634615385 0.14453125  5.12099358974359 0  5.92307692307692 0  C 6.72516025641026 0  7.4921875 0.14453125  8.22415865384615 0.43359375  C 8.95612980769231 0.72265625  9.58713942307692 1.11328125  10.1171875 1.60546875  C 10.6472355769231 2.09765625  11.0679086538462 2.68359375  11.3792067307692 3.36328125  C 11.6905048076923 4.04296875  11.8461538461538 4.75520833333333  11.8461538461538 5.5  C 11.8461538461538 6.64583333333333  11.4983974358974 7.68489583333333  10.8028846153846 8.6171875  L 13.6887019230769 11.296875  Z " fill-rule="nonzero" fill="#333333" stroke="none" transform="matrix(1 0 0 1 952 16 )" />
  </g>
</svg>