<?xml version="1.0" encoding="utf-8"?>
<svg version="1.1" xmlns:xlink="http://www.w3.org/1999/xlink" width="12px" height="26px" xmlns="http://www.w3.org/2000/svg">
  <g transform="matrix(1 0 0 1 -15 -12 )">
    <path d="M 11.7938144329897 1.56312625250501  C 11.9312714776632 1.73680694722779  12 1.93653974615898  12 2.1623246492986  C 12 2.38810955243821  11.9312714776632 2.5878423513694  11.7938144329897 2.76152304609218  L 3.69072164948454 13  L 11.7938144329897 23.2384769539078  C 11.9312714776632 23.4121576486306  12 23.6118904475618  12 23.8376753507014  C 12 24.063460253841  11.9312714776632 24.2631930527722  11.7938144329897 24.436873747495  L 10.7628865979381 25.7394789579158  C 10.6254295532646 25.9131596526386  10.46735395189 26  10.2886597938144 26  C 10.1099656357388 26  9.95189003436426 25.9131596526386  9.81443298969072 25.7394789579158  L 0.206185567010309 13.5991983967936  C 0.0687285223367698 13.4255177020708  0 13.2257849031396  0 13  C 0 12.7742150968604  0.0687285223367698 12.5744822979292  0.206185567010309 12.4008016032064  L 9.81443298969072 0.260521042084169  C 9.95189003436426 0.0868403473613886  10.1099656357388 0  10.2886597938144 0  C 10.46735395189 0  10.6254295532646 0.0868403473613886  10.7628865979381 0.260521042084169  L 11.7938144329897 1.56312625250501  Z " fill-rule="nonzero" fill="#ffffff" stroke="none" transform="matrix(1 0 0 1 15 12 )" />
  </g>
</svg>