<?xml version="1.0" encoding="utf-8"?>
<svg version="1.1" xmlns:xlink="http://www.w3.org/1999/xlink" width="8px" height="8px" xmlns="http://www.w3.org/2000/svg">
  <g transform="matrix(1 0 0 1 -105 -211 )">
    <path d="M 7.33333333333333 4  C 7.33333333333333 5.08733333333333  6.80766666666667 6.05133333333333  6 6.66033333333333  C 5.42451834767837 7.0966820436558  4.72220442054437 7.33301068013638  4 7.33333333333333  C 3.27779557945563 7.33301068013638  2.57548165232163 7.0966820436558  2 6.66033333333333  C 1.19233333333333 6.05133333333333  0.666666666666667 5.08733333333333  0.666666666666667 4  C 0.666666666666667 2.162  2.162 0.666666666666667  4 0.666666666666667  C 5.838 0.666666666666667  7.33333333333333 2.162  7.33333333333333 4  Z M 8 4  C 8 1.79433333333333  6.20566666666667 0  4 0  C 1.79433333333333 0  0 1.79433333333333  0 4  C 0 5.47666666666667  0.806333333333333 6.76566666666667  2 7.45866666666667  C 2.60683783895513 7.81276265200864  3.29674103698236 7.99955871629611  3.99933333333333 8  L 4.00066666666667 8  C 4.70325896301764 7.99955871629611  5.39316216104487 7.81276265200864  6 7.45866666666667  C 7.19366666666667 6.76566666666667  8 5.47666666666667  8 4  Z M 5.33266666666667 2.87333333333333  C 5.33266666666667 2.20733333333333  4.73466666666667 1.66666666666667  4 1.66666666666667  C 3.26466666666667 1.66666666666667  2.66666666666667 2.20766666666667  2.66666666666667 2.87333333333333  L 2.66666666666667 3.035  C 2.66666666666667 3.21909491661026  2.81590508338974 3.36833333333333  3 3.36833333333333  C 3.18409491661026 3.36833333333333  3.33333333333333 3.21909491661026  3.33333333333333 3.035  L 3.33333333333333 2.873  C 3.33333333333333 2.57533333333333  3.63266666666667 2.33333333333333  4 2.33333333333333  C 4.36766666666667 2.33333333333333  4.66666666666667 2.57533333333333  4.66666666666667 2.87333333333333  L 4.66666666666667 3.38533333333333  C 4.66733333333333 3.40133333333333  4.661 3.71466666666667  4.252 4  C 4.14729260467574 4.07304720968523  4.03496864073738 4.13451803572115  3.917 4.18333333333333  C 3.77112843276769 4.21941050757824  3.66823797982253 4.34973841464211  3.667 4.5  L 3.667 4.88733333333333  C 3.667 5.0714282499436  3.81623841672307 5.22066666666667  4.00033333333333 5.22066666666667  C 4.1844282499436 5.22066666666667  4.33366666666667 5.0714282499436  4.33366666666667 4.88733333333333  L 4.33366666666667 4.726  C 4.77066666666667 4.51066666666666  5.018 4.242  5.157 4  C 5.35033333333333 3.66133333333333  5.334 3.37666666666666  5.333 3.36833333333333  L 5.333 2.87333333333333  Z M 4 5.66666666666667  C 3.81590508338974 5.66666666666667  3.66666666666667 5.81590508338974  3.66666666666667 6  C 3.66666666666667 6.18409491661026  3.81590508338974 6.33333333333333  4 6.33333333333333  C 4.18409491661026 6.33333333333333  4.33333333333333 6.18409491661026  4.33333333333333 6  C 4.33333333333333 5.81590508338974  4.18409491661026 5.66666666666667  4 5.66666666666667  Z " fill-rule="nonzero" fill="#002fa7" stroke="none" transform="matrix(1 0 0 1 105 211 )" />
  </g>
</svg>