<?xml version="1.0" encoding="utf-8"?>
<svg version="1.1" xmlns:xlink="http://www.w3.org/1999/xlink" width="16px" height="16px" viewBox="1448 241  16 16" xmlns="http://www.w3.org/2000/svg">
  <path d="M 1456 241  C 1460.48 241  1464 244.52  1464 249  C 1464 253.48  1460.48 257  1456 257  C 1451.52 257  1448 253.48  1448 249  C 1448 244.52  1451.52 241  1456 241  Z " fill-rule="nonzero" fill="#ffffff" stroke="none" />
  <path d="M 1456 241.5  C 1460.2 241.5  1463.5 244.8  1463.5 249  C 1463.5 253.2  1460.2 256.5  1456 256.5  C 1451.8 256.5  1448.5 253.2  1448.5 249  C 1448.5 244.8  1451.8 241.5  1456 241.5  Z " stroke-width="1" stroke="#797979" fill="none" />
  <path d="M 1456 253  C 1453.76 253  1452 251.24  1452 249  C 1452 246.76  1453.76 245  1456 245  C 1458.24 245  1460 246.76  1460 249  C 1460 251.24  1458.24 253  1456 253  " fill-rule="nonzero" fill="#797979" stroke="none" />
</svg>