<?xml version="1.0" encoding="utf-8"?>
<svg version="1.1" xmlns:xlink="http://www.w3.org/1999/xlink" width="100px" height="100px" xmlns="http://www.w3.org/2000/svg">
  <g transform="matrix(1 0 0 1 -259 -33 )">
    <path d="M 57.7473958333333 25.5859375  C 58.1380208333333 25.9765625  58.3333333333333 26.4756944444444  58 27.0833333333333  L 58 56.25  C 58.3333333333333 56.8576388888889  58.1380208333333 57.3567708333333  57.7473958333333 57.7473958333333  C 57.3567708333333 58.1380208333333  56.8576388888889 58.3333333333333  56.25 58  L 35.4166666666667 58  C 34.8090277777778 58.3333333333333  34.3098958333333 58.1380208333333  33.9192708333333 57.7473958333333  C 33.5286458333333 57.3567708333333  33.3333333333333 56.8576388888889  33.3333333333333 56.25  L 33.3333333333333 52.0833333333333  C 33.3333333333333 51.4756944444444  33.5286458333333 50.9765625  33.9192708333333 50.5859375  C 34.3098958333333 50.1953125  34.8090277777778 50  35.4166666666667 50  L 50 50  L 50 27.0833333333333  C 50 26.4756944444444  50.1953125 25.9765625  50.5859375 25.5859375  C 50.9765625 25.1953125  51.4756944444445 25  52.0833333333333 25  L 56.25 25  C 56.8576388888889 25  57.3567708333333 25.1953125  57.7473958333333 25.5859375  Z M 80.6640625 67.7734375  C 83.8324652777778 62.3480902777778  85.4166666666667 56.4236111111111  85.4166666666667 50  C 85.4166666666667 43.5763888888889  83.8324652777778 37.6519097222222  80.6640625 32.2265625  C 77.4956597222222 26.8012152777778  73.1987847222222 22.5043402777778  67.7734375 19.3359375  C 62.3480902777778 16.1675347222222  56.4236111111111 14.5833333333333  50 14.5833333333333  C 43.5763888888889 14.5833333333333  37.6519097222222 16.1675347222222  32.2265625 19.3359375  C 26.8012152777778 22.5043402777778  22.5043402777778 26.8012152777778  19.3359375 32.2265625  C 16.1675347222222 37.6519097222222  14.5833333333333 43.5763888888889  14.5833333333333 50  C 14.5833333333333 56.4236111111111  16.1675347222222 62.3480902777778  19.3359375 67.7734375  C 22.5043402777778 73.1987847222222  26.8012152777778 77.4956597222222  32.2265625 80.6640625  C 37.6519097222222 83.8324652777778  43.5763888888889 85.4166666666667  50 85.4166666666667  C 56.4236111111111 85.4166666666667  62.3480902777778 83.8324652777778  67.7734375 80.6640625  C 73.1987847222222 77.4956597222222  77.4956597222222 73.1987847222222  80.6640625 67.7734375  Z M 93.2942708333333 24.90234375  C 97.7647569444444 32.5629340277778  100 40.9288194444444  100 50  C 100 59.0711805555556  97.7647569444444 67.4370659722222  93.2942708333333 75.09765625  C 88.8237847222222 82.7582465277778  82.7582465277778 88.8237847222222  75.09765625 93.2942708333333  C 67.4370659722222 97.7647569444444  59.0711805555556 100  50 100  C 40.9288194444445 100  32.5629340277778 97.7647569444444  24.90234375 93.2942708333333  C 17.2417534722222 88.8237847222222  11.1762152777778 82.7582465277778  6.70572916666667 75.09765625  C 2.23524305555556 67.4370659722222  0 59.0711805555556  0 50  C 0 40.9288194444444  2.23524305555556 32.5629340277778  6.70572916666667 24.90234375  C 11.1762152777778 17.2417534722222  17.2417534722222 11.1762152777778  24.90234375 6.70572916666666  C 32.5629340277778 2.23524305555555  40.9288194444445 0  50 0  C 59.0711805555556 0  67.4370659722222 2.23524305555555  75.09765625 6.70572916666666  C 82.7582465277778 11.1762152777778  88.8237847222222 17.2417534722222  93.2942708333333 24.90234375  Z " fill-rule="nonzero" fill="#ffffff" stroke="none" transform="matrix(1 0 0 1 259 33 )" />
  </g>
</svg>