<?xml version="1.0" encoding="utf-8"?>
<svg version="1.1" xmlns:xlink="http://www.w3.org/1999/xlink" width="9px" height="9px" xmlns="http://www.w3.org/2000/svg">
  <g transform="matrix(1 0 0 1 -402 -12 )">
    <path d="M 0.73306451612903 0.116999999999999  L 4.50406451612903 3.88829032258065  L 8.27535483870968 0.117  C 8.38869244141051 0.00385666146943189  8.57224304246045 0.00385666146943189  8.68558064516129 0.117  L 8.89112903225806 0.322548387096773  C 9.00446572403212 0.435919311721687  9.00446572403212 0.619693591504118  8.89112903225806 0.733064516129032  L 5.11983870967742 4.50406451612903  L 8.89112903225806 8.27535483870968  C 9.00427237078863 8.38869244141051  9.00427237078863 8.57224304246045  8.89112903225806 8.68558064516129  L 8.68558064516129 8.89112903225806  C 8.57220972053637 9.00446572403212  8.38843544075394 9.00446572403212  8.27506451612903 8.89112903225806  L 4.50406451612903 5.11983870967742  L 0.732774193548385 8.89112903225806  C 0.619436590847549 9.00427237078863  0.435885989797609 9.00427237078863  0.322548387096772 8.89112903225806  L 0.116999999999999 8.68558064516129  C 0.00366330822594093 8.57220972053637  0.00366330822594093 8.38843544075394  0.116999999999999 8.27506451612903  L 3.88829032258064 4.50406451612903  L 0.116999999999998 0.732774193548385  C 0.00385666146942983 0.619436590847549  0.0038566614694288 0.435885989797609  0.116999999999998 0.322548387096772  L 0.322548387096771 0.116999999999999  C 0.435919311721685 0.00366330822594093  0.619693591504116 0.00366330822594093  0.73306451612903 0.116999999999999  Z " fill-rule="nonzero" fill="#d9001b" stroke="none" transform="matrix(1 0 0 1 402 12 )" />
  </g>
</svg>