<?xml version="1.0" encoding="utf-8"?>
<svg version="1.1" xmlns:xlink="http://www.w3.org/1999/xlink" width="8px" height="5px" xmlns="http://www.w3.org/2000/svg">
  <g transform="matrix(1 0 0 1 -16 -34 )">
    <path d="M 0.65204705882353 0.232244897959184  C 0.581135682936188 0.152910408058316  0.483591053016354 0.10812859955526  0.381694458079318 0.10812859955526  C 0.173775493437137 0.10812859955526  0.00522386984402387 0.290869517991671  0.00522386984402387 0.516291864861382  C 0.00522386984402387 0.616581064852955  0.0392799036535434 0.713359967573574  0.100894117647059 0.788163265306123  L 3.6032 4.86979591836735  C 3.67442053202734 4.95278798211369  3.77426722539806 4.99993013006973  3.87882322245061 4.99993013006973  C 3.98067321098539 4.99993013006973  4.07817732610456 4.95518915437464  4.14908235294118 4.87591836734694  L 7.79971764705882 0.794285714285715  C 7.86905128748634 0.717931671300805  7.90791203936414 0.615081201819286  7.90791203936414 0.507933971044571  C 7.90791203936414 0.282511624174859  7.73936041577103 0.0997707057384485  7.53144145112885 0.0997707057384485  C 7.42855161687767 0.0997707057384485  7.33014495730152 0.145427073872333  7.25910588235294 0.226122448979593  L 3.88442352941176 3.99918367346939  L 0.652047058823529 0.231836734693878  Z " fill-rule="nonzero" fill="#000000" stroke="none" transform="matrix(1 0 0 1 16 34 )" />
  </g>
</svg>