<?xml version="1.0" encoding="utf-8"?>
<svg version="1.1" xmlns:xlink="http://www.w3.org/1999/xlink" width="14px" height="14px" viewBox="1037 590  14 14" xmlns="http://www.w3.org/2000/svg">
  <path d="M 1037.5 593  A 2.5 2.5 0 0 1 1040 590.5 L 1048 590.5  A 2.5 2.5 0 0 1 1050.5 593 L 1050.5 601  A 2.5 2.5 0 0 1 1048 603.5 L 1040 603.5  A 2.5 2.5 0 0 1 1037.5 601 L 1037.5 593  Z " fill-rule="nonzero" fill="#f0f0f0" stroke="none" />
  <path d="M 1037.5 593  A 2.5 2.5 0 0 1 1040 590.5 L 1048 590.5  A 2.5 2.5 0 0 1 1050.5 593 L 1050.5 601  A 2.5 2.5 0 0 1 1048 603.5 L 1040 603.5  A 2.5 2.5 0 0 1 1037.5 601 L 1037.5 593  Z " stroke-width="1" stroke="#999999" fill="none" />
  <path d="M 1040.5 597.5  L 1043.5 600.5  " stroke-width="3" stroke="#999999" fill="none" />
  <path d="M 1043.5 600.5  L 1048.5 593.5  " stroke-width="3" stroke="#999999" fill="none" />
</svg>