<?xml version="1.0" encoding="utf-8"?>
<svg version="1.1" xmlns:xlink="http://www.w3.org/1999/xlink" width="114px" height="115px" xmlns="http://www.w3.org/2000/svg">
  <g transform="matrix(1 0 0 1 -240 -25 )">
    <path d="M 108.025390625 38.2181490384615  C 112.008463541667 45.6360176282051  114 53.5376602564102  114 61.9230769230769  C 114 69.1105769230769  112.490885416667 75.9755608974359  109.47265625 82.5180288461538  C 106.454427083333 89.0604967948718  102.397135416667 94.7045272435897  97.30078125 99.4501201923077  C 92.2044270833333 104.195713141026  86.1432291666667 107.973758012821  79.1171875 110.784254807692  C 72.0911458333333 113.594751602564  64.71875 115  57 115  C 49.28125 115  41.9088541666667 113.594751602564  34.8828125 110.784254807692  C 27.8567708333333 107.973758012821  21.7955729166667 104.195713141026  16.69921875 99.4501201923077  C 11.6028645833333 94.7045272435897  7.54557291666667 89.0604967948718  4.52734375 82.5180288461538  C 1.50911458333333 75.9755608974359  0 69.1105769230769  0 61.9230769230769  C 0 53.5376602564102  1.99153645833333 45.6360176282051  5.974609375 38.2181490384615  C 9.95768229166667 30.8002804487179  15.5611979166667 24.580328525641  22.78515625 19.5582932692308  C 24.9127604166667 18.0839342948718  27.275390625 17.5080128205128  29.873046875 17.8305288461538  C 32.470703125 18.1530448717949  34.5364583333333 19.3048878205128  36.0703125 21.2860576923077  C 37.6536458333333 23.2211538461538  38.259765625 25.3981370192308  37.888671875 27.8170072115385  C 37.517578125 30.2358774038462  36.29296875 32.1824919871795  34.21484375 33.6568509615385  C 29.3658854166667 37.0663060897436  25.6178385416667 41.2359775641026  22.970703125 46.1658653846154  C 20.3235677083333 51.0957532051282  19 56.3481570512821  19 61.9230769230769  C 19 66.7147435897436  20.001953125 71.2875600961538  22.005859375 75.6415264423077  C 24.009765625 79.9954927884615  26.71875 83.7620192307692  30.1328125 86.9411057692308  C 33.546875 90.1201923076923  37.591796875 92.6427283653846  42.267578125 94.5087139423077  C 46.943359375 96.3746995192308  51.8541666666667 97.3076923076923  57 97.3076923076923  C 62.1458333333333 97.3076923076923  67.056640625 96.3746995192308  71.732421875 94.5087139423077  C 76.408203125 92.6427283653846  80.453125 90.1201923076923  83.8671875 86.9411057692308  C 87.28125 83.7620192307692  89.990234375 79.9954927884615  91.994140625 75.6415264423077  C 93.998046875 71.2875600961538  95 66.7147435897436  95 61.9230769230769  C 95 56.3481570512821  93.6764322916667 51.0957532051282  91.029296875 46.1658653846154  C 88.3821614583333 41.2359775641026  84.6341145833333 37.0663060897436  79.78515625 33.6568509615385  C 77.70703125 32.1824919871795  76.482421875 30.2358774038462  76.111328125 27.8170072115385  C 75.740234375 25.3981370192308  76.3463541666667 23.2211538461538  77.9296875 21.2860576923077  C 79.4635416666667 19.3048878205128  81.5416666666667 18.1530448717949  84.1640625 17.8305288461538  C 86.7864583333333 17.5080128205128  89.13671875 18.0839342948718  91.21484375 19.5582932692308  C 98.4388020833333 24.580328525641  104.042317708333 30.8002804487179  108.025390625 38.2181490384615  Z M 63.6796875 2.62620192307692  C 65.5598958333333 4.3770032051282  66.5 6.4503205128205  66 8.84615384615384  L 66 53.0769230769231  C 66.5 55.4727564102564  65.5598958333333 57.5460737179487  63.6796875 59.296875  C 61.7994791666667 61.0476762820513  59.5729166666667 61.9230769230769  57 61.9230769230769  C 54.4270833333333 61.9230769230769  52.2005208333333 61.0476762820513  50.3203125 59.296875  C 48.4401041666667 57.5460737179487  47.5 55.4727564102564  48 53.0769230769231  L 48 8.84615384615384  C 47.5 6.4503205128205  48.4401041666667 4.3770032051282  50.3203125 2.62620192307692  C 52.2005208333333 0.875400641025644  54.4270833333333 0  57 0  C 59.5729166666667 0  61.7994791666667 0.875400641025644  63.6796875 2.62620192307692  Z " fill-rule="nonzero" fill="#ffffff" stroke="none" transform="matrix(1 0 0 1 240 25 )" />
  </g>
</svg>