<?xml version="1.0" encoding="utf-8"?>
<svg version="1.1" xmlns:xlink="http://www.w3.org/1999/xlink" width="91px" height="125px" xmlns="http://www.w3.org/2000/svg">
  <g transform="matrix(1 0 0 1 -246 -19 )">
    <path d="M 30.1178977272727 25.8037860576923  C 30.5918560606061 26.3797075320513  31.1735321969697 26.6676682692308  31.8629261363636 26.6676682692308  C 32.5523200757576 26.6676682692308  33.1447679924242 26.3797075320513  33.6402698863636 25.8037860576923  C 34.135771780303 25.2278645833333  34.3835227272727 24.5392628205128  34.3835227272727 23.7379807692308  C 34.3835227272727 22.9366987179487  34.135771780303 22.2480969551282  33.6402698863636 21.6721754807692  C 33.1447679924242 21.0962540064103  32.5523200757576 20.8082932692308  31.8629261363636 20.8082932692308  C 31.1735321969697 20.8082932692308  30.5918560606061 21.0962540064103  30.1178977272727 21.6721754807692  C 29.6439393939394 22.2480969551282  29.4069602272727 22.9366987179487  29.4069602272727 23.7379807692308  C 29.4069602272727 24.5392628205128  29.6439393939394 25.2278645833333  30.1178977272727 25.8037860576923  Z M 57.3597301136364 25.8037860576923  C 57.8552320075758 26.3797075320513  58.4476799242424 26.6676682692308  59.1370738636364 26.6676682692308  C 59.8264678030303 26.6676682692308  60.408143939394 26.3797075320513  60.8821022727273 25.8037860576923  C 61.3560606060606 25.2278645833333  61.5930397727273 24.5392628205128  61.5930397727273 23.7379807692308  C 61.5930397727273 22.9366987179487  61.3560606060606 22.2480969551282  60.8821022727273 21.6721754807692  C 60.408143939394 21.0962540064103  59.8264678030303 20.8082932692308  59.1370738636364 20.8082932692308  C 58.4476799242424 20.8082932692308  57.8552320075758 21.0962540064103  57.3597301136364 21.6721754807692  C 56.864228219697 22.2480969551282  56.6164772727273 22.9366987179487  56.6164772727273 23.7379807692308  C 56.6164772727273 24.5392628205128  56.864228219697 25.2278645833333  57.3597301136364 25.8037860576923  Z M 1.93892045454545 42.7433894230769  C 3.23153409090909 41.2409855769231  4.80421401515152 40.4897836538462  6.65696022727273 40.4897836538462  C 8.46661931818182 40.4897836538462  10.0177556818182 41.2409855769231  11.3103693181818 42.7433894230769  C 12.6029829545455 44.2457932692308  13.2492897727273 46.0486778846154  14 48.1520432692308  L 14 80.4537259615385  C 13.2492897727273 82.607171474359  12.6137547348485 84.4350961538461  11.3426846590909 85.9375  C 10.0716145833333 87.4399038461539  8.50970643939394 88.1911057692308  6.65696022727273 88.1911057692308  C 4.80421401515152 88.1911057692308  3.23153409090909 87.4399038461539  1.93892045454545 85.9375  C 0.646306818181818 84.4350961538461  0 82.607171474359  0 80.4537259615385  L 0 48.1520432692308  C 0 46.0486778846154  0.646306818181818 44.2457932692308  1.93892045454545 42.7433894230769  Z M 16 42  L 75 42  L 75 91.9471153846154  C 75.1654829545455 94.2508012820513  74.4760890151515 96.2039262820513  73.0973011363636 97.8064903846154  C 71.7185132575758 99.4090544871795  70.0596590909091 100.210336538462  68.1207386363636 100.210336538462  L 63 100.210336538462  L 63 117.262620192308  C 63.2734375 119.416065705128  62.6271306818182 121.243990384615  61.3345170454545 122.746394230769  C 60.0419034090909 124.248798076923  58.4692234848485 125  56.6164772727273 125  C 54.7637310606061 125  53.1910511363636 124.248798076923  51.8984375 122.746394230769  C 50.6058238636364 121.243990384615  49.9595170454545 119.416065705128  50 117.262620192308  L 50 100.210336538462  L 41 100.210336538462  L 41 117.262620192308  C 41.0404829545455 119.416065705128  40.3941761363636 121.243990384615  39.1015625 122.746394230769  C 37.8089488636364 124.248798076923  36.2362689393939 125  34.3835227272727 125  C 32.5738636363636 125  31.0227272727273 124.248798076923  29.7301136363636 122.746394230769  C 28.4375 121.243990384615  27.7911931818182 119.416065705128  28 117.262620192308  L 28 100.210336538462  L 22.9438920454545 100.210336538462  C 20.961884469697 100.210336538462  19.2814867424242 99.4090544871795  17.9026988636364 97.8064903846154  C 16.5239109848485 96.2039262820513  15.8345170454545 94.2508012820513  16 91.9471153846154  L 16 42  Z M 64.7599431818182 1.65264423076923  L 60.1711647727273 11.4933894230769  C 64.7814867424242 14.247796474359  68.4654356060606 18.0914463141026  71.2230113636364 23.0243389423077  C 73.9805871212121 27.9572315705128  75.359375 33.3533653846154  75.359375 40  L 15.5759943181818 40  C 15.5759943181818 33.3533653846154  16.9547821969697 27.9572315705128  19.7123579545455 23.0243389423077  C 22.4699337121212 18.0914463141026  26.1754261363636 14.247796474359  30.8288352272727 11.4933894230769  L 26.2400568181818 1.65264423076923  C 25.938446969697 1.00160256410256  26.0461647727273 0.500801282051266  26.5632102272727 0.150240384615391  C 27.1233428030303 -0.150240384615391  27.5542140151515 0  27.8558238636364 0.600961538461536  L 32.5092329545455 10.5168269230769  C 36.602509469697 8.41346153846154  40.9327651515152 7.36177884615384  45.5 7.36177884615384  C 50.0672348484849 7.36177884615384  54.397490530303 8.41346153846154  58.4907670454545 10.5168269230769  L 63.1441761363636 0.600961538461536  C 63.4457859848485 0  63.8766571969697 -0.150240384615391  64.4367897727273 0.150240384615391  C 64.9538352272727 0.500801282051266  65.061553030303 1.00160256410256  64.7599431818182 1.65264423076923  Z M 89.0610795454545 42.7058293269231  C 90.3536931818182 44.1831931089744  91 45.9985977564103  91 48.1520432692308  L 91 80.4537259615385  C 91 82.607171474359  90.3536931818182 84.4350961538461  89.0610795454545 85.9375  C 87.7684659090909 87.4399038461539  86.1957859848485 88.1911057692308  84.3430397727273 88.1911057692308  C 82.5333806818182 88.1911057692308  80.9822443181818 87.4399038461539  79.6896306818182 85.9375  C 78.3970170454545 84.4350961538461  77.7507102272727 82.607171474359  77 80.4537259615385  L 77 48.1520432692308  C 77.7507102272727 45.9985977564103  78.3970170454545 44.1831931089744  79.6896306818182 42.7058293269231  C 80.9822443181818 41.2284655448718  82.5333806818182 40.4897836538462  84.3430397727273 40.4897836538462  C 86.1957859848485 40.4897836538462  87.7684659090909 41.2284655448718  89.0610795454545 42.7058293269231  Z " fill-rule="nonzero" fill="#ffffff" stroke="none" transform="matrix(1 0 0 1 246 19 )" />
  </g>
</svg>