<?xml version="1.0" encoding="utf-8"?>
<svg version="1.1" xmlns:xlink="http://www.w3.org/1999/xlink" width="29px" height="40px" xmlns="http://www.w3.org/2000/svg">
  <g transform="matrix(1 0 0 1 -36 -124 )">
    <path d="M 14.5 0.331962616822429  C 9.83620512820512 0.331962616822429  6.07661538461539 4.13607476635514  6.07661538461539 8.82542056074766  C 6.07661538461539 13.5147663551402  9.86 17.294953271028  14.5 17.294953271028  C 19.14 17.294953271028  22.9233846153846 13.4908411214953  22.9233846153846 8.82542056074766  C 22.9233846153846 4.16  19.1637948717949 0.331962616822429  14.5 0.331962616822429  Z M 18.7592820512821 39.2104672897196  C 17.4505641025641 39.7368224299065  15.9514871794872 40  14.4286153846154 40  C 12.9057435897436 40  11.4066666666667 39.7368224299065  10.1217435897436 39.2104672897196  L 1.29384615384616 35.6456074766355  C 0.29446153846154 35.2388785046729  -0.181435897435896 34.0904672897196  0.246871794871797 33.0856074766355  C 0.651384615384618 32.1046728971963  1.76974358974359 31.6261682242991  2.74533333333334 32.0089719626168  L 11.5732307692308 35.5738317757009  C 13.1912820512821 36.2198130841122  15.6659487179487 36.243738317757  17.3077948717949 35.5738317757009  L 26.2308717948718 32.0089719626168  C 27.2302564102564 31.6261682242991  28.3486153846154 32.1285981308411  28.7531282051282 33.1334579439252  C 29.1338461538462 34.1383177570093  28.6579487179487 35.2628037383178  27.682358974359 35.6456074766355  L 18.7592820512821 39.2104672897196  Z " fill-rule="nonzero" fill="#009688" stroke="none" transform="matrix(1 0 0 1 36 124 )" />
  </g>
</svg>