<?xml version="1.0" encoding="utf-8"?>
<svg version="1.1" xmlns:xlink="http://www.w3.org/1999/xlink" width="48px" height="48px" xmlns="http://www.w3.org/2000/svg">
  <g transform="matrix(1 0 0 1 -236 -116 )">
    <path d="M 21.2989629444444 18.471476635514  L 21.2977777777778 18.471476635514  C 22.5386666666667 17.2309532523364  21.7185185 10.0737196261682  16.7940740555556 5.15349532710281  C 11.8696296111111 0.233271028037385  4.94222222222222 -0.808672878504672  3.4785185 0.654355121495328  C 2.01481477777778 2.11738312149533  3.05777777777778 9.05211213084112  7.98222222222222 13.9723364299065  C 12.9066666666667 18.892560728972  20.0580740555556 19.7143925046729  21.2989629444444 18.471476635514  Z M 40.4989629444444 13.9723364299065  C 35.5745185 18.892560728972  28.4231111111111 19.7143925046729  27.1822222222222 18.471476635514  C 25.9413333333333 17.2309532523364  26.7614815 10.0737196261682  31.6859259444444 5.15349532710281  C 36.6103703888889 0.233271028037385  43.5377777777778 -0.808672878504672  45.0026666666667 0.654355121495328  C 46.4675555555555 2.11738312149533  45.4234073888889 9.05211213084112  40.4989629444444 13.9723364299065  Z M 8.31288888888889 32.9498317570093  C 14.3371851666667 36.4285607102804  21.4625185 35.3698691214953  22.3407407222222 33.854205588785  C 23.2189629444444 32.3337569719626  20.5736296111111 25.6334952897196  14.5493333333333 22.1547663364486  C 8.52503705555556 18.6760373831776  1.55614816666667 19.4583925233645  0.5214815 21.2503925046729  C -0.513185166666666 23.0423924859813  2.28859261111111 29.4711028037383  8.31288888888889 32.9498317570093  Z M 39.6859259444444 32.9546168411215  C 33.6616296666667 36.4333457943925  26.5362962777778 35.3698691775701  25.6592592777778 33.854205588785  C 24.7810370555556 32.3337569719626  27.4263703888889 25.6334952897196  33.4506666666667 22.1547663364486  C 39.4749629444444 18.6760373831776  46.4426666666667 19.4631775514019  47.4773333333333 21.255177588785  C 48.512 23.0471776261682  45.7102222222222 29.4758878878505  39.6859259444444 32.9546168411215  Z M 23.9431111111111 19.0731962803738  L 23.9431111111111 19.0708037383178  C 23.9941493333244 19.0631934838868  24.0456719510021 19.0593729746879  24.0972640874819 19.0593729746879  C 24.6798222338272 19.0593729746879  25.1520789208152 19.536043275573  25.1520789208152 20.1240458905757  C 25.1520789208152 20.1718817093385  25.1488848764816 20.2196631478829  25 20.2670654018692  L 25 46.6542056074766  C 25.1488848764816 46.7016078614629  25.1520789208152 46.7493893000073  25.1520789208152 46.79722511877  C 25.1520789208152 47.3852277337728  24.6798222338272 47.8618980346579  24.0972640874819 47.8618980346579  C 24.0456719510021 47.8618980346579  23.9941493333244 47.858077525459  23.9431111111111 47.850467271028  C 23.8920728888978 47.858077525459  23.8405502712201 47.8618980346579  23.7889581347404 47.8618980346579  C 23.2063999883951 47.8618980346579  22.734143301407 47.3852277337728  22.734143301407 46.79722511877  C 22.734143301407 46.7493893000073  22.7373373457406 46.7016078614629  23 46.6542056074766  L 23 20.2694579439252  C 22.7373373457406 20.2220556899389  22.734143301407 20.1742742513946  22.734143301407 20.1264384326318  C 22.734143301407 19.5384358176291  23.2063999883951 19.061765516744  23.7889581347404 19.061765516744  C 23.8405502712201 19.061765516744  23.8920728888978 19.0655860259429  23.9431111111111 19.0731962803738  Z " fill-rule="nonzero" fill="#009688" stroke="none" transform="matrix(1 0 0 1 236 116 )" />
  </g>
</svg>