<?xml version="1.0" encoding="utf-8"?>
<svg version="1.1" xmlns:xlink="http://www.w3.org/1999/xlink" width="34px" height="41px" xmlns="http://www.w3.org/2000/svg">
  <g transform="matrix(1 0 0 1 -34 -116 )">
    <path d="M 24.9061333333333 31.5602201834862  C 30.4186666666667 28.6714128440367  33.8519111111111 22.9900917431193  33.8519111111111 16.7791559633027  C 33.8519111111111 7.79977981651376  26.7678222222222 0.481467889908255  17.8704 0.0240733944954129  C 7.78826666666667 -0.481467889908257  -0.238755555555556 7.46275229357798  0.172266666666666 17.4772844036697  C 0.414044444444444 23.3993394495413  3.79893333333333 28.7436330275229  9.04551111111111 31.5361467889908  C 9.98844444444445 32.0416880733945  10.8104888888889 32.7638899082569  11.3907555555556 33.6546055045872  L 15.8636444444444 40.2747889908257  C 16.2746666666667 40.876623853211  17.0967111111111 41.0451376146789  17.7011555555556 40.6358899082569  C 17.8462222222222 40.5395963302752  17.9671111111111 40.4192293577982  18.0638222222222 40.2747889908257  L 22.5125333333333 33.702752293578  C 23.1169777777778 32.8120366972477  23.9390222222222 32.0657614678899  24.9061333333333 31.5602201834862  Z " fill-rule="nonzero" fill="#009688" stroke="none" transform="matrix(1 0 0 1 34 116 )" />
  </g>
</svg>