<?xml version="1.0" encoding="utf-8"?>
<svg version="1.1" xmlns:xlink="http://www.w3.org/1999/xlink" width="9px" height="16px" xmlns="http://www.w3.org/2000/svg">
  <g transform="matrix(1 0 0 1 -737 -32 )">
    <path d="M 8.80126826594129 15.2276914555364  C 8.80126826594129 15.0334647452661  8.72956780174779 14.8467358469326  8.60112 14.7064470588235  L 1.94544 7.95708235294117  L 8.59104 1.4923294117647  C 8.73735354384556 1.3498776383003  8.82045584362083 1.15023110902496  8.82045584362083 0.941176470588233  C 8.82045584362083 0.525283186563841  8.49805795284833 0.188135065494551  8.10036 0.188135065494551  C 7.91827426216254 0.188135065494551  7.74294901983952 0.260271985398578  7.60968 0.390023529411763  L 0.409680000000002 7.39463529411765  C 0.263059118864406 7.53709386494182  0.179755544711356 7.73694464420405  0.179755544711356 7.94623925622926  C 0.179755544711356 8.14976107184936  0.258541043812253 8.34461439449082  0.398160000000002 8.4864  L 7.59816 15.7876705882353  C 7.73053281083638 15.9123747036497  7.90238339686316 15.9813855731835  8.08054826594129 15.9813855731835  C 8.47859093083934 15.9813855731835  8.80126826594129 15.6439452227501  8.80126826594129 15.2276914555364  Z " fill-rule="nonzero" fill="#000000" stroke="none" transform="matrix(1 0 0 1 737 32 )" />
  </g>
</svg>