<?xml version="1.0" encoding="utf-8"?>
<svg version="1.1" xmlns:xlink="http://www.w3.org/1999/xlink" width="9px" height="17px" xmlns="http://www.w3.org/2000/svg">
  <g transform="matrix(1 0 0 1 -893 -32 )">
    <path d="M 7.62840816326531 7.29142857142857  L 1.09779591836735 0.204190476190477  C 0.978110641995269 0.0794950431083555  0.823264397642275 0.0105721175414688  0.662801677655755 0.0105721175414688  C 0.302125922664216 0.0105721175414688  0.00974045316595888 0.351688498622769  0.00974045316595888 0.772476879446231  C 0.00974045316595888 0.978696178723571  0.0813913467708521 1.17610792975181  0.208326530612245 1.31961904761905  L 6.23608163265306 7.86133333333333  L 0.198530612244899 14.6910476190476  C 0.071786322948953 14.8344850586411  0.000254008582074601 15.0317061686032  0.000254008582074601 15.2377142857143  C 0.000254008582074601 15.6583390006272  0.292525754564463 15.9993227042733  0.653061224489797 15.9993227042733  C 0.822758519480717 15.9993227042733  0.98578665137375 15.9222287719114  1.10759183673469 15.784380952381  L 7.63820408163265 8.39695238095238  C 7.7652115646267 8.25355985238201  7.83691855762344 8.05618532317954  7.83691855762344 7.84998792873805  C 7.83691855762344 7.63831897149885  7.76136807895385 7.43620979286353  7.6284081632653 7.29219047619048  Z " fill-rule="nonzero" fill="#000000" stroke="none" transform="matrix(1 0 0 1 893 32 )" />
  </g>
</svg>