<?xml version="1.0" encoding="utf-8"?>
<svg version="1.1" xmlns:xlink="http://www.w3.org/1999/xlink" width="3px" height="2px" xmlns="http://www.w3.org/2000/svg">
  <g transform="matrix(1 0 0 1 -253 -444 )">
    <path d="M 2.54896709793348 0.283702825  C 2.54896709793348 0.407326615723955  2.43624322813778 0.507552953433922  2.29716646875 0.507586683333333  L 0.70031484375 0.485198300000001  C 0.56123808436094 0.4851645701022  0.448514214563241 0.384938232391762  0.448514214563241 0.261314441666668  C 0.448514214563241 0.137690650941574  0.561238084360939 0.0374643132311348  0.70031484375 0.0374305833333333  L 2.29716646875 0.0598189666666675  C 2.43624322813778 0.0598526965660786  2.54896709793348 0.160079034276045  2.54896709793348 0.283702825  Z M 2.92677110419004 0.955354408333333  C 2.92677110419004 1.07897819905957  2.81404723439034 1.17920453677048  2.674970475 1.17923826666667  L 0.325029524999999 1.15908871666667  C 0.185925931367534 1.15908871666667  0.0731601853553382 1.05885250545108  0.0731601749999982 0.935204866666667  C 0.0731601749999982 0.811557221373516  0.185925924045203 0.711320999999998  0.325029524999999 0.711320999999998  L 2.674970475 0.731470549999998  C 2.81404723439034 0.731504279896188  2.92677110419004 0.831730617607099  2.92677110419004 0.955354408333333  Z M 2.29464778125 1.87327823333333  L 2.29716646875 1.86656171666667  L 0.697796137500001 1.85088985  C 0.55871937810966 1.85085612010381  0.445995508309964 1.7506297823929  0.445995508309964 1.62700599166667  C 0.445995508309964 1.50338220094044  0.55871937810966 1.40315586322952  0.6977961375 1.40312213333333  L 2.29464778125 1.42551051666667  C 2.43372454063906 1.42554424656447  2.54644841043676 1.52577058427491  2.54644841043676 1.649394375  C 2.54644841043676 1.77301816572509  2.43372454063906 1.87324450343553  2.29464778125 1.87327823333333  Z " fill-rule="nonzero" fill="#a96f38" stroke="none" transform="matrix(1 0 0 1 253 444 )" />
  </g>
</svg>