<?xml version="1.0" encoding="utf-8"?>
<svg version="1.1" xmlns:xlink="http://www.w3.org/1999/xlink" width="15px" height="16px" xmlns="http://www.w3.org/2000/svg">
  <g transform="matrix(1 0 0 1 -247 -436 )">
    <path d="M 11.7105534836066 15.823691453125  C 11.2026857889344 15.95172503125  9.72656628073771 16  8.14309261782787 16  C 6.07858981045082 16  3.84273325819672 15.91814246875  3.31215605532787 15.82788928125  C 1.2662337602459 15.4815689375  0.0440480993852459 14.07739734375  0.0440480993852459 12.077134984375  L 0.0440480993852459 8.3620621875  C 0.0440480993852459 5.740522109375  1.82984303790984 3.5051816875  4.59627679303279 2.667716125  C 6.05588028688525 2.224845859375  7.00348707479508 0.209891125  7.01380959528688 0.180506359375  C 7.08277234566351 0.0340415737432627  7.24946266637636 -0.0357395683356194  7.39987161885246 0.018890203125  C 8.42544553407411 0.355040661782821  9.28727539589598 1.07444969571226  9.81121089651639 2.03174603125  C 10.0589512346311 2.43053915625  10.2014019313525 2.6425291875  10.4677227817623 2.715991078125  C 13.2362210502049 3.465302375  14.9559518852459 5.6292798125  14.9559519006148 8.3620621875  L 14.9559519006148 12.077134984375  C 14.9559519006148 14.5391578125  13.8163463422131 15.292666921875  11.7105534836066 15.823691453125  Z M 9.2868271875 2.367571828125  C 8.88195058029649 1.61235636629243  8.22855973127361 1.02609521335965  7.44116167008197 0.711530890624999  C 7.10464770491803 1.3307096875  6.16323442622951 2.850321390625  4.77175953381148 3.270103640625  C 2.27577564036885 4.02571165625  0.663398944672131 6.02597403125  0.663398944672131 8.3620621875  L 0.663398944672131 12.077134984375  C 0.663398944672131 13.76885740625  1.66674731557377 14.902269453125  3.41538119877049 15.208710484375  C 4.30311740778689 15.357733171875  10.4801098155738 15.485766765625  11.5619092776639 15.208710484375  C 13.479832392418 14.72596090625  14.3366010553279 14.159254890625  14.3366010553279 12.07293715625  L 14.3366010553279 8.3620621875  C 14.3366010553279 5.927325203125  12.7944174590164 3.998425828125  10.3087560706967 3.324675328125  C 9.79263036885246 3.18404828125  9.54695452868852 2.7873540625  9.2868271875 2.367571828125  Z " fill-rule="nonzero" fill="#ffffff" stroke="none" transform="matrix(1 0 0 1 247 436 )" />
  </g>
</svg>