<?xml version="1.0" encoding="utf-8"?>
<svg version="1.1" xmlns:xlink="http://www.w3.org/1999/xlink" width="8px" height="6px" xmlns="http://www.w3.org/2000/svg">
  <g transform="matrix(1 0 0 1 -251 -443 )">
    <path d="M 0.0585246333333335 1.24872096875  C 0.0585246333333335 0.625344328124999  0.427933 0.119506749999999  0.884656083333333 0.11950675  C 1.3324238 0.11950675  1.70854868333333 0.62534434375  1.70854868333333 1.24872096875  C 1.70854868333333 1.87209759375  1.33914031666667 2.3779351875  0.884656083333333 2.377935203125  C 0.430171849999999 2.37793521875  0.0585246333333335 1.872097609375  0.0585246333333335 1.24872096875  Z M 6.28249595 1.24872096875  C 6.28249595 0.625344328124999  6.66085968333333 0.11950675  7.1086274 0.11950675  C 7.55639511666667 0.11950675  7.93252 0.62534434375  7.93252 1.24872096875  C 7.93252 1.87209759375  7.57206698333333 2.3779351875  7.1086274 2.377935203125  C 6.64518781666667 2.37793521875  6.28249595 1.872097609375  6.28249595 1.24872096875  Z M 2.67348813333333 5.937688578125  C 2.61469639032172 5.9786719431535  2.5429988778519 6.00009255853045  2.46975381666667 5.998557  C 2.36506607151095 5.99905359133823  2.26628559808174 5.95313934724894  2.20333201666667 5.874721234375  C 2.09056169071958 5.73726323143149  2.11758838059108 5.54019364572898  2.26378066666667 5.433949890625  C 2.63137744825632 5.08489736503918  2.63137744825632 4.52365569746082  2.26378066666667 4.174603171875  C 2.18104594329875 4.11496377620496  2.13256056416109 4.02267445658443  2.13256056416109 3.9248327421875  C 2.13256056416109 3.75082481623346  2.28302594564903 3.60976352108852  2.4686344 3.60976352108852  C 2.5427301543632 3.60976352108852  2.61474888758676 3.63272007727113  2.67348813333333 3.6750623125  C 3.01697311544816 3.96295382189748  3.21331767222957 4.37443033371866  3.21331767222957 4.8063754453125  C 3.21331767222957 5.23832055690634  3.01697311544816 5.64979706872752  2.67348813333333 5.937688578125  Z M 5.54905621479409 5.99863796880734  C 5.54651735945362 5.99863796880734  5.54397858573814 5.9986109774695  5.54144038333333 5.998557  C 5.46772598171478 5.99856719384569  5.39608391394581 5.97568699983498  5.33770606666667 5.93349075  C 4.99422108455184 5.64559924060252  4.79787652777043 5.23412272878135  4.79787652777043 4.8021776171875  C 4.79787652777043 4.37023250559365  4.99422108455184 3.95875599377248  5.33770606666666 3.670864484375  C 5.39644531287155 3.62852225014017  5.46846404591978 3.60556569458268  5.5425598 3.60556569458268  C 5.72816825799949 3.60556569458268  5.87863364244514 3.74662699250048  5.87863364244514 3.920634921875  C 5.87863364244514 4.01847663986869  5.83014826070417 4.11076596268489  5.74741353333333 4.170405359375  C 5.37981676271376 4.51945788309646  5.37981676271376 5.08069953877854  5.74741353333333 5.4297520625  C 5.83381816442516 5.48904594812474  5.88488199812742 5.58341470301462  5.88488199812742 5.68380129693234  C 5.88488199812742 5.85768078949638  5.73452767352907 5.99863796880734  5.54905621479409 5.99863796880734  Z " fill-rule="nonzero" fill="#8f4700" stroke="none" transform="matrix(1 0 0 1 251 443 )" />
  </g>
</svg>