<?xml version="1.0" encoding="utf-8"?>
<svg version="1.1" xmlns:xlink="http://www.w3.org/1999/xlink" width="15px" height="16px" xmlns="http://www.w3.org/2000/svg">
  <g transform="matrix(1 0 0 1 -247 -436 )">
    <path d="M 14.8821196716102 8.37374161290323  C 14.8885231302966 5.91896341935484  13.3901139883475 3.64184790322581  10.4872130879237 2.85969879032258  C 9.46265982521186 2.58237169354839  9.73373953919491 0.974741129032258  7.28548415783898 0.0669281774193546  C 7.28548415783898 0.0669281774193546  6.25025847457627 2.3028779516129  4.58749391949153 2.8076999516129  C 2.00476590572034 3.58768243548387  0.105073411016949 5.66546909677419  0.105073411016949 8.37374161290323  L 0.105073411016949 12.2086554677419  C 0.105073411016949 14.1586116774194  1.29825106461864 15.4347496774194  3.21715393538136 15.7597423709677  C 4.12644495762712 15.9157388709677  10.593937404661 16.0565690322581  11.7700391472458 15.7597423709677  C 13.9301389353814 15.2180878709677  14.8821196716102 14.4901042258065  14.8821196716102 12.2086554677419  L 14.8821196716102 8.37374161290323  Z " fill-rule="nonzero" fill="#c79e79" stroke="none" transform="matrix(1 0 0 1 247 436 )" />
  </g>
</svg>