<?xml version="1.0" encoding="utf-8"?>
<svg version="1.1" xmlns:xlink="http://www.w3.org/1999/xlink" width="14px" height="16px" xmlns="http://www.w3.org/2000/svg">
  <g transform="matrix(1 0 0 1 -248 -492 )">
    <path d="M 4.866666671875 0  L 9.133333328125 0  C 9.72243706415433 0  10.2 0.477562935845671  10.2 1.066666671875  L 10.2 2.666666671875  L 13.933333328125 5.333333328125  L 13.933333328125 14.933333328125  C 13.933333328125 15.5224370580524  13.4557704018024 15.9999999913706  12.866666671875 16  L 1.133333328125 16  C 0.544229598197612 15.9999999913706  0.066666671875 15.5224370580524  0.066666671875 14.933333328125  L 0.066666671875 5.333333328125  L 3.8 2.666666671875  L 3.8 1.066666671875  C 3.8 0.477562935845671  4.27756293584567 0  4.866666671875 0  Z M 9.133333328125 3.216  L 9.133333328125 1.066666671875  L 4.866666671875 1.066666671875  L 4.866666671875 2.133333328125  L 7 2.133333328125  C 7.29455186801466 2.133333328125  7.5333333359375 2.37211479604784  7.5333333359375 2.6666666640625  C 7.5333333359375 2.96121853207716  7.29455186801466 3.2  7 3.2  L 4.866666671875 3.2  L 4.866666671875 3.216  L 1.133333328125 5.882666671875  L 1.133333328125 7.466666671875  L 3.266666671875 7.466666671875  C 3.56121853557494 7.466666671875  3.8 7.70544813630006  3.8 8  L 3.8 11.733333328125  C 3.8 12.0278852074499  3.56121853557494 12.266666671875  3.266666671875 12.266666671875  L 1.133333328125 12.266666671875  L 1.133333328125 15  L 12.866666671875 15  L 12.866666671875 5.882666671875  L 9.133333328125 3.216  Z M 10.733333328125 11.733333328125  C 11.0278851961397 11.733333328125  11.2666666640625 11.9721147960478  11.2666666640625 12.2666666640625  C 11.2666666640625 12.5612185320772  11.0278851961397 12.8  10.733333328125 12.8  C 10.4387814601103 12.8  10.1999999921875 12.5612185320772  10.1999999921875 12.2666666640625  C 10.1999999921875 11.9721147960478  10.4387814601103 11.733333328125  10.733333328125 11.733333328125  Z M 2.733333328125 11.2  L 2.733333328125 8.533333328125  L 1.133333328125 8.533333328125  L 1.133333328125 11.2  L 2.733333328125 11.2  Z M 10.73333334375 6.933333328125  C 11.0278852074499 6.933333328125  11.266666671875 7.17211479255006  11.266666671875 7.46666665625  L 11.266666671875 10.666666671875  C 11.266666671875 10.9612185398897  11.0278852039522 11.2000000078125  10.7333333359375 11.2000000078125  C 10.4387814679228 11.2000000078125  10.2 10.9612185398897  10.2 10.666666671875  L 10.2 7.466666671875  C 10.2 7.17211479255006  10.4387814644251 6.933333328125  10.733333328125 6.933333328125  Z " fill-rule="nonzero" fill="#ffffff" stroke="none" transform="matrix(1 0 0 1 248 492 )" />
  </g>
</svg>