<?xml version="1.0" encoding="utf-8"?>
<svg version="1.1" xmlns:xlink="http://www.w3.org/1999/xlink" width="5px" height="5px" xmlns="http://www.w3.org/2000/svg">
  <g transform="matrix(1 0 0 1 -254 -470 )">
    <path d="M 0.739047625 0.760518524305555  C -0.37150475 1.97948149305556  -0.00975237499999996 3.58422222222222  1.25500951785714 4.47488888888889  C 2.55634285714286 5.39103703125  4.17036189285714 5.08555555555556  4.80030476785714 3.46659258680556  C 4.99657142857143 2.96348147569445  5.00205714285714 2.42451850694445  4.835047625 1.91874074652778  C 4.28769525 0.254148159722222  2.11748571428571 -0.662296284722222  0.792685714285714 0.70392592013889  L 0.739352375 0.760518524305556  Z M 3.67390476785714 2.28022222222222  C 3.75923810714286 2.53711111111111  3.75619048214286 2.80081480902778  3.66049523214286 3.04674074652778  C 3.33744760714286 3.87637038194444  2.66453332142857 4.00377777777778  1.97028571428571 3.51488888888889  C 1.24586666071428 3.00496296875  1.06300951785714 2.19281480902778  1.65180951785714 1.54659258680555  C 2.24274285714286 0.897999999999999  3.37340951785714 1.36585184027778  3.67420951785714 2.28022222222222  Z " fill-rule="nonzero" fill="#ffe49e" stroke="none" transform="matrix(1 0 0 1 254 470 )" />
  </g>
</svg>