<?xml version="1.0" encoding="utf-8"?>
<svg version="1.1" xmlns:xlink="http://www.w3.org/1999/xlink" width="16px" height="16px" xmlns="http://www.w3.org/2000/svg">
  <g transform="matrix(1 0 0 1 -247 -464 )">
    <path d="M 7.46063448275862 0.408275862068966  L 7.39884137931034 0.547457465517241  C 6.83387586206896 1.80450574137931  6.57169655172414 1.81627586206897  5.55152184482758 0.805222982758621  C 5.17782068965517 0.435347120689655  4.54370575862069 0.703411482758621  4.54870805172414 1.22894712068966  L 4.54929655172414 1.44198620689655  C 4.54282298275862 2.72669425862069  4.32183908620689 2.80437701724138  3.02800918965517 2.2561839137931  C 2.54072643103448 2.05020689655172  2.04991263793103 2.54072644827586  2.2561839137931 3.02771494827586  L 2.33769194827586 3.22339310344828  C 2.81850113793103 4.40687815517241  2.64253793103448 4.56224367241379  1.22894712068965 4.54870805172414  C 0.703411482758619 4.54370575862069  0.435347120689654 5.17811494827586  0.805222982758619 5.55152184482759  L 0.909682758620688 5.65774712068966  C 1.8471724137931 6.62525056896552  1.7541885 6.87242298275862  0.407981603448275 7.46063448275862  C -0.0625287413793117 7.66631724137931  -0.0625287413793117 8.33368275862069  0.407981603448275 8.53936551724138  L 0.54745746551724 8.60115862068966  C 1.80450574137931 9.16612413793104  1.81627586206896 9.42830344827586  0.805222982758619 10.4484781551724  C 0.435347120689654 10.8221793103448  0.703411482758619 11.4562942413793  1.22894712068965 11.4512919482759  L 1.44198620689655 11.4507034482759  C 2.72669425862069 11.4571770172414  2.80437701724138 11.6781609137931  2.2561839137931 12.9719908103448  C 2.05020689655172 13.4592735689655  2.54072644827586 13.950087362069  3.02771494827586 13.7438160862069  L 3.22339310344827 13.6623080517241  C 4.40687815517241 13.181498862069  4.56224367241379 13.3574620689655  4.54870805172414 14.7710528793103  C 4.54370575862069 15.2965885172414  5.17811494827586 15.5646528793103  5.55152184482758 15.1947770172414  L 5.65774712068965 15.0903172413793  C 6.62525056896552 14.1528275862069  6.87242298275862 14.2458115  7.46063448275862 15.5920183965517  C 7.66631724137931 16.0625287413793  8.33368275862069 16.0625287413793  8.53936551724138 15.5920183965517  L 8.60115862068965 15.4525425344828  C 9.16612413793103 14.1954942586207  9.42830344827586 14.183724137931  10.4484781551724 15.1947770172414  C 10.8221793103448 15.5646528793103  11.4562942413793 15.2965885172414  11.4512919482759 14.7710528793103  L 11.4507034482759 14.5580137931034  C 11.4571770172414 13.2733057413793  11.6781609137931 13.1956229827586  12.9719908103448 13.7438160862069  C 13.4592735689655 13.9497931034483  13.950087362069 13.4592735517241  13.7438160862069 12.9722850517241  L 13.6623080517241 12.7766068965517  C 13.181498862069 11.5934160862069  13.3577563275862 11.4377563275862  14.7710528793103 11.4512919482759  C 15.2965885172414 11.4562942413793  15.5646528793103 10.8218850517241  15.1947770172414 10.4484781551724  L 15.0903172413793 10.3422528793103  C 14.1528275862069 9.37474943103448  14.2458115 9.12757701724138  15.5920183965517 8.53936551724138  C 16.0625287413793 8.33368275862069  16.0625287413793 7.66631724137931  15.5920183965517 7.46063448275862  L 15.4525425344828 7.39884137931035  C 14.1954942586207 6.83387586206897  14.183724137931 6.57169655172414  15.1947770172414 5.55152184482759  C 15.5646528793103 5.17782068965517  15.2965885172414 4.54370575862069  14.7710528793103 4.54870805172414  L 14.5580137931034 4.54929655172414  C 13.2733057413793 4.54252874137931  13.1956229827586 4.3218390862069  13.7438160862069 3.02800918965517  C 13.9497931034483 2.54072643103448  13.4592735517241 2.04991263793104  12.9722850517241 2.2561839137931  L 12.7766068965517 2.33769194827586  C 11.5931218448276 2.81850113793104  11.4377563275862 2.64253793103448  11.4512919482759 1.22894712068966  C 11.4562942413793 0.703411482758621  10.8218850517241 0.435347120689656  10.4484781551724 0.805222982758621  L 10.3422528793103 0.90968275862069  C 9.37474943103448 1.8471724137931  9.12757701724138 1.7541885  8.53936551724138 0.407981603448277  C 8.33368275862069 -0.0625287413793097  7.66631724137931 -0.0625287413793097  7.46063448275862 0.407981603448277  Z M 7.96674943103448 1.90455172413793  L 8 1.85894253448276  L 8.03325056896552 1.90455172413793  C 8.666777 2.75759081034483  9.41447355172414 2.92678620689655  10.3048827586207 2.41449194827586  L 10.3763862068966 2.37153103448276  L 10.3913931034483 2.4353839137931  C 10.6341517241379 3.42907586206897  11.2544367758621 3.84691494827586  12.2634298793103 3.69449194827586  L 12.3134528793103 3.68625287931034  L 12.3055080517241 3.73627586206897  C 12.1533793103448 4.74556322413793  12.570924137931 5.36584827586207  13.5649103448276 5.60860689655173  L 13.6281747068966 5.62331953448276  L 13.6264091896552 5.62655632758621  C 13.0649747068966 6.54697931034483  13.2206344827586 7.3170390862069  14.0954482758621 7.96674943103448  L 14.1407632241379 8  L 14.0954482758621 8.03325056896552  C 13.2424091896552 8.666777  13.0732137931035 9.41447355172414  13.5855080517241 10.3048827586207  L 13.6281747068966 10.3763862068966  L 13.5649103448276 10.3913931034483  C 12.570924137931 10.6341517241379  12.1533793103448 11.2544367758621  12.3055080517241 12.2634298793103  L 12.3134528793103 12.3134528793103  L 12.2634298793103 12.3055080517241  C 11.2544367758621 12.1530850689655  10.6341517241379 12.570924137931  10.3913931034483 13.5649103448276  L 10.3763862068966 13.6281747068966  L 10.3734436724138 13.6264091896552  C 9.45302068965517 13.0649747068966  8.6829609137931 13.2206344827586  8.03325056896552 14.0954482758621  L 8 14.1407632241379  L 7.96674943103448 14.0954482758621  C 7.333223 13.2424091896552  6.58552644827586 13.0732137931035  5.69511724137931 13.5855080517241  L 5.62331953448276 13.6281747068966  L 5.60860689655172 13.5646160862069  C 5.36584827586207 12.570924137931  4.74556322413793 12.1530850517241  3.73657012068965 12.3055080517241  L 3.68625287931034 12.3134528793103  L 3.69449194827586 12.2634298793103  C 3.84691493103448 11.2544367758621  3.42907586206896 10.6341517241379  2.43508965517241 10.3913931034483  L 2.37153103448276 10.3763862068966  L 2.37359081034483 10.3734436724138  C 2.93502529310345 9.45302068965517  2.77936551724138 8.6829609137931  1.90455172413793 8.03325056896552  L 1.85894253448276 8  L 1.90455172413793 7.96674943103448  C 2.75759081034483 7.333223  2.92678620689655 6.58552644827586  2.41449194827586 5.69511724137931  L 2.37153103448276 5.62331953448276  L 2.4353839137931 5.60860689655172  C 3.42907586206897 5.36584827586207  3.84691494827586 4.74556322413793  3.69449194827586 3.73657012068965  L 3.68625287931034 3.68625287931034  L 3.73627586206897 3.69449194827586  C 4.74556322413793 3.84691493103448  5.36584827586207 3.42907586206896  5.60860689655173 2.43508965517241  L 5.62331953448276 2.37153103448276  L 5.62655632758621 2.37359081034483  C 6.54697931034483 2.93502529310345  7.3170390862069 2.77936551724138  7.96674943103448 1.90455172413793  Z " fill-rule="nonzero" fill="#7dc498" stroke="none" transform="matrix(1 0 0 1 247 464 )" />
  </g>
</svg>