<?xml version="1.0" encoding="utf-8"?>
<svg version="1.1" xmlns:xlink="http://www.w3.org/1999/xlink" width="7px" height="7px" xmlns="http://www.w3.org/2000/svg">
  <g transform="matrix(1 0 0 1 -370 -439 )">
    <path d="M 6.85531532608696 6.65120111647727  C 6.9755727201087 6.46441172443182  6.99275233695653 6.15908290056818  6.90685421467391 5.68851728693182  C 6.65259574456522 4.27322839204545  5.4637655625 1.5791505625  4.597912375 0.770927221590909  C 4.05847209782609 0.26444059090909  3.36097923913044 0.0094012187499994  2.63943491304348 0.0489143494318174  C 1.91445467119565 0.0884274999999989  1.25132106521739 0.422493133522726  0.766855592391305 0.986453443181818  C 0.62254673097826 1.15169021306818  0.502289336956522 1.33488751136364  0.402647494565219 1.52526899715909  C 1.11044811956522 1.52167688352273  2.00035279347826 1.93836093181818  3.11359261956522 2.95492630681818  L 3.39190257608696 3.10220256818182  C 3.39190257608696 3.10220256818182  3.36441517391305 3.35364982670455  3.25102963043479 3.39316297727273  C 1.9247624375 2.23291345454545  0.928344089673916 1.89166359375  0.186184211956526 2.08204509943182  C 0.065926817934787 2.50591335511364  0.0453112663043517 2.95851842045455  0.124337557065222 3.40753139204545  C 0.234287165760874 4.02537324715909  0.529776758152179 4.57137302840909  0.979882959239136 4.99164915056818  C 1.93507020380435 5.886083  5.2060711576087 7.04992461647727  6.3639780027174 6.902648375  C 6.60449277173914 6.87391154545454  6.76598126902174 6.79129315056818  6.85531532608696 6.65120111647727  Z " fill-rule="nonzero" fill="#f2f2f2" stroke="none" transform="matrix(1 0 0 1 370 439 )" />
  </g>
</svg>