<?xml version="1.0" encoding="utf-8"?>
<svg version="1.1" xmlns:xlink="http://www.w3.org/1999/xlink" width="5px" height="4px" xmlns="http://www.w3.org/2000/svg">
  <g transform="matrix(1 0 0 1 -361 -443 )">
    <path d="M 4.83224555357143 1.33248494642857  C 3.82587003571429 0.671244625000002  2.554998375 2.22596578571429  2.55499835714286 2.22596578571429  C 2.55499835714286 2.22596578571429  2.34211123214286 2.15500341071429  2.32920898214286 2.03888314285714  C 2.31953228571429 1.92598844642857  2.51306605357143 1.81309376785714  2.51306605357143 1.81309376785714  C 2.51306605357143 1.81309376785714  3.54524607142857 0.59060555357143  4.55807273214286 0.768011482142858  C 4.02908046428571 0.0325832142857152  3.02915607142857 -0.206108410714285  2.21308873214286 0.274500410714287  C 1.50346496428571 0.690597982142859  0.190661 2.47433408928572  0.0519618035714284 3.20653680357143  C 0.0197061785714285 3.37426605357143  0.0422851071428571 3.506514125  0.116473053571428 3.603281  C 0.516442821428571 4.11614544642857  3.103344 3.78068694642857  3.89360683928571 3.40974725  C 3.93553916071429 3.390393875  3.97747146428571 3.36781492857143  4.01617821428571 3.345236  C 4.42582466071429 3.10331880357143  4.71612530357143 2.71947685714286  4.83869667857143 2.25822141071429  C 4.91933575 1.94856741071429  4.91611017857143 1.63246226785714  4.83224555357143 1.33248494642857  Z " fill-rule="nonzero" fill="#f2f2f2" stroke="none" transform="matrix(1 0 0 1 361 443 )" />
  </g>
</svg>