<?xml version="1.0" encoding="utf-8"?>
<svg version="1.1" xmlns:xlink="http://www.w3.org/1999/xlink" width="6px" height="10px" xmlns="http://www.w3.org/2000/svg">
  <g transform="matrix(1 0 0 1 -366 -440 )">
    <path d="M 0.405585588235295 3.90435761065574  L 0.133310165441176 3.32803947540984  C 0.890368676470588 3.45796091188525  1.63746590073529 4.34409169057377  1.96950909926471 7.01914062909836  C 1.98611126838235 7.07244172745902  1.98279082720588 7.13240546311475  1.95622737132353 7.18237523360656  C 1.92966391544118 7.23234502254098  1.88649829044118 7.27232084631148  1.83337137867647 7.28897744877049  C 1.79352619485294 7.30230272336066  1.75036056985294 7.30230272336066  1.70719496323529 7.29230875819672  C 1.64078632352941 7.27232084631147  1.58433897058824 7.22235105737705  1.56441637867647 7.152393375  C 1.38179261029412 5.15360213114754  0.926893419117648 4.23748947540984  0.405585588235295 3.90435761065574  Z M 4.95125709558823 0.0766723831967216  L 4.73210858455882 0.589695473360656  C 2.029276875 1.22597734426229  2.74649020220588 8.75142636270492  2.74649020220588 8.75142636270492  C 2.74649020220588 8.75142636270492  2.64355680147059 8.96129944672131  2.52734169117647 8.95796811885246  L 2.51073952205882 8.95796811885246  C 2.40116525735294 8.9446428442623  2.32479533088235 8.73810108811475  2.32479533088235 8.73810108811475  C 2.32479533088235 8.73810108811475  1.71383582720588 0.066678418032787  4.95125709558823 0.0766723831967216  Z " fill-rule="nonzero" fill="#f2f2f2" stroke="none" transform="matrix(1 0 0 1 366 440 )" />
  </g>
</svg>