<?xml version="1.0" encoding="utf-8"?>
<svg version="1.1" xmlns:xlink="http://www.w3.org/1999/xlink" width="10px" height="5px" xmlns="http://www.w3.org/2000/svg">
  <g transform="matrix(1 0 0 1 -364 -497 )">
    <path d="M 9.84099966216216 1.46179557142857  C 9.88956236486487 1.0318135  9.89564175675676 0.548887017857142  9.84816464527027 0.00651285714285673  C 9.84816464527027 0.00651285714285673  6.22550265202703 0.770534375  6.22550265202703 4.95574417857143  C 6.22550265202703 4.95574417857143  6.28694785472973 4.95605021428571  6.39311998310811 4.94748117857143  C 7.08508425675676 2.12138196428571  9.69415356418919 1.49492408928571  9.84099966216216 1.46179557142857  Z M 3.75727241554054 4.95574417857143  C 3.75727241554054 0.541083089285713  0.13489991554054 0.00651285714285673  0.134899915540541 0.00651285714285673  C 0.086916199324325 0.549728642857142  0.0979893581081087 1.032731625  0.154368429054054 1.46340226785714  C 0.399280793918919 1.50617094642857  2.94806287162162 2.01893603571429  3.6039127027027 4.94013628571428  C 3.65486058171685 4.94708055553673  3.70600707507847 4.95228589254235  3.75727241554054 4.95574417857143  Z " fill-rule="nonzero" fill="#6e6e96" stroke="none" transform="matrix(1 0 0 1 364 497 )" />
  </g>
</svg>