<?xml version="1.0" encoding="utf-8"?>
<svg version="1.1" xmlns:xlink="http://www.w3.org/1999/xlink" width="15px" height="16px" xmlns="http://www.w3.org/2000/svg">
  <g transform="matrix(1 0 0 1 -361 -492 )">
    <path d="M 7.5 0.778512612903226  C 11.4533142598684 0.778512596774194  14.2145034210526 3.56338074193548  14.2145034210526 7.55081658064516  C 14.2145034210526 11.7374134193548  9.33917199013158 15.2214873870968  7.5 15.2214873870968  C 5.8549702631579 15.2214873870968  0.785496578947368 11.7703074677419  0.785496578947368 7.55081658064516  C 0.785496578947368 3.56338075806452  3.54668574013158 0.778512629032258  7.5 0.778512612903226  Z M 12.7433208552632 2.08459980645161  C 11.3999691776316 0.796756370967742  9.53789473684211 0.0874611935483871  7.5 0.0874611935483871  C 5.46217574013158 0.0874611935483871  3.60003082236842 0.796756370967742  2.25667914473684 2.08459980645161  C 0.833204144736842 3.44928816129032  0.0808059868421053 5.33952112903226  0.0808059868421053 7.55081658064516  C 0.0808059868421053 10.2769453387097  1.92610878289474 12.4281884193548  3.02591940789474 13.4678752903226  C 4.52451442434211 14.8843925  6.40610878289474 15.9125388064516  7.5 15.9125388064516  C 8.65639726973684 15.9125388064516  10.5169213815789 14.9067134516129  12.0242545723684 13.4665622903226  C 13.1054613486842 12.4336477258065  14.9191940131579 10.2915956290323  14.9191940131579 7.55081658064516  C 14.9191940131579 5.33952112903226  14.1667958552632 3.44928816129032  12.7433208552632 2.08459980645161  Z " fill-rule="nonzero" fill="#6e6e96" stroke="none" transform="matrix(1 0 0 1 361 492 )" />
  </g>
</svg>