<?xml version="1.0" encoding="utf-8"?>
<svg version="1.1" xmlns:xlink="http://www.w3.org/1999/xlink" width="4px" height="5px" xmlns="http://www.w3.org/2000/svg">
  <g transform="matrix(1 0 0 1 -363 -497 )">
    <path d="M 0.363404332969594 0.674448125723721  C 0.348404868543833 0.674448125723721  0.333423443141849 0.673402071702998  0.318567772727273 0.671317484756098  C 0.438988712121212 0.688886631097561  3.28799898484848 1.14437800304878  3.28799898484848 4.57284213414634  C 3.28800400058124 4.39248942256156  3.43332407737911 4.24628733856459  3.61258374229718 4.24628733856459  C 3.61782268126604 4.24628733856459  3.62306085241402 4.24641495009074  3.62829365151515 4.24667006097561  C 3.61537518181818 4.24595161585366  2.25101560606061 4.16182875  1.38768504545455 3.15607714939024  C 0.813559515151515 2.48714358231707  0.577651318181819 1.55258291158537  0.686581969696969 0.37825900914634  C 0.670996029458737 0.546116543303358  0.530970973834311 0.674448125723721  0.363404332969594 0.674448125723721  Z M 3.83661215151515 4.80940504573171  C 3.90083082734732 4.74767309224914  3.93716190699219 4.66220274541048  3.9371685 4.57284213414634  C 3.9371685 2.48733952743902  2.97996804545455 1.36004082317073  2.17694534848485 0.781565472560976  C 1.30971978787879 0.156848658536586  0.444701409090909 0.0295540396341469  0.408282999999999 0.0244596341463425  C 0.393429287033222 0.0223756053090908  0.37844986966258 0.0213298323614106  0.363452420544049 0.0213298323614106  C 0.195861106426924 0.0213298323614106  0.0558239468491476 0.149698072775587  0.0402688030303024 0.31758342987805  C -0.0859946666666675 1.67922442073171  0.203859515151515 2.77994080792683  0.901781666666666 3.5891662347561  C 1.95090453030303 4.8054862652439  3.53020413636364 4.89581385670732  3.59700368181818 4.89914481707317  C 3.68570060874602 4.90339502055621  3.77226806473246 4.870973196254  3.83661215151515 4.80940504573171  Z " fill-rule="nonzero" fill="#6e6e96" stroke="none" transform="matrix(1 0 0 1 363 497 )" />
  </g>
</svg>