<?xml version="1.0" encoding="utf-8"?>
<svg version="1.1" xmlns:xlink="http://www.w3.org/1999/xlink" width="4px" height="5px" xmlns="http://www.w3.org/2000/svg">
  <g transform="matrix(1 0 0 1 -369 -497 )">
    <path d="M 3.81568048484849 0.0861149085365879  C 3.74185693535115 0.0307812799957228  3.64817421472294 0.0095379445968473  3.55789527272727 0.0276599695121955  C 3.52180145454545 0.0349096951219512  2.66392392424242 0.212560472560976  1.80267072727273 0.858830487804879  C 1.00198504545455 1.45977344512195  0.0475110909090903 2.59190528963415  0.0475110909090903 4.57284213414634  C 0.0475110909090903 4.7531984141466  0.192832636848231 4.89940606707317  0.372095848484848 4.89940606707317  C 0.435779378787879 4.89973263719512  1.98138709090909 4.89391978658537  3.03726131818182 3.734683125  C 3.77341956060606 2.92643737804878  4.07872398484848 1.77680170731708  3.94473539393939 0.317844679878051  C 3.93626317919438 0.225703274694683  3.88936529139791 0.141493871952635  3.81568048484849 0.0861149085365879  Z M 0.696680621212122 4.57284213414634  C 0.696680621212122 1.30550464939025  3.56289387878788 0.692609451219513  3.68493774242424 0.668117149390244  C 3.66401043531692 0.672322135836007  3.64272189013437 0.674440009403314  3.62138130867434 0.674440009403314  C 3.45367865987145 0.674440009403314  3.31359852359878 0.545882140766389  3.29822746969697 0.377867134146343  C 3.41436389393939 1.64284519817073  3.16696539393939 2.62227574695122  2.56258856060606 3.28892335365854  C 1.70458121212121 4.23550157012195  0.386312666666668 4.24621286585366  0.373004696969698 4.24621288109756  C 0.551808236333448 4.24635664673801  0.696681408520168 4.39222972265518  0.696681408520168 4.57212358494941  Z " fill-rule="nonzero" fill="#6e6e96" stroke="none" transform="matrix(1 0 0 1 369 497 )" />
  </g>
</svg>