<?xml version="1.0" encoding="utf-8"?>
<svg version="1.1" xmlns:xlink="http://www.w3.org/1999/xlink" width="9px" height="13px" xmlns="http://www.w3.org/2000/svg">
  <g transform="matrix(1 0 0 1 -364 -464 )">
    <path d="M 4.98738461538462 10.1257  C 6.11946431720498 9.90668443729074  6.93234631097917 8.97167582107194  6.93415384615384 7.88645  C 6.93262776470455 6.62485240321256  5.84371341669668 5.60248282091628  4.5 5.60105  C 3.15628658330332 5.60248282091628  2.06737223529545 6.62485240321256  2.06584615384615 7.88645  C 2.06772161022607 8.97187469847771  2.88095283143891 9.90695247851922  4.01330769230769 10.1257  L 4.01330769230769 12.48715  C 4.01330769230769 12.7396960089789  4.23136223895741 12.944425  4.50034615384616 12.944425  C 4.7693300687349 12.944425  4.98738461538462 12.7396960089789  4.98738461538462 12.48715  L 4.98738461538462 10.1257  Z M 5.96076923076923 7.88645  C 5.96076923076923 8.6424  5.30515384615385 9.2573  4.5 9.2573  C 3.69484615384615 9.2573  3.03992307692308 8.6424  3.03992307692308 7.88645  C 3.03992307692308 7.1305  3.69484615384615 6.5156  4.5 6.5156  C 5.30584615384616 6.5156  5.96076923076923 7.1305  5.96076923076923 7.88645  Z M 4.98738461538462 1.9448  C 4.9870026481134 2.1972716234962  4.768904959031 2.40175025470526  4.5 2.40175  C 4.23120726060158 2.40175  4.01330769230769 2.19716651643518  4.01330769230769 1.9448  L 4.01330769230769 0.5434  C 4.01330769230769 0.290853991021124  4.23136223895741 0.0861250000000002  4.50034615384616 0.0861250000000002  C 4.7693300687349 0.0861250000000002  4.98738461538462 0.290853991021124  4.98738461538462 0.5434  L 4.98738461538462 1.9448  Z M 2.06405255884713 2.40110595228149  C 2.06405255884713 2.65292045213532  1.84735515019473 2.85741562145553  1.57915384615385 2.8587  C 1.45005817961232 2.85881013038011  1.32623575896901 2.81062374817269  1.23507692307692 2.7248  L 0.261000000000002 1.8109  C 0.181306217872626 1.72705203969314  0.137261484034759 1.61860233964641  0.137261484034759 1.50622328223264  C 0.137261484034759 1.25349778071006  0.355471009040305 1.04862328223264  0.624646099419375 1.04862328223264  C 0.744339770037594 1.04862328223264  0.859848326300386 1.08997639344708  0.949153846153846 1.1648  L 1.92253846153846 2.0787  C 2.0131834174633 2.1644200734306  2.06405255884713 2.28031321963655  2.06405255884713 2.40110595228149  Z M 7.76492307692308 2.7248  C 7.6738513784022 2.8107458974385  7.54997227109161 2.85895433966867  7.42084615384615 2.8587  C 7.15237423815089 2.85777082827409  6.93525814009583 2.65317012016802  6.93525814009583 2.40110310897653  C 6.93525814009583 2.280311764223  6.98612611573273 2.16441983367088  7.07676923076923 2.0787  L 8.05015384615385 1.1648  C 8.1414087199271 1.07912181295733  8.26517688910799 1.03098830867537  8.39423076923077 1.03098830867537  C 8.66297156261591 1.03098830867537  8.88082902034576 1.2355322550995  8.88082902034576 1.48785  C 8.88082902034576 1.60901725411527  8.82956256608094 1.72522181295734  8.73830769230769 1.8109  L 7.76492307692308 2.7248  Z " fill-rule="nonzero" fill="#ffffff" stroke="none" transform="matrix(1 0 0 1 364 464 )" />
  </g>
</svg>