<?xml version="1.0" encoding="utf-8"?>
<svg version="1.1" xmlns:xlink="http://www.w3.org/1999/xlink" width="15px" height="6px" xmlns="http://www.w3.org/2000/svg">
  <g transform="matrix(1 0 0 1 -247 -530 )">
    <path d="M 14.99375 4.50119318181818  C 14.9939338235294 3.785625  14.4983455882353 3.15153409090909  13.7604779411765 2.92551136363636  L 13.7049632352941 2.91085227272727  C 12.8954044117647 2.70920454545454  12.6211397058824 2.51522727272727  12.2608455882353 2.38806818181818  C 10.9816176470588 1.93602272727273  10.6490808823529 1.61079545454545  10.5639705882353 1.45704545454545  C 10.5606617647059 1.45125  10.5588235294118 1.44545454545455  10.5558823529412 1.43982954545455  L 10.5454044117647 0.0622159090909106  L 7.51194852941176 0.0303409090909106  L 4.47904411764706 0.0622159090909106  L 4.46856617647059 1.43982954545455  C 4.465625 1.445625  4.46323529411765 1.45125  4.46047794117647 1.45704545454545  C 4.37536764705882 1.61079545454545  4.04283088235294 1.93602272727273  2.76360294117647 2.38806818181818  C 2.40275735294118 2.51522727272727  2.12904411764706 2.709375  1.31911764705882 2.91085227272727  L 1.26378676470588 2.92551136363636  C 0.526470588235294 3.15153409090909  0.0305147058823529 3.785625  0.0305147058823529 4.50119318181818  L 0.0305147058823529 5.88494318181818  L 14.99375 5.88494318181818  L 14.99375 4.50119318181818  Z " fill-rule="nonzero" fill="#8cc153" stroke="none" transform="matrix(1 0 0 1 247 530 )" />
  </g>
</svg>