<?xml version="1.0" encoding="utf-8"?>
<svg version="1.1" xmlns:xlink="http://www.w3.org/1999/xlink" width="10px" height="9px" xmlns="http://www.w3.org/2000/svg">
  <g transform="matrix(1 0 0 1 -363 -468 )">
    <path d="M 9.53548387096774 8.94568421052632  C 9.30441149909951 8.94543631665577  9.110470658425 8.77516263452052  9.08516129032258 8.55031578947368  L 8.35741935483871 2.10757894736842  C 8.28108104565295 1.43267851609473  7.69814385751702 0.922155285717003  7.00451612903226 0.922736842105263  L 2.99483870967742 0.922736842105263  C 2.30121098119265 0.922155285717005  1.71827379305673 1.43267851609473  1.64193548387097 2.10757894736842  L 0.914193548387097 8.55031578947368  C 0.88649717116743 8.79399487533728  0.662527974475144 8.96973717256818  0.413548387096774 8.94315789473684  C 0.164628890784503 8.91604459914285  -0.0148928106879219 8.69679054343356  0.0122580645161291 8.45305263157895  L 0.740645161290322 2.01031578947368  C 0.867067850300487 0.885199245200372  1.83859430033959 0.0337518604440213  2.99483870967742 0.034736842105263  L 7.00451612903226 0.0347368421052619  C 8.16053964393289 0.0337165600565425  9.13198200540016 0.884818071160262  9.25870967741935 2.00968421052632  L 9.98709677419355 8.45305263157895  C 9.98886506927848 8.46899407199823  9.98975115874372 8.48501748485336  9.98975115874372 8.50105263743881  C 9.98975115874372 8.74661587778463  9.78640178060235 8.94568421638618  9.53555761035662 8.94568421638618  Z " fill-rule="nonzero" fill="#ffffff" stroke="none" transform="matrix(1 0 0 1 363 468 )" />
  </g>
</svg>