<?xml version="1.0" encoding="utf-8"?>
<svg version="1.1" xmlns:xlink="http://www.w3.org/1999/xlink" width="14px" height="4px" xmlns="http://www.w3.org/2000/svg">
  <g transform="matrix(1 0 0 1 -361 -476 )">
    <path d="M 13.8684651162791 3.42956521739131  C 13.8677482752801 3.69961009424928  13.6628218401841 3.91822673761882  13.4100465116279 3.91860869565217  L 0.589953488372092 3.91860869565217  C 0.336843511298517 3.91860919183825  0.13218558205838 3.69996842271214  0.13218558205838 3.43026136575129  L 0.132186046511628 2.45147826086957  C 0.133621430613807 1.1012734750101  1.15781993881759 0.00709867121475119  2.42167441860465 0.00556521739130621  L 11.578976744186 0.00556521739130621  C 12.8428312239731 0.00709867121475366  13.8670297321769 1.10127347501009  13.8684651162791 2.45147826086957  L 13.8684651162791 3.42956521739131  Z M 1.04772093023256 2.45147826086957  L 1.04772093023256 3  L 12.9522790697674 3  L 12.9522790697674 2.45147826086957  C 12.9515611181986 1.64152241198931  12.337133091103 0.985114830247423  11.578976744186 0.984347826086956  L 2.42102325581395 0.984347826086953  C 1.66286690889697 0.985114830247426  1.04843888180137 1.64152241198931  1.04772093023256 2.45147826086957  Z " fill-rule="nonzero" fill="#ffffff" stroke="none" transform="matrix(1 0 0 1 361 476 )" />
  </g>
</svg>