<?xml version="1.0" encoding="utf-8"?>
<svg version="1.1" xmlns:xlink="http://www.w3.org/1999/xlink" width="10px" height="7px" xmlns="http://www.w3.org/2000/svg">
  <g transform="matrix(1 0 0 1 -250 -520 )">
    <path d="M 9.90790441176471 3.67668269230769  C 9.90772058823529 3.63949519230769  9.90055147058824 2.75776442307692  9.28566176470588 1.87317307692308  C 8.92297794117647 1.35137019230769  8.425 0.93625  7.80533088235294 0.639254807692308  C 7.04797794117647 0.275793269230769  6.10808823529412 0.0915384615384615  5.01231617647059 0.0915384615384615  C 3.9170955882353 0.0915384615384615  2.97720588235294 0.275793269230769  2.21985294117647 0.639254807692308  C 1.59963235294118 0.93625  1.10165441176471 1.35137019230769  0.739522058823532 1.87317307692308  C 0.124080882352944 2.75759615384615  0.117279411764708 3.63949519230769  0.117279411764708 3.67668269230769  L 0.117279411764708 6.66430288461538  C 0.117279411764708 6.79555288461538  0.210845588235297 6.91149038461539  0.34761029411765 6.94985576923077  C 0.484792993576198 6.98837816247426  0.633364275716291 6.94028981207992  0.713602941176473 6.83139423076923  L 1.94172794117647 5.17057692307692  L 8.08161764705883 5.17057692307692  L 9.31102941176471 6.83173076923077  C 9.37316176470588 6.91519230769231  9.47536764705882 6.96298076923077  9.58143382352941 6.96298076923077  C 9.61341911764706 6.96298076923077  9.64540441176471 6.95860576923077  9.67702205882353 6.94985576923077  C 9.8142451840328 6.91155224514383  9.9079775263483 6.79562506236444  9.90790441176471 6.66430288461539  L 9.90790441176471 3.67668269230769  Z " fill-rule="nonzero" fill="#ed5564" stroke="none" transform="matrix(1 0 0 1 250 520 )" />
  </g>
</svg>