<?xml version="1.0" encoding="utf-8"?>
<svg version="1.1" xmlns:xlink="http://www.w3.org/1999/xlink" width="10px" height="4px" xmlns="http://www.w3.org/2000/svg">
  <g transform="matrix(1 0 0 1 -250 -520 )">
    <path d="M 9.90790441176471 3.64166666666667  C 9.9077205882353 3.60483333333333  9.90055147058824 2.7315  9.28566176470588 1.85533333333333  C 8.92297794117647 1.3385  8.425 0.927333333333333  7.80533088235294 0.633166666666667  C 7.04797794117647 0.273166666666666  6.10808823529412 0.0906666666666666  5.01231617647059 0.0906666666666666  C 3.9170955882353 0.0906666666666666  2.97720588235294 0.273166666666667  2.21985294117647 0.633166666666667  C 1.59963235294118 0.927333333333333  1.10165441176471 1.3385  0.739522058823532 1.85533333333333  C 0.124080882352944 2.73133333333333  0.117279411764708 3.60483333333333  0.117279411764708 3.64166666666667  L 0.117279411764708 3.9375  C 0.117279411764708 3.90066666666667  0.123897058823532 3.02733333333333  0.739522058823532 2.15116666666667  C 1.10165441176471 1.63433333333333  1.59963235294118 1.22316666666667  2.21985294117647 0.929  C 2.97720588235294 0.569  3.9170955882353 0.3865  5.01231617647059 0.3865  C 6.10808823529412 0.3865  7.04797794117647 0.569  7.80533088235294 0.929  C 8.42518382352941 1.22316666666667  8.92297794117647 1.63433333333333  9.28566176470588 2.15116666666667  C 9.90055147058824 3.02716666666667  9.90790441176471 3.90066666666667  9.90790441176471 3.9375  L 9.90790441176471 3.64166666666667  Z " fill-rule="nonzero" fill="#ffffff" stroke="none" transform="matrix(1 0 0 1 250 520 )" />
  </g>
</svg>