<?xml version="1.0" encoding="utf-8"?>
<svg version="1.1" xmlns:xlink="http://www.w3.org/1999/xlink" width="10px" height="7px" xmlns="http://www.w3.org/2000/svg">
  <g transform="matrix(1 0 0 1 -484 -441 )">
    <path d="M 9.68292682926829 1.66204567307692  C 10.0471493902439 1.31743028846154  10.0991920731707 0.743076923076924  9.78699695121951 0.34103125  C 9.47480182926829 -0.0610312500000002  8.95446646341463 -0.0610312500000002  8.64227134146341 0.226153846153846  L 3.75121951219512 4.82103125  L 1.40975609756098 2.46615384615385  C 1.04553353658537 2.12153846153846  0.525198170731708 2.17896875  0.213003048780488 2.52358413461538  C -0.0991920731707313 2.92564663461539  -0.0471493902439023 3.5  0.265045731707317 3.84461538461539  L 3.02275914634146 6.60153846153846  C 3.02275914634146 6.60153846153846  3.02275914634146 6.65896875  3.07480182926829 6.65896875  C 3.38699695121951 7.06103125  3.90731707317073 7.06103125  4.21951219512195 6.77384615384616  L 9.68292682926829 1.66204567307692  Z " fill-rule="nonzero" fill="#ffffff" stroke="none" transform="matrix(1 0 0 1 484 441 )" />
  </g>
</svg>