<?xml version="1.0" encoding="utf-8"?>
<svg version="1.1" xmlns:xlink="http://www.w3.org/1999/xlink" width="9px" height="18px" xmlns="http://www.w3.org/2000/svg">
  <g transform="matrix(1 0 0 1 -14 -13 )">
    <path d="M 8.84536082474227 1.08216432865731  C 8.94845360824742 1.20240480961924  9 1.34068136272545  9 1.49699398797595  C 9 1.65330661322645  8.94845360824742 1.79158316633266  8.84536082474227 1.91182364729459  L 2.7680412371134 9  L 8.84536082474227 16.0881763527054  C 8.94845360824742 16.2084168336673  9 16.3466933867735  9 16.503006012024  C 9 16.6593186372745  8.94845360824742 16.7975951903808  8.84536082474227 16.9178356713427  L 8.07216494845361 17.8196392785571  C 7.96907216494845 17.939879759519  7.85051546391753 18  7.71649484536082 18  C 7.58247422680413 18  7.4639175257732 17.939879759519  7.36082474226804 17.8196392785571  L 0.154639175257732 9.41482965931864  C 0.0515463917525774 9.29458917835671  0 9.1563126252505  0 9  C 0 8.8436873747495  0.0515463917525774 8.70541082164329  0.154639175257732 8.58517034068136  L 7.36082474226804 0.180360721442886  C 7.4639175257732 0.0601202404809613  7.58247422680413 0  7.71649484536082 0  C 7.85051546391753 0  7.96907216494845 0.0601202404809613  8.07216494845361 0.180360721442886  L 8.84536082474227 1.08216432865731  Z " fill-rule="nonzero" fill="#333333" stroke="none" transform="matrix(1 0 0 1 14 13 )" />
  </g>
</svg>