<?xml version="1.0" encoding="utf-8"?>
<svg version="1.1" xmlns:xlink="http://www.w3.org/1999/xlink" width="6px" height="21px" xmlns="http://www.w3.org/2000/svg">
  <g transform="matrix(1 0 0 1 -373 -86 )">
    <path d="M 5.89690721649484 10.0160320641283  C 5.96563573883162 10.1563126252505  6 10.3176352705411  6 10.5  C 6 10.6823647294589  5.96563573883162 10.8436873747495  5.89690721649484 10.9839679358717  L 1.09278350515464 20.7895791583166  C 1.02405498281787 20.9298597194389  0.945017182130584 21  0.855670103092783 21  C 0.766323024054983 21  0.687285223367698 20.9298597194389  0.618556701030928 20.7895791583166  L 0.103092783505155 19.7374749498998  C 0.0343642611683849 19.5971943887776  0 19.435871743487  0 19.2535070140281  C 0 19.0711422845691  0.0343642611683849 18.9098196392786  0.103092783505155 18.7695390781563  L 4.15463917525773 10.5  L 0.103092783505155 2.23046092184369  C 0.0343642611683849 2.09018036072144  0 1.92885771543086  0 1.74649298597194  C 0 1.56412825651302  0.0343642611683849 1.40280561122244  0.103092783505155 1.2625250501002  L 0.618556701030928 0.210420841683367  C 0.687285223367698 0.0701402805611215  0.766323024054983 0  0.855670103092783 0  C 0.945017182130584 0  1.02405498281787 0.0701402805611215  1.09278350515464 0.210420841683367  L 5.89690721649484 10.0160320641283  Z " fill-rule="nonzero" fill="#333333" stroke="none" transform="matrix(1 0 0 1 373 86 )" />
  </g>
</svg>