<?xml version="1.0" encoding="utf-8"?>
<svg version="1.1" xmlns:xlink="http://www.w3.org/1999/xlink" width="300px" height="200px" xmlns="http://www.w3.org/2000/svg">
  <g transform="matrix(1 0 0 1 -88 -112 )">
    <path d="M 89 115  A 2 2 0 0 1 91 113 L 385 113  A 2 2 0 0 1 387 115 L 387 309  A 2 2 0 0 1 385 311 L 91 311  A 2 2 0 0 1 89 309 L 89 115  Z " fill-rule="nonzero" fill="#ffffff" stroke="none" />
    <path d="M 88.5 115  A 2.5 2.5 0 0 1 91 112.5 L 385 112.5  A 2.5 2.5 0 0 1 387.5 115 L 387.5 309  A 2.5 2.5 0 0 1 385 311.5 L 91 311.5  A 2.5 2.5 0 0 1 88.5 309 L 88.5 115  Z " stroke-width="1" stroke-dasharray="3,1" stroke="#797979" fill="none" stroke-dashoffset="0.5" />
  </g>
</svg>