<?xml version="1.0" encoding="utf-8"?>
<svg version="1.1" xmlns:xlink="http://www.w3.org/1999/xlink" width="15px" height="16px" xmlns="http://www.w3.org/2000/svg">
  <g transform="matrix(1 0 0 1 -936 -479 )">
    <path d="M 14.8707895394737 2.4  C 14.8707895394737 2.10555223102887  14.6353102620051 1.86681389053275  14.3447368421053 1.86666666666667  L 11.1842105263158 1.86666666666667  L 11.1842105263158 0.533333333333333  C 11.1842105263158 0.23878146675691  10.9485709209636 0  10.6578947368421 0  L 4.34210526315789 0  C 4.05142907903643 0  3.81578947368421 0.23878146675691  3.81578947368421 0.533333333333333  L 3.81578947368421 1.86666666666667  L 0.655263157894737 1.86666666666667  C 0.364586973773267 1.86666666666667  0.128947368421053 2.10544813342358  0.128947368421053 2.4  C 0.128947368421053 2.69455186657642  0.364586973773267 2.93333333333333  0.655263157894737 2.93333333333333  L 1.21052631578947 2.93333333333333  L 2.49210526315789 14.5776  C 2.58136187270989 15.3873998515937  3.25693895590074 15.9998747264505  4.06105263157895 16  L 10.9384210526316 16  C 11.7426442000041 15.9999034298455  12.4183877337887 15.3874830929358  12.5078947368421 14.5776  L 13.7894736842105 2.93333333333333  L 14.3442105263158 2.93333333333333  C 14.6351499046665 2.9333334  14.8707895394737 2.6945519033954  14.8707895394737 2.4  Z M 4.86842105263158 1.86666666666667  L 4.86842105263158 1.06666666666667  L 10.1315789473684 1.06666666666667  L 10.1315789473684 1.86666666666667  L 4.86842105263158 1.86666666666667  Z M 12.7305263157895 3  L 11.4621052631579 14.4592  C 11.4323456225811 14.7292007718268  11.2070522731105 14.933382124793  10.9389473684211 14.9333333333333  L 4.06105263157895 14.9333333333333  C 3.79294772688946 14.933382124793  3.56765437741893 14.7292007718268  3.5378947368421 14.4592  L 2.26947368421053 3  L 12.7305263157895 3  Z M 8.55263157894737 12.6154666666667  C 8.55263157894737 12.9100185332431  8.78827118429958 13.1488  9.07894736842105 13.1488  C 9.36962355254252 13.1488  9.60526315789474 12.9100185332431  9.60526315789474 12.6154666666667  L 9.60526315789474 4.78506666666667  C 9.60526315789474 4.49051480009024  9.36962355254252 4.25173333333333  9.07894736842105 4.25173333333333  C 8.78827118429958 4.25173333333333  8.55263157894737 4.49051480009024  8.55263157894737 4.78506666666667  L 8.55263157894737 12.6154666666667  Z M 5.65789473684211 12.6154666666667  C 5.65789473684211 12.9100185332431  5.89353434219432 13.1488  6.18421052631579 13.1488  C 6.47488671043726 13.1488  6.71052631578947 12.9100185332431  6.71052631578947 12.6154666666667  L 6.71052631578947 4.78506666666667  C 6.71052631578947 4.49051480009024  6.47488671043726 4.25173333333333  6.18421052631579 4.25173333333333  C 5.89353434219432 4.25173333333333  5.65789473684211 4.49051480009024  5.65789473684211 4.78506666666667  L 5.65789473684211 12.6154666666667  Z " fill-rule="nonzero" fill="#d9001b" stroke="none" transform="matrix(1 0 0 1 936 479 )" />
  </g>
</svg>