<?xml version="1.0" encoding="utf-8"?>
<svg version="1.1" xmlns:xlink="http://www.w3.org/1999/xlink" width="16px" height="16px" xmlns="http://www.w3.org/2000/svg">
  <g transform="matrix(1 0 0 1 -73 -16 )">
    <path d="M 14.6666666666667 8  C 14.6666666666667 10.1746666666667  13.6153333333333 12.1026666666667  12 13.3206666666667  C 10.8490366953567 14.1933640873116  9.44440884108874 14.6660213602728  8 14.6666666666667  C 6.55559115891126 14.6660213602728  5.15096330464327 14.1933640873116  4 13.3206666666667  C 2.38466666666667 12.1026666666667  1.33333333333333 10.1746666666667  1.33333333333333 8  C 1.33333333333333 4.324  4.324 1.33333333333333  8 1.33333333333333  C 11.676 1.33333333333333  14.6666666666667 4.324  14.6666666666667 8  Z M 16 8  C 16 3.58866666666667  12.4113333333333 0  8 0  C 3.58866666666667 0  0 3.58866666666667  0 8  C 0 10.9533333333333  1.61266666666667 13.5313333333333  4 14.9173333333333  C 5.21367567791026 15.6255253040173  6.59348207396473 15.9991174325922  7.99866666666667 16  L 8.00133333333333 16  C 9.40651792603527 15.9991174325922  10.7863243220897 15.6255253040173  12 14.9173333333333  C 14.3873333333333 13.5313333333333  16 10.9533333333333  16 8  Z M 10.6653333333333 5.74666666666667  C 10.6653333333333 4.41466666666667  9.46933333333333 3.33333333333333  8 3.33333333333333  C 6.52933333333333 3.33333333333333  5.33333333333333 4.41533333333333  5.33333333333333 5.74666666666667  L 5.33333333333333 6.07  C 5.33333333333333 6.43818983322053  5.63181016677947 6.73666666666667  6 6.73666666666667  C 6.36818983322053 6.73666666666667  6.66666666666667 6.43818983322053  6.66666666666667 6.07  L 6.66666666666667 5.746  C 6.66666666666667 5.15066666666667  7.26533333333333 4.66666666666667  8 4.66666666666667  C 8.73533333333333 4.66666666666667  9.33333333333333 5.15066666666667  9.33333333333333 5.74666666666667  L 9.33333333333333 6.77066666666667  C 9.33466666666667 6.80266666666667  9.322 7.42933333333333  8.504 8  C 8.29458520935148 8.14609441937047  8.06993728147475 8.2690360714423  7.834 8.36666666666667  C 7.54225686553538 8.43882101515648  7.33647595964506 8.69947682928422  7.334 9  L 7.334 9.77466666666666  C 7.334 10.1428564998872  7.63247683344614 10.4413333333333  8.00066666666667 10.4413333333333  C 8.3688564998872 10.4413333333333  8.66733333333333 10.1428564998872  8.66733333333333 9.77466666666666  L 8.66733333333333 9.452  C 9.54133333333333 9.02133333333333  10.036 8.484  10.314 8  C 10.7006666666667 7.32266666666666  10.668 6.75333333333333  10.666 6.73666666666666  L 10.666 5.74666666666667  Z M 8 11.3333333333333  C 7.63181016677947 11.3333333333333  7.33333333333333 11.6318101667795  7.33333333333333 12  C 7.33333333333333 12.3681898332205  7.63181016677947 12.6666666666667  8 12.6666666666667  C 8.36818983322053 12.6666666666667  8.66666666666667 12.3681898332205  8.66666666666667 12  C 8.66666666666667 11.6318101667795  8.36818983322053 11.3333333333333  8 11.3333333333333  Z " fill-rule="nonzero" fill="#2aacff" stroke="none" transform="matrix(1 0 0 1 73 16 )" />
  </g>
</svg>