<?xml version="1.0" encoding="utf-8"?>
<svg version="1.1" xmlns:xlink="http://www.w3.org/1999/xlink" width="24px" height="23px" xmlns="http://www.w3.org/2000/svg">
  <g transform="matrix(1 0 0 1 -184 -105 )">
    <path d="M 2.06451831327239 20.7160465116279  L 2 20.7171162790698  L 2 6.01744186046512  L 6.80155009964382 6.01744186046512  L 8.28077575880056 2.47223255813954  C 8.34064672058081 2.32995348837209  8.61935637024746 2.13953488372093  8.76903377469807 2.13953488372093  L 14.9718718667238 2.13953488372093  C 15.1256783030213 2.13953488372093  15.3992266628793 2.32674418604651  15.4601298826213 2.47116279069767  L 16.939355541778 6.01744186046512  L 21.6774195861112 6.02813953488372  L 21.6784518440729 20.7267441860465  L 2.06451831327239 20.7160465116279  Z M 23.7419355095679 6.02813953488372  C 23.7419355095679 4.84283720930232  22.8160001178976 3.87790697674418  21.6784518440729 3.87790697674419  L 18.2967747614508 3.87790697674419  L 17.3553555003546 1.62069767441861  C 16.9682587647064 0.698558139534883  15.9442588666719 0  14.9718718667238 0  L 8.76903377469807 0  C 7.79664677474996 0  6.77264687671543 0.697488372093023  6.38658239902902 1.62283720930233  L 5.44516313793276 3.87790697674419  L 2.06348605531066 3.87790697674419  C 0.921311525401719 3.88262387637995  -0.00171397876989526 4.84445339034747  0 6.02813953488372  L 0 20.7160465116279  C 0 21.9024186046512  0.92490552352428 22.8662790697674  2.06348605531066 22.8662790697674  L 21.6784518440729 22.8662790697674  C 22.8208635092459 22.8621500733388  23.7442204603516 21.8999751784017  23.7419355095679 20.7160465116279  L 23.7419355095679 6.02813953488372  Z M 14.9677428348769 12.8372093023256  C 14.9677428348769 14.6066046511628  13.5783236183905 16.046511627907  11.8709689496918 16.046511627907  C 10.1636142809931 16.046511627907  8.77419506450672 14.6066046511628  8.77419506450672 12.8372093023256  C 8.77419506450672 11.0678139534884  10.1636142809931 9.62790697674419  11.8709689496918 9.62790697674419  C 13.5783236183905 9.62790697674419  14.9677428348769 11.0678139534884  14.9677428348769 12.8372093023256  Z M 17.0322587583336 12.8372093023256  C 17.0322587583336 9.88786046511628  14.7169041501769 7.48837209302326  11.8709689496918 7.48837209302326  C 9.02503374920671 7.48837209302326  6.70967914105 9.88786046511628  6.70967914105 12.8372093023256  C 6.70967914105 15.7865581395349  9.02503374920671 18.1860465116279  11.8709689496918 18.1860465116279  C 14.7169041501769 18.1860465116279  17.0322587583336 15.7865581395349  17.0322587583336 12.8372093023256  Z " fill-rule="nonzero" fill="#ffffff" stroke="none" transform="matrix(1 0 0 1 184 105 )" />
  </g>
</svg>