<?xml version="1.0" encoding="utf-8"?>
<svg version="1.1" xmlns:xlink="http://www.w3.org/1999/xlink" width="23px" height="26px" xmlns="http://www.w3.org/2000/svg">
  <g transform="matrix(1 0 0 1 -66 -261 )">
    <path d="M 8.1085000078125 4.93799998828125  C 8.10850003515625 5.266  8.3745000078125 5.54699998828125  8.7024999921875 5.54699998828125  C 9.02530093062626 5.52849380742932  9.27758600471225 5.26133097131051  9.27758600471225 4.93799998828125  C 9.27758600471225 4.61466900525199  9.02530093062626 4.34750616913318  8.7024999921875 4.32899998828125  C 8.37449998046875 4.32899998828125  8.10849998046875 4.6099999765625  8.1085000078125 4.93799998828125  Z M 14.7214139796628 4.93799998828125  C 14.7214139796628 5.26133097131051  14.9736990537487 5.52849380742932  15.2964999921875 5.54699998828125  C 15.6245000039062 5.54699998828125  15.8905000039063 5.266  15.8905000039063 4.93799998828125  C 15.8905000039063 4.6099999765625  15.6245000039063 4.32899998828125  15.2964999921875 4.32899998828125  C 14.9736990537487 4.34750616913318  14.7214139796628 4.61466900525199  14.7214139796628 4.93799998828125  Z M 0.9995 10.0160000078125  C 0.9995 9.1410000078125  1.71849999609375 8.42200001171875  2.60850001171875 8.42200001171875  C 3.48747551872895 8.42529004206468  4.19920997746657 9.1370245008023  4.2025000078125 10.0160000078125  L 4.2025000078125 16.7349999921875  C 4.2025000078125 17.6259999960938  3.499500015625 18.3440000039062  2.60850001171875 18.3440000039062  C 1.7175000078125 18.3440000039062  0.9995 17.6250000078125  0.9995 16.7349999921875  L 0.9995 10.0160000078125  Z M 19.1724999882813 9  L 19 8.71900000390625  L 19 19.1250000117188  C 19.1715 20.078  18.4055000078125 20.8440000195313  17.4684999960938 20.8439999921875  L 16.2965000039063 20.8439999921875  L 16.2965000039063 24.3909999882813  C 16.2965000039063 25.2819999921875  15.5775000078125 26  14.6874999921875 26  C 13.7974999765625 26  13.0784999804687 25.2810000039063  13.0785000078125 24.3909999882813  L 13.0785000078125 20.8439999921875  L 10.9225000078125 20.8439999921875  L 10.9225000078125 24.3909999882813  C 10.9225000078125 25.2819999921875  10.2035000117188 26  9.31349999609375 26  C 8.42958919069446 25.9944935797045  7.71672744940417 25.2749235967052  7.7195 24.3909999882813  L 7.70349999609375 20.8439999921875  L 6.5475000078125 20.8439999921875  C 6.54583090884596 20.8440048683438  6.54416180364918 20.8440073064259  6.54249269755998 20.8440073064259  C 5.59587662987792 20.8440073064259  4.82849268584123 20.0766233623892  4.82849268584123 19.1300072947072  C 4.82849268584123 19.1283381977066  4.82849512389676 19.1266691015967  5 19.1250000117188  L 5 9  L 19.1724999882813 9  Z M 16.6575000117187 0.344000011718751  L 15.5464999882813 2.39100000390625  C 17.7344999960938 3.516  19.2184999960938 5.672  19.2184999960938 8.157  L 4.7655 8.157  C 4.7655 5.67299998828125  6.2495 3.516  8.45249999609375 2.39100000390625  L 7.34350000390625 0.34400001171875  C 7.32215174336705 0.308513009242273  7.31087209758841 0.267881591126679  7.31087209758841 0.226468120216658  C 7.31087209758841 0.146408073968201  7.3528632064567 0.0722140956942314  7.4214999921875 0.0309999882812497  C 7.5305 -0.0160000078125002  7.67149998828125 0.0149999843749997  7.73449998828125 0.1250000078125  L 8.85950001171875 2.18800000390625  C 9.8125 1.766  10.8755000117187 1.5320000078125  12.0005000078125 1.5320000078125  C 13.1255000039062 1.5320000078125  14.188500015625 1.766  15.1415000039062 2.18800000390625  L 16.2665 0.1250000078125  C 16.3295 0.016  16.4695 -0.0159999804687496  16.5794999960937 0.0309999882812506  C 16.6481367932202 0.0722140929401682  16.6901279107804 0.146408077678174  16.6901279107804 0.226468132278565  C 16.6901279107804 0.267881598409411  16.6788482676034 0.308513012019525  16.6575000117187 0.344000011718751  Z M 21.3905 8.42200001171875  C 22.2815000039062 8.42200001171875  22.9995000117188 9.12500000390625  22.9995000117188 10.0160000078125  L 22.9995000117188 16.7349999921875  C 22.9995000117188 17.6259999960938  22.280500015625 18.3440000039062  21.3905 18.3440000039062  C 20.5065891946007 18.3384935836107  19.7937274533104 17.6189236006115  19.7965000039063 16.7349999921875  L 19.7965000039063 10.0160000078125  C 19.7964966411263 10.0146649931317  19.7964949597343 10.0133299747441  19.7964949597343 10.011994955828  C 19.7964949597343 9.13386221006913  20.5083622022566 8.42199496754675  21.3864949480155 8.42199496754675  C 21.3878299669318 8.42199496754675  21.389164985319 8.42199664893875  21.3905 8.42200001171875  Z " fill-rule="nonzero" fill="#70b603" stroke="none" transform="matrix(1 0 0 1 66 261 )" />
  </g>
</svg>