<?xml version="1.0" encoding="utf-8"?>
<svg version="1.1" xmlns:xlink="http://www.w3.org/1999/xlink" width="24px" height="28px" xmlns="http://www.w3.org/2000/svg">
  <g transform="matrix(1 0 0 1 -66 -340 )">
    <path d="M 23.3995 20.54147265625  C 23.3575 20.52222265625  19.679 19.11347265625  19.64225 14.87759765625  C 19.60725 11.33125  22.534125 9.631125  22.6645 9.54625  C 21.0195 7.139125  18.4575 6.810125  17.544875 6.771625  C 15.364375 6.551125  13.290625 8.05525  12.18375 8.05525  C 11.080375 8.05525  9.372375 6.804  7.56375 6.83725  C 5.18725 6.87225  2.995375 8.218875  1.772125 10.34775  C -0.697124999999997 14.63259765625  1.1395 20.97984765625  3.546625 24.45534765625  C 4.722625 26.15634765625  6.12525 28.06647265625  7.96625 27.99822265625  C 9.739 27.92734765625  10.410125 26.85109765625  12.553 26.85109765625  C 14.695875 26.85109765625  15.29875 27.99822265625  17.175625 27.96322265625  C 19.083125 27.92734765625  20.292375 26.22984765625  21.4605 24.52359765625  C 22.810625 22.55047265625  23.367125 20.63947265625  23.3995 20.54147265625  Z M 11.96325 6.45225  C 13.53475 6.57475  15.138625 5.653375  16.116875 4.47125  C 17.09425 3.285625  17.754 1.640625  17.57375 0  C 16.165875 0.05775  14.459625 0.938  13.449875 2.120125  C 12.543375 3.16925  11.750625 4.844  11.96325 6.45225  Z " fill-rule="nonzero" fill="#000000" stroke="none" transform="matrix(1 0 0 1 66 340 )" />
  </g>
</svg>