<?xml version="1.0" encoding="utf-8"?>
<svg version="1.1" xmlns:xlink="http://www.w3.org/1999/xlink" width="20px" height="24px" xmlns="http://www.w3.org/2000/svg">
  <g transform="matrix(1 0 0 1 -18 -116 )">
    <path d="M 19.4166666666667 21.1580357142857  L 18.9036458333333 20.30625  C 19.3020833333333 17.6223214285714  19.5234375 14.9142857142857  19.546875 12.2035714285714  L 19.8098958333333 12.0883928571429  C 19.6875 11.1589285714286  19.59375 10.3446428571429  19.5026041666667 9.57589285714286  C 19.421875 7.62321428571429  19.2317708333333 5.67589285714286  18.9192708333333 3.74196428571429  L 19.40625 2.95982142857143  C 19.8098958333333 2.31428571428572  19.796875 1.49732142857143  19.2291666666667 0.942857142857145  L 18.859375 0.581250000000002  C 18.2604166666667 -0.00535714285714122  17.4505208333333 -0.00535714285714122  16.7630208333333 0.404464285714287  L 16.0234375 0.843750000000002  C 12.0416666666667 0.112500000000002  8 0.117857142857145  4.015625 0.843750000000002  L 3.20833333333334 0.380357142857144  C 2.54947916666667 0.00267857142857318  1.73697916666667 0.0133928571428587  1.171875 0.567857142857144  L 0.781250000000004 0.945535714285716  C 0.213541666666671 1.50267857142857  0.203125000000005 2.30892857142857  0.596354166666671 2.95446428571429  L 1.08333333333334 3.74732142857143  C 0.671875000000004 6.25714285714286  0.463541666666671 8.78303571428572  0.440104166666671 11.3089285714286  L 0.179687500000005 11.4133928571429  C 0.296875000000005 12.35625  0.390625000000004 13.2401785714286  0.486979166666672 14.1026785714286  C 0.575520833333338 16.1839285714286  0.786458333333338 18.2625  1.10416666666667 20.3303571428571  L 0.598958333333333 21.15  C 0.200520833333333 21.7928571428571  0.216145833333334 22.6071428571429  0.778645833333333 23.1642857142857  L 1.1640625 23.5446428571429  C 1.72916666666667 24.0991071428571  2.5546875 24.1125  3.2109375 23.7241071428571  L 4 23.2580357142857  C 7.96875 24.1848214285714  11.9947916666667 24.1419642857143  15.9661458333333 23.2526785714286  L 16.8046875 23.7267857142857  C 17.4635416666667 24.1071428571429  18.2760416666667 24.0910714285714  18.8411458333333 23.5392857142857  L 19.2291666666667 23.1589285714286  C 19.7942708333333 22.6044642857143  19.8046875 21.8035714285714  19.4166666666667 21.1580357142857  Z M 18.3307291666667 21.7848214285714  C 18.4244791666667 21.9348214285714  18.4817708333333 22.1410714285714  18.3385416666667 22.2830357142857  L 17.953125 22.6607142857143  C 17.8072916666667 22.8026785714286  17.5989583333333 22.7464285714286  17.4453125 22.6553571428571  L 16.5338541666667 22.1303571428571  C 16.3046875 21.9991071428571  16.1692708333333 21.9321428571429  15.8958333333333 21.9910714285714  C 11.9401041666667 22.9071428571429  7.94270833333333 22.9446428571429  3.9921875 21.9723214285714  C 3.796875 21.9241071428571  3.69791666666667 21.9883928571429  3.54427083333333 22.0794642857143  L 2.56770833333333 22.6553571428571  C 2.4140625 22.7464285714286  2.203125 22.8026785714286  2.05729166666667 22.6607142857143  L 1.66927083333333 22.2830357142857  C 1.5234375 22.1410714285714  1.58072916666667 21.9375  1.67447916666667 21.7848214285714  L 2.27083333333333 20.8205357142857  C 2.35677083333333 20.6919642857143  2.3984375 20.5526785714286  2.38802083333333 20.3973214285714  C 2.35677083333333 20.1964285714286  2.32552083333333 19.9955357142857  2.296875 19.7946428571429  L 18.28125 12.7607142857143  C 18.234375 15.28125  18.0078125 17.8017857142857  17.6302083333333 20.2955357142857  C 17.59375 20.5232142857143  17.6432291666667 20.6464285714286  17.7578125 20.8366071428571  L 18.3307291666667 21.7848214285714  Z M 5.60416666666666 11.3544642857143  C 5.578125 11.1133928571429  5.5390625 10.8696428571429  5.48177083333333 10.6232142857143  L 6.39322916666667 10.3714285714286  C 6.43229166666667 10.5803571428571  6.4609375 10.7892857142857  6.48177083333333 10.9982142857143  L 8.609375 10.125  L 9.11458333333333 11.41875  L 8.3125 11.7482142857143  L 8.09895833333333 11.2017857142857  L 6.52604166666667 11.8473214285714  L 6.52604166666667 11.9142857142857  C 6.86458333333333 12.4419642857143  7.265625 12.8651785714286  7.73177083333333 13.1839285714286  C 8.04947916666667 12.6348214285714  8.29947916666667 12.1741071428571  8.47916666666667 11.8017857142857  L 9.33854166666667 12.2732142857143  C 9.20833333333333 12.4580357142857  8.8984375 12.8839285714286  8.40885416666667 13.5535714285714  C 8.98697916666667 13.8  9.64583333333333 13.9178571428571  10.3854166666667 13.9125  C 10.3515625 14.1160714285714  10.2838541666667 14.4642857142857  10.1848958333333 14.9625  C 8.69791666666666 14.8392857142857  7.44270833333333 14.1830357142857  6.42447916666666 12.9964285714286  C 6.38020833333333 13.2294642857143  6.328125 13.4651785714286  6.26822916666666 13.7035714285714  L 6.9375 15.4151785714286  C 7.42447916666666 14.9946428571429  7.77604166666666 14.6866071428571  7.98697916666666 14.4910714285714  C 8.11979166666667 14.9008928571429  8.22135416666666 15.20625  8.29166666666666 15.4071428571429  C 7.40625 16.1223214285714  6.85677083333333 16.5964285714286  6.64322916666666 16.8321428571429  L 6.01041666666666 16.2401785714286  C 6.1484375 15.9857142857143  6.13802083333333 15.6616071428571  5.98697916666667 15.2705357142857  L 5.8359375 14.8848214285714  C 5.65104166666666 15.2839285714286  5.43489583333333 15.6830357142857  5.1875 16.0767857142857  C 4.9453125 15.8517857142857  4.69010416666666 15.6401785714286  4.421875 15.4446428571429  C 5.1796875 14.4080357142857  5.5859375 13.3285714285714  5.63802083333333 12.2089285714286  L 4.65364583333333 12.6133928571429  L 4.9765625 13.4410714285714  L 4.171875 13.7678571428571  L 3.55729166666666 12.1955357142857  L 5.60416666666666 11.3544642857143  Z M 10.6484375 9.98035714285715  C 10.84375 9.45803571428572  10.9375 8.91964285714286  10.9270833333333 8.36785714285714  L 11.7291666666667 8.1  C 11.7239583333333 8.24196428571429  11.7161458333333 8.38125  11.7083333333333 8.51517857142857  L 14.3489583333333 7.43035714285714  L 14.5651041666667 7.98482142857143  L 14.4635416666667 8.85  L 13.78125 8.86607142857143  L 13.8151041666667 8.41339285714286  L 12.984375 8.75357142857143  C 12.9947916666667 8.82589285714286  13.0026041666667 8.89553571428571  13.0078125 8.96785714285714  C 13.5572916666667 9.3375  14.28125 9.38035714285714  15.1796875 9.09910714285714  C 15.1536458333333 9.43928571428571  15.1380208333333 9.72321428571428  15.1328125 9.95089285714286  C 14.234375 10.1892857142857  13.5182291666667 10.1169642857143  12.9817708333333 9.73928571428571  C 12.8619791666667 10.3473214285714  12.4661458333333 10.8642857142857  11.796875 11.2928571428571  L 14.8046875 10.0580357142857  L 15.4479166666667 11.7  L 14.65625 12.0241071428571  L 14.2864583333333 11.08125  L 11.5833333333333 12.1901785714286  L 11.9765625 13.1973214285714  L 11.1848958333333 13.5214285714286  L 10.5182291666667 11.8151785714286  L 11.546875 11.3919642857143  L 10.9583333333333 10.9232142857143  C 11.9427083333333 10.3607142857143  12.3723958333333 9.73928571428572  12.2473958333333 9.05625  L 11.6197916666667 9.31339285714286  C 11.5703125 9.60267857142857  11.5078125 9.87321428571429  11.4322916666667 10.1196428571429  C 11.2239583333333 10.06875  10.9635416666667 10.0232142857143  10.6484375 9.98035714285715  Z M 12.3151041666667 13.2348214285714  C 12.6796875 12.8892857142857  12.7890625 12.4607142857143  12.640625 11.9491071428571  L 13.4661458333333 11.6116071428571  C 13.5234375 11.8607142857143  13.5546875 12.09375  13.5572916666667 12.3133928571429  C 14.2473958333333 12.225  15.1197916666667 12.1392857142857  16.1744791666667 12.0535714285714  L 16.0833333333333 12.9616071428571  C 15.5026041666667 12.9723214285714  14.6171875 13.0151785714286  13.4348958333333 13.0928571428571  C 13.2317708333333 13.6875  12.5520833333333 14.2875  11.3984375 14.8928571428571  C 11.21875 14.7107142857143  10.984375 14.4964285714286  10.703125 14.2526785714286  C 11.4114583333333 13.9205357142857  11.9479166666667 13.5803571428571  12.3151041666667 13.2348214285714  Z M 10.5052083333333 10.0098214285714  L 11.1119791666667 10.6044642857143  C 10.7239583333333 11.1375  10.4088541666667 11.5928571428571  10.1614583333333 11.9678571428571  L 9.52083333333333 11.3196428571429  C 9.890625 10.8669642857143  10.21875 10.4303571428571  10.5052083333333 10.0098214285714  Z M 10.453125 9.32410714285714  L 10.2057291666667 10.1839285714286  C 9.84895833333333 10.0473214285714  9.47135416666667 9.92946428571429  9.07291666666667 9.83839285714286  L 9.3046875 9.05357142857143  C 9.8046875 9.15535714285715  10.1875 9.24642857142857  10.453125 9.32410714285714  Z M 18.3411458333333 1.81607142857143  C 18.484375 1.95803571428571  18.4296875 2.16428571428571  18.3359375 2.31696428571429  L 17.7265625 3.29464285714286  C 17.6510416666667 3.40446428571429  17.6067708333333 3.51428571428571  17.6302083333333 3.64553571428571  C 17.6692708333333 3.87321428571429  17.7057291666667 4.10357142857143  17.7395833333333 4.33125  L 1.70572916666667 10.8  C 1.75260416666667 8.41875  1.96875 6.0375  2.375 3.66964285714286  C 2.40364583333333 3.50357142857143  2.34895833333333 3.40714285714286  2.26822916666667 3.27321428571429  L 1.67447916666667 2.30892857142857  C 1.58333333333333 2.15625  1.5234375 1.95267857142857  1.66927083333333 1.81071428571429  L 2.05989583333333 1.43839285714286  C 2.20572916666667 1.29642857142857  2.4140625 1.35267857142857  2.56770833333333 1.44375  L 3.48177083333333 1.97142857142857  C 3.69010416666667 2.09196428571429  3.75520833333333 2.14017857142857  4.01822916666667 2.09732142857143  C 8.0234375 1.34196428571429  12.0729166666667 1.33928571428571  16.0755208333333 2.11339285714286  C 16.2526041666667 2.14553571428571  16.3046875 2.12142857142857  16.453125 2.03035714285714  L 17.4140625 1.45982142857143  C 17.59375 1.35267857142857  17.7942708333333 1.28303571428571  17.9713541666667 1.45446428571429  L 18.3411458333333 1.81607142857143  Z M 17.75 13.51875  L 16.6927083333333 13.7946428571429  C 16.6067708333333 15.1633928571429  16.4739583333333 16.5267857142857  16.2942708333333 17.8928571428571  C 16.078125 19.575  15.9713541666667 19.8482142857143  14.2421875 20.2848214285714  C 10.6901041666667 21.1821428571429  7.1015625 21.2946428571429  3.55989583333334 20.5017857142857  C 3.40625 21.01875  3.765625 21.4125  4.26041666666667 21.5330357142857  C 8.08072916666667 22.4491071428571  11.953125 22.4008928571429  15.7760416666667 21.5169642857143  C 16.5234375 21.3321428571429  16.9869791666667 20.9116071428571  17.1276041666667 20.2258928571429  C 17.4635416666667 18.0053571428571  17.6770833333333 15.7633928571429  17.75 13.51875  Z " fill-rule="nonzero" fill="#464c5b" stroke="none" transform="matrix(1 0 0 1 18 116 )" />
  </g>
</svg>