<?xml version="1.0" encoding="utf-8"?>
<svg version="1.1" xmlns:xlink="http://www.w3.org/1999/xlink" width="24px" height="20px" xmlns="http://www.w3.org/2000/svg">
  <g transform="matrix(1 0 0 1 -16 -70 )">
    <path d="M 13.1576086498457 13.5106522343221  L 13.1576086498457 13.5201217381267  L 13.0714484724765 13.5201217381267  L 9.46779101034908 12.1636969256239  C 9.17181391060592 12.0500486813207  8.97656329364086 11.7665229929133  8.97656329364086 11.4503794533959  C 8.97656329364086 11.2393123344287  9.06411978828364 11.0376383651858  9.21848343177865 10.8931507212831  L 12.093874495562 8.20870960769126  C 12.3000923772277 8.01814439326519  12.5944669932251 7.95547617044621  12.8607983144849 8.04544229401133  L 15.9373389849018 9.09623070852508  C 16.176352459938 9.17626176431295  16.3596464461789 9.36973233069283  16.4261259733591 9.61215541197734  C 18.3408429805818 8.68736622492827  20.5989613219865 8.8138066738243  22.3977140254219 9.94652684862016  C 23.3559593017993 7.53017066447958  23.9024048330561 5.29406157986665  23.7874153842872 4.43429593596695  C 23.499450385138 2.2759021035525  14.3556609534355 -0.341925936726355  11.0871436299222 0.221672812988869  C 7.52148835372249 0.775802058899469  -0.606069660982083 6.20215436339059  0.0360365794974032 11.4090754247353  C 0.256514886668106 13.2337508749867  8.43223089281406 16.7221202302517  13.5792365831545 17.8862161242995  C 12.8974691928609 16.5307628995528  12.7471387868852 14.9706663215323  13.1576086498457 13.5106522343221  Z M 14.7088194013028 5.79137382239031  L 14.7199579612703 5.7913738223903  L 16.5113033377608 4.13878211570298  C 16.7154272495416 3.95180280745899  17.0049868602801 3.88935941795779  17.2683990075047 3.97551480202305  L 19.5016838308085 4.69193176045321  C 19.8176261888267 4.79429683115851  20.0315216284501 5.0877761232284  20.0315216284501 5.41890575315504  C 20.0315216284501 5.59627385463559  19.969640554687 5.76812194850738  19.8564802872852 5.90500786804575  L 18.3704629845462 7.71074431068787  C 18.1675514355852 7.95910781523341  17.8306753115156 8.05482005712743  17.5268795396122 7.95042072872526  L 14.9869562317685 7.08118556158017  C 14.672550047308 6.97775877840403  14.4601688539587 6.68497584508409  14.4601688539587 6.35497081874578  C 14.4601688539587 6.14067886836715  14.5503738712553 5.93621812075327  14.7088194013028 5.79137382239031  Z M 9.11266693654684 3.85273777980286  L 9.12249510523041 3.88081976397685  L 10.9053227238257 2.35231120790997  C 11.1073033371338 2.17586371282256  11.3873014113552 2.11786599005632  11.6430896930325 2.19949299919503  L 13.8285441617249 2.88717491897146  C 14.1465274337034 2.98840579148621  14.3623560626543 3.28294514523652  14.3623560626543 3.61566313245942  C 14.3623560626543 3.8287874493637  14.2731280716657 4.03224380494014  14.1161815435487 4.17698665816133  L 12.419514082818 5.77243481478106  C 12.2133644346289 5.9628773738645  11.9191523692892 6.02553775782934  11.652917861716 5.93570212846099  L 9.37147506647535 5.15201904223812  C 9.06017999408163 5.04685700047741  8.8507284995273 4.75566793386577  8.8507284995273 4.42805329974738  C 8.8507284995273 4.20760655969875  8.9462104560461 3.99789220053489  9.11266693654684 3.85273777980286  Z M 6.2287581343729 10.9212326860163  L 6.2467764241216 10.9502942713507  L 3.72618183631954 9.99550704272414  C 3.42568680855562 9.88424709833968  3.2263163908453 9.59844256612431  3.2263163908453 9.2789322797522  C 3.2263163908453 9.05453218189494  3.32523978212476 8.8414660130649  3.49685817343272 8.69622579972965  L 6.37257683503702 6.21227694111571  C 6.57477897170682 6.02895384646302  6.85958915608242 5.96675414428721  7.12017195342281 6.04900962743579  L 9.55460638336021 6.8803667793624  C 9.86529926635311 6.98576042461193  10.0742162446932 7.27659298419533  10.0742162446932 7.60371376224974  C 10.0742162446932 7.81452727566452  9.98683226073406 8.01597391665701  9.83274321382586 8.16038248750778  L 7.02418362687458 10.7684144967422  C 6.80997105744756 10.9663701720173  6.50144356636772 11.0256448784136  6.2287581343729 10.9212326860163  Z M 23.8925766643725 15.1051207703407  C 23.8807602520732 13.5821846768786  23.1309146672124 12.1589225049406  21.8797701677439 11.2846657274343  C 21.06818923305 10.7088631768704  20.0967599089017 10.3994477540466  19.1005722539361 10.3994477540466  C 16.4537272487942 10.3994477540466  14.3080354222514 12.5381275157968  14.3080354222514 15.1763227006604  C 14.3080354222514 17.814517885524  16.4537272487942 19.9531976472742  19.1005722539361 19.9531976472742  C 21.7474172590779 19.9531976472742  23.8931090856207 17.814517885524  23.8931090856207 15.1763227006604  C 23.8931090856207 15.1525877350794  23.8929316069421 15.1288530991136  23.8925766643725 15.1051207703407  Z M 19.1288690845831 17.370291440288  L 19.1383696359411 17.370291440288  C 17.6716752012171 17.3512014190875  16.3487352701279 16.4873592180252  15.7453623318053 15.1547540383652  C 16.3332165123834 13.813095772382  17.6600581549462 12.9436328743407  19.1288690845831 12.9375839613615  C 19.7534750889383 12.939317744334  20.36723612289 13.1004065561402  20.9116967226829 13.4055080718701  C 21.6263136581265 13.796867485034  22.1920708516372 14.4114873921483  22.5218764082234 15.1547540383651  C 21.9320721187051 16.4988544397648  20.600717095318 17.3681914520962  19.1288690845831 17.370291440288  Z M 19.9769103959006 15.1492029489224  C 19.9769103959006 14.6823525161709  19.5972501691057 14.3038756195576  19.1288690845831 14.3038048243496  C 19.1028485318463 14.3014115006488  19.0767312655378 14.3002129372276  19.050600157921 14.3002129372276  C 18.5801785963386 14.3002129372276  18.1988265724173 14.6803187127047  18.1988265724173 15.1492029489224  C 18.1988265724173 15.6180871851401  18.5801785963386 15.9981929606172  19.050600157921 15.9981929606172  C 19.0767312655378 15.9981929606172  19.1028485318463 15.996994397196  19.1288690845831 15.9946010734952  C 19.5972501691057 15.9945302782872  19.9769103959006 15.6160533816739  19.9769103959006 15.1492029489224  Z " fill-rule="nonzero" fill="#009688" stroke="none" transform="matrix(1 0 0 1 16 70 )" />
  </g>
</svg>