<?xml version="1.0" encoding="utf-8"?>
<svg version="1.1" xmlns:xlink="http://www.w3.org/1999/xlink" width="12px" height="12px" xmlns="http://www.w3.org/2000/svg">
  <g transform="matrix(1 0 0 1 -392 -82 )">
    <path d="M 11.7732413793103 10.8086153846154  L 6.92027586206897 5.9971282051282  L 11.7732413793103 1.18564102564103  C 12.0182068965517 0.942769230769231  12.0182068965517 0.542358974358974  11.7732413793103 0.299487179487179  L 11.7467586206897 0.273230769230769  C 11.5017931034483 0.0303589743589741  11.0979310344828 0.0303589743589741  10.8529655172414 0.273230769230769  L 6 5.09128205128205  L 1.14703448275862 0.273230769230769  C 0.902068965517241 0.0303589743589743  0.498206896551724 0.0303589743589743  0.253241379310345 0.273230769230769  L 0.226758620689655 0.29948717948718  C -0.0248275862068966 0.542358974358974  -0.0248275862068966 0.942769230769231  0.226758620689655 1.18564102564103  L 5.07972413793103 5.99712820512821  L 0.226758620689655 10.8086153846154  C -0.0182068965517242 11.0514871794872  -0.0182068965517242 11.4518974358974  0.226758620689655 11.6947692307692  L 0.253241379310345 11.7210256410256  C 0.498206896551724 11.9638974358974  0.902068965517241 11.9638974358974  1.14703448275862 11.7210256410256  L 6 6.90953846153846  L 10.8529655172414 11.7210256410256  C 11.0979310344828 11.9638974358974  11.5017931034483 11.9638974358974  11.7467586206897 11.7210256410256  L 11.7732413793103 11.6947692307692  C 12.0182068965517 11.4518974358974  12.0182068965517 11.0514871794872  11.7732413793103 10.8086153846154  Z " fill-rule="nonzero" fill="#464c5b" stroke="none" transform="matrix(1 0 0 1 392 82 )" />
  </g>
</svg>