<?xml version="1.0" encoding="utf-8"?>
<svg version="1.1" xmlns:xlink="http://www.w3.org/1999/xlink" width="16px" height="16px" xmlns="http://www.w3.org/2000/svg">
  <g transform="matrix(1 0 0 1 -1768 -24 )">
    <path d="M 14.5454545454545 1.45454545454545  L 14.5454545454545 11.6363636363636  L 14.5454545454545 12.0429090909091  L 10.3607272727273 12.0429090909091  C 9.68654545454546 12.0429090909091  8.97018181818182 12.4712727272727  8.65818181818182 13.0618181818182  L 8 14.3054545454545  L 7.34181818181818 13.0610909090909  C 7.02981818181818 12.4712727272727  6.31345454545455 12.0429090909091  5.63927272727273 12.0429090909091  L 1.45454545454545 12.0429090909091  L 1.45454545454545 1.45454545454545  L 14.5454545454545 1.45454545454545  Z M 16 1.392  C 16 0.624727272727273  15.4014545454545 0  14.6661818181818 0  L 1.33381818181818 0  C 0.598545454545455 0  0 0.624727272727273  0 1.392  L 0 12.1054545454545  C 0 12.8727272727273  0.6 13.4974545454545  1.33672727272727 13.4974545454545  L 5.63927272727273 13.4974545454545  C 5.77381818181818 13.4974545454545  5.99636363636364 13.6276363636364  6.05672727272727 13.7418181818182  L 6.92145454545455 15.3774545454545  L 6.98763636363636 15.4807272727273  C 7.24145454545455 15.8109090909091  7.61018181818182 16  8 16  C 8.38981818181818 16  8.75854545454545 15.8109090909091  9.01236363636364 15.4807272727273  L 9.94327272727273 13.7418181818182  C 9.99927272727273 13.6370909090909  10.2152727272727 13.4974545454545  10.3607272727273 13.4974545454545  L 14.6669090909091 13.4974545454545  C 15.4021818181818 13.4974545454545  16 12.8727272727273  16 12.1054545454545  L 16 1.392  Z M 4 5.81818181818182  C 3.71927272727273 5.81818181818182  3.46618181818182 5.92727272727273  3.27272727272727 6.10109090909091  C 3.04190951798606 6.30629775437614  2.90962047240455 6.60024401365826  2.90909090909091 6.90909090909091  C 2.90909090909091 7.23127272727273  3.05090909090909 7.51709090909091  3.27272727272727 7.71709090909091  C 3.4716057641326 7.89843923401903  3.73085438726345 7.99928694841693  4 8  C 4.60249245436087 8  5.09090909090909 7.51158336345177  5.09090909090909 6.90909090909091  C 5.09090909090909 6.30659845473004  4.60249245436087 5.81818181818182  4 5.81818181818182  Z M 12.7272727272727 6.10109090909091  C 12.5283942358674 5.91974258416279  12.2691456127366 5.81889486976489  12 5.81818181818182  C 11.3975075456391 5.81818181818182  10.9090909090909 6.30659845473004  10.9090909090909 6.90909090909091  C 10.9090909090909 7.51158336345177  11.3975075456391 8  12 8  C 12.2807272727273 8  12.5338181818182 7.89090909090909  12.7272727272727 7.71709090909091  C 12.9490909090909 7.51709090909091  13.0909090909091 7.23127272727273  13.0909090909091 6.90909090909091  C 13.0903795275955 6.60024401365826  12.9580904820139 6.30629775437614  12.7272727272727 6.10109090909091  Z M 8.72727272727273 6.10109090909091  C 8.5283942358674 5.91974258416279  8.26914561273655 5.81889486976489  8 5.81818181818182  C 7.71927272727273 5.81818181818182  7.46618181818182 5.92727272727273  7.27272727272727 6.10109090909091  C 7.04190951798606 6.30629775437614  6.90962047240455 6.60024401365826  6.90909090909091 6.90909090909091  C 6.90909090909091 7.23127272727273  7.05090909090909 7.51709090909091  7.27272727272727 7.71709090909091  C 7.4716057641326 7.89843923401903  7.73085438726345 7.99928694841693  8 8  C 8.28072727272727 8  8.53381818181818 7.89090909090909  8.72727272727273 7.71709090909091  C 8.94909090909091 7.51709090909091  9.09090909090909 7.23127272727273  9.09090909090909 6.90909090909091  C 9.09037952759545 6.60024401365826  8.95809048201394 6.30629775437614  8.72727272727273 6.10109090909091  Z " fill-rule="nonzero" fill="#000000" stroke="none" transform="matrix(1 0 0 1 1768 24 )" />
  </g>
</svg>