<?xml version="1.0" encoding="utf-8"?>
<svg version="1.1" xmlns:xlink="http://www.w3.org/1999/xlink" width="16px" height="16px" xmlns="http://www.w3.org/2000/svg">
  <g transform="matrix(1 0 0 1 -1816 -24 )">
    <path d="M 12.47 12.9313333333333  C 11.2486822106669 14.0471973267287  9.65431838991427 14.6661576586331  8 14.6666666666667  C 6.33524666835923 14.6659821001905  4.73159868458948 14.0394195328562  3.50733333333333 12.9113333333333  C 4.65133333333333 12.5413333333333  6.56266666666667 12  7.95733333333333 12  C 9.37533333333333 12  11.3333333333333 12.562  12.47 12.9313333333333  Z M 10 7.99866666666667  C 9.99889903557049 9.10299581378721  9.10432816814599 9.99816306178999  8 10  C 6.89733333333333 10  6 9.102  6 7.99866666666667  L 6 6.00133333333333  C 6.00110096442951 4.89700418621279  6.89567183185401 4.00183693821001  8 4  C 9.10266666666667 4  10 4.898  10 6.00133333333333  L 10 7.99866666666667  Z M 1.33333333333333 8  C 1.33333333333333 4.324  4.324 1.33333333333333  8 1.33333333333333  C 11.676 1.33333333333333  14.6666666666667 4.324  14.6666666666667 8  C 14.6666695528682 9.37965525659726  14.2359688862305 10.7248956504461  13.4346666666667 11.848  C 12.7173333333333 11.598  11.2066666666667 11.108  9.71266666666667 10.8446666666667  C 10.6793333333333 10.26  11.3333333333333 9.20866666666667  11.3333333333333 7.99866666666667  L 11.3333333333333 6.00133333333333  C 11.331497298581 4.1609292538156  9.84040319807727 2.66923871567171  8 2.66666666666667  C 6.162 2.66666666666667  4.66666666666667 4.16266666666667  4.66666666666667 6.00133333333333  L 4.66666666666667 7.99866666666667  C 4.66666666666667 9.2  5.31133333333333 10.2466666666667  6.26733333333333 10.8333333333333  C 4.79533333333333 11.0866666666667  3.29933333333333 11.5646666666667  2.548 11.8246666666667  C 1.75738821535102 10.7060392593048  1.33302009438077 9.36981537895012  1.33333333333333 8  Z M 16 8  C 16 3.58866666666667  12.4113333333333 0  8 0  C 3.58866666666667 0  0 3.58866666666667  0 8  C 0 12.4113333333333  3.58866666666667 16  8 16  C 12.4113333333333 16  16 12.4113333333333  16 8  Z " fill-rule="nonzero" fill="#000000" stroke="none" transform="matrix(1 0 0 1 1816 24 )" />
  </g>
</svg>