<?xml version="1.0" encoding="utf-8"?>
<svg version="1.1" xmlns:xlink="http://www.w3.org/1999/xlink" width="17px" height="17px" xmlns="http://www.w3.org/2000/svg">
  <g transform="matrix(1 0 0 1 -16 -655 )">
    <path d="M 14.54251465896 6.55387234042553  C 14.7272494165817 7.47162377565878  14.7272494165817 8.41875920306462  14.54251465896 9.33651063829787  C 13.7482142923234 9.4583740380453  13.051973456738 9.94947736253765  12.6535250727978 10.6689361702128  C 12.2499937874093 11.384329343622  12.1858245675776 12.2509215695509  12.479339515429 13.0212765957447  C 11.8028133461859 13.6470094345602  11.0079925226042 14.1213179723235  10.1449891291761 14.4142978723404  C 9.64555721645306 13.7655137150589  8.88541090823475 13.3888681883041  8.08247377942291 13.3923404255319  C 7.27950595289122 13.3888995864888  6.519257122878 13.7652245628095  6.01929863589185 14.4136170212766  C 5.15641305130311 14.1206951186703  4.36162376077287 13.6466372113818  3.68494824963893 13.0212765957447  C 3.97866291544403 12.251024320454  3.91473705753679 11.3844361166034  3.51142248604806 10.6689361702128  C 3.11283580927152 9.94930632114447  2.4163165305001 9.45817813601239  1.62177310610788 9.33651063829787  C 1.43802817528438 8.41865452273641  1.43802817528438 7.471728455987  1.62177310610788 6.55387234042553  C 2.41611818076628 6.43216367423594  3.1125388249325 5.94135596231396  3.51142248604806 5.22212765957447  C 3.91475605875192 4.50638643871928  3.97867900866803 3.63958684595109  3.68494824963894 2.86910638297873  C 4.36147441888199 2.24337354416318  5.15629524246374 1.76906500639992  6.01929863589185 1.47608510638298  C 6.51905562035207 2.12490688122295  7.27930412453772 2.50173346267827  8.08247377942291 2.49872340425532  C 8.90127785781179 2.49872340425532  9.65080358951991 2.11744680851064  10.1449891291761 1.47608510638298  C 11.0080553261819 1.76892028333601  11.8029035778137 2.24324518876091  12.479339515429 2.86910638297872  C 12.1859075003237 3.63970492249967  12.250070392575 4.50646249365529  12.6535250727978 5.22212765957447  C 13.0522703440116 5.94118502080264  13.7484126256775 6.43196791739212  14.54251465896 6.55387234042553  Z M 15.7004527391957 5.71302127659575  C 15.6171622126768 5.40337640877673  15.3341610514517 5.19701771601431  15.0235043230579 5.21940425531915  C 14.5223131031715 5.25465763227392  14.0456699591559 4.99127711306454  13.7962878961415 4.54127659574468  C 13.5435035717735 4.09318836616934  13.5604055987065 3.53559035780995  13.8398342854837 3.10468085106383  C 14.0110102877942 2.83819387862506  13.979444044238 2.48469865277349  13.7639580010238 2.25497872340426  C 12.7408149625869 1.1653184893501  11.4434423655718 0.391713134110076  10.017648930039 0.021106382978725  C 9.71647300160007 -0.0573143599920796  9.40311244370194 0.0918857451783359  9.26548402321926 0.379234042553194  C 9.0440988946466 0.844564034096151  8.58482217436952 1.1387576282294  8.08247377942291 1.13702127659575  C 7.5801253844763 1.1387576282294  7.12084866419922 0.84456403409615  6.89946353562656 0.379234042553192  C 6.76164961159372 0.0920824363531876  6.44844991927166 -0.0570410760225619  6.1472986288068 0.0211063829787238  C 4.72152565896775 0.391386522576491  3.42412701759193 1.16477161956965  2.40098955782204 2.25429787234043  C 2.18460114853284 2.48406555226422  2.15273336406219 2.83842808720047  2.32445347958424 3.10536170212766  C 2.60392114113261 3.53600823258409  2.62082615847056 4.09344058321285  2.36799986892644 4.54127659574468  C 2.1182738733963 4.99091200803205  1.64187082597758 5.25415985614955  1.14078344200998 5.21940425531915  C 0.829775810198873 5.19516825139754  0.545936400588294 5.40234009971872  0.464494819650101 5.71302127659574  C 0.264954810405157 6.43928954295995  0.164142730518548 7.19063911508045  0.164948444478019 7.94553191489362  C 0.164948444478019 8.704  0.265237098720654 9.45497872340426  0.4644948196501 10.1773617021277  C 0.548618662046416 10.4860994711639  0.830658202482112 10.6919576110603  1.14078344200998 10.6709787234043  C 1.64163249656829 10.6381663713019  2.11720170717747 10.9012173054963  2.36799986892643 11.3497872340426  C 2.62070088586676 11.8005106382979  2.60420604141896 12.3506382978723  2.32445347958424 12.7850212765957  C 2.15309256473127 13.0518091723874  2.18494740904764 13.4057444408285  2.40098955782204 13.6354042553192  C 3.42386634190417 14.7252752850119  4.72136645857897 15.4987208718818  6.1472986288068 15.8685957446809  C 6.4483353793489 15.9473978271534  6.76180363255681 15.7984301929782  6.89946353562656 15.5111489361702  C 7.12091366069304 15.0459699629035  7.58022911721784 14.7520159031147  8.08247377942291 14.7540425531915  C 8.58787581330356 14.7540425531915  9.04115413872915 15.044085106383  9.26548402321926 15.5111489361702  C 9.4032979472521 15.7983005423702  9.71649763957416 15.947424054746  10.017648930039 15.8692765957447  C 11.4435882685538 15.4990410747241  12.7410537894718 14.7253803102446  13.7639580010238 13.6354042553192  C 13.9801361984442 13.4054679896143  14.0117280742777 13.0511187614141  13.8398342854837 12.7843404255319  C 13.560913361595 12.3540129510973  13.5440136797104 11.7972849892866  13.7962878961415 11.3497872340426  C 14.0438648854028 10.8978029229949  14.5216831013593 10.6335079996094  15.0235043230579 10.6709787234043  C 15.3336073986766 10.6900425531915  15.6153393418451 10.4851063829787  15.7004527391957 10.1773617021277  C 15.8995408032086 9.45122805294132  16.0003447149463 8.70016847908851  15.9999991143678 7.94553191489362  C 15.9999991143678 7.18706382978723  15.8990506663473 6.43608510638298  15.7004527391957 5.71234042553192  Z M 10.0618551131591 7.94553191489362  C 10.0618551131591 9.07097872340426  9.17377268808948 9.98808510638298  8.08247377942291 9.98808510638298  C 6.99117487075634 9.98808510638298  6.10309244568669 9.07097872340426  6.10309244568669 7.94553191489362  C 6.10309244568669 6.81872340425532  6.99117487075634 5.90297872340426  8.08247377942291 5.90297872340426  C 9.17377268808948 5.90297872340426  10.0618551131591 6.81872340425532  10.0618551131591 7.94553191489362  Z M 11.3814426689833 7.94553191489362  C 11.3814426689833 6.06774468085107  9.9015252251265 4.54127659574468  8.08247377942291 4.54127659574468  C 6.26342233371932 4.54127659574468  4.78350488986254 6.06774468085107  4.78350488986254 7.94553191489362  C 4.78350488986254 9.82263829787234  6.26342233371932 11.3497872340426  8.08247377942291 11.3497872340426  C 9.9015252251265 11.3497872340426  11.3814426689833 9.82195744680851  11.3814426689833 7.94553191489362  Z " fill-rule="nonzero" fill="#00a870" stroke="none" transform="matrix(1 0 0 1 16 655 )" />
  </g>
</svg>