<?xml version="1.0" encoding="utf-8"?>
<svg version="1.1" xmlns:xlink="http://www.w3.org/1999/xlink" width="13px" height="16px" xmlns="http://www.w3.org/2000/svg">
  <g transform="matrix(1 0 0 1 -18 -687 )">
    <path d="M 11.5548333333333 11.636363294288  L 11.5548333333333 14.5454539297184  L 1.44444444444444 14.5512721109893  L 1.44444444444444 11.636363294288  L 11.5548333333333 11.636363294288  Z M 1.44444444444444 10  L 1.44444444444444 1.44872788901073  L 1.44516666666667 1.45454607028159  L 11.5555555555556 1.44872788901073  L 11.5548333333333 10  L 1.44444444444444 10  Z M 13 1.44872788901073  C 12.997213220932 0.647227225381595  12.3507725703537 -0.00080606669094265  11.5548333333333 0  L 1.44516666666666 0  C 0.649227429646252 -0.000806066690942004  0.00278677906796738 0.647227225381596  0 1.44872788901073  L 0 14.5512721109893  C 0 15.3498174904149  0.647833333333333 15.9999992474336  1.44516666666667 16  L 11.5548333333333 16  C 12.3507725703537 16.0008060666909  12.997213220932 15.3527727746184  13 14.5512721109893  L 13 1.44872788901073  Z M 5.77777777777778 13.8181812708608  L 7.22222222222222 13.8181812708608  C 7.62109454154446 13.8181812708608  7.94444444444444 13.4925702104592  7.94444444444444 13.0909086120032  C 7.94444444444444 12.6892470135473  7.62109454154446 12.3636359531456  7.22222222222222 12.3636359531456  L 5.77777777777778 12.3636359531456  C 5.37890545845554 12.3636359531456  5.05555555555556 12.6892470135473  5.05555555555556 13.0909086120032  C 5.05555555555556 13.4925702104592  5.37890545845554 13.8181812708608  5.77777777777778 13.8181812708608  Z " fill-rule="nonzero" fill="#00a870" stroke="none" transform="matrix(1 0 0 1 18 687 )" />
  </g>
</svg>