<?xml version="1.0" encoding="utf-8"?>
<svg version="1.1" xmlns:xlink="http://www.w3.org/1999/xlink" width="21px" height="8px" xmlns="http://www.w3.org/2000/svg">
  <g transform="matrix(1 0 0 1 -935 -1117 )">
    <path d="M 20.7895791583166 6.54295532646048  C 20.9298597194389 6.63459335624284  21 6.73997709049255  21 6.85910652920962  C 21 6.97823596792669  20.9298597194389 7.0836197021764  20.7895791583166 7.17525773195876  L 19.7374749498998 7.86254295532646  C 19.5971943887776 7.95418098510882  19.435871743487 8  19.2535070140281 8  C 19.0711422845691 8  18.9098196392786 7.95418098510882  18.7695390781563 7.86254295532646  L 10.5 2.46048109965636  L 2.23046092184369 7.86254295532646  C 2.09018036072144 7.95418098510882  1.92885771543086 8  1.74649298597194 8  C 1.56412825651303 8  1.40280561122245 7.95418098510882  1.2625250501002 7.86254295532646  L 0.210420841683367 7.17525773195876  C 0.0701402805611225 7.0836197021764  0 6.97823596792669  0 6.85910652920962  C 0 6.73997709049255  0.0701402805611225 6.63459335624284  0.210420841683367 6.54295532646048  L 10.0160320641283 0.13745704467354  C 10.1563126252505 0.0458190148911788  10.3176352705411 0  10.5 0  C 10.6823647294589 0  10.8436873747495 0.0458190148911788  10.9839679358717 0.13745704467354  L 20.7895791583166 6.54295532646048  Z " fill-rule="nonzero" fill="#333333" stroke="none" transform="matrix(1 0 0 1 935 1117 )" />
  </g>
</svg>