<?xml version="1.0" encoding="utf-8"?>
<svg version="1.1" xmlns:xlink="http://www.w3.org/1999/xlink" width="864px" height="782px" xmlns="http://www.w3.org/2000/svg">
  <defs>
    <mask fill="white" id="clip130">
      <path d="M 864 0.333333333333314  L 18.6666666666666 86.3333333333333  L 0.666666666666572 781.666666666667  L 611.333333333333 769.666666666667  L 712 584.333333333333  L 860.666666666667 562.333333333333  L 864 0.333333333333314  Z " fill-rule="evenodd" />
    </mask>
  </defs>
  <g transform="matrix(1 0 0 1 -264 -83 )">
    <path d="M 864 0.333333333333314  L 18.6666666666666 86.3333333333333  L 0.666666666666572 781.666666666667  L 611.333333333333 769.666666666667  L 712 584.333333333333  L 860.666666666667 562.333333333333  L 864 0.333333333333314  Z " fill-rule="nonzero" fill="#ff6600" stroke="none" fill-opacity="0.549019607843137" transform="matrix(1 0 0 1 264 83 )" />
    <path d="M 864 0.333333333333314  L 18.6666666666666 86.3333333333333  L 0.666666666666572 781.666666666667  L 611.333333333333 769.666666666667  L 712 584.333333333333  L 860.666666666667 562.333333333333  L 864 0.333333333333314  Z " stroke-width="10" stroke="#ff7f27" fill="none" transform="matrix(1 0 0 1 264 83 )" mask="url(#clip130)" />
  </g>
</svg>