<?xml version="1.0" encoding="utf-8"?>
<svg version="1.1" xmlns:xlink="http://www.w3.org/1999/xlink" width="9px" height="18px" xmlns="http://www.w3.org/2000/svg">
  <g transform="matrix(1 0 0 1 -370 -112 )">
    <path d="M 8.84536082474227 8.58517034068136  C 8.94845360824742 8.70541082164329  9 8.8436873747495  9 9  C 9 9.1563126252505  8.94845360824742 9.29458917835671  8.84536082474227 9.41482965931864  L 1.63917525773196 17.8196392785571  C 1.5360824742268 17.939879759519  1.41752577319588 18  1.28350515463918 18  C 1.14948453608247 18  1.03092783505155 17.939879759519  0.927835051546392 17.8196392785571  L 0.154639175257732 16.9178356713427  C 0.0515463917525774 16.7975951903808  0 16.6593186372745  0 16.503006012024  C 0 16.3466933867735  0.0515463917525774 16.2084168336673  0.154639175257732 16.0881763527054  L 6.2319587628866 9  L 0.154639175257732 1.91182364729459  C 0.0515463917525774 1.79158316633266  0 1.65330661322645  0 1.49699398797595  C 0 1.34068136272545  0.0515463917525774 1.20240480961924  0.154639175257732 1.08216432865731  L 0.927835051546392 0.180360721442886  C 1.03092783505155 0.0601202404809613  1.14948453608247 0  1.28350515463918 0  C 1.41752577319588 0  1.5360824742268 0.0601202404809613  1.63917525773196 0.180360721442886  L 8.84536082474227 8.58517034068136  Z " fill-rule="nonzero" fill="#cccccc" stroke="none" transform="matrix(1 0 0 1 370 112 )" />
  </g>
</svg>