<?xml version="1.0" encoding="utf-8"?>
<svg version="1.1" xmlns:xlink="http://www.w3.org/1999/xlink" width="16px" height="16px" viewBox="232 152  16 16" xmlns="http://www.w3.org/2000/svg">
  <path d="M 240 152  C 244.48 152  248 155.52  248 160  C 248 164.48  244.48 168  240 168  C 235.52 168  232 164.48  232 160  C 232 155.52  235.52 152  240 152  Z " fill-rule="nonzero" fill="#ffffff" stroke="none" />
  <path d="M 240 152.5  C 244.2 152.5  247.5 155.8  247.5 160  C 247.5 164.2  244.2 167.5  240 167.5  C 235.8 167.5  232.5 164.2  232.5 160  C 232.5 155.8  235.8 152.5  240 152.5  Z " stroke-width="1" stroke="#797979" fill="none" />
  <path d="M 240 164  C 237.76 164  236 162.24  236 160  C 236 157.76  237.76 156  240 156  C 242.24 156  244 157.76  244 160  C 244 162.24  242.24 164  240 164  " fill-rule="nonzero" fill="#797979" stroke="none" />
</svg>