<?xml version="1.0" encoding="utf-8"?>
<svg version="1.1" xmlns:xlink="http://www.w3.org/1999/xlink" width="16px" height="16px" viewBox="232 600  16 16" xmlns="http://www.w3.org/2000/svg">
  <path d="M 240 600  C 244.48 600  248 603.52  248 608  C 248 612.48  244.48 616  240 616  C 235.52 616  232 612.48  232 608  C 232 603.52  235.52 600  240 600  Z " fill-rule="nonzero" fill="#ffffff" stroke="none" />
  <path d="M 240 600.5  C 244.2 600.5  247.5 603.8  247.5 608  C 247.5 612.2  244.2 615.5  240 615.5  C 235.8 615.5  232.5 612.2  232.5 608  C 232.5 603.8  235.8 600.5  240 600.5  Z " stroke-width="1" stroke="#797979" fill="none" />
  <path d="M 240 612  C 237.76 612  236 610.24  236 608  C 236 605.76  237.76 604  240 604  C 242.24 604  244 605.76  244 608  C 244 610.24  242.24 612  240 612  " fill-rule="nonzero" fill="#797979" stroke="none" />
</svg>