<?xml version="1.0" encoding="utf-8"?>
<svg version="1.1" xmlns:xlink="http://www.w3.org/1999/xlink" width="16px" height="16px" viewBox="132 600  16 16" xmlns="http://www.w3.org/2000/svg">
  <path d="M 140 600  C 144.48 600  148 603.52  148 608  C 148 612.48  144.48 616  140 616  C 135.52 616  132 612.48  132 608  C 132 603.52  135.52 600  140 600  Z " fill-rule="nonzero" fill="#ffffff" stroke="none" />
  <path d="M 140 600.5  C 144.2 600.5  147.5 603.8  147.5 608  C 147.5 612.2  144.2 615.5  140 615.5  C 135.8 615.5  132.5 612.2  132.5 608  C 132.5 603.8  135.8 600.5  140 600.5  Z " stroke-width="1" stroke="#797979" fill="none" />
  <path d="M 140 612  C 137.76 612  136 610.24  136 608  C 136 605.76  137.76 604  140 604  C 142.24 604  144 605.76  144 608  C 144 610.24  142.24 612  140 612  " fill-rule="nonzero" fill="#797979" stroke="none" />
</svg>