<?xml version="1.0" encoding="utf-8"?>
<svg version="1.1" xmlns:xlink="http://www.w3.org/1999/xlink" width="16px" height="16px" viewBox="1447 353  16 16" xmlns="http://www.w3.org/2000/svg">
  <path d="M 1455 353  C 1459.48 353  1463 356.52  1463 361  C 1463 365.48  1459.48 369  1455 369  C 1450.52 369  1447 365.48  1447 361  C 1447 356.52  1450.52 353  1455 353  Z " fill-rule="nonzero" fill="#f0f0f0" stroke="none" />
  <path d="M 1455 353.5  C 1459.2 353.5  1462.5 356.8  1462.5 361  C 1462.5 365.2  1459.2 368.5  1455 368.5  C 1450.8 368.5  1447.5 365.2  1447.5 361  C 1447.5 356.8  1450.8 353.5  1455 353.5  Z " stroke-width="1" stroke="#797979" fill="none" />
  <path d="M 1455 365  C 1452.76 365  1451 363.24  1451 361  C 1451 358.76  1452.76 357  1455 357  C 1457.24 357  1459 358.76  1459 361  C 1459 363.24  1457.24 365  1455 365  " fill-rule="nonzero" fill="#797979" stroke="none" />
</svg>