<?xml version="1.0" encoding="utf-8"?>
<svg version="1.1" xmlns:xlink="http://www.w3.org/1999/xlink" width="24px" height="24px" xmlns="http://www.w3.org/2000/svg">
  <g transform="matrix(1 0 0 1 -396 -308 )">
    <path d="M 23.9272727181818 12  C 23.9272727181818 18.5745454636364  18.5745454636364 23.9272727181818  12 23.9272727181818  C 5.42545453636364 23.9272727181818  0.0727272818181819 18.5745454636364  0.0727272818181819 12  C 0.0727272818181819 5.42545453636363  5.42545453636364 0.0727272818181819  12 0.0727272818181819  C 18.5745454636364 0.0727272818181819  23.9272727181818 5.42545453636364  23.9272727181818 12  Z M 22.1818181727273 12  C 22.1818181727273 6.41454545454546  17.5854545454545 1.81818182727273  12 1.81818182727273  C 6.41454545454545 1.81818182727273  1.81818182727273 6.41454545454545  1.81818182727273 12  C 1.81818182727273 17.5854545454545  6.41454545454545 22.1818181727273  12 22.1818181727273  C 17.5854545454545 22.1818181727273  22.1818181727273 17.5854545454545  22.1818181727273 12  Z M 17.5272727363636 12  C 17.5272727363636 12.4654545545455  17.1200000181818 12.8727272727273  16.6545454636364 12.8727272727273  L 7.34545453636364 12.8727272727273  C 6.87999998181818 12.8727272727273  6.47272726363636 12.4654545545455  6.47272726363636 12  C 6.47272726363636 11.5345454454545  6.87999998181818 11.1272727272727  7.34545453636364 11.1272727272727  L 16.6545454636364 11.1272727272727  C 17.1200000181818 11.1272727272727  17.5272727363636 11.5345454454545  17.5272727363636 12  Z " fill-rule="nonzero" fill="#d9001b" stroke="none" transform="matrix(1 0 0 1 396 308 )" />
  </g>
</svg>