<?xml version="1.0" encoding="utf-8"?>
<svg version="1.1" xmlns:xlink="http://www.w3.org/1999/xlink" width="26px" height="26px" xmlns="http://www.w3.org/2000/svg">
  <g transform="matrix(1 0 0 1 -427 -307 )">
    <path d="M 25.0697463676121 13  C 25.0697463676121 6.34692028065557  19.6530797193444 0.930253632387908  13 0.930253632387908  C 6.34692028065557 0.930253632387908  0.930253632387908 6.34692028065557  0.930253632387908 13  C 0.930253632387908 19.6530797193444  6.34692028065557 25.0697463676121  13 25.0697463676121  C 19.6530797193444 25.0697463676121  25.0697463676121 19.6530797193444  25.0697463676121 13  Z M 23.303442019786 13  C 23.303442019786 18.6521739130435  18.6521739130435 23.303442019786  13 23.303442019786  C 7.34782608695652 23.303442019786  2.696557980214 18.6521739130435  2.696557980214 13  C 2.696557980214 7.34782608695652  7.34782608695652 2.69655798021399  13 2.69655798021399  C 18.6521739130435 2.69655798021399  23.303442019786 7.34782608695652  23.303442019786 13  Z M 18.5932971106488 13  C 18.5932971106488 12.5289854980469  18.1811594386889 12.116847826087  17.7101449367357 12.116847826087  L 13.883152173913 12.116847826087  L 13.883152173913 8.28985506326427  C 13.883152173913 7.81884056131114  13.4710145019531 7.40670288935122  13 7.40670288935122  C 12.5289854980469 7.40670288935122  12.116847826087 7.81884056131114  12.116847826087 8.28985506326427  L 12.116847826087 12.116847826087  L 8.28985506326427 12.116847826087  C 7.81884056131114 12.116847826087  7.40670288935122 12.5289854980469  7.40670288935122 13  C 7.40670288935122 13.4710145019531  7.81884056131114 13.883152173913  8.28985506326427 13.883152173913  L 12.116847826087 13.883152173913  L 12.116847826087 17.7101449367357  C 12.116847826087 18.1811594386889  12.5289854980469 18.5932971106488  13 18.5932971106488  C 13.4710145019531 18.5932971106488  13.883152173913 18.1811594386889  13.883152173913 17.7101449367357  L 13.883152173913 13.883152173913  L 17.7101449367357 13.883152173913  C 18.1811594386889 13.883152173913  18.5932971106488 13.4710145019531  18.5932971106488 13  Z " fill-rule="nonzero" fill="#002fa7" stroke="none" transform="matrix(1 0 0 1 427 307 )" />
  </g>
</svg>