<?xml version="1.0" encoding="utf-8"?>
<svg version="1.1" xmlns:xlink="http://www.w3.org/1999/xlink" width="9px" height="16px" xmlns="http://www.w3.org/2000/svg">
  <g transform="matrix(1 0 0 1 -26 -100 )">
    <path d="M 0.0480798 1.17512607170732  C 0.0480798 1.77033959634394  0.511747420856992 2.25285549447154  1.0837104171875 2.25285549447154  C 1.65567341351801 2.25285549447154  2.119341034375 1.77033959634394  2.119341034375 1.17512607170732  C 2.119341034375 0.57991254707069  1.65567341351801 0.0973966489430892  1.0837104171875 0.0973966489430892  C 0.511747420856992 0.0973966489430892  0.0480798 0.57991254707069  0.0480798 1.17512607170732  Z M 0.0674978740625001 7.90532179040651  C 0.0674978740625001 8.50053531504313  0.531165494919492 8.98305121317073  1.10312849125 8.98305121317073  C 1.67509148758051 8.98305121317073  2.1387591084375 8.50053531504313  2.1387591084375 7.90532179040651  C 2.1387591084375 7.31010826576988  1.67509148758051 6.82759236764228  1.10312849125 6.82759236764228  C 0.531165494919492 6.82759236764228  0.0674978740625005 7.31010826576988  0.0674978740625005 7.90532179040651  Z M 0.0674978740625001 14.8045863125203  C 0.0674978740625001 15.399799837157  0.531165494919492 15.8823157352846  1.10312849125 15.8823157352846  C 1.67509148758051 15.8823157352846  2.1387591084375 15.399799837157  2.1387591084375 14.8045863125203  C 2.1387591084375 14.2093727878837  1.67509148758051 13.7268568897561  1.10312849125 13.7268568897561  C 0.531165494919492 13.7268568897561  0.0674978740625005 14.2093727878837  0.0674978740625005 14.8045863125203  Z M 6.845052995 1.17512607170732  C 6.845052995 1.77033959638884  7.30872061589197 2.25285549455284  7.88068361226563 2.25285549455284  C 8.45264660863928 2.25285549455284  8.91631422953125 1.77033959638885  8.91631422953125 1.17512607170732  C 8.91631422953125 0.579912547025789  8.45264660863928 0.0973966488617891  7.88068361226563 0.0973966488617891  C 7.30872061589197 0.0973966488617891  6.845052995 0.579912547025789  6.845052995 1.17512607170732  Z M 6.8644710690625 7.90532179040651  C 6.8644710690625 8.50053531508803  7.32813868995447 8.98305121325203  7.90010168632812 8.98305121325203  C 8.47206468270178 8.98305121325203  8.93573230359375 8.50053531508803  8.93573230359375 7.90532179040651  C 8.93573230359375 7.31010826572498  8.47206468270178 6.82759236756098  7.90010168632812 6.82759236756098  C 7.32813868995447 6.82759236756098  6.8644710690625 7.31010826572498  6.8644710690625 7.90532179040651  Z M 6.8644710690625 14.8045863125203  C 6.8644710690625 15.3997998372019  7.32813868995447 15.8823157353659  7.90010168632812 15.8823157353659  C 8.47206468270178 15.8823157353659  8.93573230359375 15.3997998372019  8.93573230359375 14.8045863125203  C 8.93573230359375 14.2093727878388  8.47206468270178 13.7268568896748  7.90010168632812 13.7268568896748  C 7.32813868995447 13.7268568896748  6.8644710690625 14.2093727878388  6.8644710690625 14.8045863125203  Z " fill-rule="nonzero" fill="#909399" stroke="none" transform="matrix(1 0 0 1 26 100 )" />
  </g>
</svg>