<?xml version="1.0" encoding="utf-8"?>
<svg version="1.1" xmlns:xlink="http://www.w3.org/1999/xlink" width="16px" height="16px" xmlns="http://www.w3.org/2000/svg">
  <g transform="matrix(1 0 0 1 -528 -12 )">
    <path d="M 15.6403100697674 14.2511627906977  L 9.38914727906977 8  L 15.6403100697674 1.74883720930233  C 16.0372093023256 1.35193797674419  16.0372093023256 0.756589139534884  15.6403100697674 0.359689930232558  C 15.2434108372093 -0.0372093023255819  14.648062 -0.0372093023255819  14.2511627906977 0.359689930232558  L 8 6.61085272093023  L 1.74883720930233 0.359689930232558  C 1.35193797674419 -0.0372093023255813  0.756589139534884 -0.0372093023255813  0.359689930232558 0.359689930232558  C -0.0372093023255819 0.756589162790698  -0.0372093023255819 1.351938  0.359689930232558 1.74883720930233  L 6.61085272093023 8  L 0.359689930232558 14.2511627906977  C -0.0372093023255813 14.6480620232558  -0.0372093023255813 15.2434108604651  0.359689930232558 15.6403100697674  C 0.558139534883721 15.8387596744186  0.806201558139535 15.9379844883721  1.05426355813954 15.9379844883721  C 1.30232555813954 15.9379844883721  1.55038758139535 15.8387596744186  1.74883720930233 15.6403100697674  L 8 9.38914727906977  L 14.2511627906977 15.6403100697674  C 14.4496123953488 15.8387596744186  14.6976744186047 15.9379844883721  14.9457364418605 15.9379844883721  C 15.1937984651163 15.9379844883721  15.4418604651163 15.8387596744186  15.6403100697674 15.6403100697674  C 16.0372093023256 15.2434108372093  16.0372093023256 14.648062  15.6403100697674 14.2511627906977  Z " fill-rule="nonzero" fill="#d9001b" stroke="none" transform="matrix(1 0 0 1 528 12 )" />
  </g>
</svg>