<?xml version="1.0" encoding="utf-8"?>
<svg version="1.1" xmlns:xlink="http://www.w3.org/1999/xlink" width="10px" height="17px" xmlns="http://www.w3.org/2000/svg">
  <g transform="matrix(1 0 0 1 -389 -324 )">
    <path d="M 8.58195918367347 7.29142857142857  L 1.23502040816327 0.204190476190477  C 1.10037447224468 0.0794950431083555  0.92617244734756 0.0105721175414688  0.745651887362724 0.0105721175414688  C 0.339891662997243 0.0105721175414688  0.0109580098117037 0.351688498622769  0.0109580098117037 0.772476879446231  C 0.0109580098117037 0.978696178723571  0.0915652651172087 1.17610792975181  0.234367346938776 1.31961904761905  L 7.01559183673469 7.86133333333333  L 0.223346938775512 14.6910476190476  C 0.0807596133175721 14.8344850586411  0.000285759654833926 15.0317061686032  0.000285759654833926 15.2377142857143  C 0.000285759654833926 15.6583390006272  0.329091473885021 15.9993227042733  0.734693877551022 15.9993227042733  C 0.925603334415807 15.9993227042733  1.10900998279547 15.9222287719114  1.24604081632653 15.784380952381  L 8.59297959183674 8.39695238095238  C 8.73586301020504 8.25355985238201  8.81653337732637 8.05618532317954  8.81653337732637 7.84998792873805  C 8.81653337732637 7.63831897149885  8.73153908882308 7.43620979286353  8.58195918367347 7.29219047619048  Z " fill-rule="nonzero" fill="#000000" stroke="none" transform="matrix(1 0 0 1 389 324 )" />
  </g>
</svg>