<?xml version="1.0" encoding="utf-8"?>
<svg version="1.1" xmlns:xlink="http://www.w3.org/1999/xlink" width="12px" height="6px" xmlns="http://www.w3.org/2000/svg">
  <g transform="matrix(1 0 0 1 -359 -141 )">
    <path d="M 11.77734375 0.197916666666657  C 11.92578125 0.329861111111114  12 0.486111111111114  12 0.666666666666657  C 12 0.847222222222229  11.92578125 1.00347222222223  11.77734375 1.13541666666666  L 6.52734375 5.80208333333334  C 6.37890624999995 5.93402777777777  6.20312499999995 6  6 6  C 5.79687500000005 6  5.62109375000005 5.93402777777777  5.47265625 5.80208333333334  L 0.22265624999995 1.13541666666666  C 0.0742187500000256 1.00347222222223  0 0.847222222222229  0 0.666666666666657  C 0 0.486111111111114  0.0742187500000256 0.329861111111114  0.22265624999995 0.197916666666657  C 0.371093750000002 0.0659722222222285  0.546875000000002 0  0.749999999999953 0  L 11.25 0  C 11.453125 0  11.62890625 0.0659722222222285  11.77734375 0.197916666666657  Z " fill-rule="nonzero" fill="#cccccc" stroke="none" transform="matrix(1 0 0 1 359 141 )" />
  </g>
</svg>