<?xml version="1.0" encoding="utf-8"?>
<svg version="1.1" xmlns:xlink="http://www.w3.org/1999/xlink" width="12px" height="16px" xmlns="http://www.w3.org/2000/svg">
  <g transform="matrix(1 0 0 1 -712 -189 )">
    <path d="M 7.359375 9.8125  C 7.99158653846154 8.96955128205128  8.30769230769231 7.9551282051282  8.30769230769231 6.76923076923077  C 8.30769230769231 5.58333333333333  7.99158653846154 4.56891025641026  7.359375 3.72596153846154  C 6.72716346153846 2.88301282051282  5.96634615384615 2.46153846153846  5.07692307692308 2.46153846153846  C 4.1875 2.46153846153846  3.42668269230769 2.88301282051282  2.79447115384615 3.72596153846154  C 2.16225961538462 4.56891025641026  1.84615384615385 5.58333333333333  1.84615384615385 6.76923076923077  C 1.84615384615385 7.9551282051282  2.16225961538462 8.96955128205128  2.79447115384615 9.8125  C 3.42668269230769 10.6554487179487  4.1875 11.0769230769231  5.07692307692308 11.0769230769231  C 5.96634615384615 11.0769230769231  6.72716346153846 10.6554487179487  7.359375 9.8125  Z M 11.7331730769231 13.9038461538462  C 11.9110576923077 14.1410256410256  12 14.4294871794872  12 14.7692307692308  C 12 15.1025641025641  11.9086538461538 15.3910256410256  11.7259615384615 15.6346153846154  C 11.5432692307692 15.8782051282051  11.3269230769231 16  11.0769230769231 16  C 10.8173076923077 16  10.6009615384615 15.8782051282051  10.4278846153846 15.6346153846154  L 7.95432692307692 12.3461538461538  C 7.09375 13.1410256410256  6.13461538461539 13.5384615384615  5.07692307692308 13.5384615384615  C 4.38942307692308 13.5384615384615  3.73197115384615 13.3605769230769  3.10456730769231 13.0048076923077  C 2.47716346153846 12.6490384615385  1.93629807692308 12.1682692307692  1.48197115384615 11.5625  C 1.02764423076923 10.9567307692308  0.667067307692308 10.2355769230769  0.400240384615385 9.39903846153846  C 0.133413461538462 8.5625  0 7.68589743589743  0 6.76923076923077  C 0 5.8525641025641  0.133413461538462 4.97596153846154  0.400240384615385 4.13942307692308  C 0.667067307692308 3.30288461538462  1.02764423076923 2.58173076923077  1.48197115384615 1.97596153846154  C 1.93629807692308 1.37019230769231  2.47716346153846 0.889423076923077  3.10456730769231 0.533653846153847  C 3.73197115384615 0.177884615384615  4.38942307692308 0  5.07692307692308 0  C 5.76442307692308 0  6.421875 0.177884615384615  7.04927884615385 0.533653846153847  C 7.67668269230769 0.889423076923077  8.21754807692308 1.37019230769231  8.671875 1.97596153846154  C 9.12620192307692 2.58173076923077  9.48677884615385 3.30288461538462  9.75360576923077 4.13942307692308  C 10.0204326923077 4.97596153846154  10.1538461538462 5.8525641025641  10.1538461538462 6.76923076923077  C 10.1538461538462 8.17948717948718  9.85576923076923 9.45833333333333  9.25961538461539 10.6057692307692  L 11.7331730769231 13.9038461538462  Z " fill-rule="nonzero" fill="#333333" stroke="none" transform="matrix(1 0 0 1 712 189 )" />
  </g>
</svg>