<?xml version="1.0" encoding="utf-8"?>
<svg version="1.1" xmlns:xlink="http://www.w3.org/1999/xlink" width="15px" height="16px" xmlns="http://www.w3.org/2000/svg">
  <g transform="matrix(1 0 0 1 -186 -56 )">
    <path d="M 6.74157303370786 12.3870967741935  C 3.76295865259797 12.3870967741935  1.34831460674157 9.92225582702544  1.34831460674157 6.88172043010753  C 1.34831460674157 3.84118503318961  3.76295865259797 1.37634408602151  6.74157303370786 1.37634408602151  C 9.72018741481776 1.37634408602151  12.1348314606742 3.84118503318961  12.1348314606742 6.88172043010753  C 12.1348314606742 9.92225582702544  9.72018741481776 12.3870967741935  6.74157303370786 12.3870967741935  Z M 14.658202247191 15.6510967741935  C 14.9211235955056 15.3820215053763  14.9211235955056 14.9464086021505  14.658202247191 14.6773333333333  L 11.6413483146067 11.5984516129032  C 12.8246557502622 10.3251841277546  13.4839453205125 8.63678393845663  13.4831460674157 6.88172043010753  C 13.4831460674157 3.08094623655914  10.4649438202247 0  6.74157303370786 0  C 3.01820224719101 0  0 3.08094623655914  0 6.88172043010753  C 0 10.6824946236559  3.01820224719101 13.7634408602151  6.74157303370786 13.7634408602151  C 8.13156715554699 13.7644287292062  9.48744997199154 13.3240757338479  10.6213483146067 12.5033978494624  L 13.7042696629213 15.6510967741935  C 13.9678651685393 15.9194838709677  14.394606741573 15.9194838709677  14.658202247191 15.6510967741935  Z " fill-rule="nonzero" fill="#000000" stroke="none" transform="matrix(1 0 0 1 186 56 )" />
  </g>
</svg>