<?xml version="1.0" encoding="utf-8"?>
<svg version="1.1" xmlns:xlink="http://www.w3.org/1999/xlink" width="16px" height="16px" viewBox="76 382  16 16" xmlns="http://www.w3.org/2000/svg">
  <path d="M 84 382  C 88.48 382  92 385.52  92 390  C 92 394.48  88.48 398  84 398  C 79.52 398  76 394.48  76 390  C 76 385.52  79.52 382  84 382  Z " fill-rule="nonzero" fill="#ffffff" stroke="none" />
  <path d="M 84 382.5  C 88.2 382.5  91.5 385.8  91.5 390  C 91.5 394.2  88.2 397.5  84 397.5  C 79.8 397.5  76.5 394.2  76.5 390  C 76.5 385.8  79.8 382.5  84 382.5  Z " stroke-width="1" stroke="#797979" fill="none" />
  <path d="M 84 394  C 81.76 394  80 392.24  80 390  C 80 387.76  81.76 386  84 386  C 86.24 386  88 387.76  88 390  C 88 392.24  86.24 394  84 394  " fill-rule="nonzero" fill="#797979" stroke="none" />
</svg>