<?xml version="1.0" encoding="utf-8"?>
<svg version="1.1" xmlns:xlink="http://www.w3.org/1999/xlink" width="16px" height="16px" viewBox="176 382  16 16" xmlns="http://www.w3.org/2000/svg">
  <path d="M 184 382  C 188.48 382  192 385.52  192 390  C 192 394.48  188.48 398  184 398  C 179.52 398  176 394.48  176 390  C 176 385.52  179.52 382  184 382  Z " fill-rule="nonzero" fill="#ffffff" stroke="none" />
  <path d="M 184 382.5  C 188.2 382.5  191.5 385.8  191.5 390  C 191.5 394.2  188.2 397.5  184 397.5  C 179.8 397.5  176.5 394.2  176.5 390  C 176.5 385.8  179.8 382.5  184 382.5  Z " stroke-width="1" stroke="#797979" fill="none" />
  <path d="M 184 394  C 181.76 394  180 392.24  180 390  C 180 387.76  181.76 386  184 386  C 186.24 386  188 387.76  188 390  C 188 392.24  186.24 394  184 394  " fill-rule="nonzero" fill="#797979" stroke="none" />
</svg>