<?xml version="1.0" encoding="utf-8"?>
<svg version="1.1" xmlns:xlink="http://www.w3.org/1999/xlink" width="16px" height="16px" viewBox="173 220  16 16" xmlns="http://www.w3.org/2000/svg">
  <path d="M 181 220  C 185.48 220  189 223.52  189 228  C 189 232.48  185.48 236  181 236  C 176.52 236  173 232.48  173 228  C 173 223.52  176.52 220  181 220  Z " fill-rule="nonzero" fill="#f0f0f0" stroke="none" />
  <path d="M 181 220.5  C 185.2 220.5  188.5 223.8  188.5 228  C 188.5 232.2  185.2 235.5  181 235.5  C 176.8 235.5  173.5 232.2  173.5 228  C 173.5 223.8  176.8 220.5  181 220.5  Z " stroke-width="1" stroke="#797979" fill="none" />
  <path d="M 181 232  C 178.76 232  177 230.24  177 228  C 177 225.76  178.76 224  181 224  C 183.24 224  185 225.76  185 228  C 185 230.24  183.24 232  181 232  " fill-rule="nonzero" fill="#797979" stroke="none" />
</svg>