<?xml version="1.0" encoding="utf-8"?>
<svg version="1.1" xmlns:xlink="http://www.w3.org/1999/xlink" width="16px" height="16px" viewBox="73 220  16 16" xmlns="http://www.w3.org/2000/svg">
  <path d="M 81 220  C 85.48 220  89 223.52  89 228  C 89 232.48  85.48 236  81 236  C 76.52 236  73 232.48  73 228  C 73 223.52  76.52 220  81 220  Z " fill-rule="nonzero" fill="#ffffff" stroke="none" />
  <path d="M 81 220.5  C 85.2 220.5  88.5 223.8  88.5 228  C 88.5 232.2  85.2 235.5  81 235.5  C 76.8 235.5  73.5 232.2  73.5 228  C 73.5 223.8  76.8 220.5  81 220.5  Z " stroke-width="1" stroke="#797979" fill="none" />
  <path d="M 81 232  C 78.76 232  77 230.24  77 228  C 77 225.76  78.76 224  81 224  C 83.24 224  85 225.76  85 228  C 85 230.24  83.24 232  81 232  " fill-rule="nonzero" fill="#797979" stroke="none" />
</svg>