<?xml version="1.0" encoding="utf-8"?>
<svg version="1.1" xmlns:xlink="http://www.w3.org/1999/xlink" width="12px" height="12px" viewBox="556 118  12 12" xmlns="http://www.w3.org/2000/svg">
  <path d="M 562 118  C 565.36 118  568 120.64  568 124  C 568 127.36  565.36 130  562 130  C 558.64 130  556 127.36  556 124  C 556 120.64  558.64 118  562 118  Z " fill-rule="nonzero" fill="#f0f0f0" stroke="none" />
  <path d="M 562 118.5  C 565.08 118.5  567.5 120.92  567.5 124  C 567.5 127.08  565.08 129.5  562 129.5  C 558.92 129.5  556.5 127.08  556.5 124  C 556.5 120.92  558.92 118.5  562 118.5  Z " stroke-width="1" stroke="#797979" fill="none" />
  <path d="M 562 127  C 560.32 127  559 125.68  559 124  C 559 122.32  560.32 121  562 121  C 563.68 121  565 122.32  565 124  C 565 125.68  563.68 127  562 127  " fill-rule="nonzero" fill="#797979" stroke="none" />
</svg>