<?xml version="1.0" encoding="utf-8"?>
<svg version="1.1" xmlns:xlink="http://www.w3.org/1999/xlink" width="12px" height="12px" viewBox="469 118  12 12" xmlns="http://www.w3.org/2000/svg">
  <path d="M 475 118  C 478.36 118  481 120.64  481 124  C 481 127.36  478.36 130  475 130  C 471.64 130  469 127.36  469 124  C 469 120.64  471.64 118  475 118  Z " fill-rule="nonzero" fill="#f0f0f0" stroke="none" />
  <path d="M 475 118.5  C 478.08 118.5  480.5 120.92  480.5 124  C 480.5 127.08  478.08 129.5  475 129.5  C 471.92 129.5  469.5 127.08  469.5 124  C 469.5 120.92  471.92 118.5  475 118.5  Z " stroke-width="1" stroke="#797979" fill="none" />
  <path d="M 475 127  C 473.32 127  472 125.68  472 124  C 472 122.32  473.32 121  475 121  C 476.68 121  478 122.32  478 124  C 478 125.68  476.68 127  475 127  " fill-rule="nonzero" fill="#797979" stroke="none" />
</svg>