<?xml version="1.0" encoding="utf-8"?>
<svg version="1.1" xmlns:xlink="http://www.w3.org/1999/xlink" width="12px" height="12px" viewBox="1149 247  12 12" xmlns="http://www.w3.org/2000/svg">
  <path d="M 1155 247  C 1158.36 247  1161 249.64  1161 253  C 1161 256.36  1158.36 259  1155 259  C 1151.64 259  1149 256.36  1149 253  C 1149 249.64  1151.64 247  1155 247  Z " fill-rule="nonzero" fill="#ffffff" stroke="none" />
  <path d="M 1155 247.5  C 1158.08 247.5  1160.5 249.92  1160.5 253  C 1160.5 256.08  1158.08 258.5  1155 258.5  C 1151.92 258.5  1149.5 256.08  1149.5 253  C 1149.5 249.92  1151.92 247.5  1155 247.5  Z " stroke-width="1" stroke="#797979" fill="none" />
  <path d="M 1155 256  C 1153.32 256  1152 254.68  1152 253  C 1152 251.32  1153.32 250  1155 250  C 1156.68 250  1158 251.32  1158 253  C 1158 254.68  1156.68 256  1155 256  " fill-rule="nonzero" fill="#797979" stroke="none" />
</svg>