<?xml version="1.0" encoding="utf-8"?>
<svg version="1.1" xmlns:xlink="http://www.w3.org/1999/xlink" width="12px" height="12px" viewBox="1219 247  12 12" xmlns="http://www.w3.org/2000/svg">
  <path d="M 1225 247  C 1228.36 247  1231 249.64  1231 253  C 1231 256.36  1228.36 259  1225 259  C 1221.64 259  1219 256.36  1219 253  C 1219 249.64  1221.64 247  1225 247  Z " fill-rule="nonzero" fill="#f0f0f0" stroke="none" />
  <path d="M 1225 247.5  C 1228.08 247.5  1230.5 249.92  1230.5 253  C 1230.5 256.08  1228.08 258.5  1225 258.5  C 1221.92 258.5  1219.5 256.08  1219.5 253  C 1219.5 249.92  1221.92 247.5  1225 247.5  Z " stroke-width="1" stroke="#797979" fill="none" />
  <path d="M 1225 256  C 1223.32 256  1222 254.68  1222 253  C 1222 251.32  1223.32 250  1225 250  C 1226.68 250  1228 251.32  1228 253  C 1228 254.68  1226.68 256  1225 256  " fill-rule="nonzero" fill="#797979" stroke="none" />
</svg>