<?xml version="1.0" encoding="utf-8"?>
<svg version="1.1" xmlns:xlink="http://www.w3.org/1999/xlink" width="50px" height="50px" xmlns="http://www.w3.org/2000/svg">
  <g transform="matrix(1 0 0 1 -42 -15 )">
    <path d="M 67 16  C 80.44 16  91 26.56  91 40  C 91 53.44  80.44 64  67 64  C 53.56 64  43 53.44  43 40  C 43 26.56  53.56 16  67 16  Z " fill-rule="nonzero" fill="#ffffff" stroke="none" />
    <path d="M 67 16  C 80.44 16  91 26.56  91 40  C 91 53.44  80.44 64  67 64  C 53.56 64  43 53.44  43 40  C 43 26.56  53.56 16  67 16  Z " stroke-width="2" stroke="#4fc1b0" fill="none" />
  </g>
</svg>