<?xml version="1.0" encoding="utf-8"?>
<svg version="1.1" xmlns:xlink="http://www.w3.org/1999/xlink" width="50px" height="50px" xmlns="http://www.w3.org/2000/svg">
  <g transform="matrix(1 0 0 1 -42 -1013 )">
    <path d="M 67 1014  C 80.44 1014  91 1024.56  91 1038  C 91 1051.44  80.44 1062  67 1062  C 53.56 1062  43 1051.44  43 1038  C 43 1024.56  53.56 1014  67 1014  Z " fill-rule="nonzero" fill="#ffffff" stroke="none" />
    <path d="M 67 1014  C 80.44 1014  91 1024.56  91 1038  C 91 1051.44  80.44 1062  67 1062  C 53.56 1062  43 1051.44  43 1038  C 43 1024.56  53.56 1014  67 1014  Z " stroke-width="2" stroke="#e4e4e4" fill="none" />
  </g>
</svg>