<?xml version="1.0" encoding="utf-8"?>
<svg version="1.1" xmlns:xlink="http://www.w3.org/1999/xlink" width="50px" height="50px" xmlns="http://www.w3.org/2000/svg">
  <g transform="matrix(1 0 0 1 -42 -735 )">
    <path d="M 67 736  C 80.44 736  91 746.56  91 760  C 91 773.44  80.44 784  67 784  C 53.56 784  43 773.44  43 760  C 43 746.56  53.56 736  67 736  Z " fill-rule="nonzero" fill="#ff7f27" stroke="none" />
    <path d="M 67 736  C 80.44 736  91 746.56  91 760  C 91 773.44  80.44 784  67 784  C 53.56 784  43 773.44  43 760  C 43 746.56  53.56 736  67 736  Z " stroke-width="2" stroke="#e4e4e4" fill="none" />
  </g>
</svg>