<?xml version="1.0" encoding="utf-8"?>
<svg version="1.1" xmlns:xlink="http://www.w3.org/1999/xlink" width="24px" height="34px" xmlns="http://www.w3.org/2000/svg">
  <g transform="matrix(1 0 0 1 -102 -23 )">
    <path d="M 16.2421875 15.33984375  C 17.4140625 14.2330729166667  18 12.8975694444444  18 11.3333333333333  C 18 9.76909722222222  17.4140625 8.43359375  16.2421875 7.32682291666667  C 15.0703125 6.22005208333333  13.65625 5.66666666666667  12 5.66666666666667  C 10.34375 5.66666666666667  8.9296875 6.22005208333333  7.7578125 7.32682291666667  C 6.5859375 8.43359375  6 9.76909722222222  6 11.3333333333333  C 6 12.8975694444444  6.5859375 14.2330729166667  7.7578125 15.33984375  C 8.9296875 16.4466145833333  10.34375 17  12 17  C 13.65625 17  15.0703125 16.4466145833333  16.2421875 15.33984375  Z M 20.484375 3.3203125  C 22.828125 5.53385416666667  24 8.20486111111111  24 11.3333333333333  C 24 12.9418402777778  23.7421875 14.2625868055556  23.2265625 15.2955729166667  L 14.6953125 32.4283854166667  C 14.4453125 32.9153645833333  14.07421875 33.2990451388889  13.58203125 33.5794270833333  C 13.08984375 33.8598090277778  12.5625 34  12 34  C 11.4375 34  10.91015625 33.8598090277778  10.41796875 33.5794270833333  C 9.92578125 33.2990451388889  9.5625 32.9153645833333  9.328125 32.4283854166667  L 0.7734375 15.2955729166667  C 0.2578125 14.2625868055556  0 12.9418402777778  0 11.3333333333333  C 0 8.20486111111111  1.171875 5.53385416666667  3.515625 3.3203125  C 5.859375 1.10677083333333  8.6875 0  12 0  C 15.3125 0  18.140625 1.10677083333333  20.484375 3.3203125  Z " fill-rule="nonzero" fill="#1abc9c" stroke="none" transform="matrix(1 0 0 1 102 23 )" />
  </g>
</svg>