<?xml version="1.0" encoding="utf-8"?>
<svg version="1.1" xmlns:xlink="http://www.w3.org/1999/xlink" width="14px" height="11px" xmlns="http://www.w3.org/2000/svg">
  <g transform="matrix(1 0 0 1 -553 -105 )">
    <path d="M 8.5859375 6.74609375  C 9.32351762820513 6.16656650641026  9.69230769230769 5.46915064102564  9.69230769230769 4.65384615384615  C 9.69230769230769 3.83854166666667  9.32351762820513 3.14112580128205  8.5859375 2.56159855769231  C 7.84835737179487 1.98207131410256  6.96073717948718 1.69230769230769  5.92307692307692 1.69230769230769  C 4.88541666666667 1.69230769230769  3.99779647435898 1.98207131410256  3.26021634615385 2.56159855769231  C 2.52263621794872 3.14112580128205  2.15384615384615 3.83854166666667  2.15384615384615 4.65384615384615  C 2.15384615384615 5.46915064102564  2.52263621794872 6.16656650641026  3.26021634615385 6.74609375  C 3.99779647435898 7.32562099358974  4.88541666666667 7.61538461538462  5.92307692307692 7.61538461538462  C 6.96073717948718 7.61538461538462  7.84835737179487 7.32562099358974  8.5859375 6.74609375  Z M 13.6887019230769 9.55889423076923  C 13.896233974359 9.72195512820513  14 9.92027243589744  14 10.1538461538462  C 14 10.3830128205128  13.8934294871795 10.5813301282051  13.6802884615385 10.7487980769231  C 13.4671474358974 10.916266025641  13.2147435897436 11  12.9230769230769 11  C 12.6201923076923 11  12.3677884615385 10.916266025641  12.1658653846154 10.7487980769231  L 9.28004807692308 8.48798076923077  C 8.27604166666667 9.03445512820513  7.15705128205128 9.30769230769231  5.92307692307692 9.30769230769231  C 5.12099358974359 9.30769230769231  4.35396634615385 9.18539663461539  3.62199519230769 8.94080528846154  C 2.89002403846154 8.69621394230769  2.25901442307692 8.36568509615384  1.72896634615385 7.94921875  C 1.19891826923077 7.53275240384615  0.778245192307693 7.03695913461539  0.466947115384615 6.46183894230769  C 0.155649038461538 5.88671875  0 5.28405448717949  0 4.65384615384615  C 0 4.02363782051282  0.155649038461538 3.42097355769231  0.466947115384615 2.84585336538462  C 0.778245192307693 2.27073317307692  1.19891826923077 1.77493990384615  1.72896634615385 1.35847355769231  C 2.25901442307692 0.942007211538462  2.89002403846154 0.611478365384615  3.62199519230769 0.36688701923077  C 4.35396634615385 0.122295673076923  5.12099358974359 0  5.92307692307692 0  C 6.72516025641026 0  7.4921875 0.122295673076923  8.22415865384615 0.36688701923077  C 8.95612980769231 0.611478365384615  9.58713942307692 0.942007211538462  10.1171875 1.35847355769231  C 10.6472355769231 1.77493990384615  11.0679086538462 2.27073317307692  11.3792067307692 2.84585336538462  C 11.6905048076923 3.42097355769231  11.8461538461538 4.02363782051282  11.8461538461538 4.65384615384615  C 11.8461538461538 5.62339743589744  11.4983974358974 6.50260416666667  10.8028846153846 7.29146634615385  L 13.6887019230769 9.55889423076923  Z " fill-rule="nonzero" fill="#333333" stroke="none" transform="matrix(1 0 0 1 553 105 )" />
  </g>
</svg>