<?xml version="1.0" encoding="utf-8"?>
<svg version="1.1" xmlns:xlink="http://www.w3.org/1999/xlink" width="26px" height="22.0000015686662px" preserveAspectRatio="xMinYMid meet" viewBox="20 184.999998431334  26 20.0000015686662" xmlns="http://www.w3.org/2000/svg">
  <g transform="matrix(0 -1 1 0 -161.999999215667 227.999999215667 )">
    <path d="M -36 260  A 3.5 3.5 0 0 0 -39.5 263.5 A 3.5 3.5 0 0 0 -36 267 A 3.5 3.5 0 0 0 -32.5 263.5 A 3.5 3.5 0 0 0 -36 260 Z M 102 260  A 3.5 3.5 0 0 0 98.5 263.5 A 3.5 3.5 0 0 0 102 267 A 3.5 3.5 0 0 0 105.5 263.5 A 3.5 3.5 0 0 0 102 260 Z " fill-rule="nonzero" fill="#0079fe" stroke="none" transform="matrix(6.12303176911189E-17 1 -1 6.12303176911189E-17 296.5 231.5 )" />
    <path d="M -37.5 263.5  L 103.5 263.5  " stroke-width="2" stroke="#0079fe" fill="none" transform="matrix(6.12303176911189E-17 1 -1 6.12303176911189E-17 296.5 231.5 )" />
  </g>
</svg>