<?xml version="1.0" encoding="utf-8"?>
<svg version="1.1" xmlns:xlink="http://www.w3.org/1999/xlink" width="112px" height="25px" xmlns="http://www.w3.org/2000/svg">
  <g transform="matrix(1 0 0 1 -19 -183 )">
    <path d="M 34 191.5  A 4 4 0 0 0 30 195.5 A 4 4 0 0 0 34 199.5 A 4 4 0 0 0 38 195.5 A 4 4 0 0 0 34 191.5 Z M 116 191.5  A 4 4 0 0 0 112 195.5 A 4 4 0 0 0 116 199.5 A 4 4 0 0 0 120 195.5 A 4 4 0 0 0 116 191.5 Z " fill-rule="nonzero" fill="#0079fe" stroke="none" />
    <path d="M 33 195.5  L 117 195.5  " stroke-width="3" stroke="#0079fe" fill="none" />
  </g>
</svg>