<?xml version="1.0" encoding="utf-8"?>
<svg version="1.1" xmlns:xlink="http://www.w3.org/1999/xlink" width="28px" height="26px" preserveAspectRatio="xMinYMid meet" viewBox="20 183  28 24" xmlns="http://www.w3.org/2000/svg">
  <g transform="matrix(0.999847695156391 -0.017452406437284 0.0174524064372835 0.999847695156391 -3.39804089058757 0.623081263371375 )">
    <path d="M 34 191.5  A 4 4 0 0 0 30 195.5 A 4 4 0 0 0 34 199.5 A 4 4 0 0 0 38 195.5 A 4 4 0 0 0 34 191.5 Z M 116 191.5  A 4 4 0 0 0 112 195.5 A 4 4 0 0 0 116 199.5 A 4 4 0 0 0 120 195.5 A 4 4 0 0 0 116 191.5 Z " fill-rule="nonzero" fill="#0079fe" stroke="none" transform="matrix(0.999942831208939 0.0106927224714676 -0.0106927224714676 0.999942831208939 2.09471490250151 -0.7907776867076 )" />
    <path d="M 33 195.5  L 117 195.5  " stroke-width="3" stroke="#0079fe" fill="none" transform="matrix(0.999942831208939 0.0106927224714676 -0.0106927224714676 0.999942831208939 2.09471490250151 -0.7907776867076 )" />
  </g>
</svg>