<?xml version="1.0" encoding="utf-8"?>
<svg version="1.1" xmlns:xlink="http://www.w3.org/1999/xlink" width="22px" height="20px" preserveAspectRatio="xMinYMid meet" viewBox="14 237  22 18" xmlns="http://www.w3.org/2000/svg">
  <path d="M 25 243.5  A 3 3 0 0 0 22 246.5 A 3 3 0 0 0 25 249.5 A 3 3 0 0 0 28 246.5 A 3 3 0 0 0 25 243.5 Z M 25 244.5  A 2 2 0 0 1 27 246.5 A 2 2 0 0 1 25 248.5 A 2 2 0 0 1 23 246.5 A 2 2 0 0 1 25 244.5 Z M 41 243.5  A 3 3 0 0 0 38 246.5 A 3 3 0 0 0 41 249.5 A 3 3 0 0 0 44 246.5 A 3 3 0 0 0 41 243.5 Z M 41 244.5  A 2 2 0 0 1 43 246.5 A 2 2 0 0 1 41 248.5 A 2 2 0 0 1 39 246.5 A 2 2 0 0 1 41 244.5 Z " fill-rule="nonzero" fill="#0079fe" stroke="none" />
  <path d="M 27 246.5  L 39 246.5  " stroke-width="1" stroke-dasharray="1,1" stroke="#0079fe" fill="none" />
</svg>