<?xml version="1.0" encoding="utf-8"?>
<svg version="1.1" xmlns:xlink="http://www.w3.org/1999/xlink" width="26px" height="6px" preserveAspectRatio="xMinYMid meet" viewBox="20 279  26 4" xmlns="http://www.w3.org/2000/svg">
  <path d="M 25 277.5  A 3 3 0 0 0 22 280.5 A 3 3 0 0 0 25 283.5 A 3 3 0 0 0 28 280.5 A 3 3 0 0 0 25 277.5 Z M 25 278.5  A 2 2 0 0 1 27 280.5 A 2 2 0 0 1 25 282.5 A 2 2 0 0 1 23 280.5 A 2 2 0 0 1 25 278.5 Z M 41 277.5  A 3 3 0 0 0 38 280.5 A 3 3 0 0 0 41 283.5 A 3 3 0 0 0 44 280.5 A 3 3 0 0 0 41 277.5 Z M 41 278.5  A 2 2 0 0 1 43 280.5 A 2 2 0 0 1 41 282.5 A 2 2 0 0 1 39 280.5 A 2 2 0 0 1 41 278.5 Z " fill-rule="nonzero" fill="#0079fe" stroke="none" />
  <path d="M 27 280.5  L 39 280.5  " stroke-width="1" stroke-dasharray="1,1" stroke="#0079fe" fill="none" />
</svg>