<?xml version="1.0" encoding="utf-8"?>
<svg version="1.1" xmlns:xlink="http://www.w3.org/1999/xlink" width="22px" height="20px" preserveAspectRatio="xMinYMid meet" viewBox="30 307  22 18" xmlns="http://www.w3.org/2000/svg">
  <g transform="matrix(-1 0 0 -1 82 632 )">
    <path d="M 25 312.5  A 3 3 0 0 0 22 315.5 A 3 3 0 0 0 25 318.5 A 3 3 0 0 0 28 315.5 A 3 3 0 0 0 25 312.5 Z M 25 313.5  A 2 2 0 0 1 27 315.5 A 2 2 0 0 1 25 317.5 A 2 2 0 0 1 23 315.5 A 2 2 0 0 1 25 313.5 Z M 41 312.5  A 3 3 0 0 0 38 315.5 A 3 3 0 0 0 41 318.5 A 3 3 0 0 0 44 315.5 A 3 3 0 0 0 41 312.5 Z M 41 313.5  A 2 2 0 0 1 43 315.5 A 2 2 0 0 1 41 317.5 A 2 2 0 0 1 39 315.5 A 2 2 0 0 1 41 313.5 Z " fill-rule="nonzero" fill="#0079fe" stroke="none" />
    <path d="M 27 315.5  L 39 315.5  " stroke-width="1" stroke-dasharray="1,1" stroke="#0079fe" fill="none" />
  </g>
</svg>