<?xml version="1.0" encoding="utf-8"?>
<svg version="1.1" xmlns:xlink="http://www.w3.org/1999/xlink" width="26px" height="24.0000015686662px" preserveAspectRatio="xMinYMid meet" viewBox="76 321  26 22.0000015686662" xmlns="http://www.w3.org/2000/svg">
  <g transform="matrix(0 1 -1 0 421.000000784333 243.000000784333 )">
    <path d="M 20 260  A 3.5 3.5 0 0 0 16.5 263.5 A 3.5 3.5 0 0 0 20 267 A 3.5 3.5 0 0 0 23.5 263.5 A 3.5 3.5 0 0 0 20 260 Z M 158 260  A 3.5 3.5 0 0 0 154.5 263.5 A 3.5 3.5 0 0 0 158 267 A 3.5 3.5 0 0 0 161.5 263.5 A 3.5 3.5 0 0 0 158 260 Z " fill-rule="nonzero" fill="#0079fe" stroke="none" transform="matrix(6.12303176911189E-17 1 -1 6.12303176911189E-17 352.5 175.5 )" />
    <path d="M 18.5 263.5  L 159.5 263.5  " stroke-width="2" stroke="#0079fe" fill="none" transform="matrix(6.12303176911189E-17 1 -1 6.12303176911189E-17 352.5 175.5 )" />
  </g>
</svg>