<?xml version="1.0" encoding="utf-8"?>
<svg version="1.1" xmlns:xlink="http://www.w3.org/1999/xlink" width="26px" height="6px" preserveAspectRatio="xMinYMid meet" viewBox="20 261  26 4" xmlns="http://www.w3.org/2000/svg">
  <path d="M 25 260.5  A 3 3 0 0 0 22 263.5 A 3 3 0 0 0 25 266.5 A 3 3 0 0 0 28 263.5 A 3 3 0 0 0 25 260.5 Z M 25 261.5  A 2 2 0 0 1 27 263.5 A 2 2 0 0 1 25 265.5 A 2 2 0 0 1 23 263.5 A 2 2 0 0 1 25 261.5 Z M 41 260.5  A 3 3 0 0 0 38 263.5 A 3 3 0 0 0 41 266.5 A 3 3 0 0 0 44 263.5 A 3 3 0 0 0 41 260.5 Z M 41 261.5  A 2 2 0 0 1 43 263.5 A 2 2 0 0 1 41 265.5 A 2 2 0 0 1 39 263.5 A 2 2 0 0 1 41 261.5 Z " fill-rule="nonzero" fill="#0079fe" stroke="none" />
  <path d="M 27 263.5  L 39 263.5  " stroke-width="1" stroke-dasharray="1,1" stroke="#0079fe" fill="none" />
</svg>