<?xml version="1.0" encoding="utf-8"?>
<svg version="1.1" xmlns:xlink="http://www.w3.org/1999/xlink" width="26px" height="6px" preserveAspectRatio="xMinYMid meet" viewBox="20 211  26 4" xmlns="http://www.w3.org/2000/svg">
  <path d="M 25 210.5  A 3 3 0 0 0 22 213.5 A 3 3 0 0 0 25 216.5 A 3 3 0 0 0 28 213.5 A 3 3 0 0 0 25 210.5 Z M 25 211.5  A 2 2 0 0 1 27 213.5 A 2 2 0 0 1 25 215.5 A 2 2 0 0 1 23 213.5 A 2 2 0 0 1 25 211.5 Z M 41 210.5  A 3 3 0 0 0 38 213.5 A 3 3 0 0 0 41 216.5 A 3 3 0 0 0 44 213.5 A 3 3 0 0 0 41 210.5 Z M 41 211.5  A 2 2 0 0 1 43 213.5 A 2 2 0 0 1 41 215.5 A 2 2 0 0 1 39 213.5 A 2 2 0 0 1 41 211.5 Z " fill-rule="nonzero" fill="#0079fe" stroke="none" />
  <path d="M 27 213.5  L 39 213.5  " stroke-width="1" stroke-dasharray="1,1" stroke="#0079fe" fill="none" />
</svg>