<?xml version="1.0" encoding="utf-8"?>
<svg version="1.1" xmlns:xlink="http://www.w3.org/1999/xlink" width="26px" height="6px" preserveAspectRatio="xMinYMid meet" viewBox="20 297  26 4" xmlns="http://www.w3.org/2000/svg">
  <path d="M 25 295.5  A 3 3 0 0 0 22 298.5 A 3 3 0 0 0 25 301.5 A 3 3 0 0 0 28 298.5 A 3 3 0 0 0 25 295.5 Z M 25 296.5  A 2 2 0 0 1 27 298.5 A 2 2 0 0 1 25 300.5 A 2 2 0 0 1 23 298.5 A 2 2 0 0 1 25 296.5 Z M 41 295.5  A 3 3 0 0 0 38 298.5 A 3 3 0 0 0 41 301.5 A 3 3 0 0 0 44 298.5 A 3 3 0 0 0 41 295.5 Z M 41 296.5  A 2 2 0 0 1 43 298.5 A 2 2 0 0 1 41 300.5 A 2 2 0 0 1 39 298.5 A 2 2 0 0 1 41 296.5 Z " fill-rule="nonzero" fill="#0079fe" stroke="none" />
  <path d="M 27 298.5  L 39 298.5  " stroke-width="1" stroke-dasharray="1,1" stroke="#0079fe" fill="none" />
</svg>