<?xml version="1.0" encoding="utf-8"?>
<svg version="1.1" xmlns:xlink="http://www.w3.org/1999/xlink" width="22px" height="20px" preserveAspectRatio="xMinYMid meet" viewBox="70 221  22 18" xmlns="http://www.w3.org/2000/svg">
  <path d="M 81 227.5  A 3 3 0 0 0 78 230.5 A 3 3 0 0 0 81 233.5 A 3 3 0 0 0 84 230.5 A 3 3 0 0 0 81 227.5 Z M 81 228.5  A 2 2 0 0 1 83 230.5 A 2 2 0 0 1 81 232.5 A 2 2 0 0 1 79 230.5 A 2 2 0 0 1 81 228.5 Z M 97 227.5  A 3 3 0 0 0 94 230.5 A 3 3 0 0 0 97 233.5 A 3 3 0 0 0 100 230.5 A 3 3 0 0 0 97 227.5 Z M 97 228.5  A 2 2 0 0 1 99 230.5 A 2 2 0 0 1 97 232.5 A 2 2 0 0 1 95 230.5 A 2 2 0 0 1 97 228.5 Z " fill-rule="nonzero" fill="#0079fe" stroke="none" />
  <path d="M 83 230.5  L 95 230.5  " stroke-width="1" stroke-dasharray="1,1" stroke="#0079fe" fill="none" />
</svg>