<?xml version="1.0" encoding="utf-8"?>
<svg version="1.1" xmlns:xlink="http://www.w3.org/1999/xlink" width="22px" height="20px" preserveAspectRatio="xMinYMid meet" viewBox="86 255  22 18" xmlns="http://www.w3.org/2000/svg">
  <g transform="matrix(-1 0 0 -1 194 528 )">
    <path d="M 81 260.5  A 3 3 0 0 0 78 263.5 A 3 3 0 0 0 81 266.5 A 3 3 0 0 0 84 263.5 A 3 3 0 0 0 81 260.5 Z M 81 261.5  A 2 2 0 0 1 83 263.5 A 2 2 0 0 1 81 265.5 A 2 2 0 0 1 79 263.5 A 2 2 0 0 1 81 261.5 Z M 97 260.5  A 3 3 0 0 0 94 263.5 A 3 3 0 0 0 97 266.5 A 3 3 0 0 0 100 263.5 A 3 3 0 0 0 97 260.5 Z M 97 261.5  A 2 2 0 0 1 99 263.5 A 2 2 0 0 1 97 265.5 A 2 2 0 0 1 95 263.5 A 2 2 0 0 1 97 261.5 Z " fill-rule="nonzero" fill="#0079fe" stroke="none" />
    <path d="M 83 263.5  L 95 263.5  " stroke-width="1" stroke-dasharray="1,1" stroke="#0079fe" fill="none" />
  </g>
</svg>