<?xml version="1.0" encoding="utf-8"?>
<svg version="1.1" xmlns:xlink="http://www.w3.org/1999/xlink" width="22px" height="20px" preserveAspectRatio="xMinYMid meet" viewBox="70 205  22 18" xmlns="http://www.w3.org/2000/svg">
  <path d="M 81 210.5  A 3 3 0 0 0 78 213.5 A 3 3 0 0 0 81 216.5 A 3 3 0 0 0 84 213.5 A 3 3 0 0 0 81 210.5 Z M 81 211.5  A 2 2 0 0 1 83 213.5 A 2 2 0 0 1 81 215.5 A 2 2 0 0 1 79 213.5 A 2 2 0 0 1 81 211.5 Z M 97 210.5  A 3 3 0 0 0 94 213.5 A 3 3 0 0 0 97 216.5 A 3 3 0 0 0 100 213.5 A 3 3 0 0 0 97 210.5 Z M 97 211.5  A 2 2 0 0 1 99 213.5 A 2 2 0 0 1 97 215.5 A 2 2 0 0 1 95 213.5 A 2 2 0 0 1 97 211.5 Z " fill-rule="nonzero" fill="#0079fe" stroke="none" />
  <path d="M 83 213.5  L 95 213.5  " stroke-width="1" stroke-dasharray="1,1" stroke="#0079fe" fill="none" />
</svg>