<?xml version="1.0" encoding="utf-8"?>
<svg version="1.1" xmlns:xlink="http://www.w3.org/1999/xlink" width="26px" height="6px" preserveAspectRatio="xMinYMid meet" viewBox="76 245  26 4" xmlns="http://www.w3.org/2000/svg">
  <path d="M 81 243.5  A 3 3 0 0 0 78 246.5 A 3 3 0 0 0 81 249.5 A 3 3 0 0 0 84 246.5 A 3 3 0 0 0 81 243.5 Z M 81 244.5  A 2 2 0 0 1 83 246.5 A 2 2 0 0 1 81 248.5 A 2 2 0 0 1 79 246.5 A 2 2 0 0 1 81 244.5 Z M 97 243.5  A 3 3 0 0 0 94 246.5 A 3 3 0 0 0 97 249.5 A 3 3 0 0 0 100 246.5 A 3 3 0 0 0 97 243.5 Z M 97 244.5  A 2 2 0 0 1 99 246.5 A 2 2 0 0 1 97 248.5 A 2 2 0 0 1 95 246.5 A 2 2 0 0 1 97 244.5 Z " fill-rule="nonzero" fill="#0079fe" stroke="none" />
  <path d="M 83 246.5  L 95 246.5  " stroke-width="1" stroke-dasharray="1,1" stroke="#0079fe" fill="none" />
</svg>