<?xml version="1.0" encoding="utf-8"?>
<svg version="1.1" xmlns:xlink="http://www.w3.org/1999/xlink" width="22px" height="20px" preserveAspectRatio="xMinYMid meet" viewBox="86 307  22 18" xmlns="http://www.w3.org/2000/svg">
  <g transform="matrix(-1 0 0 -1 194 632 )">
    <path d="M 81 312.5  A 3 3 0 0 0 78 315.5 A 3 3 0 0 0 81 318.5 A 3 3 0 0 0 84 315.5 A 3 3 0 0 0 81 312.5 Z M 81 313.5  A 2 2 0 0 1 83 315.5 A 2 2 0 0 1 81 317.5 A 2 2 0 0 1 79 315.5 A 2 2 0 0 1 81 313.5 Z M 97 312.5  A 3 3 0 0 0 94 315.5 A 3 3 0 0 0 97 318.5 A 3 3 0 0 0 100 315.5 A 3 3 0 0 0 97 312.5 Z M 97 313.5  A 2 2 0 0 1 99 315.5 A 2 2 0 0 1 97 317.5 A 2 2 0 0 1 95 315.5 A 2 2 0 0 1 97 313.5 Z " fill-rule="nonzero" fill="#0079fe" stroke="none" />
    <path d="M 83 315.5  L 95 315.5  " stroke-width="1" stroke-dasharray="1,1" stroke="#0079fe" fill="none" />
  </g>
</svg>