<?xml version="1.0" encoding="utf-8"?>
<svg version="1.1" xmlns:xlink="http://www.w3.org/1999/xlink" width="22px" height="20px" preserveAspectRatio="xMinYMid meet" viewBox="70 325  22 18" xmlns="http://www.w3.org/2000/svg">
  <path d="M 81 330.5  A 3 3 0 0 0 78 333.5 A 3 3 0 0 0 81 336.5 A 3 3 0 0 0 84 333.5 A 3 3 0 0 0 81 330.5 Z M 81 331.5  A 2 2 0 0 1 83 333.5 A 2 2 0 0 1 81 335.5 A 2 2 0 0 1 79 333.5 A 2 2 0 0 1 81 331.5 Z M 97 330.5  A 3 3 0 0 0 94 333.5 A 3 3 0 0 0 97 336.5 A 3 3 0 0 0 100 333.5 A 3 3 0 0 0 97 330.5 Z M 97 331.5  A 2 2 0 0 1 99 333.5 A 2 2 0 0 1 97 335.5 A 2 2 0 0 1 95 333.5 A 2 2 0 0 1 97 331.5 Z " fill-rule="nonzero" fill="#0079fe" stroke="none" />
  <path d="M 83 333.5  L 95 333.5  " stroke-width="1" stroke-dasharray="1,1" stroke="#0079fe" fill="none" />
</svg>