<?xml version="1.0" encoding="utf-8"?>
<svg version="1.1" xmlns:xlink="http://www.w3.org/1999/xlink" width="152px" height="6px" preserveAspectRatio="xMinYMid meet" viewBox="40 261  152 4" xmlns="http://www.w3.org/2000/svg">
  <g transform="matrix(0 -1 1 0 -147 379 )">
    <path d="M 47 260  A 3.5 3.5 0 0 0 43.5 263.5 A 3.5 3.5 0 0 0 47 267 A 3.5 3.5 0 0 0 50.5 263.5 A 3.5 3.5 0 0 0 47 260 Z M 185 260  A 3.5 3.5 0 0 0 181.5 263.5 A 3.5 3.5 0 0 0 185 267 A 3.5 3.5 0 0 0 188.5 263.5 A 3.5 3.5 0 0 0 185 260 Z " fill-rule="nonzero" fill="#0079fe" stroke="none" transform="matrix(6.12303176911189E-17 1 -1 6.12303176911189E-17 379.5 148.5 )" />
    <path d="M 45.5 263.5  L 186.5 263.5  " stroke-width="2" stroke="#0079fe" fill="none" transform="matrix(6.12303176911189E-17 1 -1 6.12303176911189E-17 379.5 148.5 )" />
  </g>
</svg>