<?xml version="1.0" encoding="utf-8"?>
<svg version="1.1" xmlns:xlink="http://www.w3.org/1999/xlink" width="26px" height="6px" preserveAspectRatio="xMinYMid meet" viewBox="76 297  26 4" xmlns="http://www.w3.org/2000/svg">
  <path d="M 81 295.5  A 3 3 0 0 0 78 298.5 A 3 3 0 0 0 81 301.5 A 3 3 0 0 0 84 298.5 A 3 3 0 0 0 81 295.5 Z M 81 296.5  A 2 2 0 0 1 83 298.5 A 2 2 0 0 1 81 300.5 A 2 2 0 0 1 79 298.5 A 2 2 0 0 1 81 296.5 Z M 97 295.5  A 3 3 0 0 0 94 298.5 A 3 3 0 0 0 97 301.5 A 3 3 0 0 0 100 298.5 A 3 3 0 0 0 97 295.5 Z M 97 296.5  A 2 2 0 0 1 99 298.5 A 2 2 0 0 1 97 300.5 A 2 2 0 0 1 95 298.5 A 2 2 0 0 1 97 296.5 Z " fill-rule="nonzero" fill="#0079fe" stroke="none" />
  <path d="M 83 298.5  L 95 298.5  " stroke-width="1" stroke-dasharray="1,1" stroke="#0079fe" fill="none" />
</svg>