<?xml version="1.0" encoding="utf-8"?>
<svg version="1.1" xmlns:xlink="http://www.w3.org/1999/xlink" width="22px" height="20px" preserveAspectRatio="xMinYMid meet" viewBox="86 271  22 18" xmlns="http://www.w3.org/2000/svg">
  <g transform="matrix(-1 0 0 -1 194 560 )">
    <path d="M 81 277.5  A 3 3 0 0 0 78 280.5 A 3 3 0 0 0 81 283.5 A 3 3 0 0 0 84 280.5 A 3 3 0 0 0 81 277.5 Z M 81 278.5  A 2 2 0 0 1 83 280.5 A 2 2 0 0 1 81 282.5 A 2 2 0 0 1 79 280.5 A 2 2 0 0 1 81 278.5 Z M 97 277.5  A 3 3 0 0 0 94 280.5 A 3 3 0 0 0 97 283.5 A 3 3 0 0 0 100 280.5 A 3 3 0 0 0 97 277.5 Z M 97 278.5  A 2 2 0 0 1 99 280.5 A 2 2 0 0 1 97 282.5 A 2 2 0 0 1 95 280.5 A 2 2 0 0 1 97 278.5 Z " fill-rule="nonzero" fill="#0079fe" stroke="none" />
    <path d="M 83 280.5  L 95 280.5  " stroke-width="1" stroke-dasharray="1,1" stroke="#0079fe" fill="none" />
  </g>
</svg>