<?xml version="1.0" encoding="utf-8"?>
<svg version="1.1" xmlns:xlink="http://www.w3.org/1999/xlink" width="22px" height="20px" preserveAspectRatio="xMinYMid meet" viewBox="98 205  22 18" xmlns="http://www.w3.org/2000/svg">
  <path d="M 108 210.5  A 3 3 0 0 0 105 213.5 A 3 3 0 0 0 108 216.5 A 3 3 0 0 0 111 213.5 A 3 3 0 0 0 108 210.5 Z M 108 211.5  A 2 2 0 0 1 110 213.5 A 2 2 0 0 1 108 215.5 A 2 2 0 0 1 106 213.5 A 2 2 0 0 1 108 211.5 Z M 124 210.5  A 3 3 0 0 0 121 213.5 A 3 3 0 0 0 124 216.5 A 3 3 0 0 0 127 213.5 A 3 3 0 0 0 124 210.5 Z M 124 211.5  A 2 2 0 0 1 126 213.5 A 2 2 0 0 1 124 215.5 A 2 2 0 0 1 122 213.5 A 2 2 0 0 1 124 211.5 Z " fill-rule="nonzero" fill="#0079fe" stroke="none" />
  <path d="M 110 213.5  L 122 213.5  " stroke-width="1" stroke-dasharray="1,1" stroke="#0079fe" fill="none" />
</svg>