<?xml version="1.0" encoding="utf-8"?>
<svg version="1.1" xmlns:xlink="http://www.w3.org/1999/xlink" width="28px" height="6px" preserveAspectRatio="xMinYMid meet" viewBox="102 261  28 4" xmlns="http://www.w3.org/2000/svg">
  <path d="M 108 260.5  A 3 3 0 0 0 105 263.5 A 3 3 0 0 0 108 266.5 A 3 3 0 0 0 111 263.5 A 3 3 0 0 0 108 260.5 Z M 108 261.5  A 2 2 0 0 1 110 263.5 A 2 2 0 0 1 108 265.5 A 2 2 0 0 1 106 263.5 A 2 2 0 0 1 108 261.5 Z M 124 260.5  A 3 3 0 0 0 121 263.5 A 3 3 0 0 0 124 266.5 A 3 3 0 0 0 127 263.5 A 3 3 0 0 0 124 260.5 Z M 124 261.5  A 2 2 0 0 1 126 263.5 A 2 2 0 0 1 124 265.5 A 2 2 0 0 1 122 263.5 A 2 2 0 0 1 124 261.5 Z " fill-rule="nonzero" fill="#0079fe" stroke="none" />
  <path d="M 110 263.5  L 122 263.5  " stroke-width="1" stroke-dasharray="1,1" stroke="#0079fe" fill="none" />
</svg>