<?xml version="1.0" encoding="utf-8"?>
<svg version="1.1" xmlns:xlink="http://www.w3.org/1999/xlink" width="150px" height="6px" preserveAspectRatio="xMinYMid meet" viewBox="-14 261  150 4" xmlns="http://www.w3.org/2000/svg">
  <g transform="matrix(0 -1 1 0 -202 324 )">
    <path d="M -8 260  A 3.5 3.5 0 0 0 -11.5 263.5 A 3.5 3.5 0 0 0 -8 267 A 3.5 3.5 0 0 0 -4.5 263.5 A 3.5 3.5 0 0 0 -8 260 Z M 130 260  A 3.5 3.5 0 0 0 126.5 263.5 A 3.5 3.5 0 0 0 130 267 A 3.5 3.5 0 0 0 133.5 263.5 A 3.5 3.5 0 0 0 130 260 Z " fill-rule="nonzero" fill="#0079fe" stroke="none" transform="matrix(6.12303176911189E-17 1 -1 6.12303176911189E-17 324.5 203.5 )" />
    <path d="M -9.5 263.5  L 131.5 263.5  " stroke-width="2" stroke="#0079fe" fill="none" transform="matrix(6.12303176911189E-17 1 -1 6.12303176911189E-17 324.5 203.5 )" />
  </g>
</svg>