<?xml version="1.0" encoding="utf-8"?>
<svg version="1.1" xmlns:xlink="http://www.w3.org/1999/xlink" width="28px" height="6px" preserveAspectRatio="xMinYMid meet" viewBox="102 245  28 4" xmlns="http://www.w3.org/2000/svg">
  <path d="M 108 243.5  A 3 3 0 0 0 105 246.5 A 3 3 0 0 0 108 249.5 A 3 3 0 0 0 111 246.5 A 3 3 0 0 0 108 243.5 Z M 108 244.5  A 2 2 0 0 1 110 246.5 A 2 2 0 0 1 108 248.5 A 2 2 0 0 1 106 246.5 A 2 2 0 0 1 108 244.5 Z M 124 243.5  A 3 3 0 0 0 121 246.5 A 3 3 0 0 0 124 249.5 A 3 3 0 0 0 127 246.5 A 3 3 0 0 0 124 243.5 Z M 124 244.5  A 2 2 0 0 1 126 246.5 A 2 2 0 0 1 124 248.5 A 2 2 0 0 1 122 246.5 A 2 2 0 0 1 124 244.5 Z " fill-rule="nonzero" fill="#0079fe" stroke="none" />
  <path d="M 110 246.5  L 122 246.5  " stroke-width="1" stroke-dasharray="1,1" stroke="#0079fe" fill="none" />
</svg>