<?xml version="1.0" encoding="utf-8"?>
<svg version="1.1" xmlns:xlink="http://www.w3.org/1999/xlink" width="22px" height="20px" preserveAspectRatio="xMinYMid meet" viewBox="98 271  22 18" xmlns="http://www.w3.org/2000/svg">
  <path d="M 108 277.5  A 3 3 0 0 0 105 280.5 A 3 3 0 0 0 108 283.5 A 3 3 0 0 0 111 280.5 A 3 3 0 0 0 108 277.5 Z M 108 278.5  A 2 2 0 0 1 110 280.5 A 2 2 0 0 1 108 282.5 A 2 2 0 0 1 106 280.5 A 2 2 0 0 1 108 278.5 Z M 124 277.5  A 3 3 0 0 0 121 280.5 A 3 3 0 0 0 124 283.5 A 3 3 0 0 0 127 280.5 A 3 3 0 0 0 124 277.5 Z M 124 278.5  A 2 2 0 0 1 126 280.5 A 2 2 0 0 1 124 282.5 A 2 2 0 0 1 122 280.5 A 2 2 0 0 1 124 278.5 Z " fill-rule="nonzero" fill="#0079fe" stroke="none" />
  <path d="M 110 280.5  L 122 280.5  " stroke-width="1" stroke-dasharray="1,1" stroke="#0079fe" fill="none" />
</svg>