<?xml version="1.0" encoding="utf-8"?>
<svg version="1.1" xmlns:xlink="http://www.w3.org/1999/xlink" width="22px" height="20px" preserveAspectRatio="xMinYMid meet" viewBox="58 237  22 18" xmlns="http://www.w3.org/2000/svg">
  <g transform="matrix(-1 0 0 -1 138 492 )">
    <path d="M 53 243.5  A 3 3 0 0 0 50 246.5 A 3 3 0 0 0 53 249.5 A 3 3 0 0 0 56 246.5 A 3 3 0 0 0 53 243.5 Z M 53 244.5  A 2 2 0 0 1 55 246.5 A 2 2 0 0 1 53 248.5 A 2 2 0 0 1 51 246.5 A 2 2 0 0 1 53 244.5 Z M 69 243.5  A 3 3 0 0 0 66 246.5 A 3 3 0 0 0 69 249.5 A 3 3 0 0 0 72 246.5 A 3 3 0 0 0 69 243.5 Z M 69 244.5  A 2 2 0 0 1 71 246.5 A 2 2 0 0 1 69 248.5 A 2 2 0 0 1 67 246.5 A 2 2 0 0 1 69 244.5 Z " fill-rule="nonzero" fill="#0079fe" stroke="none" />
    <path d="M 55 246.5  L 67 246.5  " stroke-width="1" stroke-dasharray="1,1" stroke="#0079fe" fill="none" />
  </g>
</svg>