<?xml version="1.0" encoding="utf-8"?>
<svg version="1.1" xmlns:xlink="http://www.w3.org/1999/xlink" width="26px" height="6px" preserveAspectRatio="xMinYMid meet" viewBox="48 297  26 4" xmlns="http://www.w3.org/2000/svg">
  <path d="M 53 295.5  A 3 3 0 0 0 50 298.5 A 3 3 0 0 0 53 301.5 A 3 3 0 0 0 56 298.5 A 3 3 0 0 0 53 295.5 Z M 53 296.5  A 2 2 0 0 1 55 298.5 A 2 2 0 0 1 53 300.5 A 2 2 0 0 1 51 298.5 A 2 2 0 0 1 53 296.5 Z M 69 295.5  A 3 3 0 0 0 66 298.5 A 3 3 0 0 0 69 301.5 A 3 3 0 0 0 72 298.5 A 3 3 0 0 0 69 295.5 Z M 69 296.5  A 2 2 0 0 1 71 298.5 A 2 2 0 0 1 69 300.5 A 2 2 0 0 1 67 298.5 A 2 2 0 0 1 69 296.5 Z " fill-rule="nonzero" fill="#0079fe" stroke="none" />
  <path d="M 55 298.5  L 67 298.5  " stroke-width="1" stroke-dasharray="1,1" stroke="#0079fe" fill="none" />
</svg>