<?xml version="1.0" encoding="utf-8"?>
<svg version="1.1" xmlns:xlink="http://www.w3.org/1999/xlink" width="22px" height="20px" preserveAspectRatio="xMinYMid meet" viewBox="58 221  22 18" xmlns="http://www.w3.org/2000/svg">
  <g transform="matrix(-1 0 0 -1 138 460 )">
    <path d="M 53 227.5  A 3 3 0 0 0 50 230.5 A 3 3 0 0 0 53 233.5 A 3 3 0 0 0 56 230.5 A 3 3 0 0 0 53 227.5 Z M 53 228.5  A 2 2 0 0 1 55 230.5 A 2 2 0 0 1 53 232.5 A 2 2 0 0 1 51 230.5 A 2 2 0 0 1 53 228.5 Z M 69 227.5  A 3 3 0 0 0 66 230.5 A 3 3 0 0 0 69 233.5 A 3 3 0 0 0 72 230.5 A 3 3 0 0 0 69 227.5 Z M 69 228.5  A 2 2 0 0 1 71 230.5 A 2 2 0 0 1 69 232.5 A 2 2 0 0 1 67 230.5 A 2 2 0 0 1 69 228.5 Z " fill-rule="nonzero" fill="#0079fe" stroke="none" />
    <path d="M 55 230.5  L 67 230.5  " stroke-width="1" stroke-dasharray="1,1" stroke="#0079fe" fill="none" />
  </g>
</svg>