<?xml version="1.0" encoding="utf-8"?>
<svg version="1.1" xmlns:xlink="http://www.w3.org/1999/xlink" width="26px" height="6px" preserveAspectRatio="xMinYMid meet" viewBox="48 261  26 4" xmlns="http://www.w3.org/2000/svg">
  <path d="M 53 260.5  A 3 3 0 0 0 50 263.5 A 3 3 0 0 0 53 266.5 A 3 3 0 0 0 56 263.5 A 3 3 0 0 0 53 260.5 Z M 53 261.5  A 2 2 0 0 1 55 263.5 A 2 2 0 0 1 53 265.5 A 2 2 0 0 1 51 263.5 A 2 2 0 0 1 53 261.5 Z M 69 260.5  A 3 3 0 0 0 66 263.5 A 3 3 0 0 0 69 266.5 A 3 3 0 0 0 72 263.5 A 3 3 0 0 0 69 260.5 Z M 69 261.5  A 2 2 0 0 1 71 263.5 A 2 2 0 0 1 69 265.5 A 2 2 0 0 1 67 263.5 A 2 2 0 0 1 69 261.5 Z " fill-rule="nonzero" fill="#0079fe" stroke="none" />
  <path d="M 55 263.5  L 67 263.5  " stroke-width="1" stroke-dasharray="1,1" stroke="#0079fe" fill="none" />
</svg>