<?xml version="1.0" encoding="utf-8"?>
<svg version="1.1" xmlns:xlink="http://www.w3.org/1999/xlink" width="26px" height="6px" preserveAspectRatio="xMinYMid meet" viewBox="48 279  26 4" xmlns="http://www.w3.org/2000/svg">
  <path d="M 53 277.5  A 3 3 0 0 0 50 280.5 A 3 3 0 0 0 53 283.5 A 3 3 0 0 0 56 280.5 A 3 3 0 0 0 53 277.5 Z M 53 278.5  A 2 2 0 0 1 55 280.5 A 2 2 0 0 1 53 282.5 A 2 2 0 0 1 51 280.5 A 2 2 0 0 1 53 278.5 Z M 69 277.5  A 3 3 0 0 0 66 280.5 A 3 3 0 0 0 69 283.5 A 3 3 0 0 0 72 280.5 A 3 3 0 0 0 69 277.5 Z M 69 278.5  A 2 2 0 0 1 71 280.5 A 2 2 0 0 1 69 282.5 A 2 2 0 0 1 67 280.5 A 2 2 0 0 1 69 278.5 Z " fill-rule="nonzero" fill="#0079fe" stroke="none" />
  <path d="M 55 280.5  L 67 280.5  " stroke-width="1" stroke-dasharray="1,1" stroke="#0079fe" fill="none" />
</svg>