<?xml version="1.0" encoding="utf-8"?>
<svg version="1.1" xmlns:xlink="http://www.w3.org/1999/xlink" width="22px" height="20px" preserveAspectRatio="xMinYMid meet" viewBox="58 205  22 18" xmlns="http://www.w3.org/2000/svg">
  <g transform="matrix(-1 0 0 -1 138 428 )">
    <path d="M 53 210.5  A 3 3 0 0 0 50 213.5 A 3 3 0 0 0 53 216.5 A 3 3 0 0 0 56 213.5 A 3 3 0 0 0 53 210.5 Z M 53 211.5  A 2 2 0 0 1 55 213.5 A 2 2 0 0 1 53 215.5 A 2 2 0 0 1 51 213.5 A 2 2 0 0 1 53 211.5 Z M 69 210.5  A 3 3 0 0 0 66 213.5 A 3 3 0 0 0 69 216.5 A 3 3 0 0 0 72 213.5 A 3 3 0 0 0 69 210.5 Z M 69 211.5  A 2 2 0 0 1 71 213.5 A 2 2 0 0 1 69 215.5 A 2 2 0 0 1 67 213.5 A 2 2 0 0 1 69 211.5 Z " fill-rule="nonzero" fill="#0079fe" stroke="none" />
    <path d="M 55 213.5  L 67 213.5  " stroke-width="1" stroke-dasharray="1,1" stroke="#0079fe" fill="none" />
  </g>
</svg>