<?xml version="1.0" encoding="utf-8"?>
<svg version="1.1" xmlns:xlink="http://www.w3.org/1999/xlink" width="26px" height="6px" preserveAspectRatio="xMinYMid meet" viewBox="48 331  26 4" xmlns="http://www.w3.org/2000/svg">
  <path d="M 53 330.5  A 3 3 0 0 0 50 333.5 A 3 3 0 0 0 53 336.5 A 3 3 0 0 0 56 333.5 A 3 3 0 0 0 53 330.5 Z M 53 331.5  A 2 2 0 0 1 55 333.5 A 2 2 0 0 1 53 335.5 A 2 2 0 0 1 51 333.5 A 2 2 0 0 1 53 331.5 Z M 69 330.5  A 3 3 0 0 0 66 333.5 A 3 3 0 0 0 69 336.5 A 3 3 0 0 0 72 333.5 A 3 3 0 0 0 69 330.5 Z M 69 331.5  A 2 2 0 0 1 71 333.5 A 2 2 0 0 1 69 335.5 A 2 2 0 0 1 67 333.5 A 2 2 0 0 1 69 331.5 Z " fill-rule="nonzero" fill="#0079fe" stroke="none" />
  <path d="M 55 333.5  L 67 333.5  " stroke-width="1" stroke-dasharray="1,1" stroke="#0079fe" fill="none" />
</svg>