<?xml version="1.0" encoding="utf-8"?>
<svg version="1.1" xmlns:xlink="http://www.w3.org/1999/xlink" width="26px" height="6px" preserveAspectRatio="xMinYMid meet" viewBox="48 313  26 4" xmlns="http://www.w3.org/2000/svg">
  <path d="M 53 312.5  A 3 3 0 0 0 50 315.5 A 3 3 0 0 0 53 318.5 A 3 3 0 0 0 56 315.5 A 3 3 0 0 0 53 312.5 Z M 53 313.5  A 2 2 0 0 1 55 315.5 A 2 2 0 0 1 53 317.5 A 2 2 0 0 1 51 315.5 A 2 2 0 0 1 53 313.5 Z M 69 312.5  A 3 3 0 0 0 66 315.5 A 3 3 0 0 0 69 318.5 A 3 3 0 0 0 72 315.5 A 3 3 0 0 0 69 312.5 Z M 69 313.5  A 2 2 0 0 1 71 315.5 A 2 2 0 0 1 69 317.5 A 2 2 0 0 1 67 315.5 A 2 2 0 0 1 69 313.5 Z " fill-rule="nonzero" fill="#0079fe" stroke="none" />
  <path d="M 55 315.5  L 67 315.5  " stroke-width="1" stroke-dasharray="1,1" stroke="#0079fe" fill="none" />
</svg>