<?xml version="1.0" encoding="utf-8"?>
<svg version="1.1" xmlns:xlink="http://www.w3.org/1999/xlink" width="15px" height="16px" xmlns="http://www.w3.org/2000/svg">
  <g transform="matrix(1 0 0 1 -116 -72 )">
    <path d="M 11.4343434280303 15.3846153846154  C 11.4343434280303 15.05641025  11.1515151515152 14.7692307692308  10.8282828219697 14.7692307692308  L 1.41414142045455 14.7692307692308  C 1.29292929924242 14.7692307692308  1.21212121212121 14.6871794807692  1.21212121212121 14.5641025576923  L 1.21212121212121 1.43589744230769  C 1.21212121212121 1.31282051923077  1.29292929924242 1.23076923076923  1.41414142045455 1.23076923076923  L 7.27272727272727 1.23076923076923  L 7.27272727272727 4.30769230769231  C 7.27272727272727 5.08717948076923  7.91919191287879 5.74358975  8.68686869318182 5.74358975  L 11.7171717234848 5.74358975  L 11.7171717234848 6.48205128846154  C 11.7171717234848 6.81025642307692  12 7.09743590384615  12.3232323295455 7.09743590384615  C 12.6464646590909 7.09743590384615  12.9292929356061 6.81025642307692  12.9292929356061 6.48205128846154  L 12.9292929356061 3.89743590384615  C 12.9292929356061 3.73333334615385  12.8484848484848 3.56923076923077  12.7676767613636 3.44615384615385  L 9.53535354166667 0.164102557692309  C 9.41414142045455 0.0410256346153856  9.25252526515152 0  9.09090909090909 0  L 1.41414142045455 0  C 0.646464640151515 0  0 0.65641025  0 1.43589744230769  L 0 14.5641025576923  C 0 15.3435897307692  0.646464640151515 16  1.41414142045455 16  L 10.8282828219697 16  C 11.1515151515152 16  11.4343434280303 15.7128205192308  11.4343434280303 15.3846153846154  Z M 8.84848484848485 1.23076923076923  L 11.7171717234848 4.18461538461538  L 11.7171717234848 4.51282051923077  L 8.68686869318182 4.51282051923077  C 8.5656565719697 4.51282051923077  8.48484848484848 4.43076923076923  8.48484848484848 4.30769230769231  L 8.48484848484848 1.23076923076923  L 8.84848484848485 1.23076923076923  Z M 14.9494949431818 10.25641025  C 14.9494949431818 9.92820511538462  14.6666666666667 9.64102563461539  14.3434343371212 9.64102563461539  L 9.53535354166667 9.64102563461539  L 10.5050505113636 8.65641025  C 10.7474747537879 8.41025640384616  10.7474747537879 8.04102563461538  10.5050505113636 7.79487178846154  C 10.2626262689394 7.54871794230769  9.89898990530303 7.54871794230769  9.65656566287879 7.79487178846154  L 7.63636363636364 9.84615384615385  C 7.3939393939394 10.0923076923077  7.3939393939394 10.4615384615385  7.63636363636364 10.7076923076923  L 9.65656566287879 12.7589743653846  C 9.77777778409091 12.8820512884615  9.93939393939394 12.9230769230769  10.101010094697 12.9230769230769  C 10.26262625 12.9230769230769  10.4242424242424 12.8820512884615  10.5454545454545 12.7589743653846  C 10.7878787878788 12.5128205192308  10.7878787878788 12.14358975  10.5454545454545 11.8974359038462  L 9.53535354166667 10.8717948653846  L 14.3434343371212 10.8717948653846  C 14.6666666666667 10.8717948653846  14.9494949431818 10.5846153846154  14.9494949431818 10.25641025  Z " fill-rule="nonzero" fill="#002fa7" stroke="none" fill-opacity="0.996078431372549" transform="matrix(1 0 0 1 116 72 )" />
  </g>
</svg>