<?xml version="1.0" encoding="utf-8"?>
<svg version="1.1" xmlns:xlink="http://www.w3.org/1999/xlink" width="15px" height="16px" xmlns="http://www.w3.org/2000/svg">
  <g transform="matrix(1 0 0 1 -216 -72 )">
    <path d="M 9.91836734693878 15.3846153846154  C 9.91836734693878 15.05641025  9.63265306760204 14.7692307692308  9.30612244897959 14.7692307692308  L 1.42857143494898 14.7692307692308  C 1.30612245535714 14.7692307692308  1.22448979591837 14.6871794807692  1.22448979591837 14.5641025576923  L 1.22448979591837 1.43589744230769  C 1.22448979591837 1.31282051923077  1.30612245535714 1.23076923076923  1.42857143494898 1.23076923076923  L 7.3469387755102 1.23076923076923  L 7.3469387755102 4.30769230769231  C 7.3469387755102 5.08717948076923  7.99999999362245 5.74358975  8.77551021045918 5.74358975  L 11.8367347002551 5.74358975  L 11.8367347002551 6.48205128846154  C 11.8367347002551 6.81025642307692  12.1224489795918 7.09743590384615  12.4489795982143 7.09743590384615  C 12.7755102168367 7.09743590384615  13.0612244961735 6.81025642307692  13.0612244961735 6.48205128846154  L 13.0612244961735 3.89743590384615  C 13.0612244961735 3.73333334615385  12.9795918367347 3.56923076923077  12.8979591772959 3.44615384615385  L 9.63265306760204 0.164102557692309  C 9.51020408801021 0.0410256346153856  9.34693878826531 0  9.18367346938776 0  L 1.42857143494898 0  C 0.653061218112245 0  0 0.65641025  0 1.43589744230769  L 0 14.5641025576923  C 0 15.3435897307692  0.653061218112245 16  1.42857143494898 16  L 9.30612244897959 16  C 9.63265306760204 16  9.91836734693878 15.7128205192308  9.91836734693878 15.3846153846154  Z M 8.93877551020408 1.23076923076923  L 11.8367347002551 4.18461538461538  L 11.8367347002551 4.51282051923077  L 8.77551021045918 4.51282051923077  C 8.65306123086735 4.51282051923077  8.57142857142857 4.43076923076923  8.57142857142857 4.30769230769231  L 8.57142857142857 1.23076923076923  L 8.93877551020408 1.23076923076923  Z M 14.7755102104592 11.8974359038462  C 14.9387755102041 11.6923076923077  14.9387755102041 11.2820512884615  14.7346938711735 11.0358974423077  L 12.693877557398 8.98461538461538  C 12.4489795982143 8.73846153846154  12.0816326594388 8.73846153846154  11.8367347002551 8.98461538461538  C 11.5918367410714 9.23076923076923  11.5918367410714 9.6  11.8367347002551 9.84615384615385  L 12.8163265369898 10.8307692307692  L 7.95918367346939 10.8307692307692  C 7.63265305484694 10.8307692307692  7.3469387755102 11.1179487115385  7.3469387755102 11.4461538461538  C 7.3469387755102 11.7743589807692  7.63265305484694 12.1025640961538  7.95918367346939 12.1025640961538  L 12.8163265369898 12.1025640961538  L 11.8367347002551 13.0871794807692  C 11.5918367410714 13.3333333269231  11.5918367410714 13.7025640961538  11.8367347002551 13.9487179423077  C 11.9591836798469 14.0717948653846  12.1224489795918 14.1128205  12.2857142793367 14.1128205192308  C 12.4489795790816 14.1128205384615  12.6122448979592 14.0717948846154  12.734693877551 13.9487179423077  L 14.7755102104592 11.8974359038462  Z " fill-rule="nonzero" fill="#002fa7" stroke="none" fill-opacity="0.996078431372549" transform="matrix(1 0 0 1 216 72 )" />
  </g>
</svg>