<?xml version="1.0" encoding="utf-8"?>
<svg version="1.1" xmlns:xlink="http://www.w3.org/1999/xlink" width="16px" height="16px" xmlns="http://www.w3.org/2000/svg">
  <g transform="matrix(1 0 0 1 -968 -12 )">
    <path d="M 15.7417411764706 14.6770823529412  L 9.04583529411765 7.98117647058823  L 15.7417411764706 1.28527058823529  C 15.8773224708086 1.14489291401323  15.9531006450993 0.957355402222467  15.9531006450993 0.762193472547709  C 15.9531006450993 0.346355543263347  15.6159973979131 0.0092522960771208  15.2001594686288 0.0092522960771208  C 15.004997538954 0.0092522960771208  14.8174600271632 0.0850304703678322  14.6770823529412 0.220611764705882  L 7.98117647058823 6.91651764705882  L 1.28527058823529 0.220611764705882  C 1.14489291401324 0.0850304703678456  0.957355402222479 0.0092522960771422  0.76219347254773 0.0092522960771422  C 0.346355543263368 0.0092522960771422  0.0092522960771422 0.346355543263368  0.0092522960771422 0.76219347254773  C 0.0092522960771422 0.957355402222479  0.0850304703678456 1.14489291401324  0.220611764705882 1.28527058823529  L 6.91651764705882 7.98117647058824  L 0.220611764705882 14.6770823529412  C 0.0850304703678315 14.8174600271632  0.0092522960771208 15.004997538954  0.0092522960771208 15.2001594686288  C 0.0092522960771208 15.6159973979131  0.346355543263347 15.9531006450994  0.762193472547709 15.9531006450994  C 0.957355402222469 15.9531006450994  1.14489291401323 15.8773224708086  1.28527058823529 15.7417411764706  L 7.98117647058823 9.04583529411765  L 14.6770823529412 15.7417411764706  C 14.817984096786 15.8834516625614  15.009573922227 15.9631321234854  15.2094117647059 15.9631321234854  C 15.4092496071848 15.9631321234854  15.6008394326258 15.8834516625614  15.7417411764706 15.7417411764706  C 16.0356758123918 15.4477177588813  16.0356758123918 14.9711057705305  15.7417411764706 14.6770823529412  Z " fill-rule="nonzero" fill="#000000" stroke="none" transform="matrix(1 0 0 1 968 12 )" />
  </g>
</svg>