<?xml version="1.0" encoding="utf-8"?>
<svg version="1.1" xmlns:xlink="http://www.w3.org/1999/xlink" width="40px" height="40px" xmlns="http://www.w3.org/2000/svg">
  <g transform="matrix(1 0 0 1 -480 -256 )">
    <path d="M 36.6666666666667 20  C 36.6666666666667 29.19  29.19 36.6666666666667  20 36.6666666666667  C 10.81 36.6666666666667  3.33333333333333 29.19  3.33333333333333 20  C 3.33333333333333 14.5633333333333  5.96166666666667 9.74333333333333  10 6.69833333333333  C 12.8774082616082 4.51658978172102  16.3889778972781 3.33494659931807  20 3.33333333333333  C 23.755 3.33333333333333  27.21 4.59666666666667  30 6.69833333333333  C 34.0383333333333 9.74333333333333  36.6666666666667 14.5633333333333  36.6666666666667 20  Z M 40 20  C 40 12.6166666666667  35.9683333333333 6.17166666666667  30 2.70666666666666  C 26.9649271483328 0.93539503743845  23.5141241442789 0.00137769100785038  20 0  C 16.355 0  12.9466666666667 0.996666666666666  10 2.70666666666667  C 4.03166666666667 6.17166666666667  0 12.6166666666667  0 20  C 0 31.0283333333333  8.97166666666667 40  20 40  C 31.0283333333333 40  40 31.0283333333333  40 20  Z M 21 16.6666666666667  C 21.6666666666667 15.7461920836153  20.9204745830513 15  20 15  C 19.0795254169487 15  18.3333333333333 15.7461920836153  19 16.6666666666667  L 19 30  C 18.3333333333333 30.9204745830513  19.0795254169487 31.6666666666667  20 31.6666666666667  C 20.9204745830513 31.6666666666667  21.6666666666667 30.9204745830513  21.6666666666667 30  C 21.6666666666667 30  21.6666666666667 30  21 30  L 21 16.6666666666667  Z M 20 8.33333333333333  C 19.0795254169487 8.33333333333333  18.3333333333333 9.07952541694868  18.3333333333333 10  C 18.3333333333333 10.9204745830513  19.0795254169487 11.6666666666667  20 11.6666666666667  C 20.9204745830513 11.6666666666667  21.6666666666667 10.9204745830513  21.6666666666667 10  C 21.6666666666667 9.07952541694868  20.9204745830513 8.33333333333333  20 8.33333333333333  Z " fill-rule="nonzero" fill="#ff0000" stroke="none" transform="matrix(1 0 0 1 480 256 )" />
  </g>
</svg>