<?xml version="1.0" encoding="utf-8"?>
<svg version="1.1" xmlns:xlink="http://www.w3.org/1999/xlink" width="16px" height="16px" xmlns="http://www.w3.org/2000/svg">
  <g transform="matrix(1 0 0 1 -16 -72 )">
    <path d="M 7.96935186214564 15.8694741523068  C 5.85457698721512 15.8694741523068  3.86646803779878 15.0498543635353  2.37104168982768 13.561881045025  C 0.875615341856587 12.0739077265147  0.0510505836575876 10.0930027793218  0.0510505836575876 7.98616120066704  C 0.0510505836575876 5.87931962201223  0.875099499722068 3.89955308504725  2.37052584769316 2.41102834908282  C 3.86595219566426 0.922503613118398  5.85370539188438 0.103435241801  7.96883602001112 0.103435241801  C 10.0839666481379 0.103435241801  12.071719844358 0.92305503057254  13.566968315731 2.41102834908282  C 15.0622167871039 3.89900166759311  15.8869949972207 5.87988882712618  15.8869949972207 7.98546748193441  C 15.8869949972207 10.0910461367426  15.0630883824347 12.072662590328  13.5670038910506 13.5611695386326  C 12.0709193996665 15.0496764869372  10.0841801000556 15.8694741523068  7.96936964980545 15.8694741523068  Z M 12.7691028349083 3.21300277932184  C 11.4881067259589 1.93873040578099  9.78267926625903 1.23407226236798  7.96935186214564 1.23407226236798  C 6.15550861589772 1.23407226236798  4.45079266259033 1.93657809894386  3.16908504724847 3.2124513618677  C 1.88737743190661 4.48832462479155  1.18220344635909 6.18293718732629  1.18220344635909 7.98617898832685  C 1.18220344635909 9.7894207893274  1.88753752084491 11.4849227348527  3.16855141745414 12.7592306837132  C 4.44956531406337 14.0335386325737  6.15445914396887 14.7376097832129  7.96883602001112 14.7376097832129  C 9.78321289605337 14.7376097832129  11.4873952195664 14.0352818232351  12.7691028349083 12.7592306837132  C 14.0508104502501 11.4831795441912  14.7559844357977 9.78872707059477  14.7554508060033 7.98548526959422  C 14.754917176209 6.18226125625347  14.0500989438577 4.4872751528627  12.7691028349083 3.21300277932184  Z M 11.9286181211784 7.42062034463591  L 8.53492829349639 7.42062034463591  L 8.53492829349639 4.02694830461367  C 8.52140967204002 3.7145792106726  8.25720956086715 3.4723290717065  7.94485825458588 3.48586548082268  C 7.65145080600333 3.49856586992774  7.41649360755976 3.73354085603113  7.40377543079489 4.02694830461367  L 7.40377543079489 7.4206025569761  L 4.01028126737076 7.4206025569761  C 3.69792996108949 7.43413896609227  3.4556798221234 7.69833907726515  3.46919844357977 8.01069038354642  C 3.48191662034464 8.30408004446915  3.71687381878822 8.53903724291273  4.01029905503057 8.5517554196776  L 7.40375764313508 8.5517554196776  L 7.40375764313508 11.9454274596998  C 7.41729405225125 12.2577787659811  7.68149416342412 12.5000289049472  7.99384546970539 12.4865102834908  C 8.28723513062813 12.473792106726  8.52219232907171 12.2388171206226  8.53491050583658 11.94540967204  L 8.53491050583658 8.55177320733741  L 11.9285825458588 8.55177320733741  C 12.2409338521401 8.5653274041134  12.505133963313 8.3230772651473  12.5186525847693 8.01070817120622  C 12.5322067815453 7.69833907726515  12.2899388549194 7.43413896609227  11.9775697609783 7.42062034463591  C 11.9612543284812 7.41991083422233  11.9449157660157 7.41991083422233  11.9286003335186 7.42062034463591  Z " fill-rule="nonzero" fill="#002fa7" stroke="none" transform="matrix(1 0 0 1 16 72 )" />
  </g>
</svg>