<?xml version="1.0" encoding="utf-8"?>
<svg version="1.1" xmlns:xlink="http://www.w3.org/1999/xlink" width="31px" height="28px" xmlns="http://www.w3.org/2000/svg">
  <g transform="matrix(1 0 0 1 -1365 -126 )">
    <path d="M 30.5627993613624 15.53125  C 30.8542664537875 15.7035984848485  31 15.9886363636364  31 16.3863636363636  C 31 16.7973484848485  30.8295192478269 17.2348484848485  30.4885577434806 17.6988636363636  L 24.9451836083023 25.5738636363636  C 24.4722370054994 26.25  23.8095618236651 26.8233901515152  22.9571580627994 27.2940340909091  C 22.1047543019337 27.764678030303  21.3155934007451 28  20.5896753592336 28  L 2.63970196913252 28  C 2.26574419017208 28  1.93303175447933 27.9138257575758  1.64156466205428 27.7414772727273  C 1.35009756962924 27.5691287878788  1.20436402341671 27.2840909090909  1.20436402341671 26.8863636363636  C 1.20436402341671 26.4753787878788  1.37484477558985 26.0378787878788  1.71580627993614 25.5738636363636  L 7.25918041511442 17.6988636363636  C 7.73212701791733 17.0227272727273  8.39480219975164 16.4493371212121  9.24720596061735 15.9786931818182  C 10.0996097214831 15.5080492424242  10.8887706226716 15.2727272727273  11.6146886641831 15  L 29.5646620542842 15  C 29.9386198332446 15.2727272727273  30.2713322689374 15.3589015151515  30.5627993613624 15.53125  Z M 24.252261841405 6.40340909090909  C 24.9781798829164 7.27840909090909  25.3411389036722 8.32575757575757  25.3411389036722 9.54545454545455  L 25.3411389036722 13  L 11.6146886641831 13  C 10.5808053929395 12.7272727272727  9.4974277097747 13.0421401515152  8.36455561468866 13.671875  C 7.23168351960263 14.3016098484848  6.32978534681568 15.09375  5.65886109632783 16.0482954545455  L 0.0989888238424694 23.9232954545455  L 0.0164981373070782 24.0426136363636  C 0.0164981373070782 23.9895833333333  0.0137484477558985 23.9067234848485  0.00824906865353912 23.7940340909091  C 0.00274968955117971 23.6813446969697  0 23.5984848484848  0 23.5454545454545  L 0 4.45454545454545  C 0 3.23484848484848  0.362959020755721 2.1875  1.08887706226716 1.3125  C 1.81479510377861 0.4375  2.68369700195139 0  3.69558275678552 0  L 8.97498669505056 0  C 9.98687244988469 0  10.8557743480575 0.4375  11.5816923895689 1.3125  C 12.3076104310804 2.1875  12.6705694518361 3.23484848484848  12.6705694518361 4.45454545454545  L 12.6705694518361 5.09090909090909  L 21.6455561468866 5.09090909090909  C 22.6574419017208 5.09090909090909  23.5263437998936 5.52840909090909  24.252261841405 6.40340909090909  Z " fill-rule="nonzero" fill="#ffcc00" stroke="none" transform="matrix(1 0 0 1 1365 126 )" />
  </g>
</svg>