<?xml version="1.0" encoding="utf-8"?>
<svg version="1.1" xmlns:xlink="http://www.w3.org/1999/xlink" width="12px" height="12px" xmlns="http://www.w3.org/2000/svg">
  <g transform="matrix(1 0 0 1 -463 -162 )">
    <path d="M 5.45443572992555 6  C 5.45443572992555 6.14467942047924  5.51197289534379 6.28341957996746  5.61436363636364 6.38563636363636  C 5.71643734284212 6.48829594873057  5.8552311084315 6.54601900991128  6 6.54601900991128  C 6.1447688915685 6.54601900991128  6.28356265715788 6.48829594873057  6.38563636363636 6.38563636363636  L 11.5674545454545 1.20381818181818  C 11.6697316681727 1.10154105910006  11.727190357417 0.962823512250286  11.727190357417 0.818181818181819  C 11.727190357417 0.516981082616568  11.4830189173834 0.272809642583031  11.1818181818182 0.272809642583031  C 11.0371764877497 0.272809642583031  10.8984589408999 0.330268331827333  10.7961818181818 0.432545454545456  L 5.61436363636364 5.61436363636364  C 5.51197289534379 5.71658042003255  5.45443572992555 5.85532057952076  5.45443572992555 6  Z M 12 6  C 12 5.69875377281957  11.7557916817259 5.45454545454545  11.4545454545455 5.45454545454545  C 11.153299227365 5.45454545454545  10.9090909090909 5.69875377281957  10.9090909090909 6  L 10.9134545454545 10.9090909090909  L 1.09090909090909 10.9134545454545  L 1.08654545454545 1.09090909090909  L 6 1.09090909090909  C 6.30124622718043 1.09090909090909  6.54545454545455 0.846700772634979  6.54545454545455 0.545454545454546  C 6.54545454545455 0.244208318274113  6.30124622718043 0  6 0  L 1.08654545454545 0  C 0.48683663174048 0.000901141754860678  0.000901141754860194 0.48683663174048  0 1.08654545454545  L 0 10.9134545454545  C 0 11.5123636363636  0.487636363636364 12  1.08654545454545 12  L 10.9134545454545 12  C 11.5131633682595 11.9990988582451  11.9990988582451 11.5131633682595  12 10.9134545454545  L 12 6  Z " fill-rule="nonzero" fill="#002fa7" stroke="none" transform="matrix(1 0 0 1 463 162 )" />
  </g>
</svg>