<?xml version="1.0" encoding="utf-8"?>
<svg version="1.1" xmlns:xlink="http://www.w3.org/1999/xlink" width="41px" height="15px" xmlns="http://www.w3.org/2000/svg">
  <defs>
    <mask fill="white" id="clip153">
      <path d="M 0.330645161290513 5.11363636363654  L 4.29838709677409 0.340909090908781  L 40.6693548387095 1.36363636363654  L 28.4354838709676 9.20454545454589  L 15.2096774193552 15  L 6.94354838709708 13.9772727272722  L 0.330645161290513 5.11363636363654  Z " fill-rule="evenodd" />
    </mask>
  </defs>
  <g transform="matrix(1 0 0 1 -873 -614 )">
    <path d="M 0.330645161290513 5.11363636363654  L 4.29838709677409 0.340909090908781  L 40.6693548387095 1.36363636363654  L 28.4354838709676 9.20454545454589  L 15.2096774193552 15  L 6.94354838709708 13.9772727272722  L 0.330645161290513 5.11363636363654  Z " fill-rule="nonzero" fill="#6b6b6b" stroke="none" transform="matrix(1 0 0 1 873 614 )" />
    <path d="M 0.330645161290513 5.11363636363654  L 4.29838709677409 0.340909090908781  L 40.6693548387095 1.36363636363654  L 28.4354838709676 9.20454545454589  L 15.2096774193552 15  L 6.94354838709708 13.9772727272722  L 0.330645161290513 5.11363636363654  Z " stroke-width="2" stroke="#6b6b6b" fill="none" transform="matrix(1 0 0 1 873 614 )" mask="url(#clip153)" />
  </g>
</svg>