<?xml version="1.0" encoding="utf-8"?>
<svg version="1.1" xmlns:xlink="http://www.w3.org/1999/xlink" width="17px" height="16px" xmlns="http://www.w3.org/2000/svg">
  <g transform="matrix(1 0 0 1 -817 -473 )">
    <path d="M 2.92051282051284 1.68888888888861  L 4.31538461538475 0.622222222222263  L 9.19743589743626 1.68888888888861  L 12.1615384615382 3.82222222222234  L 14.2538461538464 5.42222222222218  L 16.3461538461539 6.48888888888905  L 16.8119726909766 8.12905835348348  L 13.5564102564101 10.7555555555555  L 13.5564102564101 14.6666666666667  L 10.5923076923076 14.6666666666667  L 6.58205128205105 14.6666666666667  L 5.88461538461588 15.9111111111112  L 4.31538461538475 15.9111111111112  L 2.22307692307658 13.955555555555  L 0.479487179486846 11.8222222222223  L 1.35128205128232 10.044444444445  L 2.92051282051284 8.12905835348348  C 2.92051282051284 8.12905835348348  3.6179487179491 6.48888888888905  3.6179487179491 4.71111111111103  C 3.6179487179491 2.93333333333313  2.92051282051284 1.68888888888861  2.92051282051284 1.68888888888861  Z " fill-rule="nonzero" fill="#169bd5" stroke="none" transform="matrix(1 0 0 1 817 473 )" />
  </g>
</svg>