<?xml version="1.0" encoding="utf-8"?>
<svg version="1.1" xmlns:xlink="http://www.w3.org/1999/xlink" width="148px" height="158px" xmlns="http://www.w3.org/2000/svg">
  <g transform="matrix(1 0 0 1 -426 -544 )">
    <path d="M 20.3202394313504 14.650909090909  C 22.7398034512236 10.9805468554629  19.6143704119393 6.03272727272742  19.6143704119393 6.03272727272742  L 22.8663507109007 4.02181818181828  L 26 0  L 26 13.5018181818185  L 30.1611374407582 16.9157175398632  C 30.1611374407582 16.9157175398632  29.9267776199785 22.2601157114754  32.1251184834121 23.2501138952162  C 33.6897604912927 23.9547328975615  36.3152863597309 21.2581818181821  36.3152863597309 21.2581818181821  L 38.2976303317535 17.7794988610479  L 40.2438943772279 14.650909090909  L 40.2438943772279 10.581321184511  L 41.7435897435897 10.581321184511  L 43.9090047393367 16.9157175398632  L 44.7507109004744 23.2501138952162  L 51.7649289099529 28.4328018223235  L 55.5175688509023 24.4018223234627  L 57.0957345971565 30.7381818181816  L 62.9876777251182 44.8145454545457  L 65.2322274881517 47.1127272727273  L 66.3545023696685 54.2945454545453  C 66.3545023696685 54.2945454545453  66.6903887457516 58.5464332783476  68.5990521327015 58.8909090909097  C 70.0322210469487 59.1495676001301  71.8214624881296 56.6496583143504  71.8214624881296 56.6496583143504  L 71.8214624881296 63.487272727273  L 76.0379867046532 63.487272727273  L 78.9800947867297 60.0399999999996  L 83.3466286799621 55.4979498861046  C 83.3466286799621 55.4979498861046  86.9769699996491 57.7076921154819  90.4834123222752 56.6496583143504  C 93.5884752712538 55.7127367133709  95.2530805687207 52.2836363636361  95.2530805687207 52.2836363636361  L 95.2530805687207 47.1127272727273  L 93.1043792892135 42.8036363636366  L 93.1043792892135 37.3131834583335  C 93.1043792892135 37.3131834583335  98.0407620291519 35.3746215992269  101.706161137441 30.7381818181816  C 104.455314745105 27.2607200809442  105.072985781991 23.2501138952162  105.072985781991 23.2501138952162  L 103.389573459715 17.7794988610479  L 108.926875593542 21.2581818181821  L 108.926875593542 14.650909090909  L 112.367772511849 12.0209567198178  L 115.954415954416 12.0209567198178  L 117.922127255461 16.9157175398632  L 117.922127255461 23.2501138952162  C 117.922127255461 23.2501138952162  119.052567511081 26.8173198698252  121.29534662868 27.281093394077  C 124.014728985111 27.8434214135135  126.917378917379 24.4018223234627  126.917378917379 24.4018223234627  L 133.101614434948 23.2501138952162  L 133.101614434948 29.2965831435081  L 131.415004748338 31.8879271070614  L 126.917378917379 34.7671981776764  L 122.468246445497 33.6109090909088  L 114.331753554502 33.6109090909088  L 107.036966824645 34.7671981776764  L 103.389573459715 39.3563636363638  L 103.389573459715 43.6654545454545  L 106.195260663507 50.3152619589975  L 112.367772511849 54.2945454545453  L 114.331753554502 50.3152619589975  L 118.765432098765 50.3152619589975  L 120.452041785375 56.6496583143504  L 116.797720797721 67.0150341685649  L 116.797720797721 72.6799999999995  L 123.263057929725 78.2441913439639  L 121.29534662868 81.8727272727272  L 120.452041785375 88.1927272727271  L 120.452041785375 92.789090909091  L 121.29534662868 96.5236363636362  L 125.835071090048 96.5236363636362  L 128.921327014218 94.7999999999994  L 130.604739336493 96.5236363636362  L 130.604739336493 100.702505694761  L 131.415004748338 104.157630979499  L 139.285849952517 104.157630979499  L 147.226970560304 102.43006833713  L 148 109.340318906606  L 145.188983855651 112.507517084282  L 140.691358024692 114.810933940774  L 139.285849952517 115.67471526196  L 137.318138651472 113.94715261959  L 133.101614434948 112.507517084282  L 118.765432098765 125.464236902051  L 113.490047393365 124.101818181818  L 108.926875593542 128.631435079727  L 98.6199052132704 125.464236902051  L 91.8862559241704 133.294545454546  L 83.3466286799621 125.464236902051  L 76.0379867046532 130.071070615034  L 69.7213270142176 130.071070615034  L 67.4767772511853 139.614545454545  L 70.5630331753554 151.392727272727  L 71.4047393364926 158  L 62.1459715639811 155.701818181818  L 61.3042654028434 150.22596810934  L 57.0957345971565 145.072727272728  L 49.504184704185 150.22596810934  L 46.1368064034733 150.22596810934  L 40.2438943772279 146.48291571754  C 40.2438943772279 146.48291571754  39.9850738483787 141.430743500981  36.3152863597309 138.178181818182  C 31.6026555152459 134.001339819193  23.6876177320621 134.730909090909  23.6876177320621 134.730909090909  C 23.6876177320621 134.730909090909  25.8389983130726 130.454973424449  26.4937663159885 128.631435079727  C 29.0193000415226 125.272285497342  34.0703674925899 118.553986332574  34.0703674925899 118.553986332574  L 25.6505223171888 117.69020501139  L 19.6143704119393 113.455467277858  L 22.003928581706 104.157630979499  L 18.3559354226016 100.702505694761  L 21.1829383886258 96.5236363636362  L 18.3559354226016 93.9381818181815  L 13.585482829927 96.5236363636362  L 10.2407582938384 96.5236363636362  L 4.62938388625575 97.6727272727273  L 0 99.694760820045  L 1.82369668246469 94.7999999999994  L 0 92.789090909091  L 0 85.8945454545448  L 5.47109004739345 79.2872727272725  L 11.6211788211787 67.0150341685649  C 11.6211788211787 67.0150341685649  15.5289324565785 70.2555228825849  18.3559354226016 67.0150341685649  C 21.1829383886258 63.7745454545455  22.003928581706 53.4327272727279  22.003928581706 53.4327272727279  L 22.8663507109007 36.1963636363634  L 19.6143704119393 27.281093394077  L 16.9744075829384 29.2965831435081  L 13.585482829927 28.4328018223235  L 12.7436382547495 17.7794988610479  C 12.7436382547495 17.7794988610479  18.1987911019024 17.8690441635519  20.3202394313504 14.650909090909  Z " fill-rule="nonzero" fill="#169bd5" stroke="none" transform="matrix(1 0 0 1 426 544 )" />
  </g>
</svg>