<?xml version="1.0" encoding="utf-8"?>
<svg version="1.1" xmlns:xlink="http://www.w3.org/1999/xlink" width="370px" height="323px" xmlns="http://www.w3.org/2000/svg">
  <g transform="matrix(1 0 0 1 -447 -52 )">
    <path d="M 2.0943396226413 229.958849557522  L 0.349056603773266 222.717551622419  C 0.349056603773266 222.717551622419  11.588679245283 228.243805309735  27.5056603773587 227.386283185841  C 43.4226415094338 226.528761061947  54.801886792453 226.528761061947  54.801886792453 226.528761061947  C 54.801886792453 226.528761061947  69.3924528301889 236.247345132743  79.4452830188678 241.678318584071  C 89.4981132075472 247.109292035398  101.226415094339 243.107522123894  101.226415094339 243.107522123894  L 104.298113207547 247.966814159292  L 112.396226415094 246.537610619469  C 112.396226415094 246.537610619469  122.169811320755 236.533185840708  135.015094339622 232.245575221239  C 147.860377358491 227.95796460177  169.292452830189 231.292163963434  169.292452830189 231.292163963434  L 177.460377358491 229.958849557522  L 177.460377358491 227.386283185841  L 183.115094339623 224.623156342182  L 187.862264150944 217.667699115044  L 191.492452830189 212.236725663717  C 191.492452830189 212.236725663717  193.167924528302 209.378318584071  194.005660377358 207.949115044248  C 195.588050314466 207.377433628319  198.752830188679 206.23407079646  198.752830188679 206.23407079646  C 198.752830188679 206.23407079646  205.26855345912 205.090707964602  206.059748427673 201.946460176991  C 206.850943396226 198.80221238938  205.175471698114 193.085398230088  205.175471698114 193.085398230088  C 205.175471698114 193.085398230088  204.123901037285 194.660739005001  202.941509433963 193.942920353983  C 200.669344540258 192.563510745266  200.149056603774 187.368584070797  200.149056603774 187.368584070797  L 204.058490566037 175.934955752213  L 210.481132075472 174.791592920354  L 215.507547169812 178.221681415929  L 222.488679245283 179.365044247787  L 226.677358490566 180.222566371681  L 236.730188679245 175.934955752213  L 240.63962264151 167.645575221239  L 248.737735849057 164.787168141593  C 248.737735849057 164.787168141593  257.394339622641 163.072123893806  259.907547169812 159.64203539823  C 262.420754716981 156.211946902655  264.096226415094 143.920796460177  264.096226415094 143.920796460177  L 269.122641509434 142.777433628319  L 286.715094339623 132  L 305.424528301887 132  C 305.424528301887 132  309.892452830188 130.200442477876  308.915094339623 126.484513274337  C 307.937735849057 122.768584070797  304.58679245283 120.48185840708  304.58679245283 120.48185840708  L 294.533962264151 113.907522123894  L 288.111320754717 106.189823008849  L 274.98679245283 107.904867256637  L 271.356603773585 113.907522123894  L 257.394339622641 111.049115044248  L 249.808176100629 116.003687315634  L 249.808176100629 107.904867256637  L 254.881132075472 81.8933628318587  L 253.996855345912 73.6039823008846  L 264.096226415094 74.7473451327433  L 271.356603773585 80.75  L 286.715094339623 64.1712389380531  L 288.111320754717 58.7402654867257  L 285.548968367725 56.5373824556441  L 288.111320754717 52.1659292035396  L 290.298742138364 36.7305309734515  L 297.605660377359 22.1526548672566  L 295.418238993711 17.0075221238938  L 296.488679245282 12.4340707964598  L 292.579245283019 10.7190265486724  L 288.949056603774 10.7190265486724  L 291.229559748428 7.28893805309712  L 292.579245283019 3.8588495575224  L 295.418238993711 1.19100294985258  L 302.399371069183 0.238200589970152  L 304.58679245283 1.19100294985258  L 300.956603773585 6.43141592920373  L 302.399371069183 16.1499999999998  L 308.216981132075 19.0084070796459  L 308.216981132075 17.0075221238938  L 312.12641509434 17.8650442477872  L 314.965408805032 16.1499999999998  L 315.756603773585 13.5774336283185  L 321.341509433963 14.4349557522125  L 321.341509433963 23.2960176991153  C 321.341509433963 23.2960176991153  325.995597484277 29.0128318584067  328.322641509434 31.8712389380534  C 330.277358490566 32.9193215339236  331.67358490566 35.3013274336287  334.18679245283 35.0154867256635  C 336.7 34.7296460176994  340.330188679245 29.8703539823007  342.254322539938 28.7269911504427  C 344.178456400631 27.583628318584  348.488007398701 27.869469026548  348.488007398701 27.869469026548  C 348.488007398701 27.869469026548  351.5 23.2960176991153  351.5 23.2960176991153  C 351.5 23.2960176991153  354.571698113208 21.009292035398  354.571698113208 21.009292035398  L 357.643396226415 23.2960176991153  L 360.575471698113 28.7269911504427  L 362.90251572327 35.0154867256635  L 361.506289308176 40.4464601769909  L 362.90251572327 44.0671091445431  L 361.506289308176 50.736725663717  L 361.506289308176 54.7384955752216  C 361.506289308176 54.7384955752216  364.552735383037 57.7405661788469  364.345283018868 61.3128318584071  C 364.086369977173 65.7712345213257  359.877358490566 69.0305309734512  359.877358490566 69.0305309734512  L 359.03962264151 74.7473451327433  L 360.575471698113 79.7971976401182  L 359.03962264151 86.7526548672567  L 355.455974842768 84.7517699115041  L 352.337735849056 84.7517699115041  L 348.488007398701 89.6110619469028  L 345.356603773585 98.4721238938056  L 340.330188679245 100.758849557522  L 336.83962264151 106.952064896755  L 340.330188679245 113.907522123894  L 343.167109562617 116.991691182927  L 343.167109562617 119.052654867256  L 347.078616352202 121.244100294985  L 348.488007398701 126.484513274337  L 349.266037735849 133.058849557522  L 344.239622641509 138.870943952802  L 338.096226415094 134.77389380531  L 334.18679245283 134.77389380531  L 330.556603773586 138.870943952802  L 333.349056603773 142.777433628319  L 340 146.493362831858  L 340 158.498672566372  L 342.254322539938 163.416917330956  L 344.239622641509 167.645575221239  L 348.488007398701 171.742625368732  L 356.526415094339 164.787168141593  L 359.03962264151 170.503982300884  L 362.90251572327 172.504867256637  L 362.90251572327 178.221681415929  L 361.506289308176 184.605457227139  L 365.229559748428 188.893067846608  L 368.603773584906 188.511946902655  L 369.930188679246 189.941150442478  L 368.603773584906 193.085398230088  L 365.229559748428 196.039085545723  L 360.575471698113 197.087168141593  L 355.455974842768 196.039085545723  L 351.5 200.803097345133  L 350.383018867925 205.090707964602  L 344.239622641509 203.089823008849  L 340.330188679245 207.949115044248  L 333.645551871395 214.280998837887  L 328.322641509434 220.52610619469  L 324.738993710692 222.717551622419  L 321.341509433963 217.667699115044  L 314.965408805032 215.095132743363  L 317.758357342177 231.292163963434  L 313.103773584906 237.009587020649  L 302.399371069183 234.532300884955  L 299.83962264151 231.292163963434  L 300.956603773585 226.528761061947  L 300.956603773585 222.717551622419  L 299.83962264151 218.811061946903  C 299.83962264151 218.811061946903  297.605660377359 220.52610619469  296.488679245282 221.383628318584  C 295.55786163522 220.811946902655  293.696226415094 219.668584070796  293.696226415094 219.668584070796  L 293.696226415094 215.095132743363  L 291.229559748428 212.236725663717  L 286.715094339623 211.379203539823  L 283.643396226416 215.095132743363  L 278.616981132075 215.095132743363  L 276.383018867925 218.811061946903  L 276.383018867925 225.385398230088  L 274.98679245283 229.101327433629  L 271.356603773585 229.958849557522  L 268.005660377359 231.292163963434  L 261.024528301887 229.958849557522  L 257.394339622641 238.248230088496  L 252.92641509434 237.009587020649  L 251.809433962264 232.245575221239  L 250.971698113208 227.386283185841  L 247.481132075472 224.623156342182  L 243.711320754717 232.245575221239  L 239.569182389937 239.677433628319  L 236.730188679245 245.394247787611  L 237.707547169812 251.968584070797  L 240.63962264151 255.398672566371  L 237.707547169812 261.30604719764  L 232.262264150943 262.735250737463  L 226.677358490566 261.30604719764  C 226.677358490566 261.30604719764  224.443396226415 262.258849557522  223.32641509434 262.735250737463  C 222.674842767296 264.005653883973  223.308442429276 265.239215339233  221.371698113207 266.546460176991  C 219.082935225669 268.091307085674  217.568184560739 265.521048549076  215.507547169812 267.403982300885  C 213.198570509451 269.513839234024  213.832075471698 273.97831858407  213.832075471698 273.97831858407  L 208.247169811321 279.409292035398  L 204.058490566037 279.409292035398  L 201.266037735849 283.982743362832  L 195.401886792453 283.125221238938  L 194.005660377358 287.984513274337  L 188.979245283019 285.12610619469  L 183.115094339623 285.12610619469  L 185.069811320755 290.842920353983  L 173.9 296.845575221239  L 168.035849056603 303.705752212389  L 168.035849056603 310.280088495575  L 165.243396226415 319.426991150442  L 163.009433962264 322.761799410029  L 158.122641509434 322.761799410029  L 146.464150943396 317.140265486726  C 146.464150943396 317.140265486726  143.85786163522 314.662979351033  142.554716981132 313.424336283186  C 140.972327044026 313.424336283186  137.807547169812 313.424336283186  137.807547169812 313.424336283186  L 136.411320754717 310.280088495575  L 136.411320754717 304.563274336283  L 139.203773584906 299.41814159292  L 140.320754716981 296.845575221239  L 139.203773584906 292.209173194275  L 135.015094339622 289.127876106195  L 129.430188679245 287.984513274337  L 123.007547169812 293.701327433629  L 121.052830188679 298.560619469027  L 118.818867924528 303.705752212389  L 118.818867924528 312.280973451328  L 116.026415094339 317.140265486726  L 116.026415094339 319.426991150442  L 115.235212756014 320.668985568814  L 109.883018867924 319.426991150442  L 107.090566037736 322.761799410029  L 96.5257861635223 323  L 91.6855345911949 323  L 86.9849056603776 319.426991150442  C 86.9849056603776 319.426991150442  85.9842767295601 315.425221238938  85.9842767295601 313.424336283186  C 86.317819706499 311.232890855457  86.9849056603776 306.85  86.9849056603776 306.85  L 93.1283018867927 303.705752212389  L 96.6886792452832 301.704867256637  L 99.8301886792449 295.606932153392  L 98.9924528301889 290.842920353983  L 96.6886792452832 285.12610619469  L 89.4981132075472 283.982743362832  L 81.5231483109526 292.209173194275  L 78.3283018867924 293.701327433629  L 69.9509433962266 290.842920353983  L 64.9245283018869 290.842920353983  L 62.9698113207544 295.606932153392  L 65.7622641509434 298.560619469027  L 64.9245283018869 300.561504424779  L 62.9698113207544 301.704867256637  L 58.2226415094341 299.41814159292  L 56.2679245283022 296.845575221239  L 51.0786163522016 295.606932153392  C 51.0786163522016 295.606932153392  49.5660377358489 287.984513274337  49.5660377358489 287.984513274337  L 46.7735849056605 286.269469026549  L 43.1433962264155 283.125221238938  C 43.1433962264155 283.125221238938  40.4261545257376 280.687896782964  39.5132075471695 279.409292035398  C 38.3031446540882 278.742330383481  35.8830188679245 277.408407079646  35.8830188679245 277.408407079646  L 32.5320754716979 273.97831858407  C 32.5320754716979 273.97831858407  39.3097097500511 263.271444775308  39.5132075471695 263.688053097345  C 39.7924528301888 264.259734513274  38.3962264150941 258.828761061947  38.3962264150941 258.828761061947  L 37.5817610062891 256.54203539823  L 30.5773584905665 258.828761061947  C 30.5773584905665 258.828761061947  24.4382642852723 259.423717737437  21.3687171826254 259.721196075183  C 19.9703397569702 259.995399153367  17.1735849056605 260.543805309735  17.1735849056605 260.543805309735  L 15.218867924528 263.688053097345  L 12.449685534591 262.735250737463  L 12.449685534591 257.399557522124  L 8.23773584905639 253.969469026548  L 7.39999999999989 248.824336283186  L 4.32830188679262 244.536725663717  L 7.39999999999989 237.009587020649  L 2.0943396226413 229.958849557522  Z " fill-rule="nonzero" fill="#169bd5" stroke="none" transform="matrix(1 0 0 1 447 52 )" />
  </g>
</svg>