<?xml version="1.0" encoding="utf-8"?>
<svg version="1.1" xmlns:xlink="http://www.w3.org/1999/xlink" width="28px" height="31px" xmlns="http://www.w3.org/2000/svg">
  <g transform="matrix(1 0 0 1 -711 -297 )">
    <path d="M 5.60975609756086 10.5049833887045  L 7.756097560976 9.06312292358788  L 10.4878048780488 8.0332225913622  L 10.4878048780488 6.59136212624625  L 14 6.59136212624625  C 14 6.59136212624625  14.6504065040654 6.04208194905854  14.975609756098 5.76744186046503  C 14.6504065040654 5.08084163898124  14 3.70764119601367  14 3.70764119601367  C 14 3.70764119601367  12.9593495934958 2.19712070874879  12.4390243902439 1.44186046511663  C 12.9593495934958 1.02990033222568  14 0.205980066445136  14 0.205980066445136  L 17.1219512195122 0.205980066445136  L 23.1707317073171 4.94352159468448  L 27.6585365853662 4.94352159468448  L 27.6585365853662 5.76744186046503  C 27.6585365853662 5.76744186046503  26.3577235772359 7.27796234773003  25.7073170731711 8.0332225913622  C 25.3821138211385 8.85714285714274  25.0569105691058 9.68106312292329  24.7317073170731 10.5049833887045  C 25.3821138211385 11.8781838316721  26.6829268292681 14.6245847176079  26.6829268292681 14.6245847176079  C 26.6829268292681 14.6245847176079  26.6829268292681 15.9977851605755  26.6829268292681 16.6843853820598  C 26.0325203252034 17.0963455149501  24.7317073170731 17.9202657807306  24.7317073170731 17.9202657807306  L 21.0243902439023 17.9202657807306  L 21.8048780487805 22.0398671096347  C 21.8048780487805 22.0398671096347  21.2845528455287 24.511627906977  21.0243902439023 25.7475083056478  C 20.4390243902442 26.5714285714284  19.2682926829264 28.2192691029894  19.2682926829264 28.2192691029894  L 17.1219512195122 30.8970099667774  L 14.975609756098 30.8970099667774  L 12.4390243902439 29.0431893687705  C 12.4390243902439 29.0431893687705  11.4634146341464 27.1893687707638  9.12195121951193 26.7774086378735  C 6.78048780487808 26.3654485049832  4.04878048780468 26.7774086378735  4.04878048780468 26.7774086378735  L 1.12195121951222 25.7475083056478  L 0.146341463414653 23.8936877076409  L 1.12195121951222 22.0398671096347  L 4.04878048780468 19.1561461794021  L 6.97560975609773 15.4485049833884  L 5.60975609756086 13.3887043189371  L 5.60975609756086 10.5049833887045  Z " fill-rule="nonzero" fill="#4c48c7" stroke="none" transform="matrix(1 0 0 1 711 297 )" />
  </g>
</svg>