<?xml version="1.0" encoding="utf-8"?>
<svg version="1.1" xmlns:xlink="http://www.w3.org/1999/xlink" width="28px" height="69px" xmlns="http://www.w3.org/2000/svg">
  <g transform="matrix(1 0 0 1 -825 -598 )">
    <path d="M 10.4260162601627 11.5726315789472  C 12.4899728997287 9.11929824561376  16.6178861788615 4.21263157894752  16.6178861788615 4.21263157894752  L 21.3528455284554 0.338947368421199  L 27.7268292682929 3.24421052631567  L 25.5414634146343 6.53684210526336  L 26.452032520325 11.5726315789472  L 27.7268292682929 16.6084210526314  L 25.5414634146343 22.2252631578951  L 23.9024390243902 39.2694736842102  L 18.2569105691056 54.9578947368418  L 16.6178861788615 68.7094736842098  L 12.9756097560974 65.4168421052633  L 10.4260162601627 60.5747368421048  L 5.32682926829255 56.7010526315784  L 0.59186991869912 53.9894736842105  C 0.59186991869912 53.9894736842105  1.68455284552857 44.9508771929829  2.23089430894271 40.4315789473681  C 1.68455284552857 37.0098245614034  0.59186991869912 30.1663157894733  0.59186991869912 30.1663157894733  C 0.59186991869912 30.1663157894733  3.74850948509462 25.5178947368416  5.32682926829255 23.1936842105264  C 7.02655826558263 19.32  8.72628726287271 15.4463157894742  10.4260162601627 11.5726315789472  Z " fill-rule="nonzero" fill="#ff6600" stroke="none" transform="matrix(1 0 0 1 825 598 )" />
  </g>
</svg>