<?xml version="1.0" encoding="utf-8"?>
<svg version="1.1" xmlns:xlink="http://www.w3.org/1999/xlink" width="140px" height="97px" xmlns="http://www.w3.org/2000/svg">
  <g transform="matrix(1 0 0 1 -781 -179 )">
    <path d="M 6.33165829145718 10.7936274509803  L 10.4589614740371 12.505392156863  L 18.1507537688447 5.84852941176477  L 18.1507537688447 3.18578431372542  L 19.2763819095476 3.18578431372542  L 26.2177554438863 0.332843137254935  L 27.155778894473 4.7073529411769  L 31.0954773869346 10.7936274509803  L 35.2227805695145 14.5975490196075  L 40.1005025125629 15.3583333333336  L 46.1038525963148 13.2661764705885  L 50.7939698492464 12.505392156863  L 53.0452261306533 13.2661764705885  L 55.4840871021776 12.505392156863  L 56.7973199329983 10.7936274509803  L 58.6733668341707 13.2661764705885  L 60.3618090452265 16.3093137254902  L 62.2378559463989 18.5916666666664  L 65.2395309882743 18.5916666666664  L 66.9279731993301 15.3583333333336  L 73.3065326633164 15.3583333333336  L 74.9949748743716 17.8308823529416  L 74.9949748743716 21.4446078431376  L 77.4338358458963 22.3955882352943  L 80.6231155778895 22.3955882352943  L 82.8743718592964 22.3955882352943  L 87.0016750418758 25.2485294117647  L 87.7520938023454 27.530882352941  L 87.0016750418758 30.1936274509804  L 93.0050251256282 32.2857843137254  L 95.6314907872696 27.530882352941  L 94.8810720268006 25.2485294117647  C 94.8810720268006 25.2485294117647  95.0765213328779 22.4452353641057  95.6314907872696 22.3955882352943  C 96.2232374812636 22.3426510436917  96.9447236180903 25.2485294117647  96.9447236180903 25.2485294117647  L 97.8827470686771 28.2916666666665  L 98.6331658291456 30.1936274509804  L 100.509212730318 31.3348039215688  L 103.698492462312 33.2367647058826  L 110.452261306533 39.7034313725491  L 116.268006700168 36.8504901960787  L 114.016750418761 31.3348039215688  L 118.519262981574 27.530882352941  L 122.646566164154 29.2426470588237  L 126.398659966499 28.2916666666665  L 136.716917922948 33.2367647058826  L 139.906197654942 33.2367647058826  L 139.906197654942 41.7955882352943  L 134.090452261307 45.0289215686278  L 138.780569514238 50.544607843137  L 136.716917922948 53.2073529411769  L 128.274706867672 44.0779411764706  L 123.58458961474 45.0289215686278  L 122.646566164154 56.0602941176468  L 119.269681742044 59.3371974722965  L 117.206030150754 62.5269607843139  L 113.135377249669 66.8777865999742  L 110.452261306533 68.5667384217186  L 107.075376884422 68.5667384217186  L 100.509212730318 68.5667384217186  L 104.448911222781 72.4171568627451  L 110.452261306533 77.7426470588237  L 109.701842546064 81.3563725490196  L 96.9447236180903 80.5955882352942  L 90.9413735343385 77.7426470588237  L 87.0016750418758 77.7426470588237  L 77.4338358458963 96.7622549019607  L 77.4338358458963 90.2955882352943  L 74.9949748743716 88.2034313725492  L 73.3065326633164 87.3695824200075  L 70.5245688236616 87.3695824200075  L 70 85.5406862745099  L 70 73.9387254901966  L 66.9279731993301 72.4171568627451  L 62.88881554522 68.5667384217186  L 60.3618090452265 64.0485294117647  L 60.3618090452265 58.1524509803925  L 57.9229480737018 56.0602941176468  L 55.4840871021776 56.0602941176468  L 54.0351447038313 59.3371974722965  L 53.0452261306533 61.5759803921572  L 49.6683417085429 60.0544117647057  L 48.5427135678395 56.8210784313722  L 45.3534338358463 56.8210784313722  L 43.1021775544388 58.1524509803925  L 41.4887723596155 55.9081347914298  L 38.4120603015078 54.3485294117648  L 36.348408710218 56.8210784313722  L 32.7839195979898 58.1524509803925  L 31.0954773869346 56.0602941176468  L 31.8458961474035 52.0661764705878  L 32.7839195979898 46.3602941176474  L 31.0954773869346 41.7955882352943  L 27.9061976549409 39.7034313725491  L 25.4673366834172 35.138725490196  L 22.8408710217753 32.2857843137254  L 19.2763819095476 37.611274509804  L 15.1490787269683 39.7034313725491  L 13.0854271356791 37.611274509804  L 10.4589614740371 33.2367647058826  L 9.14572864321581 28.2916666666665  L 9.14572864321581 23.1563725490197  L 8.39530988274738 20.3034313725491  L 8.39530988274738 16.3093137254902  L 4.8308207705197 14.5975490196075  L 0.140703517588029 10.7936274509803  L 2.01675041876058 9.08186274509832  L 4.8308207705197 8.32107843137224  L 6.33165829145718 10.7936274509803  Z " fill-rule="nonzero" fill="#4c48c7" stroke="none" transform="matrix(1 0 0 1 781 179 )" />
  </g>
</svg>