<?xml version="1.0" encoding="utf-8"?>
<svg version="1.1" xmlns:xlink="http://www.w3.org/1999/xlink" width="181px" height="164px" xmlns="http://www.w3.org/2000/svg">
  <g transform="matrix(1 0 0 1 -431 -443 )">
    <path d="M 5.52671755725219 5.37241379310393  L 6.92955589586543 2.2778603089487  L 20.448854961832 3.96545768566514  L 21.8305343511448 7.08117443868717  L 21.8305343511448 10.4801381692573  C 21.8305343511448 10.4801381692573  21.9079083969461 13.6751640759935  23.7648854961834 15.578583765112  C 25.157618320611 17.0061485319517  27.0809160305347 16.9948186528495  27.0809160305347 16.9948186528495  L 32.3312977099234 25.4922279792743  L 34.265648854962 28.1885213232363  L 37.3053435114504 29.3274514777101  L 40.068702290076 26.9084628670118  L 41.174045801527 29.3274514777101  L 46.1480916030534 31.1571675302246  L 48.6351145038166 35.4058721934373  L 53.0564885496184 37.1053540587223  L 53.0564885496184 31.1571675302246  L 61.0702290076338 31.1571675302246  C 61.0702290076338 31.1571675302246  62.359796437659 29.178070058899  63.0045801526718 28.1885213232363  C 62.6361323155218 26.8176785793366  61.8992366412213 24.0759930915374  61.8992366412213 24.0759930915374  L 61.8992366412213 21.8100172711573  L 63.8335877862594 21.8100172711573  L 66.5969465648854 22.6597582037998  L 67.9096477794793 18.6943005181352  L 70.465648854962 18.6943005181352  L 71.8144403203661 17.24527234473  L 74.0580152671756 18.6943005181352  L 80.1374045801531 18.6943005181352  L 82.0717557251906 16.9948186528495  L 80.1374045801531 8.2141623488779  L 87.8667687595707 0  C 87.8667687595707 0  88.9447081648706 7.11323128228705  93.9541984732825 10.4801381692573  C 99.4662583743301 14.1848249337099  106.941984732824 12.1796200345418  106.941984732824 12.1796200345418  L 107.770992366412 17.24527234473  L 111.087022900763 20.6770293609679  L 113.850381679389 21.8100172711573  L 112.468702290076 29.3274514777101  L 116.06106870229 32.0069084628671  L 119.929770992367 32.0069084628671  L 125.456488549618 35.4058721934373  C 125.456488549618 35.4058721934373  128.404071246819 33.1398963730572  129.87786259542 32.0069084628671  C 131.026793542429 30.7341127496569  133.324655436447 28.1885213232363  133.324655436447 28.1885213232363  C 133.324655436447 28.1885213232363  135.263943669656 30.7341127496569  136.23358778626 32.0069084628671  C 137.523155216285 32.5734024179621  140.102290076336 33.7063903281515  140.102290076336 33.7063903281515  L 148.116030534351 32.8566493955096  L 151.708396946565 30.307426597582  L 152.813740458015 33.7063903281515  L 154.748091603054 35.4058721934373  L 156.406106870229 38.8048359240068  L 159.72213740458 38.8048359240068  L 162.209160305344 37.1053540587223  L 165.487987557307 39.1510766687879  L 168.564885496183 41.8556831769268  L 174.644274809161 41.0708117443869  L 181 41.8556831769268  L 176.025954198474 45.3195164075989  L 176.025954198474 53.2504317789293  L 170.775572519084 59.1986183074264  L 168.564885496183 64.0138169257341  L 162.209160305344 69.3955094991363  L 160.827480916031 73.3609671848014  L 156.406106870229 75.9101899827292  L 150.879389312977 83.8411053540589  L 134.299236641221 82.9913644214163  L 130.98320610687 85.8238341968907  C 130.98320610687 85.8238341968907  129.838359432146 91.2404147063634  131.812213740458 96.8704663212439  C 133.478243011749 101.622504376824  137.062595419847 104.518134715025  137.062595419847 104.518134715025  L 140.102290076336 105.651122625216  L 142.036641221374 111.032815198618  C 142.036641221374 111.032815198618  138.573819723724 109.043561448316  135.404580152672 110.183074265976  C 131.875356724561 111.452020725388  129.87786259542 114.715025906736  129.87786259542 114.715025906736  L 136.23358778626 120.946459412781  C 136.23358778626 120.946459412781  140.924577627626 121.884467229535  142.748851454824 124.628670120898  C 143.907662450481 126.37183632622  142.748851454824 128.129642378347  142.748851454824 128.129642378347  C 142.748851454824 128.129642378347  136.46605410924 130.327612514141  133.324655436447 131.426597582038  C 131.715164693 131.14335060449  128.496183206107 130.576856649395  128.496183206107 130.576856649395  L 128.496183206107 127.177892918826  L 127.015181307687 123.571557542166  L 124.074809160305 122.719724144594  L 118.824427480916 124.628670120898  C 118.824427480916 124.628670120898  115.243114503817 127.129976501743  113.850381679389 126.044905008636  C 111.837497149891 124.476676283379  113.850381679389 118.397236614853  113.850381679389 118.397236614853  L 109.152671755725 111.032815198618  L 103.625954198474 112.165803108808  L 100.309923664122 115.564766839378  L 100.309923664122 119.530224525043  L 92.5725190839692 115.564766839378  L 95.6122137404581 123.571557542166  L 95.6122137404581 127.177892918826  L 92.5725190839692 132.27633851468  L 85.3877862595419 136.808290155441  L 83.7297709923662 140.773747841106  L 85.3877862595419 145.305699481865  L 86.7694656488547 148.421416234887  L 86.7694656488547 152.386873920553  L 83.7297709923662 155.502590673575  C 83.7297709923662 155.502590673575  79.9706236908187 153.702059289149  76.8213740458012 154.652849740933  C 70.7281156516735 156.492466333587  68.8076335877863 164  68.8076335877863 164  L 67.9096477794793 156.365517241379  L 66.3950003620026 154.255142567697  L 63.0045801526718 157.213793103449  L 61.0702290076338 147.317241379311  L 54.9908396946564 135.441379310345  L 53.0564885496184 129.220689655172  C 53.0564885496184 129.220689655172  52.5935367296332 123.315291112586  50.2931297709923 122.719724144594  C 48.5443019165745 122.266958994114  46.1480916030534 126.044905008636  46.1480916030534 126.044905008636  L 41.174045801527 122.719724144594  L 40.068702290076 116.779310344828  L 38.6870229007638 111.032815198618  L 32.3312977099234 111.032815198618  L 32.3312977099234 115.564766839378  L 30.3969465648854 118.397236614853  L 28.4625954198475 121.868965517241  L 26.3323124042879 122.719724144594  L 26.3323124042879 116.779310344828  L 22.6595419847329 113.951724137931  C 22.6595419847329 113.951724137931  22.9358778625952 111.689655172414  23.7648854961834 106.6  C 24.5938931297709 101.510344827586  22.6595419847329 100.662068965517  22.6595419847329 100.662068965517  L 25.422900763359 91.8965517241381  L 22.6595419847329 83.8411053540589  L 23.7648854961834 75.9101899827292  L 19.6198473282445 64.7517241379308  L 18.7908396946564 52.0275862068963  L 11.427954210789 43.1329069272429  L 10.5007633587786 37.1053540587223  L 0 29.3274514777101  L 1.92278592483875 24.8773468152083  L 5.52671755725219 24.0759930915374  L 4.52096671925922 18.8641051340039  L 6.92955589586543 18.6943005181352  L 6.92955589586543 13.2896551724135  L 5.52671755725219 10.4801381692573  L 5.52671755725219 5.37241379310393  Z " fill-rule="nonzero" fill="#169bd5" stroke="none" transform="matrix(1 0 0 1 431 443 )" />
  </g>
</svg>