<?xml version="1.0" encoding="utf-8"?>
<svg version="1.1" xmlns:xlink="http://www.w3.org/1999/xlink" width="20px" height="31px" xmlns="http://www.w3.org/2000/svg">
  <g transform="matrix(1 0 0 1 -731 -307 )">
    <path d="M 2.41379310344832 11.6126984126986  C 2.41379310344832 10.3005291005291  2.41379310344832 7.67619047619033  2.41379310344832 7.67619047619033  C 2.41379310344832 7.67619047619033  6.09195402298838 5.83915343915373  7.53694581280797 4.92063492063502  C 8.85057471264367 3.47724867724864  8.70551967164715 0.420521275066978  10.6896551724139 0.590476190476544  C 12.4298571247527 0.739536511956728  13.4482758620686 4.92063492063502  13.4482758620686 4.92063492063502  L 13.4482758620686 8.85714285714274  L 16.6009852216746 13.7777777777779  L 19.9189203139185 18.4874993271361  L 19.9189203139185 20.4698412698413  L 15.4187192118229 20.4698412698413  L 13.4482758620686 24.4063492063491  L 12.6600985221676 26.768253968254  L 14.2364532019706 28.9333333333333  L 10.6896551724139 30.9015873015875  L 7.53694581280797 30.9015873015875  L 3.20197044335032 28.9333333333333  L 1.62561576354733 26.768253968254  L 0.0492610837443408 23.6190476190474  L 0.0492610837443408 18.4874993271361  L 0.837438423644699 14.7619047619047  C 0.837438423644699 14.7619047619047  1.88834154351412 12.6624338624341  2.41379310344832 11.6126984126986  Z " fill-rule="nonzero" fill="#169bd5" stroke="none" transform="matrix(1 0 0 1 731 307 )" />
  </g>
</svg>