<?xml version="1.0" encoding="utf-8"?>
<svg version="1.1" xmlns:xlink="http://www.w3.org/1999/xlink" width="50px" height="80px" xmlns="http://www.w3.org/2000/svg">
  <g transform="matrix(1 0 0 1 -541 -342 )">
    <path d="M 15.7004830917875 31.1578947368422  L 20.9178743961355 32.0935672514623  L 23.6231884057973 30.2222222222221  L 23.6231884057973 27.0409356725143  L 25.748792270532 23.2982456140354  L 25.748792270532 14.6900584795323  L 29.0338164251206 5.1461988304091  L 35.2173913043478 0.0935672514618305  C 35.2173913043478 0.0935672514618305  37.7938808373594 1.34113060428838  39.0821256038645 1.96491228070138  C 40.3703703703703 3.0253411306048  42.9468599033818 5.1461988304091  42.9468599033818 5.1461988304091  L 42.9468599033818 7.7660818713449  C 42.9468599033818 7.7660818713449  40.8856682769727 12.382066276803  39.8550724637678 14.6900584795323  C 39.5974235104669 16.9356725146199  39.0821256038645 21.4269005847953  39.0821256038645 21.4269005847953  L 41.9806763285025 25.1695906432749  L 47.1980676328501 25.1695906432749  L 49.710144927536 27.9766081871345  L 47.971014492754 41.6374269005848  L 44.1062801932368 41.6374269005848  L 40.6280193236718 39.017543859649  L 36.3768115942028 44.6315789473682  L 37.7294685990338 60.9122807017542  L 40.6280193236718 60.9122807017542  L 42.9468599033818 61.8479532163744  L 42.9468599033818 65.2163742690058  L 42.9468599033818 69.1461988304092  L 40.6280193236718 71.0175438596494  L 37.7294685990338 69.8947368421049  L 33.4782608695653 72.3274853801169  L 34.2512077294687 78.6900584795318  L 33.4782608695653 79.6257309941519  L 31.1594202898548 77.3801169590642  L 29.0338164251206 76.4444444444448  L 27.2946859903381 72.3274853801169  L 20.9178743961355 69.8947368421049  C 20.9178743961355 69.8947368421049  20.4025764895332 67.3996101364525  20.1449275362323 66.1520467836259  C 20.4025764895332 64.7173489278749  20.9178743961355 61.8479532163744  20.9178743961355 61.8479532163744  L 20.1449275362323 56.2339181286552  L 16.6666666666666 53.2397660818713  L 16.6666666666666 44.6315789473682  L 13.961352657005 42.3859649122805  L 11.8357487922703 37.8947368421051  L 3.52657004830936 36.9590643274851  L 0.628019323671845 35.4619883040938  L 12.6086956521741 34.1520467836255  L 15.7004830917875 31.1578947368422  Z " fill-rule="nonzero" fill="#4c48c7" stroke="none" transform="matrix(1 0 0 1 541 342 )" />
  </g>
</svg>