<?xml version="1.0" encoding="utf-8"?>
<svg version="1.1" xmlns:xlink="http://www.w3.org/1999/xlink" width="83px" height="100px" xmlns="http://www.w3.org/2000/svg">
  <g transform="matrix(1 0 0 1 -715 -427 )">
    <path d="M 13.4517241379313 22.5714285714287  L 13.4517241379313 19.9047619047621  L 11.1620689655176 12.6666666666665  L 15.5505747126437 13.6190476190475  L 20.7022988505748 19.9047619047621  L 22.8011494252877 18.9523809523811  L 27.1896551724138 9.80952380952351  L 23.9459770114943 6.00000000000016  L 21.4655172413792 0.857142857142957  L 22.8011494252877 0.0952380952380468  L 27.1896551724138 6.00000000000016  L 31.3873563218392 9.80952380952351  L 46.4609195402297 14.9523809523808  L 49.7045977011499 18.9523809523811  L 52.1850574712644 26.571428571429  L 53.5206896551723 28.4761904761903  C 53.5206896551723 28.4761904761903  56.7610166226316 32.2156496386488  61.152873563218 32.4761904761904  C 64.3379035721098 32.6651379754689  66.4664010492875 30.9644299499484  68.4034482758621 29.8095238095243  C 69.947109459371 28.8891622638106  71.6471264367811 28.4761904761903  71.6471264367811 28.4761904761903  L 70.1206896551723 34.5714285714287  L 63.4425287356318 34.5714285714287  L 63.4425287356318 39.1428571428568  L 58.2908045977012 47.7142857142857  L 59.6264367816092 51.7142857142858  L 68.4034482758621 57.0476190476193  L 69.3574712643679 59.7142857142861  L 73.745977011494 61.8095238095237  L 76.9896551724141 59.7142857142861  C 76.9896551724141 59.7142857142861  79.2793103448274 61.1111111111111  80.4241379310339 61.8095238095237  C 81.1237547892715 63.0158730158731  82.5229885057469 65.4285714285713  82.5229885057469 65.4285714285713  L 77.752873563218 71.9047619047621  L 80.4241379310339 77.0476190476188  L 78.8977011494251 79.1428571428571  L 69.3574712643679 76.0952380952385  L 73.745977011494 84.4761904761905  L 71.6471264367811 89.6190476190478  L 68.4034482758621 93.9999999999998  L 62.6441051991818 97.9356790292286  L 59.6264367816092 95.7142857142855  L 53.5206896551723 95.7142857142855  L 47.6057471264369 90.761904761905  L 43.4080459770116 93.9999999999998  L 40.164367816092 97.8095238095237  L 36.5390804597703 99.7142857142857  L 42.4540229885058 88.2857142857138  L 28.334482758621 96.6666666666665  L 27.1896551724138 95.7142857142855  L 28.334482758621 93.9999999999998  L 20.7022988505748 77.0476190476188  L 23.9459770114943 71.9047619047621  L 21.4655172413792 68.8571428571429  C 21.4655172413792 68.8571428571429  17.176926958571 68.3492063492066  15.032631817166 68.0952380952381  C 14.5056625907545 67.2063492063495  13.4517241379313 65.4285714285713  13.4517241379313 65.4285714285713  L 15.032631817166 61.0476190476188  L 15.5505747126437 59.7142857142861  L 17.4586206896552 58.9523809523807  C 17.4586206896552 58.9523809523807  19.1122605363987 57.6825396825396  19.9390804597704 57.0476190476193  C 19.934145373275 55.6507936507937  19.9242752002841 52.857142857143  19.9242752002841 52.857142857143  L 19.9390804597704 47.7142857142857  L 19.9242752002841 47.7020763331937  L 15.5505747126437 44.0952380952379  C 15.5505747126437 44.0952380952379  15.2052794489921 44.0413785715408  15.032631817166 44.0144488096911  C 13.1700304068464 43.72391825408  9.44482758620684 43.1428571428569  9.44482758620684 43.1428571428569  L 0.667816091954011 33.4285714285714  C 0.667816091954011 33.4285714285714  6.39195402298869 35.3333333333334  7.53678160919524 33.4285714285714  C 8.68160919540239 31.5238095238094  7.53678160919524 24.666666666667  7.53678160919524 24.666666666667  L 13.4517241379313 22.5714285714287  Z " fill-rule="nonzero" fill="#ff6600" stroke="none" transform="matrix(1 0 0 1 715 427 )" />
  </g>
</svg>