<?xml version="1.0" encoding="utf-8"?>
<svg version="1.1" xmlns:xlink="http://www.w3.org/1999/xlink" width="113px" height="77px" xmlns="http://www.w3.org/2000/svg">
  <g transform="matrix(1 0 0 1 -711 -350 )">
    <path d="M 12.9043209876539 23.2815533980578  L 20.8761022927688 13.6699029126212  L 26.4563492063491 7.90291262135943  L 30.8408289241627 6.62135922330104  L 32.8338369638726 4.05820201774116  L 37.6168430335097 0.213592233009777  C 37.6168430335097 0.213592233009777  38.812534365634 2.06472491909387  39.4103800316962 2.99029126213619  C 39.6097124961452 5.26860841423984  40.0083774250443 9.82524271844701  40.0083774250443 9.82524271844701  L 44.1935626102293 2  L 54.3575837742506 2  L 55.7526455026455 14.5242718446605  C 55.7526455026455 14.5242718446605  56.1512345679016 17.9417475728157  59.1406525573193 18.7961165048542  C 62.130070546738 19.6504854368928  70.5004409171074 17.9417475728157  70.5004409171074 17.9417475728157  L 70.5004409171074 12.388349514563  L 81.8602292768961 1.28155339805825  C 81.8602292768961 1.28155339805825  87.5733392122281 3.13268608414221  90.4298941798941 4.05825242718453  C 94.2829218106998 4.56055542085457  101.988977072311 5.56516140819313  101.988977072311 5.56516140819313  L 103.583333333333 2.99029126213619  L 104.781320814389 5.56516140819313  L 112.352292768959 4.05825242718453  L 109.960758377425 9.82524271844701  L 111.35582010582 13.6699029126212  L 109.960758377425 14.5242718446605  L 105.177689594357 12.388349514563  L 89.4334215167549 24.7766990291259  L 85.8461199294535 24.7766990291259  L 85.8461199294535 27.1262135922325  L 87.4404761904769 27.1262135922325  L 87.4404761904769 29.4757281553399  L 83.8531746031746 31.6116504854367  L 83.8531746031746 35.2427184466017  C 83.8531746031746 35.2427184466017  78.2729276895942 33.7475728155344  76.8778659611994 35.2427184466017  C 75.4828042328046 36.7378640776697  78.0736331569667 43.3592233009709  78.0736331569667 43.3592233009709  C 78.0736331569667 43.3592233009709  76.5457084068197 47.1326860841426  75.4828042328041 48.6990291262137  C 74.0213109935334 49.0550161812296  70.5004409171074 49.7669902912615  70.5004409171074 49.7669902912615  L 67.9096119929453 61.0873786407767  L 65.1194885361551 60.2330097087381  L 61.1335978835982 62.5825242718447  L 59.1406525573193 65.1456310679613  L 57.3470017636683 69.2038834951459  L 55.7526455026455 70.6990291262134  L 54.3575837742506 74.3300970873782  C 54.3575837742506 74.3300970873782  52.2777916329086 71.1495051374475  49.1759259259259 70.6990291262134  C 46.5549143098494 70.3183863228998  44.1935626102293 72.4077669902912  44.1935626102293 72.4077669902912  L 39.4103800316962 74.3300970873782  L 33.6309523809523 74.3300970873782  C 33.6309523809523 74.3300970873782  31.6351459047396 74.1283316794785  30.8408289241627 72.4077669902912  C 29.9970582341817 70.5800809525381  30.8408289241627 67.9223300970869  30.8408289241627 67.9223300970869  L 24.8619929453262 65.1456310679613  C 24.8619929453262 65.1456310679613  22.7361845972961 69.9870550161815  21.6732804232805 72.4077669902912  C 20.2782186948851 73.7605177993532  17.4880952380955 76.4660194174758  17.4880952380955 76.4660194174758  L 8.32054673721332 74.3300970873782  L 5.72971781305123 72.4077669902912  L 4.13536155202832 69.2038834951459  L 0.348765432098376 66.6407766990294  L 0.348765432098376 64.0776699029129  L 9.31701940035309 58.5242718446602  L 8.32054673721332 52.7572815533984  L 5.72971781305123 46.7766990291261  L 5.72971781305123 42.2912621359225  L 4.13536155202832 36.9514563106797  L 12.9043209876539 23.2815533980578  Z " fill-rule="nonzero" fill="#169bd5" stroke="none" transform="matrix(1 0 0 1 711 350 )" />
  </g>
</svg>