<?xml version="1.0" encoding="utf-8"?>
<svg version="1.1" xmlns:xlink="http://www.w3.org/1999/xlink" width="55px" height="126px" xmlns="http://www.w3.org/2000/svg">
  <g transform="matrix(1 0 0 1 -639 -307 )">
    <path d="M 6.08928571428573 44.5423728813557  C 6.88712103027813 40.8981181326058  4.91071428571461 37.4237288135591  4.91071428571461 37.4237288135591  L 10.2142857142861 31.9322033898309  L 9.42857142857118 27.8644067796611  L 11.9821428571425 25.4237288135592  L 16.3035714285712 24.203389830508  C 16.3035714285712 24.203389830508  18.6607142857146 21.7627118644067  19.8392857142857 20.5423728813561  C 21.1488095238095 19.1864406779665  23.7678571428571 16.4745762711869  23.7678571428571 16.4745762711869  L 23.7678571428571 12.6101694915255  L 24.5535714285714 12.6101694915255  L 28.6785714285717 11.5932203389831  L 30.8392045025627 10.3985968193826  L 30.8392045025627 8.33898305084734  L 33.8561826580247 7.01472820778392  L 39.8750000000004 8.33898305084734  L 44.3928571428571 6.31262948507676  L 48.9107142857143 0.406779661016689  L 50.8750000000003 1.42372881355956  L 52.0535714285714 4.88135593220379  L 51.2072735643084 6.31262948507676  L 45.3749999999997 8.33898305084734  L 46.160714285714 14.8474576271184  L 54.8035714285715 17.4915254237293  L 55 23.3898305084746  L 53.2321428571425 29.491525423729  C 53.2321428571425 29.491525423729  50.3511904761907 29.491525423729  48.9107142857143 29.491525423729  C 48.2559523809526 30.3050847457624  46.9464285714289 31.9322033898309  46.9464285714289 31.9322033898309  L 46.160714285714 36.2033898305085  C 46.160714285714 36.2033898305085  44.9821428571429 40.542372881356  44.3928571428571 42.7118644067801  C 44.9821428571429 44.8135593220342  46.160714285714 49.0169491525422  46.160714285714 49.0169491525422  L 53.2321428571425 52.881355932203  L 54.8035714285715 57.5593220338985  L 46.160714285714 77.491525423729  L 45.3749999999997 80.5423728813564  L 49.8928571428575 85.8305084745762  L 49.8928571428575 88.8813559322037  L 48.125 92.9491525423729  L 48.9107142857143 95.7966101694915  L 48.125 98.0338983050844  L 48.9107142857143 100.881355932203  L 46.160714285714 102.915254237288  L 46.160714285714 108  L 38.4999999999997 110.847457627119  L 28.6785714285717 110.033898305085  L 23.7678571428571 113.898305084746  L 7.66071428571427 120.813559322034  L 3.92857142857138 125.694915254237  L 0.392857142857438 124.677966101695  L 0 116.745762711864  L 3.92857142857138 98.0338983050844  C 3.92857142857138 98.0338983050844  1.14945196053435 93.2664663209363  0.392857142857438 86.8474576271185  C -0.498569400419047 79.2845261907639  1.37500000000007 73.0169491525425  1.37500000000007 73.0169491525425  L 6.08928571428573 69.1525423728817  C 6.08928571428573 69.1525423728817  5.30357142857145 62.9152542372877  4.91071428571461 60.6101694915254  C 3.7321428571429 58.7796610169491  1.37500000000007 56.7457627118651  1.37500000000007 56.7457627118651  L 0.392857142857438 52.881355932203  C 0.392857142857438 52.881355932203  4.9609761898684 49.6961273717807  6.08928571428573 44.5423728813557  Z " fill-rule="nonzero" fill="#4c48c7" stroke="none" transform="matrix(1 0 0 1 639 307 )" />
  </g>
</svg>