<?xml version="1.0" encoding="utf-8"?>
<svg version="1.1" xmlns:xlink="http://www.w3.org/1999/xlink" width="133px" height="104px" xmlns="http://www.w3.org/2000/svg">
  <g transform="matrix(1 0 0 1 -641 -610 )">
    <path d="M 31.3851851851854 34.8993288590607  L 34.9506172839504 31.1767337807606  L 38.891358024691 24.4760626398204  L 37.7654320987655 20.9395973154367  L 37.7654320987655 16.6586129753915  L 40.7679012345681 13.6805369127515  C 40.7679012345681 13.6805369127515  39.4186987103259 9.34631709672877  40.7679012345681 8.46890380313202  C 41.9763950617287 7.68299617982963  45.0839506172842 10.330201342282  45.0839506172842 10.330201342282  C 45.0839506172842 10.330201342282  50.7135802469139 15.3557046979866  54.4666666666669 12.9360178970915  C 58.21975308642 10.5163310961964  51.8395061728394 4.56017897091752  51.8395061728394 2.69888143176753  C 51.8395061728394 0.837583892617536  54.4666666666669 0.0930648769574597  54.4666666666669 0.0930648769574597  L 57.093827160494 0.0930648769574597  L 67.0395061728397 4.00178970917196  L 70.4172839506173 1.58210290827748  L 73.9827160493829 6.79373601789695  L 82.614814814815 2.69888143176753  L 82.614814814815 4.74630872483257  L 76.7975308641974 11.819239373602  L 74.9209876543214 14.7973154362415  L 78.1111111111115 20.1950782997766  L 82.614814814815 17.589261744966  L 85.2419753086416 16.6586129753915  L 96.5012345679014 12.9360178970915  L 101.380246913581 15.9140939597316  L 105.508641975309 14.7973154362415  L 105.508641975309 11  L 116.955555555556 11  L 120.896296296296 14.7973154362415  L 123.523456790124 23.1731543624154  L 129.716049382716 28.9431767337811  L 132.718518518518 29.8738255033556  L 132.827191130981 32.6469610131302  L 128.402469135803 32.6469610131302  L 126.901234567901 34.8993288590607  C 126.901234567901 34.8993288590607  123.648559670782 35.8920208799402  122.022222222222 36.3883668903807  C 121.3341563786 38.0014914243099  119.958024691358 41.22774049217  119.958024691358 41.22774049217  L 110.387654320988 48.6729306487696  L 108.698765432099 48.6729306487696  C 108.698765432099 48.6729306487696  105.853975138482 45.877139713123  104.007407407407 46.6255033557052  C 101.458859116507 47.6583606130789  101.380246913581 53.1400447427291  101.380246913581 53.1400447427291  C 101.380246913581 53.1400447427291  98.1275720164609 50.1619686800896  96.5012345679014 48.6729306487696  C 95.3753086419754 48.9211036539899  93.1234567901239 49.4174496644297  93.1234567901239 49.4174496644297  L 90.3086419753088 49.4174496644297  L 90.3086419753088 53.1400447427291  L 88.8074074074078 53.1400447427291  L 86.7432098765432 51.0926174496646  L 81.8641975308641 53.1400447427291  L 84.1667204336034 55.5191856836933  L 82.614814814815 58.3516778523491  L 74.9209876543214 59.8407158836686  L 68.3530864197533 48.6729306487696  L 64.0370370370372 48.6729306487696  L 65.1629629629631 64.8662192393737  C 65.1629629629631 64.8662192393737  64.4123456790127 65.8589112602539  64.0370370370372 66.3552572706937  C 63.3489711934156 66.3552572706937  61.9728395061725 66.3552572706937  61.9728395061725 66.3552572706937  L 57.093827160494 61.5158836689036  L 55.852360417992 68.4409151722747  L 50.5182476807172 70.2586052939359  L 48.8370370370368 73.4281879194625  L 38.891358024691 73.4281879194625  L 38.891358024691 76.7785234899332  L 37.9238082047846 76.1615804852232  L 36.2641975308646 73.4281879194625  L 33.6370370370369 73.4281879194625  L 31.3851851851854 76.7785234899332  L 16.9358024691361 84.0375838926172  L 8.67901234567876 84.0375838926172  L 9.42962962962935 89.8076062639822  L 6.0518518518517 89.8076062639822  L 6.0518518518517 94.0885906040267  L 13.745679012346 100.417002237136  L 11.3061728395058 103.953467561521  L 4.73827160493879 103.953467561521  L 4.73827160493879 102.278299776287  L 1.73580246913619 98.5557046979862  L 1.61356780197303 96.1330378974142  L 0.422222222222175 92.2272930648767  L 0.422222222222175 84.9682326621922  L 1.61356780197303 79.0120805369126  L 3.98765432098722 73.4281879194625  L 10.1738880207663 73.4281879194625  L 10.1738880207663 68.6138078108958  L 15.434567901235 68.6138078108958  L 16.185185185185 63.9355704697993  L 15.434567901235 59.8407158836686  L 26.8814814814817 52.0232662192396  L 26.8814814814817 45.6948545861302  L 31.3851851851854 34.8993288590607  Z " fill-rule="nonzero" fill="#3497dc" stroke="none" transform="matrix(1 0 0 1 641 610 )" />
  </g>
</svg>