<?xml version="1.0" encoding="utf-8"?>
<svg version="1.1" xmlns:xlink="http://www.w3.org/1999/xlink" width="131px" height="102px" xmlns="http://www.w3.org/2000/svg">
  <g transform="matrix(1 0 0 1 -549 -595 )">
    <path d="M 0 38.3136863136864  L 0.800611153552971 36.2757242757243  L 9.40718105423976 33.6263736263732  L 14.8113063407182 34.4415584415588  L 18.2139037433155 36.2757242757243  L 26.6203208556151 36.2757242757243  L 29.4224598930479 32.6073926073921  C 29.4224598930479 32.6073926073921  31.824293353705 31.7922077922079  33.0252100840336 31.3846153846156  C 33.9592564298449 30.4335664335664  35.827349121467 28.5314685314685  35.827349121467 28.5314685314685  L 40.6310160427808 26.6973026973032  L 44.233766233766 21.8061938061938  L 47.0769081556382 22.687249147093  L 50.038197097021 26.6973026973032  L 54.4415584415581 25.6783216783214  C 54.4415584415581 25.6783216783214  56.8433919022158 26.9010989010992  58.0443086325439 27.5124875124874  C 59.5788133435197 27.5124875124874  62.6478227654693 27.5124875124874  62.6478227654693 27.5124875124874  C 62.6478227654693 27.5124875124874  62.3076827411455 24.0902409602791  64.4491978609624 22.687249147093  C 67.1616329478121 20.9102249339872  71.8548510313212 22.687249147093  71.8548510313212 22.687249147093  C 71.8548510313212 22.687249147093  70.1829093015409 20.0678336203569  71.0542398777694 18.1378621378625  C 71.8120117772771 16.4594197691623  74.4568372803668 16.0999000999003  74.4568372803668 16.0999000999003  L 78.0595874713525 13.4505494505493  L 82.8632543926663 13.4505494505493  L 84.2643239113827 10.8011988011988  L 85.6653934300991 9.17082917082897  L 89.2681436210848 12.635364635365  C 89.2681436210848 12.635364635365  92.0824776535394 8.60842733250005  95.472880061115 8.1518481518479  C 97.5594944299495 7.8708476792404  98.875477463713 9.98601398601391  98.875477463713 9.98601398601391  C 98.875477463713 9.98601398601391  101.544181308887 8.76323676323683  102.878533231474 8.1518481518479  C 103.745861981156 6.79320679320709  105.480519480519 4.07592407592428  105.480519480519 4.07592407592428  L 106.302105190082 3.71740642965724  L 106.302105190082 2.44555444555494  C 106.302105190082 2.44555444555494  108.890108401787 3.71740642965724  110.484339190222 3.71740642965724  C 111.418385536032 3.03808575033643  113.886936592819 0.407592407592135  113.886936592819 0.407592407592135  L 115.087853323148 2.44555444555494  L 115.087853323148 8.1518481518479  L 117.489686783805 9.98601398601391  L 116.689075630252 14.2657342657343  L 113.886936592819 20.5834165834161  L 112.085561497326 22.687249147093  L 110.484339190222 24.0479520479521  L 109.68372803667 27.5124875124874  C 109.68372803667 27.5124875124874  109.683728036669 30.1618381618385  110.484339190222 31.3846153846156  C 111.284950343774 32.6073926073921  116.689075630252 26.6973026973032  116.689075630252 26.6973026973032  L 117.489686783805 27.5124875124874  L 117.489686783805 32.6073926073921  C 117.489686783805 32.6073926073921  120.959001782531 33.8301698301699  122.693659281895 34.4415584415588  C 124.962057550293 33.8301698301699  129.498854087089 32.6073926073921  129.498854087089 32.6073926073921  L 130.699770817418 39.3326673326668  L 127.897631779985 45.4465534465531  L 124.695187165776 48.7072927072925  L 119.491214667685 60.3236763236764  L 119.491214667685 67.4565434565437  L 108.682964094729 72.9590409590407  L 106.681436210848 76.6273726273727  L 108.682964094729 80.4995004995009  L 107.882352941176 82.537462537463  L 103.679144385027 81.7222777222781  L 102.878533231474 87.0209790209794  L 97.0741023682198 87.8361638361638  L 93.2711993888463 96.395604395605  L 90.6692131398012 92.5234765234769  L 82.8632543926663 101.898101898102  L 81.4621848739493 99.0449550449555  L 76.609590433426 98.4232489927699  L 71.8548510313212 89.4665334665332  L 71.0542398777694 96.395604395605  L 66.8368987944476 95.5354607678839  L 64.4491978609624 98.4232489927699  L 56.0427807486629 92.5234765234769  L 51.2391138273491 95.1728271728273  L 38.8296409472876 87.8361638361638  C 38.8296409472876 87.8361638361638  35.962552170172 83.5069032405152  37.2284186401834 79.6843156843159  C 37.9319651210492 77.5597882663964  40.6310160427808 76.6273726273727  40.6310160427808 76.6273726273727  L 39.8304048892284 70.9210789210791  L 31.6241405653172 70.9210789210791  L 27.4209320091675 68.4755244755248  L 18.2139037433155 67.4565434565437  C 18.2139037433155 67.4565434565437  18.7581348378057 65.532062969336  20.0152788388081 64.6033966033967  C 21.7034312529944 63.3563394910973  24.4406149990363 62.7766790452343  26.6203208556151 60.3236763236764  C 30.4232238349886 56.043956043956  26.6203208556151 47.0769230769231  26.6203208556151 47.0769230769231  L 18.2139037433155 50.1338661338663  L 11.6088617265091 50.1338661338663  L 11.6088617265091 42.1858141858139  L 6.20473644003069 40.3516483516479  L 1.60122230710472 42.1858141858139  L 0.800611153552971 41.1668331668328  L 0 38.3136863136864  Z " fill-rule="nonzero" fill="#3497dc" stroke="none" transform="matrix(1 0 0 1 549 595 )" />
  </g>
</svg>