<?xml version="1.0" encoding="utf-8"?>
<svg version="1.1" xmlns:xlink="http://www.w3.org/1999/xlink" width="338px" height="263px" xmlns="http://www.w3.org/2000/svg">
  <g transform="matrix(1 0 0 1 -91 -129 )">
    <path d="M 127.712215320911 67.7207084468663  L 122.607143240646 59.1199935002821  L 129.111801242236 57.3625596763036  L 141.869919048394 59.1199935002821  L 148.356107660456 60.5544959128069  L 155.354037267081 63.7792915531337  L 160.432230281314 60.5544959128069  L 157.453416149068 50.5217983651225  L 175.492218640098 28.6812798381522  C 175.492218640098 28.6812798381522  193.087642756776 43.6610540417652  203.510801633185 38.0026957855511  C 210.993252930672 33.940741959665  209.814982806629 22.2279918745674  211.916376531111 17.9257998988451  C 214.017770255592 13.6236079231224  227.326597177308 10.038447943353  227.326597177308 10.038447943353  L 231.529384626271 1.43406399190738  L 240.635424099024 0  L 243.437282398333 12.1895439312143  L 249.04099899695 16.4917359069372  L 251.842857296259 24.3790878624293  L 267.253077942456 30.8323758260135  L 274.257723690728 57.3625596763036  L 266.552613367629 76.7224235670568  L 269.354471666938 88.9119674982718  C 269.354471666938 88.9119674982718  300.174912959333 85.3268075185025  314.184204455877 103.969639413301  C 319.372830936078 110.87439196693  325.741869940525 110.064411378909  325.741869940525 110.064411378909  L 327.493031377592 117.593247336423  L 333.07023573112 121.895439312146  L 338 139.104207215037  L 336.599070850346 151.293751146252  L 335.898606275518 156.312975117928  L 328.543728239834 156.312975117928  L 324.691173078284 159.898135097697  L 316.986062755185 158.46407110579  L 312.783275306222 162.049231085559  L 307.179558707605 164.200327073421  L 301.575842108988 170.653615037005  L 298.073519234852 177.106903000589  L 294.571196360715 180.692062980358  L 284.764692313136 180.692062980358  L 282.663298588654 187.862382939895  L 282.663298588654 195.749734895388  L 281.962834013827 201.485990863018  L 284.764692313136 205.071150842787  L 277.059581990037 207.939278826603  L 270.755400816592 209.37334281851  L 265.852148792802 209.37334281851  L 260.948896769012 210.807406810418  L 256.045644745221 212.241470802325  L 246.939605272468 212.241470802325  L 240.635424099024 215.10959878614  L 238.534030374543 221.562886749725  L 239.934959524197 229.450238705216  L 249.04099899695 238.054622656661  L 250.091695859191 243.432362626316  L 243.437282398333 250.468268332069  L 246.939605272468 258.131518543369  L 244.487979260573 261.716678523138  L 238.534030374543 261.716678523138  L 231.529384626271 258.131518543369  L 223.123809728345 258.131518543369  L 215.418699405246 252.395262575738  L 205.261963070252 250.468268332069  L 201.759640196116 248.093070600015  L 195.455459022672 247.017522606084  L 188.100580986987 250  L 174.791754065271 250  L 169.188037466653 253.829326567645  L 160.432230281314 257.414486547415  L 147.473635647011 255.621906557531  L 141.869919048394 258.131518543369  L 135.565737874949 258.131518543369  L 129.962021276332 255.621906557531  L 125.759233827369 255.621906557531  L 122.607143240646 253.829326567645  L 119.455052653924 249.168618593946  C 119.455052653924 249.168618593946  117.003426642029 243.432362626316  112.800639193066 249.168618593946  C 108.597851744104 254.904874561577  85.4825207748074 250.468268332069  85.4825207748074 250.468268332069  C 85.4825207748074 250.468268332069  79.1783396013628 245.941974612154  76.7267135894672 246.300490610131  C 75.2875228618446 246.510952115062  74.6253198649854 250.602682585854  71.823461565677 252.395262575738  C 69.0216032663686 254.187842565623  67.2704418293008 263  67.2704418293008 263  L 55.0123117698254 261.716678523138  L 50.1090597460352 260.999646527183  L 45.9062722970723 256.697454551461  L 44.8555754348312 236.979074662731  L 25.2425673396706 228.016174713308  L 30.4960516508746 222.638434743656  L 17.8876893039854 221.562886749725  L 16.8369924417448 215.10959878614  L 19.6388507410532 205.071150842787  L 10.5328112683002 195.749734895388  L 7.38072068157839 197.070437265469  L 0.376074933306509 191.337431810293  L 10.5328112683002 190.262493287447  L 14.3853664298497 174.138415444762  L 12.9844372801952 160.880840329667  L 7.38072068157839 155.506147715439  L 2.47746865778768 160.880840329667  L 0 156.581525719772  L 1.4267717955471 152.63964498785  L 3.52816552002883 147.623265214571  L 1.4267717955471 141.173634077497  L 8.78164983123233 132.932438735681  C 8.78164983123233 132.932438735681  11.8031774488947 128.72559891355  16.1365278669175 128.27437180335  C 21.7427688693422 127.69059996803  26.6434964893251 132.215813053784  26.6434964893251 132.215813053784  L 31.8969808005286 130.782561689989  L 31.8969808005286 128.27437180335  L 37.5006973991465 127.557746121453  L 37.5006973991465 135.799727520436  L 47.2360248447203 134.724795640327  L 53.8840579710147 127.557746121453  L 61.5817805383026 125.050408719347  L 66.48033126294 126.483651226158  L 71.0289855072465 122.900544959128  L 85.4825207748074 125.050408719347  L 92.0227743271222 120  L 105.668737060041 120  C 105.668737060041 120  111.455687556763 114.898274296094  114.066252587992 112.509536784741  C 115.887709640959 109.165304268847  118.265010351967 102.476839237057  118.265010351967 102.476839237057  L 121.76397515528 105.701634877384  L 125.759233827369 89.9359673024523  L 124.988780222047 82.4037351332944  L 127.712215320911 67.7207084468663  Z " fill-rule="nonzero" fill="#4c48c7" stroke="none" transform="matrix(1 0 0 1 91 129 )" />
  </g>
</svg>