<?xml version="1.0" encoding="utf-8"?>
<svg version="1.1" xmlns:xlink="http://www.w3.org/1999/xlink" width="80px" height="112px" xmlns="http://www.w3.org/2000/svg">
  <g transform="matrix(1 0 0 1 -701 -517 )">
    <path d="M 2.13333333333309 21.1878787878783  L 9.7391304347823 15.1757575757576  L 16.9739130434783 15.1757575757576  L 20.3130434782609 11.2969696969697  L 22.7887598204903 10.3084024075379  L 28.1043478260868 9.16363636363629  L 34.032494523611 6.4901584412233  L 39.6057971014495 6.4901584412233  L 47.026086956522 0.630303030303057  L 45.3565217391306 7.03030303030285  C 45.3565217391306 7.03030303030285  45.4526698610315 8.15023849578779  46.9589762447796 9.16363636363629  C 48.4652826285277 10.1770342314855  48.3329687113959 8.91284544706377  49.43768115942 8.38787878787859  C 51.4782608695653 7.41818181818204  54.446376811594 3.34545454545454  54.446376811594 3.34545454545454  L 55.1884057971013 0.630303030303057  L 57.5846815518239 0.157321764971207  L 62.0521739130433 4.12121212121224  L 69.1014492753625 5.09090909090893  L 72.8115942028985 7.03030303030285  C 72.8115942028985 7.03030303030285  70.7710144927538 10.9090909090907  71.3275362318839 12.6545454545449  C 71.8840579710145 14.4000000000005  79.4898550724639 26.0363636363634  79.4898550724639 26.0363636363634  L 77.6347826086958 28.7515151515149  L 77.6347826086958 32.2424242424242  L 74.6666666666665 33.7939393939396  L 71.3275362318839 37.4787878787878  L 68.3594202898552 37.4787878787878  C 68.3594202898552 37.4787878787878  63.6159030539669 36.0333551931353  60.9391304347821 38.2545454545461  C 56.4237029023609 42.0014545454543  57.5846815518239 50.8606060606062  57.5846815518239 50.8606060606062  L 58.3420289855073 52.0242424242424  L 58.3420289855073 53.5757575757578  L 52.2202898550727 58.6181818181819  C 52.2202898550727 58.6181818181819  50.3898889992496 60.8677959990095  50.5507246376807 63.4666666666662  C 50.7195907946583 66.1952988678932  52.96231884058 68.1212121212118  52.96231884058 68.1212121212118  L 50.5507246376807 72.3878787878793  L 48.6956521739127 74.1333333333331  L 48.6956521739127 78.2060606060604  L 45.3565217391306 79.3696969696966  L 46.9589762447796 80.9869455052123  L 43.1304347826087 84.4121212121212  L 43.1304347826087 87.3212121212118  L 42.388405797102 90.4242424242426  L 43.872463768116 92.7515151515151  L 38.6782608695654 96.8242424242424  L 40.5333333333339 102.254545454546  L 39.6057971014495 104.581818181818  L 40.5333333333339 107.878787878788  L 39.6057971014495 109.236363636364  L 34.032494523611 104.581818181818  L 24.023188405797 109.236363636364  L 19.1999999999996 109.236363636364  L 16.9739130434783 111.757575757576  L 15.4898550724636 109.236363636364  L 19.1999999999996 103.806060606061  C 19.1999999999996 103.806060606061  24.7652173913042 98.1818181818182  21.6115942028988 95.6606060606062  C 18.4579710144929 93.1393939393941  12.3362318840576 98.7636363636369  12.3362318840576 98.7636363636369  L 8.99710144927558 92.7515151515151  C 8.99710144927558 92.7515151515151  12.5492137168409 88.9759409177633  12.3362318840576 84.4121212121212  C 12.2013135595372 81.5210628525701  9.7391304347823 79.3696969696966  9.7391304347823 79.3696969696966  C 9.7391304347823 79.3696969696966  11.9652173913043 78.2060606060604  11.0376811594203 75.6848484848485  C 10.5517403050131 74.3639728896859  8.50430893462653 72.6475575786219  7.32753623188425 71.0303030303029  C 6.25815220879194 69.5606341883795  6.02898550724628 68.1212121212118  6.02898550724628 68.1212121212118  C 6.02898550724628 68.1212121212118  4.91594202898559 63.0787878787877  4.35942028985555 60.5575757575756  C 4.66859903381628 58.6181818181819  4.97777777777822 56.6787878787879  5.28695652173956 54.739393939394  C 4.66859903381628 53.8343434343434  4.05024154589422 52.929292929293  3.43188405797155 52.0242424242424  C 2.50434782608754 52.5414141414138  0.649275362318925 53.5757575757578  0.649275362318925 53.5757575757578  L 0.649275362318925 49.69696969697  L 9.7391304347823 38.2545454545461  L 6.02898550724628 23.5151515151513  L 2.13333333333309 21.1878787878783  Z " fill-rule="nonzero" fill="#ff6600" stroke="none" transform="matrix(1 0 0 1 701 517 )" />
  </g>
</svg>