<?xml version="1.0" encoding="utf-8"?>
<svg version="1.1" xmlns:xlink="http://www.w3.org/1999/xlink" width="100px" height="77px" xmlns="http://www.w3.org/2000/svg">
  <g transform="matrix(1 0 0 1 -735 -412 )">
    <path d="M 0.425531914893498 10.2195718654435  L 2.69503546099305 4.75657492354702  L 5.2463778113334 6.07522935779849  L 5.2463778113334 7.34403657403971  C 5.2463778113334 7.34403657403971  5.2463778113334 10.0145769212146  5.2463778113334 11.3498470948012  C 6.41326684664112 12.1661569826706  9.31442080378286 13.7987767584103  9.31442080378286 13.7987767584103  L 16.1229314420802 13.7987767584103  L 21.0401891252953 12.1033639143732  C 21.0401891252953 12.1033639143732  22.1749408983453 9.8428134556575  25.5791962174936 10.2195718654435  C 28.9834515366432 10.596330275229  28.7943262411351 11.3498470948012  28.7943262411351 11.3498470948012  L 32.0094562647754 13.7987767584103  L 33.9007092198583 12.1033639143732  L 35.2245862884158 7.58226299694165  L 37.4940898345152 6.07522935779849  L 39.3853427895981 2.30764525993842  L 42.789598108747 0.612232415901985  L 44.8699763593385 0.612232415901985  L 44.113475177305 4.75657492354702  L 48.4633569739954 6.07522935779849  L 51.1111111111111 7.58226299694165  C 51.1111111111111 7.58226299694165  52.3426018249777 10.1628321686484  54.8936170212766 11.3498470948012  C 58.9682599325165 13.2458224544951  63.4042553191493 12.1033639143732  63.4042553191493 12.1033639143732  C 63.4042553191493 12.1033639143732  65.5476753349094 17.1268093781858  66.6193853427901 19.6385321100917  C 67.6910953506699 20.76880733945  69.8345153664305 23.0293577981652  69.8345153664305 23.0293577981652  L 73.2387706855795 28.3039755351678  L 77.021276595745 38.6648318042815  L 77.7777777777778 44.6929663608562  L 82.6950354609929 45.4464831804284  L 92.1513002364064 51.0978593272176  L 95.3664302600473 52.0397553516819  L 96.1229314420806 55.618960244648  C 96.1229314420806 55.618960244648  97.888100866824 57.8795107033639  98.7706855791957 59.0097859327221  C 99.022852639874 60.2656472986751  99.527186761229 62.7773700305811  99.527186761229 62.7773700305811  C 99.527186761229 62.7773700305811  92.6451176502597 56.9853607104633  88.1796690307327 59.0097859327221  C 87.1358978888404 59.4829828734883  85.7600971389784 59.3470071046511  85.3427895981086 60.5168195718652  C 84.6591900828987 62.4331118914507  86.4775413711586 62.5889908256884  85.3427895981086 65.6030581039751  C 85.3427895981086 65.6030581039751  83.5776201733646 68.554332313965  82.6950354609929 70.3125382263  C 83.0102442868404 71.128848114169  83.6406619385343 73.5149847094802  83.6406619385343 73.5149847094802  C 83.6406619385343 73.5149847094802  80.8668242710793 75.2731906218145  79.479905437352 76.1522935779815  C 77.7147360126081 76.4034658511722  74.1843971631209 76.9058103975537  74.1843971631209 76.9058103975537  C 74.1843971631209 76.9058103975537  68.3845547675335 75.39877675841  65.4846335697401 74.6452599388384  C 64.5390070921982 75.1476044852192  62.647754137116 76.1522935779815  62.647754137116 76.1522935779815  L 57.9196217494089 70.3125382263  L 54.8936170212766 68.9938837920491  L 53.0023640661938 68.9938837920491  L 51.1111111111111 70.3125382263  L 48.4633569739954 70.3125382263  L 47.517730496454 66.9217125382267  L 44.8699763593385 65.6030581039751  L 38.6288416075653 61.2703363914374  L 38.6288416075653 59.7633027522937  L 41.654846335697 55.618960244648  L 44.113475177305 49.2140672782873  L 49.4089834515368 48.4605504587158  L 52.2458628841605 38.6648318042815  L 48.4633569739954 37.3461773700311  L 39.3853427895981 43.1859327217125  L 33.9007092198583 40.5486238532112  L 32.7659574468088 38.6648318042815  L 28.7943262411351 28.3039755351678  L 25.5791962174936 25.289908256881  L 10.4491725768318 20.7688073394493  L 2.69503546099305 11.3498470948012  L 0.425531914893498 10.2195718654435  Z " fill-rule="nonzero" fill="#169bd5" stroke="none" transform="matrix(1 0 0 1 735 412 )" />
  </g>
</svg>