<?xml version="1.0" encoding="utf-8"?>
<svg version="1.1" xmlns:xlink="http://www.w3.org/1999/xlink" width="92px" height="133px" xmlns="http://www.w3.org/2000/svg">
  <g transform="matrix(1 0 0 1 -685 -262 )">
    <path d="M 0.451472191929682 33.1489361702127  L 5.86913849509256 22.0319148936173  L 10.8854961832062 14.7553191489366  L 12.5397315714751 20.6170212765958  L 12.5397315714751 25.4680851063826  L 19.5136314067614 27.4893617021276  L 25.1319520174485 19.4042553191488  L 29.9476553980373 22.0319148936173  L 34.7633587786257 18.3936170212766  L 38.5757906215925 18.3936170212766  L 40.782988004362 13.3404255319151  L 41.5856052344604 3.23404255319125  L 46.3101130253474 4.92412084708283  L 49.4111232279176 0.202127659574043  L 52.4209378407855 0.202127659574043  L 53.2235550708838 3.23404255319125  L 54.8287895310794 8.48936170212749  L 58.8418756815704 11.3191489361707  L 61.2497273718649 9.49999999999971  L 61.2497273718649 13.3404255319151  L 60.2464558342423 18.3936170212766  L 64.4601962922576 23.4468085106383  L 73.6902944383861 25.4680851063826  L 72.687022900763 27.4893617021276  L 72.687022900763 30.5212765957448  L 70.6804798255177 33.1489361702127  L 73.6902944383861 37.191489361702  L 76.0981461286806 37.191489361702  L 82.1177753544164 38.4042553191489  L 85.1275899672848 40.829787234042  L 85.9302071973831 44.2659574468086  L 91.9498364231189 46.2872340425536  L 88.1374045801527 49.5212765957449  C 88.1374045801527 49.5212765957449  87.7341682743285 58.122903002653  82.1177753544164 62.6595744680853  C 77.3013634952593 66.5500569465717  70.6804798255177 64.8829787234043  70.6804798255177 64.8829787234043  C 70.6804798255177 64.8829787234043  65.7310069065796 57.6063829787238  63.2562704471102 53.9680851063831  C 62.9887313704109 51.8794326241133  62.4536532170118 47.7021276595746  62.4536532170118 47.7021276595746  L 60.2464558342423 44.2659574468086  C 60.2464558342423 44.2659574468086  57.704834605598 44.9397163120568  56.4340239912761 45.2765957446814  C 55.8989458378769 46.0851063829784  54.8287895310794 47.7021276595746  54.8287895310794 47.7021276595746  L 53.2235550708838 41.8404255319149  L 56.4340239912761 38.4042553191489  L 54.8287895310794 35.7765957446805  L 49.4111232279176 34.968085106383  C 49.4111232279176 34.968085106383  43.9934569247542 31.329787234043  41.5856052344604 31.329787234043  C 39.1777535441659 31.329787234043  37.9738276990189 31.1276595744683  37.371864776445 33.1489361702127  C 36.7699018538709 35.170212765957  38.5757906215925 37.191489361702  38.5757906215925 37.191489361702  L 36.5692475463466 37.191489361702  L 34.7633587786257 39.4148936170212  L 33.5594329334793 39.4148936170212  L 29.9476553980373 41.8404255319149  C 29.9476553980373 41.8404255319149  29.9476553980373 44.1312056737592  29.9476553980373 45.2765957446814  C 30.4827335514354 46.0851063829784  31.5528898582335 47.7021276595746  31.5528898582335 47.7021276595746  L 28.9443838604142 50.5319148936171  L 25.1319520174485 53.9680851063831  C 25.1319520174485 53.9680851063831  25.1319520174485 56.2588652482269  25.1319520174485 57.4042553191484  C 26.7371864776446 58.2127659574471  29.9476553980373 59.8297872340428  29.9476553980373 59.8297872340428  L 35.5659760087239 61.042553191489  C 35.5659760087239 61.042553191489  38.2413667757177 62.9290780141841  39.5790621592151 63.8723404255322  C 41.5856052344604 63.8723404255322  45.5986913849508 63.8723404255322  45.5986913849508 63.8723404255322  C 45.5986913849508 63.8723404255322  44.9369717109945 70.6041277573545  48.2071973827701 74.7872340425529  C 51.1920654378078 78.605325383857  56.4340239912761 78.4255319148935  56.4340239912761 78.4255319148935  L 60.2464558342423 77.4148936170213  L 58.8418756815704 80.2446808510644  L 61.2497273718649 82.6702127659576  L 65.8647764449294 86.7127659574464  L 63.2562704471102 88.1276595744679  L 61.2497273718649 89.7446808510636  L 58.8418756815704 91.7659574468086  L 54.8287895310794 92.7765957446813  C 54.8287895310794 92.7765957446813  50.2137404580154 95.808510638298  41.5856052344604 106.521276595745  C 32.9574700109052 117.234042553191  29.9476553980373 122.287234042553  29.9476553980373 122.287234042553  L 31.5528898582335 128.148936170213  L 31.5528898582335 129.361702127659  L 27.5398037077424 129.361702127659  L 23.6824004602543 130.797731726457  L 18.3097055616139 132.797872340426  L 12.5397315714751 130.821676264901  L 8.27699018538703 129.361702127659  C 8.27699018538703 129.361702127659  6.67175572519084 126.801418439716  5.86913849509256 125.521276595745  C 4.99963649581986 124.443262411347  3.26063249727385 122.287234042553  3.26063249727385 122.287234042553  L 5.06652126499476 117.840425531915  L 12.5397315714751 99.4468085106387  L 9.88222464558359 94.5957446808511  L 3.26063249727385 90.5531914893616  L 2.25736095965121 88.1276595744679  L 5.06652126499476 75.9999999999997  L 9.88222464558359 74.7872340425529  C 9.88222464558359 74.7872340425529  11.6538959295114 71.5531914893615  12.5397315714751 69.936170212766  C 12.5397315714751 67.9148936170215  12.5397315714751 63.8723404255322  12.5397315714751 63.8723404255322  L 11.688113413304 59.8297872340428  L 4.06324972737164 57.4042553191484  L 3.26063249727385 53.1595744680849  L 8.27699018538703 51.9468085106386  L 9.88222464558359 48.7127659574468  L 6.67175572519084 42.648936170213  L 2.25736095965121 38.4042553191489  L 0.451472191929682 33.1489361702127  Z " fill-rule="nonzero" fill="#169bd5" stroke="none" transform="matrix(1 0 0 1 685 262 )" />
  </g>
</svg>