<?xml version="1.0" encoding="utf-8"?>
<svg version="1.1" xmlns:xlink="http://www.w3.org/1999/xlink" width="100px" height="96px" xmlns="http://www.w3.org/2000/svg">
  <g transform="matrix(1 0 0 1 -641 -397 )">
    <path d="M 22.8778467908901 28.3780219780218  L 27.0186335403729 24.5802197802197  L 32.6086956521738 24.5802197802197  L 36.1835748792273 25.5507692307696  L 46.425120772947 22.2593406593403  L 46.425120772947 16.9846153846154  L 49.1304347826089 14.1292307692309  L 49.1304347826089 10.5845445051269  L 50.6211180124227 7.63076923076924  L 49.1304347826089 4.47999999999974  L 50.6211180124227 0.316483516483413  L 61.8012422360253 3.48131868131877  L 70.08281573499 1.37142857142853  L 76.6517056653301 0.50561667973152  L 78.7784679089028 6.43516483516492  L 79.8136645962735 10.6549450549447  L 70.08281573499 16.9846153846154  L 70.08281573499 22.2593406593403  L 75.4658385093169 24.5802197802197  C 75.4658385093169 24.5802197802197  77.2736899381571 28.0030904123766  80.8488612836444 30.0659340659343  C 85.659627160112 32.8417053221989  90.7867494824015 32.5978021978016  90.7867494824015 32.5978021978016  L 93.8923395445134 30.9098901098904  L 99.896480331263 39.7714285714283  L 96.169772256729 46.9450549450549  L 90.7867494824015 41.2483516483517  C 90.7867494824015 41.2483516483517  86.622846224057 38.2630579471462  84.9896480331265 39.7714285714283  C 83.282768640843 41.3478488422876  84.9896480331265 46.9450549450549  84.9896480331265 46.9450549450549  L 86.0421398987722 50.1751651162394  C 86.0421398987722 50.1751651162394  81.557637680973 50.7242881798728  79.8136645962735 53.4857142857147  C 78.6000902902753 55.4073011492746  79.8136645962735 57.9164835164837  79.8136645962735 57.9164835164837  L 79.8136645962735 61.0813186813184  C 79.8136645962735 61.0813186813184  75.3416149068322 59.3090109890107  73.6024844720499 61.0813186813184  C 72.5590062111805 62.1447032967032  73.6024844720499 64.8791208791211  73.6024844720499 64.8791208791211  L 76.6517056653301 67.1999999999999  L 81.218857932734 73.2394045555285  C 81.218857932734 73.2394045555285  82.3524557498342 75.1208271595355  82.9192546583854 76.0615384615384  C 84.6445824706695 76.0615384615384  88.0952380952384 76.0615384615384  88.0952380952384 76.0615384615384  C 88.0952380952384 76.0615384615384  90.9275362318838 76.0589331954216  92.0289855072464 77.7494505494509  C 93.4715452248539 79.9635082381586  92.0289855072464 83.4461538461536  92.0289855072464 83.4461538461536  L 93.0641821946171 85.7670329670329  C 93.0641821946171 85.7670329670329  90.7177363699103 86.7516483516487  89.5445134575572 87.2439560439558  C 88.7853692201516 88.1582417582416  87.2670807453416 89.9868131868134  87.2670807453416 89.9868131868134  L 87.2670807453416 91.6747252747253  L 84.9896480331265 93.5736263736264  L 81.218857932734 91.6747252747253  C 81.218857932734 91.6747252747253  79.1849291507305 95.5022715688766  76.6517056653301 95.4725274725275  C 73.6397903782301 95.4371627686189  71.3250517598348 90.8307692307693  71.3250517598348 90.8307692307693  C 71.3250517598348 90.8307692307693  70.586184063152 89.3300161774932  68.8405797101452 88.7208791208792  C 67.0138383650305 88.0834289196117  64.9068322981365 88.7208791208792  64.9068322981365 88.7208791208792  L 58.2815734989653 89.9868131868134  L 58.2815734989653 83.4461538461536  L 57.0393374741199 79.8593406593412  L 50.6211180124227 78  L 40.2691511387163 78  L 27.0186335403729 77.7494505494509  L 22.8778467908901 74.584615384615  L 17.0807453416146 73.2394045555285  C 17.0807453416146 73.2394045555285  12.7225208346073 70.7535331266802  10.0414078674947 65.9340659340657  C 7.41483967811619 61.2126463694485  10.545644190896 60.5039769940434  7.55693581780506 56.2285714285717  C 5.51687316047641 53.3102220447415  3.83022774327103 53.6967032967032  1.96687370600462 52.430769230769  C 1.34575569358183 50.6021978021972  0.103519668736989 46.9450549450549  0.103519668736989 46.9450549450549  L 0.103519668736989 41.2483516483517  L 5.27950310559046 35.5516483516485  L 22.8778467908901 28.3780219780218  Z " fill-rule="nonzero" fill="#169bd5" stroke="none" transform="matrix(1 0 0 1 641 397 )" />
  </g>
</svg>