<?xml version="1.0" encoding="utf-8"?>
<svg version="1.1" xmlns:xlink="http://www.w3.org/1999/xlink" width="63px" height="77px" xmlns="http://www.w3.org/2000/svg">
  <g transform="matrix(1 0 0 1 -776 -488 )">
    <path d="M 1.10769230769221 36.1777777777778  L 7.38928955156448 30.7022222222221  C 7.38928955156448 30.7022222222221  11.9848581654343 27.0292377162401  12.1846153846154 22.097777777778  C 12.293030164582 19.4213130856164  9.96923076923064 17.2088888888889  9.96923076923064 17.2088888888889  L 14.0307692307689 18.3822222222223  L 19.3846153846154 15.4488888888894  L 16.8000000000001 8.21333333333298  L 20.861538461539 1.56444444444449  L 24 1.56444444444449  L 31.7538461538457 3.52000000000018  L 41.9076923076924 0  L 46.1538461538467 3.52000000000018  L 40.6153846153842 10.1688888888892  L 28.0615384615384 13.8844444444449  L 40.6153846153842 18.3822222222223  L 45.2307692307689 13.1022222222227  L 54.0923076923073 13.1022222222227  L 57.0461538461534 18.3822222222223  L 60.0151851661024 18.3822222222223  L 60.0151851661024 20.1422222222223  L 56.1230769230767 24.2488888888891  L 60.0151851661024 25.1160020626862  L 62.7692307692308 30.7022222222221  L 61.8930845455124 32.2208756766676  L 56.1230769230767 32.2208756766676  C 56.1230769230767 32.2208756766676  52.061538461539 33.0488888888883  54.0923076923073 36.1777777777778  C 56.1230769230773 39.3066666666669  58.7076923076925 37.7422222222224  58.7076923076925 37.7422222222224  L 56.1230769230767 47.5199999999999  L 58.7076923076925 47.5199999999999  L 58.7076923076925 51.2355555555556  L 52.6153846153842 55.9288888888891  L 52.6153846153842 51.2355555555556  L 50.9538461538463 51.2355555555556  L 45.2307692307689 61.2088888888886  L 46.1538461538467 63.5555555555553  L 45.2307692307689 65.7066666666665  L 43.9384615384618 66.88  L 43.9384615384618 75.0933333333336  L 42.8249878861478 76.691941787051  L 38.0307692307695 73.3333333333328  L 34.1538461538461 72.355555555555  L 34.1538461538461 75.0933333333336  L 31.0153846153845 74.1155555555552  L 29.3538461538459 72.355555555555  L 26.9538461538462 68.2488888888888  L 23.2615384615388 70.5955555555557  L 24 72.355555555555  C 24 72.355555555555  19.7489534668399 76.3691173918519  16.8000000000001 75.0933333333336  C 14.349102682025 74.0330196449349  14.0307692307689 69.0311111111112  14.0307692307689 69.0311111111112  C 14.0307692307689 69.0311111111112  14.3396727502969 63.5504567794444  11.2615384615382 59.6444444444448  C 9.81222565128328 57.8053324424751  7.38928955156448 57.4958178140142  7.38928955156448 57.4958178140142  L 8.12307692307659 55.9288888888891  L 5.53846153846191 51.2355555555556  L 0.369230769230859 43.0222222222226  L 0.369230769230859 41.6533333333336  L 0.369230769230859 39.6977777777773  L 2.95384615384614 37.7422222222224  L 1.10769230769221 36.1777777777778  Z " fill-rule="nonzero" fill="#ff6600" stroke="none" transform="matrix(1 0 0 1 776 488 )" />
  </g>
</svg>