<?xml version="1.0" encoding="utf-8"?>
<svg version="1.1" xmlns:xlink="http://www.w3.org/1999/xlink" width="41px" height="39px" xmlns="http://www.w3.org/2000/svg">
  <g transform="matrix(1 0 0 1 -620 -721 )">
    <path d="M 1.49892473118254 19.7698113207549  L 12.079569892473 11.5283018867915  L 9.61075268817152 8.19245283018854  L 17.7225806451611 5.44528301886812  L 18.4279569892476 4  L 29.7139784946235 4  L 31.3010752688178 2.30566037735769  L 36.7677419354839 3.09056603773513  L 36.7677419354839 0.34339622641591  L 39.0602150537636 2.30566037735769  L 39.9419354838708 5.44528301886812  L 40.6473118279568 8.19245283018854  L 39.9419354838708 10.547169811321  L 36.7677419354839 13.0981132075471  L 34.1225806451615 18.3962264150936  L 34.1225806451615 27.4226415094338  L 31.3010752688178 29.188679245283  L 24.7763440860214 36.6452830188682  L 20.8967741935485 37.8226415094338  L 16.1354838709679 38.6075471698119  L 8.91582256210823 35.1672863999416  L 3.43870967741954 34.4867924528302  L 1.49892473118254 30.1698113207543  L 0.264516129032508 24.4792452830189  L 1.49892473118254 19.7698113207549  Z " fill-rule="nonzero" fill="#169bd5" stroke="none" transform="matrix(1 0 0 1 620 721 )" />
  </g>
</svg>