<?xml version="1.0" encoding="utf-8"?>
<svg version="1.1" xmlns:xlink="http://www.w3.org/1999/xlink" width="128px" height="80px" xmlns="http://www.w3.org/2000/svg">
  <g transform="matrix(1 0 0 1 -612 -463 )">
    <path d="M 15.8608695652176 15.4434782608694  C 16.940771992695 13.0892215349671  22.9101449275364 13.5884057971014  22.9101449275364 13.5884057971014  L 26.0637681159418 9.68531670577651  L 21.7971014492757 5.24057971014466  L 17.9014492753623 2.82898550724614  L 16.9876811537021 0.7121191560283  L 20.498550724638 2  L 31.4434782608697 2  L 35.8956521739134 2.82898550724614  L 38.1217391304348 0.04637681159412  L 41.8318840579711 5.24057971014466  L 46.8405797101452 9.13623188405769  L 50.5516357465887 9.68531670577651  L 56.1159420289854 12.8463768115944  L 83.2000000000001 14.5159420289854  L 83.9420289855076 22.6782608695649  L 85.9826086956524 24.9043478260871  L 95.0724637681159 22.6782608695649  L 98.7826086956523 26.3884057971016  C 98.7826086956523 26.3884057971016  100.709568156795 29.495025948762  103.234782608695 29.5420289855077  C 105.901972085961 29.5916746720004  108.057971014492 26.3884057971016  108.057971014492 26.3884057971016  L 111.768115942029 28.0579710144926  L 115.849275362319 32.5101449275362  L 121.414492753623 33.4376811594202  L 122.342028985508 35.1072463768117  L 119.373913043478 39.5594202898554  L 127.350724637681 56.6260869565215  L 126.052173913044 57.7391304347827  L 126.052173913044 59.4086956521742  L 121.414492753623 59.4086956521742  L 116.96231884058 62.7478260869561  L 111.768115942029 62.7478260869561  L 106.759420289855 65.3449275362317  L 106.017391304348 66.8289855072462  C 106.017391304348 66.8289855072462  101.194202898551 67.8183574879229  98.7826086956523 68.3130434782608  C 97.5458937198069 68.9932367149758  95.0724637681159 70.3536231884058  95.0724637681159 70.3536231884058  L 90.4347826086961 75.36231884058  L 88.3942028985508 73.1362318840578  C 88.3942028985508 73.1362318840578  89.5072463768115 67.7565217391303  88.3942028985508 65.8271715241074  C 87.2811594202901 63.8978213090848  83.2000000000001 63.4898550724637  83.2000000000001 63.4898550724637  L 79.8608695652176 66.8289855072462  L 78.191304347826 66.8289855072462  L 76.8927536231882 61.4492753623187  L 73.9246376811593 60.3362318840582  L 71.3275362318843 64.2318840579707  L 66.5043478260868 68.3130434782608  L 64.2782608695654 66.8289855072462  C 64.2782608695654 66.8289855072462  59.8260869565222 64.6028985507247  57.5999999999998 63.4898550724637  C 54.9410628019322 62.8096618357487  49.6231884057974 61.4492753623187  49.6231884057974 61.4492753623187  L 40.7188405797099 57.7391304347827  L 32.7420289855074 58.6666666666667  L 34.2260869565214 65.3449275362317  L 29.7653300686726 65.8271715241074  L 26.0637681159418 63.4898550724637  L 20.498550724638 66.8289855072462  L 15.8608695652176 72.0231884057968  L 14.191304347826 79.814492753623  L 2.87536231884054 65.3449275362317  L 2.87536231884054 60.3362318840582  L 0.463768115942003 56.6260869565215  L 1.39130434782613 53.286956521739  L 15.8608695652176 51.988405797101  L 26.0637681159418 45.3101449275364  C 26.0637681159418 45.3101449275364  28.9302381299835 42.2946640593319  28.2898550724637 37.7043478260874  C 27.7790819825138 34.0430860566336  24.7652173913045 30.4695652173917  24.7652173913045 30.4695652173917  L 19.3855072463767 28.0579710144926  L 19.3855072463767 22.6782608695649  C 19.3855072463767 22.6782608695649  14.6686103744717 18.0426799548495  15.8608695652176 15.4434782608694  Z " fill-rule="nonzero" fill="#169bd5" stroke="none" transform="matrix(1 0 0 1 612 463 )" />
  </g>
</svg>