<?xml version="1.0" encoding="utf-8"?>
<svg version="1.1" xmlns:xlink="http://www.w3.org/1999/xlink" width="90px" height="107px" xmlns="http://www.w3.org/2000/svg">
  <g transform="matrix(1 0 0 1 -623 -522 )">
    <path d="M 7.96875000000024 13.7911111111111  L 10.7812500000002 9.60622222222228  L 15.2812499999999 7.89422222222231  L 16.9687499999997 8.84533333333317  L 24.6562500000002 8.84533333333317  L 23.90625 1.42666666666656  L 24.6562500000002 0.475555555555167  L 30.4687500000002 0.475555555555167  L 38.9062500000002 4.27999999999981  L 45.2812499999998 5.42133333333308  L 56.1562500000003 12.2693333333333  L 64.5937500000003 4.27999999999981  L 65.9062499999999 7.89422222222231  L 65.9062499999999 11.5084444444441  L 71.71875 9.60622222222228  L 73.9687499999999 6.56266666666675  L 76.5937499999998 7.89422222222231  L 76.5937499999998 14.5520000000002  L 78.6562500000003 18.7368888888883  L 83.9062500000002 20.6391111111113  C 83.9062500000002 20.6391111111113  83.9062500000002 24.8240000000001  83.9062500000002 26.9164444444441  C 85.0312499999998 28.9454814814818  87.2812499999997 33.0035555555558  87.2812499999997 33.0035555555558  L 77.34375 45.3679999999995  L 78.6562500000003 54.3084444444445  L 82.4062499999999 50.5039999999997  L 82.4062499999999 58.3031111111109  C 82.4062499999999 58.3031111111109  83.0937499999999 63.6293333333333  83.9062500000002 66.2924444444448  C 85.2812500000001 67.9410370370375  88.9687500000001 71.2382222222222  88.9687500000001 71.2382222222222  L 86.5312500000002 73.7111111111108  L 86.5312500000002 76.184  L 88.0312499999999 76.184  L 89.9062500000003 78.0862222222219  L 89.9062500000003 81.9114171141754  L 87.2812499999997 86.8364444444444  L 86.5312500000002 88.3582222222216  L 83.9062500000002 91.0213333333331  C 83.9062500000002 91.0213333333331  79.2261616503633 87.0566367913894  73.9687499999999 86.8364444444444  C 70.8846919647184 86.7072770856634  69.0937500000001 88.3582222222216  69.0937500000001 88.3582222222216  C 69.0937500000001 88.3582222222216  66.4687499999995 90.4506666666668  66.8437500000002 92.1626666666669  C 67.2187500000002 93.874666666667  68.90625 95.2062222222224  70.2187500000003 97.2986666666671  C 71.5312499999999 99.3911111111111  70.2187500000003 101.103111111111  70.2187500000003 101.103111111111  L 60.6562500000001 95.967111111111  C 60.6562500000001 95.967111111111  57.4162499999998 93.3692532326587  56.1562500000003 94.2551111111109  C 54.3865878543947 95.499292979272  56.1562500000003 101.103111111111  56.1562500000003 101.103111111111  L 53.3437500000003 103.385777777778  L 50.3437500000002 104.146666666667  L 45.2812499999998 106.429333333333  L 42.8437499999998 104.907555555555  L 43.59375 99.5813333333335  L 36.2812500000002 99.5813333333335  L 38.9062500000002 93.4942222222218  L 40.78125 92.1626666666669  L 42.8437499999998 82.841777777778  L 39.8437499999998 80.9395555555557  L 39.8437499999998 74.8524444444453  L 36.2812500000002 72.1893333333331  L 33.0937500000002 74.8524444444453  L 26.5312499999999 74.8524444444453  L 24.6562500000002 79.417777777778  C 24.6562500000002 79.417777777778  23.6562499999997 80.6363521501905  22.5937499999997 81.9114171141754  C 22.2756913564425 81.9114171141754  21.6395740693281 81.9114171141754  21.6395740693281 81.9114171141754  L 19.9687499999998 80.1786666666664  L 16.9687499999997 80.9395555555557  L 12.2812500000005 84.7439999999998  L 7.96875000000024 79.417777777778  C 7.96875000000024 79.417777777778  6.09374999999976 78.847111111111  6.09374999999976 76.184  C 6.09374999999976 73.5208888888892  6.84374999999993 72.1893333333331  6.84374999999993 72.1893333333331  L 6.84374999999993 69.3359999999998  L 8.90624999999976 66.2924444444448  L 7.96875000000024 61.1460151334395  L 4.40625000000007 59.2542222222217  L 0.0914147643276968 61.1460151334395  L 0.281249999999805 57.5422222222223  L 6.84374999999993 52.9768888888889  L 5.15625000000024 45.3679999999995  C 5.15625000000024 45.3679999999995  4.65625000000021 43.4657777777778  4.40625000000007 42.5146666666669  C 5.21874999999982 41.5635555555554  6.84374999999993 39.6613333333337  6.84374999999993 39.6613333333337  L 4.40625000000007 33.9546666666666  L 3.46874999999983 22.3511111111107  L 7.96875000000024 13.7911111111111  Z " fill-rule="nonzero" fill="#ff6600" stroke="none" transform="matrix(1 0 0 1 623 522 )" />
  </g>
</svg>