<?xml version="1.0" encoding="utf-8"?>
<svg version="1.1" xmlns:xlink="http://www.w3.org/1999/xlink" width="237px" height="205px" xmlns="http://www.w3.org/2000/svg">
  <g transform="matrix(1 0 0 1 -376 -272 )">
    <path d="M 1 45.571428571429  L 3.15532544378679 40.1428571428571  L 10.7281065088757 40.9999999999998  L 16.6180473372783 34.1428571428575  L 24.7517751479292 24.7142857142861  L 29.239349112426 21.8571428571426  L 32.6050295857989 19.2857142857142  L 39.8973372781066 20.142857142857  L 47.1896449704143 17.2857142857141  L 55 14.7142857142852  L 55 1.57142857142865  C 55 1.57142857142865  57.4327938866294 1.17982212248748  58.7679778121925 0.984018898016957  C 60.4634644980697 0.735377678043036  63.8544378698228 0.238095238095328  63.8544378698228 0.238095238095328  L 69.6275147928993 6.42857142857104  L 71.590828402367 11  L 73.2460378274 15.8668091250874  L 76.0784023668638 18.1428571428569  L 74.9565088757399 21.8571428571426  L 71.590828402367 26.1428571428572  L 76.919822485207 31.0000000000002  L 77.7612426035502 36.1428571428569  L 80.5659763313612 39.0000000000004  L 81.4073964497044 44.7142857142855  L 83.9316568047335 47.2857142857146  L 87.2973372781063 47.2857142857146  L 90.1020710059172 43.8571428571428  L 107.608284023668 40.9999999999998  L 107.608284023668 44.7142857142855  L 101.32100591716 54.7142857142859  L 103.564792899408 58.7142857142855  L 108.332840236686 61.5714285714283  L 111.698520710059 65.2857142857145  L 113.942307692308 66.7142857142857  L 115.625147928994 69.1904761904764  L 118.990828402367 71.2857142857142  L 120.673668639053 78.7142857142855  L 126.394964256744 79.8451311680354  C 126.394964256744 79.8451311680354  128.152637689638 84.7679355580757  131.612130177515 85.5714285714285  C 135.41818916371 86.4554142469376  139.465384615385 82.4285714285712  139.465384615385 82.4285714285712  L 138.34349112426 78.7142857142855  L 136.660650887574 77.2857142857143  L 138.34349112426 74.7142857142854  L 141.709171597633 74.7142857142854  L 141.729214041509 74.709920061002  C 141.729214041509 74.709920061002  146.027477574277 78.2096457194206  150.403846153847 77.2857142857143  C 157.639475075672 75.7581407091376  161.90325443787 67.5714285714285  161.90325443787 67.5714285714285  L 167.068639053255 69.1904761904764  C 167.068639053255 69.1904761904764  170.221379796803 72.8245173829153  169.476035502958 76.4285714285715  C 168.568800499532 80.8154353402706  163.305621301775 83.2857142857145  163.305621301775 83.2857142857145  L 157.135207100592 87.0000000000002  L 154.05 98.4285714285717  C 154.05 98.4285714285717  155.171893491124 100.714285714286  159.098520710059 104.714285714285  C 163.025147928994 108.714285714286  166.110355029586 107.285714285714  166.110355029586 107.285714285714  L 169.476035502958 111.571428571428  L 173.402662721894 110.714285714286  L 177.329289940828 112.428571428572  L 178.731656804734 114.904761904762  L 181.536390532545 118.714285714286  L 182.885929928489 126.864629771339  C 182.885929928489 126.864629771339  186.198429755254 129.091392185207  186.584911242604 132.428571428572  C 186.793435561245 134.229131224272  185.463017751479 135.857142857143  185.463017751479 135.857142857143  L 183.953811187897 137.983055678852  L 185.463017751479 142.428571428571  L 193.035798816568 147.857142857143  L 194.438165680474 151  L 198.084319526627 153.857142857142  L 203.413313609468 152.999999999999  L 202.59526627219 146.714285714286  L 205.096153846153 145.285714285714  L 208.204733727811 145.285714285714  L 210.986094674557 143.516543813014  L 212.107988165681 136.714285714286  L 210.144674556213 132.428571428572  L 205 130.142857142857  L 205 117.571428571429  L 208.204733727811 114.904761904762  L 215.193195266272 116.428571428571  L 221.363609467455 122.428571428571  L 226.692603550296 126.428571428571  L 234.833161609717 128.428571428572  L 237 132.428571428572  L 234.833161609717 136.714285714286  L 234.833161609717 143.516543813014  L 233.984911242604 147.857142857143  C 233.984911242604 147.857142857143  226.044233553582 147.463827961961  221.363609467455 151  C 218.092394640251 153.471375224655  218.839349112426 157.285714285714  218.839349112426 157.285714285714  L 217.717455621302 158.588853926362  L 210.144674556213 155  L 206.218047337278 155  L 198.925739644971 166.428571428572  L 198.925739644971 172.428571428572  C 198.925739644971 172.428571428572  201.372090729783 176.04761904762  202.59526627219 177.857142857143  C 202.59526627219 179.603174603175  202.59526627219 183.095238095238  202.59526627219 183.095238095238  C 202.59526627219 183.095238095238  195.016875739645 181.933813038965  191.633431952663 186.142857142857  C 188.47683109851 190.069705954306  190.511538461539 197.285714285714  190.511538461539 197.285714285714  C 190.511538461539 197.285714285714  189.015680473372 200.142857142857  188.26775147929 201.571428571429  C 186.686193293886 202.523809523809  183.523076923077 204.428571428572  183.523076923077 204.428571428572  L 177.329289940828 201.571428571429  L 173.402662721894 201.571428571429  L 174.524556213018 196.142857142858  L 173.402662721894 193  C 173.402662721894 193  169.179980276134 189.031180162269  167.068639053255 187.046770243404  C 167.068639053255 185.729592860682  167.068639053255 183.095238095238  167.068639053255 183.095238095238  C 167.068639053255 183.095238095238  157.983812013514 183.612025599302  152.367159763314 179.285714285714  C 147.896947369506 175.842465604477  148.160059171598 170.428571428572  148.160059171598 170.428571428572  L 142.831065088758 170.428571428572  L 140.306804733728 173.285714285715  L 134.697337278107 180.428571428572  L 136.660650887574 188.428571428572  L 132.453550295858 189.285714285715  L 129.920767410785 187.046770243404  L 126.002662721894 188.428571428572  L 118.079289940828 184.619047619048  C 118.079289940828 184.619047619048  117.378106508876 181.063492063492  117.027514792899 179.285714285714  C 117.027514792899 177.285714285714  117.027514792899 173.285714285715  117.027514792899 173.285714285715  L 127.965976331361 174.714285714286  L 131.612130177515 171.285714285715  L 131.612130177515 166.428571428572  L 127.124556213018 163.571428571429  L 132.453550295858 159.571428571429  L 137.532450069893 158.588853926362  L 141.709171597633 152.999999999999  L 141.709171597633 149.857142857143  L 144.513905325444 149  L 149.562426035503 138.142857142857  L 145.355325443787 131  L 142.831065088758 116.428571428571  L 140.306804733728 111.571428571428  L 135.819230769231 108.142857142857  L 135.819230769231 102.428571428572  L 127.965976331361 103.857142857143  L 107.608284023668 87.0000000000002  L 104.406213017751 90.1428571428569  L 83.9316568047335 73.2857142857142  L 80.5659763313612 75.5714285714287  L 74.1150887573967 77.2857142857143  L 61.7742603550297 70.1428571428575  L 57.8476331360948 72.1428571428575  L 57.8476331360948 79.8571428571434  C 57.8476331360948 79.8571428571434  57.9026127679546 83.6001738711546  56.1647928994084 84.4285714285712  C 54.0098463477028 85.4558081935012  50.5553254437866 82.4285714285712  50.5553254437866 82.4285714285712  L 39.8973372781066 72.1428571428575  L 29.239349112426 67.5714285714285  L 24.7517751479292 64.4285714285717  L 16.6180473372783 63.5714285714284  L 10.7281065088757 63.5714285714284  L 3.15532544378679 61.5714285714283  L 1 57.3809523809527  L 1 45.571428571429  Z " fill-rule="nonzero" fill="#4c48c7" stroke="none" transform="matrix(1 0 0 1 376 272 )" />
  </g>
</svg>