<?xml version="1.0" encoding="utf-8"?>
<svg version="1.1" xmlns:xlink="http://www.w3.org/1999/xlink" width="75px" height="93px" xmlns="http://www.w3.org/2000/svg">
  <g transform="matrix(1 0 0 1 -743 -545 )">
    <path d="M 10.0000000000003 44.6496124031012  L 14.5714285714287 40.8046511627906  L 14.5714285714287 38.8821705426353  C 14.5714285714287 38.8821705426353  11.0736641086666 36.545382520819  11.3333333333331 34.0759689922483  C 11.8557875580657 29.1075114005939  19.7142857142856 26.0015503875971  19.7142857142856 26.0015503875971  L 21.2380952380952 18.3116279069768  L 18.9523809523809 20.4263565891471  L 19.7142857142856 12.5441860465118  L 24.4761904761903 9.66046511627921  L 27.3333333333334 11.3906976744181  L 32.0952380952382 11.3906976744181  C 32.0952380952382 11.3906976744181  33.9999999999999 8.6992248062019  34.9523809523808 7.35348837209374  C 36.3492063492065 6.39224806201589  39.1428571428572 4.46976744186061  39.1428571428572 4.46976744186061  L 39.1428571428572 0.432558139535029  C 39.1428571428572 0.432558139535029  41.9969251476138 0.00669481581069074  43.7142857142857 1.58604651162736  C 46.0818515901932 3.76335234573034  45.1585215499339 6.99474067563968  45.8095238095237 9.66046511627921  C 46.6557027431352 13.1253991180506  48.6666666666668 15.8124031007751  48.6666666666668 15.8124031007751  C 48.6666666666668 15.8124031007751  53.1497603582092 18.2010529482289  56.8571428571429 16.5813953488367  C 59.7935813486878 15.2985428459343  60.8571428571432 11.3906976744181  60.8571428571432 11.3906976744181  C 60.8571428571432 11.3906976744181  61.7460317460316 13.8258397932821  62.190476190476 15.0434108527128  C 63.2698412698418 15.556072351421  65.4285714285716 16.5813953488367  65.4285714285716 16.5813953488367  L 69.6190476190476 17.5426356589145  L 71.9047619047619 15.8124031007751  L 72.666666666667 19.2728682170541  L 74.7619047619049 20.4263565891471  L 74.7619047619049 22.1565891472872  L 70.952380952381 26.0015503875971  L 70.952380952381 30.2310077519377  L 63.3333333333337 28.885271317829  L 62.190476190476 30.2310077519377  L 63.3333333333337 31.7689922480623  L 70.952380952381 36.767441860465  L 69.6190476190476 38.8821705426353  L 63.3333333333337 42.3426356589152  L 65.4285714285716 47.1488372093022  L 64.2857142857145 49.2635658914725  L 65.4285714285716 53.1085271317824  L 62.190476190476 53.1085271317824  L 57.8095238095238 56.1844961240313  L 60.8571428571432 59.4527131782947  L 59.3333333333329 60.7984496124034  L 55.6450771439448 59.4527131782947  L 55.6450771439448 66.7581395348836  L 55.6450771439448 69.8341085271318  L 51.9047619047619 74.4480620155039  L 45.8095238095237 74.4480620155039  L 45.8095238095237 78.8697674418602  L 41.2380952380952 78.1007751937986  L 40.0952380952381 82.5224806201556  L 35.9047619047616 91.558139534884  L 30.1904761904765 86.3674418604648  C 30.1904761904765 86.3674418604648  30.8953947265096 91.8310459026852  29.2380952380951 92.5193798449614  C 26.8227965500979 93.5225371374743  22.0000000000003 87.1364341085271  22.0000000000003 87.1364341085271  L 18.9523809523809 78.8697674418602  L 14.5714285714287 73  L 1.61904761904781 73  L 0.095238095238171 67.575427920085  L 4.47619047619038 64.4511627906976  L 3.33333333333318 60.7984496124034  L 4.47619047619038 59.4527131782947  L 4.47619047619038 56.1844961240313  L 7.71428571428601 53.1085271317824  L 8.24615303098386 51.1402057597547  L 10.0000000000003 50.0325581395348  L 10.0000000000003 44.6496124031012  Z " fill-rule="nonzero" fill="#ff6600" stroke="none" transform="matrix(1 0 0 1 743 545 )" />
  </g>
</svg>