<?xml version="1.0" encoding="utf-8"?>
<svg version="1.1" xmlns:xlink="http://www.w3.org/1999/xlink" width="326px" height="202px" xmlns="http://www.w3.org/2000/svg">
  <g transform="matrix(1 0 0 1 -128 -380 )">
    <path d="M 16.4399141630903 46.0701754385967  L 10.1437768240345 27.9964912280705  L 17.1575836955191 15.2653778558874  L 31.1309012875535 16.3017543859649  L 33.9291845493562 7.44210526315788  L 41.6684175462612 0  C 41.6684175462612 0  51.0518806597081 4.86790291829795  62.6115879828326 4.9614035087721  C 72.7732425721941 5.04359596207072  77.6523605150213 1.06502636203863  77.6523605150213 1.06502636203863  C 77.6523605150213 1.06502636203863  78.9944342163271 1.14368555953442  80.8004291845489 2.12631578947358  C 82.6064241527719 3.10894601941328  84.4981521756728 7.64460295555327  85.6974248927037 8.85964912280707  C 87.7961373390558 10.9859649122807  91.6437768240345 8.85964912280707  91.6437768240345 8.85964912280707  L 100.738197424893 11.3334420427708  L 110.881974248927 8.85964912280707  C 110.881974248927 8.85964912280707  116.193587659095 11.1633025898437  122.424892703862 10.2771929824564  C 131.58146845688 8.97510141620685  138.165236051502 3.54385964912277  138.165236051502 3.54385964912277  L 149.708154506437 4.25263157894717  L 157.753218884121 1.06502636203863  L 162.821967722784 1.06502636203863  L 175.942060085837 4.9614035087721  L 184 11.3334420427708  L 184 21.6175438596498  L 181.188841201717 23.7438596491227  L 179.789699570815 30.8315789473684  C 179.789699570815 30.8315789473684  184.68669527897 32.6035087719298  183.98712446352 37.9192982456141  C 183.287553648069 43.2350877192989  179.789699570815 55.284210526316  179.789699570815 55.284210526316  C 179.789699570815 55.284210526316  190.283261802575 73.3578947368417  194.130901287554 74.0666666666661  C 197.978540772532 74.7754385964915  201.826180257511 70.1684210526316  201.826180257511 70.1684210526316  L 204.624463519314 71.5859649122809  L 209.521459227468 79.7368421052631  C 209.521459227468 79.7368421052631  212.091384882127 80.6279588838065  215.467811158798 82.2175438596487  C 218.630710755602 83.7066027838483  223.097481970412 84.7636383428648  227.710300429185 86.6221441124779  C 230.584379130204 87.7801111766289  233.295905508519 89.8200795229483  236.454935622318 90.7228070175436  C 250.096566523605 94.6210526315787  259.190987124463 90.7228070175436  259.190987124463 90.7228070175436  L 268.38263358386 101.864595599921  L 271.43347639485 110.214035087719  L 278.778969957081 114.466666666667  L 283.326180257511 112.694736842106  L 286.474248927039 107.024561403509  L 288.922746781116 107.024561403509  L 291.721030042919 112.694736842106  L 298.716738197425 109.150877192983  L 298.716738197425 105.252631578947  L 302.214592274678 103.835087719299  L 302.214592274678 95.6842105263157  L 310.959227467811 103.835087719299  L 312.008583690987 110.214035087719  L 318.304721030043 116.944286413132  L 319.703862660945 130.059649122807  L 322.502145922746 139.628070175438  L 323.551502145923 141.754385964913  L 322.502145922746 151.322807017544  L 326 158.054547980118  L 322.502145922746 166.144112478032  L 314.806866952789 172.940350877193  L 316.206008583691 181.090470409895  L 309.210300429185 184.249560632689  C 309.210300429185 184.249560632689  305.362660944206 174.357894736842  299.766094420601 175.066666666666  C 294.169527896995 175.775438596492  296.967811158798 181.8  296.967811158798 181.8  L 294.869098712446 189.219683655536  L 286.474248927039 185.669595782073  L 278.778969957081 178  L 266.536480686695 178  L 249.047210300429 189.219683655536  L 241.002145922746 187.799648506151  L 235.405579399142 196.684210526316  L 228.409871244635 200.228070175439  L 209.521459227468 202  L 205.673819742489 193.849122807017  L 205.673819742489 185.669595782073  L 199.727467811159 185.669595782073  L 199.727467811159 178.256140350877  L 188.233669966081 176.388637956161  L 179.090128755365 171.522807017544  C 179.090128755365 171.522807017544  173.380186791568 167.833361954997  169.296137339056 168.333333333334  C 165.564431576673 168.790170620751  163.699570815451 171.522807017544  163.699570815451 171.522807017544  L 154.954935622318 185.669595782073  L 150.757510729613 179.319298245614  C 150.757510729613 179.319298245614  157.05364806867 173.294736842105  153.555793991416 170.105263157895  C 150.057939914163 166.915789473684  133.967811158798 170.105263157895  133.967811158798 170.105263157895  L 127.321888412017 170.105263157895  L 118.577253218884 164.080701754385  L 110.881974248927 166.144112478032  C 110.881974248927 166.144112478032  108.113546303509 160.045733211423  102.137339055794 156.284210526316  C 97.9893980014825 153.673428515996  93.3927038626605 153.80350877193  93.3927038626605 153.80350877193  L 90.944206008584 148.133333333333  L 81.8005767817587 142.788175214508  L 75.2038626609442 131.477192982456  L 69.3306443206695 132.773286467487  C 69.3306443206695 132.773286467487  64.8512734287786 126.002791395595  62.6115879828326 122.617543859649  C 60.9331527706693 121.607999578092  57.5762823463421 119.588911014978  57.5762823463421 119.588911014978  L 48.2703862660949 109.150877192983  L 46.5214592274678 102.771929824561  L 39.8755364806864 101.708771929824  L 35.3283261802572 107.733333333333  L 33.9291845493562 107.733333333333  L 26.261607697223 100.822495606327  L 14.0061907718524 86.6221441124779  L 8.05355969381519 78.8119507908613  L 1.4006190771853 78.8119507908613  L 0 68.8717047451672  L 3.8517024622593 61.0615114235501  L 1.4006190771853 57.1564147627417  L 2.45108338507455 48.6362038664321  L 4.89699570815421 54.5754385964911  L 10.1437768240345 54.5754385964911  C 10.1437768240345 54.5754385964911  13.6416309012877 52.2128654970762  15.3905579399143 51.0315789473682  C 15.7403433476392 49.3777777777777  16.4399141630903 46.0701754385967  16.4399141630903 46.0701754385967  Z " fill-rule="nonzero" fill="#3497dc" stroke="none" transform="matrix(1 0 0 1 128 380 )" />
  </g>
</svg>