<?xml version="1.0" encoding="utf-8"?>
<svg version="1.1" xmlns:xlink="http://www.w3.org/1999/xlink" width="100px" height="88px" xmlns="http://www.w3.org/2000/svg">
  <g transform="matrix(1 0 0 1 -531 -541 )">
    <path d="M 44.0093240093236 31.9827956989245  C 47.5524475524474 29.5225806451607  47.831997593821 28.6627853393656  47.3659673659678 25.1698924731185  C 47.0544187237771 22.8348378677403  45.128205128205 22.6465949820787  44.0093240093236 21.384946236559  C 42.2688422688419 21.0695340501797  38.787878787879 20.4387096774196  38.787878787879 20.4387096774196  C 38.787878787879 20.4387096774196  34.1888233528563 17.0365473407228  34.8717948717949 14.5720430107532  C 35.1917923200356 13.4173314672986  37.8494732352803 13.1968237988618  37.8494732352803 13.1968237988618  L 41.3986013986016 13.1968237988618  C 41.3986013986016 13.1968237988618  43.1390831390834 15.6276151014123  44.0093240093236 16.8430107526878  C 45.2328224879 16.5906810035846  47.6798194450527 16.0860215053761  47.6798194450527 16.0860215053761  L 48.857808857809 14.5720430107532  L 50.3496503496502 16.0860215053761  L 54.0792540792543 16.0860215053761  L 55.3846153846158 14.5720430107532  L 55.3846153846158 12.1118279569894  L 56.1305361305364 10.2193548387097  L 57.2494172494178 9.27311827957026  L 62.6573426573425 9.27311827957026  L 65.0815850815849 6.05591397849472  L 66.0139860139857 0.189247311827785  L 67.505827505828 0.189247311827785  C 67.505827505828 0.189247311827785  67.8787878787882 6.43440860215096  70.8624708624706 7.19139784946209  C 73.846153846154 7.9483870967739  75.7109557109555 1.70322580645193  75.7109557109555 1.70322580645193  L 77.3892773892774 1.70322580645193  L 79.44055944056 2.64946236559086  L 79.44055944056 7.19139784946209  L 81.3053613053615 10.2193548387097  L 82.4242424242423 16.8430107526878  L 86.7132867132868 16.8430107526878  L 87.6456876456875 20.4387096774196  C 87.6456876456875 20.4387096774196  88.7645687645683 22.1419354838708  91.0023310023307 22.3311827956993  C 93.2400932400935 22.5204301075271  93.4265734265731 18.7354838709676  93.4265734265731 18.7354838709676  L 94.3589743589744 18.7354838709676  L 93.4265734265731 17.6000000000003  L 95.8508158508155 16.8430107526878  L 97.3426573426578 17.6000000000003  L 95.8508158508155 20.4387096774196  L 95.104895104895 22.3311827956993  C 95.104895104895 22.3311827956993  97.9492972621351 29.3215584652438  97.1797768361956 31.2199190175681  C 96.4102564102566 33.1182795698924  91.0023310023307 37.0924731182796  91.0023310023307 37.0924731182796  C 91.0023310023307 37.0924731182796  89.3636505829263 42.1293475207493  91.0023310023307 43.3375114617956  C 93.0909090909093 44.8773753088263  98.4615384615386 40.877419354839  98.4615384615386 40.877419354839  L 99.3939393939389 46.1763440860214  L 98.4615384615386 48.2580645161289  L 97.1797768361956 55.0709677419354  L 99.3939393939389 60.18064516129  L 98.4615384615386 64.5333333333335  L 92.3076923076923 65.2903225806451  C 92.3076923076923 65.2903225806451  90.6915306915308 67.1827956989249  89.8834498834499 68.1290322580644  C 88.3294483294488 69.0121863799285  85.2214452214451 70.7784946236553  85.2214452214451 70.7784946236553  L 83.9160839160835 73.4279569892468  L 81.3053613053615 73.4279569892468  L 77.3892773892774 76.4559139784945  L 75.7109557109555 78.9161290322575  L 71.6016769234052 77.3065568565704  C 71.6016769234052 77.3065568565704  68.3738301477394 77.3065568565704  66.7599067599068 77.3065568565704  C 66.2004662004659 76.4552672950615  65.0815850815849 74.7526881720432  65.0815850815849 74.7526881720432  L 60.2331002331001 72.4817204301079  C 60.2331002331001 72.4817204301079  57.4980574980572 75.8881720430106  56.1305361305364 77.5913978494625  C 54.5414234798411 78.3937497627512  51.3631981784501 79.99845358933  51.3631981784501 79.99845358933  L 47.6798194450527 83.1199057646431  C 47.6798194450527 83.1199057646431  45.2328224879 83.9761693050606  44.0093240093236 84.4043010752689  C 43.3877233877233 85.5397849462369  42.1445221445221 87.8107526881722  42.1445221445221 87.8107526881722  L 35.6177156177154 87.8107526881722  L 29.8694081608862 85.373462524549  L 24.988344988345 84.4043010752689  L 17.5291375291375 87.8107526881722  L 20.6993006993005 78.9161290322575  L 14.1724941724943 73.4279569892468  L 14.1724941724943 68.1290322580644  C 14.1724941724943 68.1290322580644  17.7115007285443 63.4820279236561  17.5291375291375 57.7204301075269  C 17.4103484082995 53.9673969219582  14.9184149184149 51.0967741935482  14.9184149184149 51.0967741935482  L 11.5617715617718 50.3397849462371  L 8.01864801864792 50.3397849462371  L 6.15384615384645 52.9892473118279  L 2.42424242424242 51.0967741935482  L 0.559440559440464 46.1763440860214  L 0.559440559440464 43.1483870967738  L 2.42424242424242 39.5526881720433  L 7.27272727272732 39  L 17.5291375291375 39  L 20.6993006993005 39.5526881720433  C 20.6993006993005 39.5526881720433  24.1802641802639 37.9125448028675  25.9207459207462 37.0924731182796  C 27.2369666674594 36.0200716845877  29.8694081608862 33.1182795698924  29.8694081608862 33.1182795698924  L 32.0745920745922 34.4430107526881  C 32.0745920745922 34.4430107526881  40.4662004662004 34.4430107526881  44.0093240093236 31.9827956989245  Z " fill-rule="nonzero" fill="#169bd5" stroke="none" transform="matrix(1 0 0 1 531 541 )" />
  </g>
</svg>