<?xml version="1.0" encoding="utf-8"?>
<svg version="1.1" xmlns:xlink="http://www.w3.org/1999/xlink" width="100px" height="96px" xmlns="http://www.w3.org/2000/svg">
  <g transform="matrix(1 0 0 1 -757 -238 )">
    <path d="M 37.2946859903378 21.8268656716419  L 42.5120772946861 22.5910447761189  L 42.5120772946861 17.4328358208957  L 45.2173913043475 13.6597014925376  L 50.0483091787439 14.9492537313437  L 56.2318840579714 13.6597014925376  L 60.4830917874396 8.69253731343251  L 62.2222222222224 5.44477611940342  L 61.4492753623186 2.57910447761205  L 62.2222222222224 0.286567164179451  L 66.0869565217393 3.72537313432795  L 71.497584541063 2.57910447761205  L 72.2705314009661 5.44477611940342  L 74.975845410628 7.35522388059708  L 78.4541062801931 7.35522388059708  L 80.5797101449277 2.57910447761205  L 82.1256038647345 3.72537313432795  C 82.1256038647345 3.72537313432795  80.9661835748795 6.92537313432817  82.1256038647345 9.791044776119  C 83.2850241545901 12.6567164179105  84.4444444444445 13.6597014925376  84.4444444444445 13.6597014925376  L 91.4009661835746 18.6268656716416  L 91.4009661835746 27.2238805970153  L 92.1739130434783 31.4268656716415  C 92.1739130434783 31.4268656716415  97.1980676328502 34.292537313433  95.072463768116 33.9104477611941  C 92.946859903382 33.5283582089559  97.584541062802 33.9104477611941  97.584541062802 33.9104477611941  L 98.937198067633 35.4388059701489  L 99.9033816425126 42.5074626865665  L 97.584541062802 45.373134328358  L 87.5362318840578 56.0716417910448  L 82.1363207534515 68.4649559509259  L 82.1256038647345 68.4895522388059  L 80.2007755828992 69.0492564766845  L 75.7487922705317 70.5432835820895  L 73.0434782608693 70.5432835820895  L 68.985507246377 72.3104477611939  L 52.9468599033818 87.7373134328357  L 50.0483091787439 93.6597014925374  L 48.6956521739131 95.6179104477612  L 41.5458937198065 95.6179104477612  L 42.5120772946861 93.6597014925374  L 46.9565217391308 92.3701492537314  L 48.6956521739131 89.4567164179106  L 48.6956521739131 87.7373134328357  L 50.8212560386471 85.8746268656715  L 50.0483091787439 81.0985074626863  L 46.9565217391308 82.9611940298507  L 44.4444444444444 83.9164179104478  L 44.4444444444444 79.9044776119405  L 45.9903381642512 76.4656716417906  L 48.6076510362798 73.3831832474808  L 50.0483091787439 69.0492564766845  L 50.0483091787439 61.3731343283582  L 45.9903381642512 54.4189728907218  L 42.5120772946861 52.5850746268657  L 39.0338164251206 54.4189728907218  L 37.874272645401 54.4189728907218  L 36.3285024154593 55.2597014925377  L 33.4299516908214 56.0716417910448  L 29.7584541062806 60.0358208955222  L 22.9951690821259 72.3104477611939  L 19.5169082125603 73.217910447761  L 13.3333333333334 72.3104477611939  L 12.1739130434784 67.2955223880599  L 9.40746362773222 65.7056061009153  L 5.60386473429969 63.8567164179102  L 0.579710144927748 62.9014925373137  L 0 62.1373134328359  L 0.579710144927748 59.1283582089551  L 0.579710144927748 56.0716417910448  L 3.67149758454098 51.0567164179102  L 7.9227053140097 47.4746268656717  L 5.60386473429969 33.9104477611941  L 11.0144927536234 38.6388059701492  L 14.1062801932365 40.358208955224  L 18.5507246376812 37.4925373134332  L 26.8599033816427 27.2238805970153  L 30.9178743961356 25.6477611940299  L 33.4299516908214 21.0626865671641  L 37.2946859903378 21.8268656716419  Z " fill-rule="nonzero" fill="#4c48c7" stroke="none" transform="matrix(1 0 0 1 757 238 )" />
  </g>
</svg>