<?xml version="1.0" encoding="utf-8"?>
<svg version="1.1" xmlns:xlink="http://www.w3.org/1999/xlink" width="75px" height="77px" xmlns="http://www.w3.org/2000/svg">
  <g transform="matrix(1 0 0 1 -564 -484 )">
    <path d="M 0.0471698113204866 44.8881481481481  L 1.93396226415091 42.4925925925926  L 18.9150943396229 43.8234567901233  L 21.9339622641509 40.2111111111113  L 24.9528301886794 35.2679012345679  L 29.103773584906 33.366666666667  L 33.0660377358487 27.0925925925923  L 37.0283018867923 24.2407407407407  L 40.4245283018871 17.9666666666666  L 42.6886792452832 15.4570370370371  L 45.1415094339622 10.932098765432  L 46.0849056603774 4.84814814814829  L 51.5377358490569 0.171111111111353  L 58.5566037735851 6.33111111111079  L 61.72641509434 8.156296296296  L 65.8018867924526 7.24370370370366  L 71.0094339622644 9.29703703703711  C 71.0094339622644 9.29703703703711  73.7575153442138 11.2412887558486  74.4056603773585 15.4570370370371  C 74.9057540399887 18.7098105535391  73.4999999999997 21.3888888888891  73.4999999999997 21.3888888888891  L 66.8126684636119 24.2407407407407  L 61.72641509434 27.0925925925923  L 55.7075471698115 27.0925925925923  L 47.235849056604 28.4614814814814  L 45.1415094339622 34.2222222222225  L 47.9716981132073 39.111111111111  L 49.2735849056603 44.8881481481481  L 57.0283018867923 54.1851851851857  L 60.5943396226414 60.4022222222219  L 62.6320754716982 72.4940740740739  L 60.5943396226414 72.4940740740739  L 58.5566037735851 73.4827160493824  L 57.0283018867923 76.7148148148146  L 55.7075471698115 76.7148148148146  L 54.5754716981133 72.4940740740739  L 52.5000000000001 70.8209876543204  L 50.6132075471702 71.7716049382718  L 49.2735849056603 70.8209876543204  L 49.2735849056603 67.588888888889  L 47.9716981132073 63.9765432098768  C 47.9716981132073 63.9765432098768  47.2621570267576 57.0865500939138  44.3867924528303 56.3716049382715  C 41.1402272822725 55.5643625933483  37.0283018867923 62.0753086419754  37.0283018867923 62.0753086419754  L 36.2735849056605 62.0753086419754  L 34.9528301886791 56.3716049382715  C 34.9528301886791 56.3716049382715  34.3867924528301 54.6604938271602  32.122641509434 55.0407407407408  C 29.8584905660378 55.4209876543207  29.103773584906 57.8925925925924  29.103773584906 57.8925925925924  L 28.3490566037741 62.0753086419754  L 26.8396226415092 64.7370370370367  L 21.1792452830185 64.7370370370367  L 18.9150943396229 67.588888888889  L 16.8396226415096 69.1123673759386  L 17.594339622642 70.8209876543204  L 16.8396226415096 70.8209876543204  L 15.7075471698116 69.1123673759386  L 12.688679245283 69.1123673759386  L 11.1792452830188 71.7716049382718  L 9.29245283018884 71.7716049382718  C 9.29245283018884 71.7716049382718  11.501233149972 67.9617278717709  10.2358490566036 64.7370370370367  C 9.01206966853445 61.6183711733474  4.95283018867947 60.4022222222219  4.95283018867947 60.4022222222219  L 1.17924528301899 55.0407407407408  L 0.0471698113204866 49.3370370370369  L 0.0471698113204866 44.8881481481481  Z " fill-rule="nonzero" fill="#3497dc" stroke="none" transform="matrix(1 0 0 1 564 484 )" />
  </g>
</svg>