<?xml version="1.0" encoding="utf-8"?>
<svg version="1.1" xmlns:xlink="http://www.w3.org/1999/xlink" width="86px" height="156px" xmlns="http://www.w3.org/2000/svg">
  <g transform="matrix(1 0 0 1 -564 -338 )">
    <path d="M 25.302479338843 48.9377777777779  L 27.5768595041323 35.302222222222  L 34.8548760330581 37.6133333333331  L 40.0859504132233 39.462222222222  L 46.4542148760334 39.462222222222  L 48.7285950413224 35.302222222222  L 51.9127272727274 24.671111111111  L 51.9127272727274 18.8933333333336  L 59.1907438016529 12.191111111111  L 69.4254545454544 7.33777777777773  L 68.5157024793388 2.94666666666667  L 71.927272727273 2.94666666666667  L 76.9309090909091 5.48888888888882  L 78.2955371900825 0.173333333333579  L 82.1619834710745 0.173333333333579  L 83.5266115702479 3.87111111111086  L 76.9309090909091 9.18666666666678  L 79.6601652892564 13.8088888888889  L 79.5731579999141 16.5865132285179  L 74.201652892562 23.7466666666668  L 74.4458936342572 30.654488014277  L 76.9309090909091 32.2977777777779  L 78.2955371900825 35.302222222222  L 78.2955371900825 40.617777777778  L 74.201652892562 44.0844444444442  C 74.201652892562 44.0844444444442  72.8370247933881 48.0133333333332  73.0644628099178 54.2533333333332  C 73.2919008264464 60.4933333333333  75.3388429752061 64.8844444444443  75.3388429752061 64.8844444444443  L 76.9309090909091 70.6622222222223  L 73.0644628099178 90.9999999999996  L 71.927272727273 96.3155555555554  L 73.0644628099178 99.0888888888891  L 76.9309090909091 100.937777777778  C 76.9309090909091 100.937777777778  76.4760330578509 106.484444444444  76.9309090909091 109.72  C 77.385785123967 112.955555555556  84.436363636364 117.115555555556  84.436363636364 117.115555555556  L 85.5735537190082 124.973333333333  L 83.5266115702479 126.591111111111  L 79.6601652892564 125  L 69.4253755082849 125  C 69.4253755082849 125  65.7864199352684 124.973333333333  63.9669421487599 124.973333333333  C 63.5120661157027 125.512592592593  63.0571900826448 126.051851851852  62.6023140495866 126.591111111111  C 63.0571900826448 128.054814814816  62.1474380165288 128.44  63.9669421487599 130.52  C 65.7864462809917 132.6  69.4254545454544 133.062222222222  69.4254545454544 133.062222222222  L 73.0644628099178 137.915555555556  L 66.6961983471077 137.915555555556  L 62.6023140495866 141.151111111111  L 65.5590082644624 150.626666666666  L 66.6961983471077 155.48  L 63.9669421487599 155.48  L 61.2376859504132 155.48  L 51.9127272727274 148.546666666667  L 44.4072727272725 146.697777777778  L 37.8115702479339 148.546666666667  L 34.8548760330581 145.773333333333  L 30.5335537190082 141.151111111111  L 27.5768595041323 143.693333333333  L 25.302479338843 143.693333333333  L 23.2555371900826 140.226666666667  L 21.2085950413223 136.528888888889  L 8.24462809917367 140.226666666667  L 3.24099173553691 135.373333333334  L 0.511735537189727 124.973333333333  L 3.24099173553691 120.813333333333  L 7.3348760330575 119.657777777778  L 14.8403305785122 119.657777777778  L 13.9305785123968 112.031111111111  L 11.8836363636364 107.177777777778  L 10.9738842975209 100.937777777778  L 17.5695867768595 90.9999999999996  L 19.843966942149 90.9999999999996  L 28.9414876033057 95.3911111111113  C 28.9414876033057 95.3911111111113  31.2158677685952 95.3911111111113  32.3530578512394 95.3911111111113  C 33.1869972451791 94.2355555555554  34.8548760330581 91.9244444444443  34.8548760330581 91.9244444444443  L 30.5335537190082 89.3822222222223  C 30.5335537190082 89.3822222222223  31.2158677685952 86.3777777777781  36.6743801652892 84.9911111111112  C 42.1328925619831 83.604444444445  44.4072727272725 84.9911111111112  44.4072727272725 84.9911111111112  L 47.3639669421483 76.6711111111106  L 47.3639669421483 70.6622222222223  L 49.865785123967 66.5022222222221  L 47.3639669421483 61.8800000000001  L 44.4072727272725 59.5688888888884  L 36.6743801652892 57.72  L 30.5335537190082 52.8666666666663  L 25.302479338843 48.9377777777779  Z " fill-rule="nonzero" fill="#3497dc" stroke="none" transform="matrix(1 0 0 1 564 338 )" />
  </g>
</svg>