<?xml version="1.0" encoding="utf-8"?>
<svg version="1.1" xmlns:xlink="http://www.w3.org/1999/xlink" width="211px" height="156px" xmlns="http://www.w3.org/2000/svg">
  <g transform="matrix(1 0 0 1 -311 -336 )">
    <path d="M 32.6505823627288 37.3824884792628  L 22.1181364392682 21.9262672811064  L 20.7138103161397 11.5023041474658  L 26.3311148086527 8.95864989413333  L 31.8953488372089 8.95864989413333  L 37.1528239202662 7.87155963302758  L 41.3588039867109 8.95864989413333  L 46.9667774086382 6.08256880733961  L 52.2242524916944 6.08256880733961  L 56.4302325581391 4.29357798165097  L 61.6877076411958 2.86238532110105  L 67.7587354409314 0  L 75.7076411960132 2.14678899082616  L 82.7176079734219 1.43119266055113  L 90.0780730897012 4.29357798165097  L 93.9335548172759 7.15596330275269  L 100.242524916943 8.95864989413333  L 108.303986710964 16.1009174311927  L 113.56146179402 21.9262672811064  L 118.665557404326 22.9455100261551  L 122.674418604651 21.9262672811064  L 124.076411960133 16.1009174311927  L 124.076411960133 10.7339449541281  L 125.687188019966 8.95864989413333  L 134.591362126246 14.3119266055047  L 138.44684385382 16.1009174311927  L 143.353820598007 14.3119266055047  L 145.45681063123 14.3119266055047  L 148.85856905158 12.9036617262427  L 167.465890183028 28.6837090546765  L 171.04318936877 28.6837090546765  L 172.381031613977 25.8146095404164  L 182.211314475874 35.1391829617633  L 191.339434276206 42.6705691866981  L 198.361064891847 40.5187445510023  L 198.361064891847 45.4403669724771  L 202.93853820598 50.0917431192655  L 204.340531561462 53.6697247706422  L 206.255836862836 59.9469308958636  L 207.495016611295 68.294930875576  L 211 75.4954128440365  L 207.495016611295 83.7247706422021  L 202.93853820598 85.1559633027527  L 202.93853820598 89.0917431192655  L 200.134551495017 93.3853211009171  L 195.227574750831 93.3853211009171  L 188.918604651163 99.8256880733942  L 188.918604651163 101.614678899083  L 194.176079734219 105.192660550459  L 191.339434276206 109.128440366972  L 179.051580698835 107.942583136132  L 179.805647840532 123.08256880734  L 187.166112956811 126.302752293578  L 187.166112956811 128.807339449541  C 187.166112956811 128.807339449541  182.609634551495 126.660550458716  181.207641196014 127.376146788991  C 179.805647840532 128.091743119265  182.211314475874 138.387096774193  182.211314475874 138.387096774193  L 173.146179401993 138.387096774193  L 172.381031613977 143.834862385321  L 169.641196013289 139.183486238532  L 163.682724252492 137.394495412844  L 161.579734219269 132.63594470046  L 157.284525790349 135.511520737327  L 150.714285714286 127.376146788991  L 149.662790697674 124.51376146789  L 146.15780730897 123.08256880734  L 144.054817275748 118.788990825688  L 144.054817275748 115.023041474654  L 141.951827242525 110.201834862385  L 137.395348837209 110.201834862385  L 130.03488372093 109.128440366972  L 127.230897009967 107.942583136132  L 124.076411960133 111.990825688073  L 124.076411960133 117  L 125.687188019966 124.51376146789  L 122.674418604651 125.587155963303  L 122.674418604651 130.596330275229  L 119.519933554817 133.45871559633  L 117.100421110586 139.347933126299  L 118.665557404326 144.908256880735  L 115.313953488372 147.055045871559  L 114.612956810631 152.422018348624  L 111.107973421927 153.853211009174  L 108.303986710964 149.559633027523  L 104.799003322259 147.055045871559  L 101.995016611295 150.990825688073  L 100.242524916943 155.284403669725  L 97.2495840266227 156  L 92.1810631229233 153.853211009174  L 91.129568106312 149.559633027523  L 87.9750830564785 143.834862385321  L 85.5215946843858 142.403669724771  L 77.5890183028288 131.917050691245  L 70.0996677740859 133.45871559633  L 55.1198003327786 132.63594470046  L 43.4617940199331 127.376146788991  L 37.1528239202662 125.587155963303  L 28.4376039933443 121.133640552995  C 28.4376039933443 121.133640552995  24.2532020276285 113.064220183487  20.7138103161397 111.990825688073  C 17.1744186046514 110.91743119266  16.9148631080577 115.919266869739  13.3189368770767 115.023041474654  C 10.1379663056184 114.230236944184  8.61540001505657 111.969792257493  6.65946843853809 109.128440366972  C 2.98992852696593 103.797755853127  0 97.769585253456  0 97.769585253456  L 1.40432612312799 93.3853211009171  L 4.55647840531598 83.0091743119265  L 4.55647840531598 77.6422018348625  L 1.40432612312799 73.706422018349  L 1.40432612312799 68.294930875576  L 4.55647840531598 65.4770642201833  L 5.61730449251243 54.6359447004605  L 11.215946843854 54.6359447004605  L 16.8239202657807 56.8899082568808  L 24.8853820598008 58.6788990825688  L 28.4376039933443 56.8899082568808  L 28.4376039933443 52.2385321100916  L 26.3311148086527 44.5714285714285  L 32.6505823627288 37.3824884792628  Z " fill-rule="nonzero" fill="#3497dc" stroke="none" transform="matrix(1 0 0 1 311 336 )" />
  </g>
</svg>