<?xml version="1.0" encoding="utf-8"?>
<svg version="1.1" xmlns:xlink="http://www.w3.org/1999/xlink" width="189px" height="175px" xmlns="http://www.w3.org/2000/svg">
  <g transform="matrix(1 0 0 1 -749 -43 )">
    <path d="M 0.211567164179049 17.2839506172838  L 1.62201492537368 6.62551440329237  L 20.2399253731346 0.288065843621606  L 28.7026119402989 3.16872427983538  L 44.7817164179101 4.03292181069966  L 59.7324626865674 20.1646090534982  L 77.7861940298505 42.9218106995885  L 86.8130597014926 62.5102880658441  L 102.045895522388 63.3744855967078  L 119.253358208955 66.5432098765431  L 124.048880597015 69.7119341563785  L 129.126492537313 68.8477366255142  L 130.254850746269 75.185185185185  L 133.357835820895 77.4897119341562  L 136.178731343283 80.6584362139921  L 134.204104477612 83.2510288065843  L 141.256343283582 90.4526748971193  L 161.284701492537 86.1333108221585  L 164.951865671642 81.5226337448558  C 164.951865671642 81.5226337448558  164.669776119403 77.7777777777778  165.798134328358 75.185185185185  C 166.926492537313 72.5925925925929  172.286194029851 71.728395061728  172.286194029851 71.728395061728  C 172.286194029851 71.728395061728  174.260820895522 66.2551440329221  176.235447761194 64.8148148148153  C 178.210074626866 63.3744855967078  183.287686567164 62.5102880658441  183.287686567164 62.5102880658441  L 183.287686567164 68.8477366255142  L 184.980223880597 72.8806584362139  L 186.954850746268 75.185185185185  L 186.954850746268 78.641975308642  L 184.980223880597 81.5226337448558  L 185.53139990124 86.1333108221585  L 188.083208955224 100.534979423869  L 188.92947761194 116.954732510288  L 188.083208955224 120.411522633745  L 185.53139990124 127.037037037037  L 182.441417910448 130.493827160494  L 176.235447761194 130.493827160494  L 173.696958254377 129.62962962963  L 169.747388059702 129.62962962963  L 163.541417910448 135.967078189301  L 159.874253731344 143.168724279836  L 162.413059701493 148.641975308642  L 167.208582089552 154.40329218107  L 169.747388059702 169.094650205761  L 167.208582089552 169.094650205761  L 159.874253731344 165.637860082304  L 159.874253731344 162.757201646091  L 159.874253731344 160.164609053498  L 155.925 160.164609053498  L 154.514552238806 165.637860082304  L 153.66828358209 165.637860082304  L 149.436940298507 162.757201646091  C 149.436940298507 162.757201646091  144.923507462687 164.485596707819  143.230970149254 168.230452674897  C 141.538432835821 171.975308641975  144.407306287727 173.962587823295  144.407306287727 173.962587823295  L 141.256343283582 174.567901234568  L 135.332462686567 168.230452674897  L 130.254850746269 165.637860082304  L 130.254850746269 161.604938271605  L 128.280223880597 158.436213991769  L 125.741417910448 158.436213991769  L 124.048880597015 161.604938271605  L 124.048880597015 165.637860082304  L 123.202611940299 166.79012345679  L 120.945895522388 166.79012345679  L 120.099626865672 161.604938271605  L 112.483208955224 155.843621399177  L 111.636940298507 158.436213991769  L 108.251865671642 158.436213991769  L 108.251865671642 155.843621399177  L 105.430970149254 150.946502057613  L 95.5578358208952 150.946502057613  L 94.4294776119402 154.40329218107  C 94.4294776119402 154.40329218107  92.7369402985077 152.674897119341  91.8906716417915 151.810699588478  C 91.8906716417915 151.234567901234  91.8906716417915 150.082304526748  91.8906716417915 150.082304526748  L 88.505597014925 146.049382716049  L 83.4279850746267 148.641975308642  L 80.6070895522386 147.777777777778  L 76.9399253731348 148.641975308642  L 70.7339552238803 150.946502057613  L 68.47723880597 150.946502057613  L 62.8354477611938 146.049382716049  L 60.860820895522 141.152263374485  L 58.0399253731344 134.526748971193  L 50.7055970149252 138.847736625514  L 48.1667910447761 137.407407407407  L 47.3205223880599 127.901234567901  L 42.8070895522388 127.037037037037  L 42.8070895522388 125.020576131687  L 36.0369402985075 116.954732510288  L 39.9861940298507 111.481481481482  L 42.8070895522388 110.617283950617  L 44.7817164179101 107.736625514404  L 48.1667910447761 97.9423868312753  L 51.8339552238804 95.6378600823042  L 56.6294776119404 97.9423868312753  L 58.8861940298506 96.7901234567901  L 60.860820895522 88.4362139917692  L 58.8861940298506 84.4032921810695  L 59.7324626865674 78.641975308642  L 63.2414677401006 74.3209876543214  L 63.9638059701495 70.5761316872427  L 61.7070895522387 59.9176954732513  L 63.2414677401006 52.135093197214  L 61.7070895522387 48.1069958847741  L 62.8354477611938 41.7695473251033  L 56.6294776119404 29.9588477366254  L 51.8339552238804 27.0781893004109  L 46.4742537313436 29.9588477366254  L 44.7817164179101 33.4156378600824  L 39.9861940298507 34.5679012345677  L 33.7802238805967 38.6008230452679  L 31.2414179104481 40.0411522633748  L 26.445895522388 38.6008230452679  L 20.2399253731346 31.3991769547329  L 20.2399253731346 25.0617283950614  L 21.932462686567 21.8930041152267  L 13.4697761194033 18.7242798353907  L 10.6488805970147 20.1646090534982  L 8.95634328358229 23.3333333333336  L 2.75037313432824 23.3333333333336  L 1.62201492537368 20.1646090534982  L 0.211567164179049 17.2839506172838  Z " fill-rule="nonzero" fill="#169bd5" stroke="none" transform="matrix(1 0 0 1 749 43 )" />
  </g>
</svg>