<?xml version="1.0" encoding="utf-8"?>
<svg version="1.1" xmlns:xlink="http://www.w3.org/1999/xlink" width="16px" height="17px" xmlns="http://www.w3.org/2000/svg">
  <g transform="matrix(1 0 0 1 -764 -72 )">
    <path d="M 7.19101123595506 13.1612903225806  C 4.01382256277117 13.1612903225806  1.43820224719101 10.5423968162145  1.43820224719101 7.31182795698925  C 1.43820224719101 4.08125909776396  4.01382256277117 1.46236559139785  7.19101123595506 1.46236559139785  C 10.3681999091389 1.46236559139785  12.9438202247191 4.08125909776396  12.9438202247191 7.31182795698925  C 12.9438202247191 10.5423968162145  10.3681999091389 13.1612903225806  7.19101123595506 13.1612903225806  Z M 15.6354157303371 16.6292903225806  C 15.9158651685393 16.3433978494624  15.9158651685393 15.8805591397849  15.6354157303371 15.5946666666667  L 12.4174382022472 12.3233548387097  C 13.6796328002797 10.9705081357393  14.3828750085466 9.17658293461017  14.3820224719101 7.31182795698925  C 14.3820224719101 3.27350537634409  11.162606741573 0  7.19101123595506 0  C 3.21941573033708 0  0 3.27350537634409  0 7.31182795698925  C 0 11.3501505376344  3.21941573033708 14.6236559139785  7.19101123595506 14.6236559139785  C 8.67367163258346 14.6247055247815  10.119946636791 14.1568304672134  11.3294382022472 13.2848602150538  L 14.6178876404494 16.6292903225806  C 14.8990561797753 16.9144516129032  15.3542471910112 16.9144516129032  15.6354157303371 16.6292903225806  Z " fill-rule="nonzero" fill="#000000" stroke="none" transform="matrix(1 0 0 1 764 72 )" />
  </g>
</svg>