<?xml version="1.0" encoding="utf-8"?>
<svg version="1.1" xmlns:xlink="http://www.w3.org/1999/xlink" width="16px" height="3px" xmlns="http://www.w3.org/2000/svg">
  <g transform="matrix(1 0 0 1 -272 -123 )">
    <path d="M 0 1.57500002950279  C 0 2.3481986792659  0.596953666892276 2.97500002950279  1.33333333333333 2.97500002950279  C 2.06971299977439 2.97500002950279  2.66666666666667 2.3481986792659  2.66666666666667 1.57500002950279  C 2.66666666666667 0.801801320734096  2.06971299977439 0.174999970497207  1.33333333333333 0.174999970497207  C 0.596953666892276 0.174999970497207  0 0.801801320734096  0 1.57499997049721  Z M 6.66666666666667 1.575  C 6.66666666666667 2.34819864976311  7.26362033355894 2.975  8 2.975  C 8.73637966644106 2.975  9.33333333333333 2.34819864976311  9.33333333333333 1.575  C 9.33333333333333 0.801801350236889  8.73637966644106 0.175  8 0.175  C 7.26362033355894 0.175  6.66666666666667 0.801801350236889  6.66666666666667 1.575  Z M 13.3333333333333 1.575  C 13.3333333333333 2.34819864976311  13.9302870002256 2.975  14.6666666666667 2.975  C 15.4030463331077 2.975  16 2.34819864976311  16 1.575  C 16 0.801801350236889  15.4030463331077 0.175  14.6666666666667 0.175  C 13.9302870002256 0.175  13.3333333333333 0.801801350236889  13.3333333333333 1.575  Z " fill-rule="nonzero" fill="#303030" stroke="none" transform="matrix(1 0 0 1 272 123 )" />
  </g>
</svg>