<?xml version="1.0" encoding="utf-8"?>
<svg version="1.1" xmlns:xlink="http://www.w3.org/1999/xlink" width="6px" height="6px" xmlns="http://www.w3.org/2000/svg">
  <g transform="matrix(1 0 0 1 -271 -168 )">
    <path d="M 2.93949315990132 0.119296703296703  C 4.56293040434675 0.119296703296703  5.87898631980265 1.40903150044348  5.87898631980265 3  C 5.87898631980265 4.59096849955652  4.56293040434675 5.8807032967033  2.93949315990132 5.8807032967033  C 1.31605591545589 5.8807032967033  0 4.59096849955652  0 3  C 0 1.40903150044348  1.31605591545589 0.119296703296703  2.93949315990132 0.119296703296703  Z M 2.93949313070008 2.03976557151648  C 2.39834738466546 2.03976557151648  1.95966208122711 2.46967716888607  1.95966208122711 3  C 1.95966208122711 3.53032283111393  2.39834738466546 3.96023442848352  2.93949313070008 3.96023442848352  C 3.48063887673471 3.96023442848352  3.91932418017306 3.53032283111393  3.91932418017306 3  C 3.91932418017306 2.46967716888607  3.48063887673471 2.03976557151648  2.93949313070008 2.03976557151648  Z " fill-rule="nonzero" fill="#4a4e56" stroke="none" transform="matrix(1 0 0 1 271 168 )" />
  </g>
</svg>