<?xml version="1.0" encoding="utf-8"?>
<svg version="1.1" xmlns:xlink="http://www.w3.org/1999/xlink" width="16px" height="15px" xmlns="http://www.w3.org/2000/svg">
  <g transform="matrix(1 0 0 1 -271 -268 )">
    <path d="M 9.4463276779661 11.5740740798611  C 9.4463276779661 11.7786239840098  9.28444194032139 11.9444444444444  9.08474576271187 11.9444444444444  L 0.949152542372881 11.9444444444444  C 0.450144419431578 11.9438703837328  0.0457581846947105 11.5296553169017  0.0451977457627118 11.0185185243056  L 0.0451977457627118 3.98148147569444  C 0.0457581846947101 3.47034468309832  0.450144419431578 3.05612961626715  0.949152542372881 3.05555555555555  L 9.08474576271187 3.05555555555555  C 9.28444194032139 3.05555555555555  9.4463276779661 3.22137601599024  9.4463276779661 3.42592592013889  L 9.4463276779661 11.5740740798611  Z M 15.9548022542373 3.98148147569444  C 15.9542418153053 3.47034468309832  15.5498555805684 3.05612961626715  15.0508474576271 3.05555555555556  L 11.6158192033898 3.05555555555556  L 11.6158192033898 2.68518519097222  C 11.6158192033898 1.66412038194444  12.4268926440678 0.833333333333333  13.4237288135593 0.833333333333333  C 13.6234249958492 0.833333333333333  13.7853107372881 0.667512869012229  13.7853107372881 0.462962960069444  C 13.7853107372881 0.25841305112666  13.6234249958492 0.0925925868055552  13.4237288135593 0.0925925868055552  C 12.7520863197682 0.0907208752515087  12.1076282418551 0.364163667534611  11.6340113050847 0.851967586805555  C 11.4883220845697 1.00091677207395  11.3608003254497 1.16740930730578  11.2542372881356 1.34780092013889  C 11.1476742508215 1.16740930730578  11.0201524917014 1.00091677207395  10.8744632711864 0.851967586805555  C 10.4008463344161 0.36416366753461  9.75638825650303 0.0907208752515092  9.08474576271187 0.0925925868055555  C 8.88504958042196 0.0925925868055552  8.72316383898305 0.25841305112666  8.72316383898305 0.462962960069444  C 8.72316383898305 0.667512869012229  8.88504958042196 0.833333333333333  9.08474576271187 0.833333333333333  C 10.0815819152542 0.833333333333333  10.8926553728814 1.66412036458333  10.8926553728814 2.68518519097222  L 10.8926553728814 12.3148148090278  C 10.8926553728814 13.3358796180556  10.0815819322034 14.1666666666667  9.08474576271187 14.1666666666667  C 8.88504958042196 14.1666666666667  8.72316383898305 14.3324871309878  8.72316383898305 14.5370370399306  C 8.72316383898305 14.7415869488733  8.88504958042196 14.9074074131944  9.08474576271187 14.9074074131944  C 9.75638825650303 14.9092791247485  10.4008463344161 14.6358363324654  10.8744632711864 14.1480324131944  C 11.0201524917014 13.999083227926  11.1476742508215 13.8325906926942  11.2542372881356 13.6521990798611  C 11.3608003254497 13.8325906926942  11.4883220845697 13.999083227926  11.6340113050847 14.1480324131944  C 12.1076282418551 14.6358363324654  12.7520863197682 14.9092791247485  13.4237288135593 14.9074074131944  C 13.6234249958492 14.9074074131944  13.7853107372881 14.7415869488733  13.7853107372881 14.5370370399306  C 13.7853107372881 14.3324871309878  13.6234249958492 14.1666666666667  13.4237288135593 14.1666666666667  C 12.4268926610169 14.1666666666667  11.6158192033898 13.3358796354167  11.6158192033898 12.3148148090278  L 11.6158192033898 11.9444444444444  L 15.0508474576271 11.9444444444444  C 15.5498555805684 11.9438703837328  15.9542418153053 11.5296553169017  15.9548022542373 11.0185185243056  L 15.9548022542373 3.98148147569444  Z " fill-rule="nonzero" fill="#4a4e56" stroke="none" transform="matrix(1 0 0 1 271 268 )" />
  </g>
</svg>