<?xml version="1.0" encoding="utf-8"?>
<svg version="1.1" xmlns:xlink="http://www.w3.org/1999/xlink" width="16px" height="16px" xmlns="http://www.w3.org/2000/svg">
  <g transform="matrix(1 0 0 1 -271 -233 )">
    <path d="M 6.81481481481481 6.2060606  C 5.5071605 6.2060606  4.44444444444444 5.16421818181818  4.44444444444444 3.87878787272727  C 4.44444444444444 2.59335756363636  5.5071605 1.55151514545455  6.81481481481481 1.55151514545455  C 8.12246912962963 1.55151514545455  9.18518518518519 2.59335756363636  9.18518518518519 3.87878787272727  C 9.18518518518519 5.16421818181818  8.12246912962963 6.2060606  6.81481481481481 6.2060606  Z M 10.7654320925926 3.87878787272727  C 10.7654320925926 1.73653330909091  8.99555555555555 0  6.81481481481481 0  C 4.63407407407407 0  2.86419753703704 1.73653332727273  2.86419753703704 3.87878787272727  C 2.86419753703704 6.02104241818182  4.63407407407407 7.75757574545454  6.81481481481481 7.75757576363636  C 8.99555555555555 7.75757578181818  10.7654320925926 6.02104243636364  10.7654320925926 3.87878787272727  Z M 1.67901235185185 13.5757575818182  C 1.67901235185185 13.3077333454545  1.71456790740741 13.0478545454545  1.77777777777778 12.8  C 2.12938272222222 11.4618181818182  3.36592592592593 10.4727272727273  4.83950616666667 10.4727272727273  L 8.01975309259259 10.4727272727273  C 8.23793965701782 10.4727272727273  8.41481481481481 10.2990680268902  8.41481481481481 10.0848484909091  C 8.41481481481481 10.3434343454545  8.41481481481481 9.82626263636364  8.41481481481482 10.0848484909091  L 8.41481481481482 9.30909090909091  C 8.41481481481482 9.09487137310978  8.23793965701782 8.92121212727273  8.01975309259259 8.92121212727273  L 4.83950616666667 8.92121212727273  C 2.22024690740741 8.92121212727273  0.0987654259259259 11.0052848545455  0.0987654259259259 13.5757575818182  L 0.0987654259259259 15.1272727272727  C 0.0987654259259259 15.5558787818182  0.454320981481481 15.9030303090909  0.888888888888889 15.9030303090909  L 8.01975309259259 15.9030303090909  C 8.23793965701782 15.9030303090909  8.41481481481482 15.7293710632539  8.41481481481482 15.5151515272727  L 8.41481481481482 14.7393939454545  C 8.41481481481482 14.5251743912916  8.23793965701782 14.3515151454545  8.01975309259259 14.3515151454545  L 1.67901235185185 14.3515151454545  L 1.67901235185185 13.5757575818182  Z M 13.135802462963 9.69696969090909  L 12.3456790185185 9.69696969090909  C 12.1274924355748 9.69696969090909  11.9506172777778 9.87062893674615  11.9506172777778 10.0848484727273  L 11.9506172777778 12.0242424181818  L 9.97530864814815 12.0242424181818  C 9.75712206520441 12.0242424181818  9.58024690740741 12.1979016640189  9.58024690740741 12.4121212  L 9.58024690740741 13.1878787818182  C 9.58024690740741 13.4020983359811  9.75712206520441 13.5757575818182  9.97530862962963 13.5757575818182  L 11.9506172777778 13.5757575818182  L 11.9506172777778 15.5151515090909  C 11.9506172777778 15.7293710632539  12.1274924355748 15.9030303090909  12.345679 15.9030303090909  L 13.135802462963 15.9030303090909  C 13.3539890459067 15.9030303090909  13.5308642037037 15.7293710632539  13.5308642037037 15.5151515272727  L 13.5308642037037 13.5757575818182  L 15.5061728333333 13.5757575818182  C 15.7243594162771 13.5757575818182  15.9012345740741 13.4020983359811  15.9012345740741 13.1878788  L 15.9012345740741 12.4121212181818  C 15.9012345740741 12.1979016640189  15.7243594162771 12.0242424181818  15.5061728518519 12.0242424181818  L 13.5308642037037 12.0242424181818  L 13.5308642037037 10.0848484909091  C 13.5308642037037 9.87062893674615  13.3539890459067 9.69696969090909  13.1358024814815 9.69696969090909  Z " fill-rule="nonzero" fill="#4a4e56" stroke="none" transform="matrix(1 0 0 1 271 233 )" />
  </g>
</svg>