<?xml version="1.0" encoding="utf-8"?>
<svg version="1.1" xmlns:xlink="http://www.w3.org/1999/xlink" width="16px" height="16px" xmlns="http://www.w3.org/2000/svg">
  <g transform="matrix(1 0 0 1 -271 -198 )">
    <path d="M 3 0  C 4.65685424949238 0  6 1.34314575050762  6 3  C 6 4.65685424949238  4.65685424949238 6  3 6  C 1.34314575050762 6  0 4.65685424949238  0 3  C 0 1.34314575050762  1.34314575050762 0  3 0  Z M 3 2  C 2.44771525016921 2  2 2.44771525016921  2 3  C 2 3.55228474983079  2.44771525016921 4  3 4  C 3.55228474983079 4  4 3.55228474983079  4 3  C 4 2.44771525016921  3.55228474983079 2  3 2  Z M 3 10  C 4.65685424949238 10  6 11.3431457505076  6 13  C 6 14.6568542494924  4.65685424949238 16  3 16  C 1.34314575050762 16  0 14.6568542494924  0 13  C 0 11.3431457505076  1.34314575050762 10  3 10  Z M 3 12  C 2.44771525016921 12  2 12.4477152501692  2 13  C 2 13.5522847498308  2.44771525016921 14  3 14  C 3.55228474983079 14  4 13.5522847498308  4 13  C 4 12.4477152501692  3.55228474983079 12  3 12  Z M 13 10  C 14.6568542494924 10  16 11.3431457505076  16 13  C 16 14.6568542494924  14.6568542494924 16  13 16  C 11.3431457505076 16  10 14.6568542494924  10 13  C 10 11.3431457505076  11.3431457505076 10  13 10  Z M 13 12  C 12.4477152501692 12  12 12.4477152501692  12 13  C 12 13.5522847498308  12.4477152501692 14  13 14  C 13.5522847498308 14  14 13.5522847498308  14 13  C 14 12.4477152501692  13.5522847498308 12  13 12  Z " fill-rule="nonzero" fill="#4a4e56" stroke="none" transform="matrix(1 0 0 1 271 198 )" />
  </g>
</svg>