<?xml version="1.0" encoding="utf-8"?>
<svg version="1.1" xmlns:xlink="http://www.w3.org/1999/xlink" width="11px" height="12px" xmlns="http://www.w3.org/2000/svg">
  <g transform="matrix(1 0 0 1 -276 -165 )">
    <path d="M 0.00120728596946167 5.02016895052702  L 4.94623478506812 5.02016895052702  L 4.94623478506812 6.97983104947298  L 0.00120728596946167 6.97983104947298  L 0.00120728596946167 5.02016895052702  Z M 6.92424579166152 0.121013680197354  L 8.90225679825493 0.121013680197354  C 9.99468210766778 0.121013686538905  10.8802677932584 0.998384296699051  10.8802677932584 2.0806757906257  L 10.8802677932584 9.9193242093743  C 10.8802677932584 11.0016157033009  9.99468210766778 11.8789863134611  8.90225679825493 11.8789863198026  L 6.92424579166152 11.8789863198026  C 5.83182047772253 11.8789863198026  4.94623478506811 11.0016157077851  4.94623478506812 9.9193242093743  L 4.94623478506811 2.0806757906257  C 4.94623478506811 0.998384292214896  5.83182047772253 0.121013680197354  6.92424579166152 0.121013680197354  Z M 8.90225679825493 9.9193242093743  L 8.90225679825493 2.0806757906257  L 6.92424579166152 2.0806757906257  L 6.92424579166152 9.9193242093743  L 8.90225679825493 9.9193242093743  Z " fill-rule="nonzero" fill="#4a4e56" stroke="none" transform="matrix(1 0 0 1 276 165 )" />
  </g>
</svg>