<?xml version="1.0" encoding="utf-8"?>
<svg version="1.1" xmlns:xlink="http://www.w3.org/1999/xlink" width="16px" height="18px" xmlns="http://www.w3.org/2000/svg">
  <g transform="matrix(1 0 0 1 -271 -302 )">
    <path d="M 15.8589690980392 1.59979157522124  C 15.8589490196078 1.32119107964602  15.63648 1.0952563539823  15.362048 1.0952563539823  L 11.097409254902 1.0952563539823  C 11.097409254902 1.0952563539823  10.4533935686275 1.11558456637168  9.94743717647059 0.558770973451327  C 9.74360094117647 0.318828743362832  9.40224752941177 0.0849625486725664  8.84111560784314 0.0649809557522123  L 8.03360125490196 0.0649809557522123  L 7.91046023529412 0.0649809557522123  L 7.10296596078431 0.0649809557522123  C 6.54181396078431 0.0849829380530972  6.20038023529412 0.318849132743363  5.99664439215686 0.558770973451327  C 5.49060768627451 1.11558456637168  4.84665223529412 1.0952563539823  4.84665223529412 1.0952563539823  L 0.582013490196079 1.0952563539823  C 0.307641725490196 1.0952563539823  0.0851727058823531 1.32117069026549  0.0851727058823531 1.59979157522124  L 0.0851727058823531 3.4533697699115  C 0.0841286274509807 3.98952892035398  0.596610509803922 3.97896722123894  0.596610509803922 3.97896722123894  L 1.57382776470588 3.97896722123894  L 1.57382776470588 16.9178846017699  C 1.57382776470588 16.9178846017699  1.49604392156863 17.7956678230088  2.36052078431373 17.8429507964602  L 7.64124862745098 17.8429507964602  L 8.30279278431372 17.8429507964602  L 8.90687247058823 17.8477015221239  L 9.66178133333333 17.8477015221239  L 13.0918600784314 17.8477015221239  L 13.5682810980392 17.8477015221239  L 13.5836210196078 17.8429507964602  C 14.447937254902 17.7956678230089  14.3702337254902 16.9178846017699  14.3702337254902 16.9178846017699  L 14.3702337254902 3.97896722123894  L 15.3475312941176 3.97896722123894  C 15.3475312941176 3.97896722123894  15.8599529411765 3.98952892035398  15.8589690980392 3.45336976991151  L 15.8589690980392 1.59979157522124  Z M 6.24587796078431 5.11200509734513  L 6.24587796078431 14.7180131681416  C 6.24587796078431 15.0573536283186  5.97473882352941 15.3325898761062  5.64067388235294 15.3325898761062  C 5.30650854901961 15.3325898761062  5.03546980392157 15.0573332389381  5.03546980392157 14.7180131681416  L 5.03546980392157 5.11200509734513  C 5.03546980392157 4.77266463716814  5.30652862745098 4.49742838938053  5.64067388235294 4.49742838938053  C 5.97475890196078 4.49742838938053  6.24587796078431 4.77268502654867  6.24587796078431 5.11200509734513  Z M 10.8124762352941 5.11200509734513  L 10.8124762352941 14.7180131681416  C 10.8124762352941 15.0573536283186  10.5414174117647 15.3325898761062  10.2072721568627 15.3325898761062  C 9.8731871372549 15.3325898761062  9.60206807843137 15.0573332389381  9.60206807843137 14.7180131681416  L 9.60206807843137 5.11200509734513  C 9.60206807843137 4.77266463716814  9.87320721568627 4.49742838938053  10.2072721568627 4.49742838938053  C 10.5414174117647 4.49742838938053  10.8124762352941 4.77268502654867  10.8124762352941 5.11200509734513  Z " fill-rule="nonzero" fill="#4a4e56" stroke="none" transform="matrix(1 0 0 1 271 302 )" />
  </g>
</svg>