<?xml version="1.0" encoding="utf-8"?>
<svg version="1.1" xmlns:xlink="http://www.w3.org/1999/xlink" width="12px" height="12px" xmlns="http://www.w3.org/2000/svg">
  <g transform="matrix(1 0 0 1 -146 -410 )">
    <path d="M 2.18236363636364 3.27272727272727  L 9.81818181818182 3.27327272727273  L 9.81981818181818 10.9090909090909  L 9.81763636363636 10.9090909090909  L 2.18181818181818 10.9085454545455  L 2.18236363636364 3.27272727272727  Z M 3.81818181818182 2.18181818181818  L 3.81818181818182 1.09090909090909  L 8.18181818181818 1.09090909090909  L 8.18181818181818 2.18181818181818  L 3.81818181818182 2.18181818181818  Z M 11.4545454545455 2.18181818181818  L 9.27272727272727 2.18181818181818  L 9.27272727272727 0.726545454545454  C 9.27272727272727 0.375818181818182  8.98690909090909 0  8.18454545454545 0  L 3.81545454545455 0  C 3.01309090909091 0  2.72727272727273 0.375818181818182  2.72727272727273 0.726545454545454  L 2.72727272727273 2.18181818181818  L 0.545454545454545 2.18181818181818  C 0.244208318274113 2.18181818181818  0 2.42602650009229  0 2.72727272727273  C 0 3.02851895445316  0.244208318274113 3.27272727272727  0.545454545454545 3.27272727272727  L 1.09090909090909 3.27272727272727  L 1.09090909090909 10.9085454545455  C 1.09090909090909 11.5107272727273  1.58018181818182 12  2.18236363636364 12  L 9.81763636363636 12  C 10.4203053591723 11.9996990416438  10.9087899507347 11.5112144500814  10.9090909090909 10.9085454545455  L 10.9090909090909 3.27272727272727  L 11.4545454545455 3.27272727272727  C 11.7557916817259 3.27272727272727  12 3.02851895445316  12 2.72727272727273  C 12 2.42602650009229  11.7557916817259 2.18181818181818  11.4545454545455 2.18181818181818  Z M 7.09090909090909 8.49818181818182  C 7.09090909090909 8.79942804536225  7.3351174091832 9.04363636363636  7.63636363636364 9.04363636363636  C 7.93760986354407 9.04363636363636  8.18181818181818 8.79942804536225  8.18181818181818 8.49818181818182  L 8.18181818181818 4.90909090909091  C 8.18181818181818 4.60784468191048  7.93760986354407 4.36363636363636  7.63636363636364 4.36363636363636  C 7.3351174091832 4.36363636363636  7.09090909090909 4.60784468191048  7.09090909090909 4.90909090909091  L 7.09090909090909 8.49818181818182  Z M 3.81818181818182 8.49818181818182  C 3.81818181818182 8.79942804536225  4.06239013645593 9.04363636363636  4.36363636363636 9.04363636363636  C 4.6648825908168 9.04363636363636  4.90909090909091 8.79942804536225  4.90909090909091 8.49818181818182  L 4.90909090909091 4.90909090909091  C 4.90909090909091 4.60784468191048  4.6648825908168 4.36363636363636  4.36363636363636 4.36363636363636  C 4.06239013645593 4.36363636363636  3.81818181818182 4.60784468191048  3.81818181818182 4.90909090909091  L 3.81818181818182 8.49818181818182  Z " fill-rule="nonzero" fill="#ff0000" stroke="none" transform="matrix(1 0 0 1 146 410 )" />
  </g>
</svg>