<?xml version="1.0" encoding="utf-8"?>
<svg version="1.1" xmlns:xlink="http://www.w3.org/1999/xlink" width="96px" height="96px" xmlns="http://www.w3.org/2000/svg">
  <g transform="matrix(1 0 0 1 -331 -518 )">
    <path d="M 379 518  C 405.88 518  427 539.12  427 566  C 427 592.88  405.88 614  379 614  C 352.12 614  331 592.88  331 566  C 331 539.12  352.12 518  379 518  Z " fill-rule="nonzero" fill="#ffffff" stroke="none" />
    <path d="M 379 518.5  C 405.6 518.5  426.5 539.4  426.5 566  C 426.5 592.6  405.6 613.5  379 613.5  C 352.4 613.5  331.5 592.6  331.5 566  C 331.5 539.4  352.4 518.5  379 518.5  Z " stroke-width="1" stroke="#797979" fill="none" />
  </g>
</svg>