<?xml version="1.0" encoding="utf-8"?>
<svg version="1.1" xmlns:xlink="http://www.w3.org/1999/xlink" width="128px" height="128px" xmlns="http://www.w3.org/2000/svg">
  <g transform="matrix(1 0 0 1 -33 -716 )">
    <path d="M 97 716  C 132.84 716  161 744.16  161 780  C 161 815.84  132.84 844  97 844  C 61.16 844  33 815.84  33 780  C 33 744.16  61.16 716  97 716  Z " fill-rule="nonzero" fill="#ffffff" stroke="none" />
    <path d="M 97 716.5  C 132.56 716.5  160.5 744.44  160.5 780  C 160.5 815.56  132.56 843.5  97 843.5  C 61.44 843.5  33.5 815.56  33.5 780  C 33.5 744.44  61.44 716.5  97 716.5  Z " stroke-width="1" stroke="#797979" fill="none" />
  </g>
</svg>